<?xml version="1.0" encoding="utf-8"?>
<!-- Generator: Adobe Illustrator 26.0.1, SVG Export Plug-In . SVG Version: 6.00 Build 0)  -->
<svg version="1.1" id="Layer_1" xmlns="http://www.w3.org/2000/svg" xmlns:xlink="http://www.w3.org/1999/xlink" x="0px" y="0px"
	 viewBox="0 0 250 250" style="enable-background:new 0 0 250 250;" xml:space="preserve">
<style type="text/css">
	.st0{clip-path:url(#SVGID_00000018949153687099310540000006746618613577380256_);}
	.st1{fill:#FFFFFF;}
	.st2{fill:#035397;}
	.st3{enable-background:new    ;}
	.st4{fill:#F1F1F1;}
	.st5{fill:#757575;}
	.st6{fill:#CACACA;}
	.st7{fill:#EAEAEA;}
	.st8{fill:#EEEEEE;}
	.st9{fill:#1A1818;}
</style>
<g>
	<defs>
		<rect id="SVGID_1_" y="0" width="250" height="250"/>
	</defs>
	<clipPath id="SVGID_00000175281832365711579800000016625570592641259661_">
		<use xlink:href="#SVGID_1_"  style="overflow:visible;"/>
	</clipPath>
	<g id="_3D-Max" style="clip-path:url(#SVGID_00000175281832365711579800000016625570592641259661_);">
		<rect y="0" class="st1" width="250" height="250"/>
		<path id="Rectangle_1" class="st2" d="M7,0h236c3.9,0,7,3.1,7,7v236c0,3.9-3.1,7-7,7H7c-3.9,0-7-3.1-7-7V7C0,3.1,3.1,0,7,0z"/>
		<g class="st3">
			<path class="st4" d="M93.7,26.1c0.6,0.1,1.1,0.3,1.5,0.6c0.4,0.3,0.7,0.8,1,1.3c0.2,0.5,0.3,1.1,0.3,1.7c0,0.8-0.2,1.6-0.6,2.2
				c-0.4,0.6-1,1.1-1.7,1.5c-0.7,0.3-1.6,0.5-2.5,0.5c-1,0-1.9-0.2-2.7-0.6c-0.8-0.4-1.4-0.9-1.8-1.6l1.2-1.2c0.3,0.5,0.7,1,1.2,1.3
				c0.5,0.3,1.2,0.5,2,0.5c0.9,0,1.6-0.2,2.2-0.6c0.5-0.4,0.8-1.1,0.8-1.9c0-0.9-0.3-1.5-0.9-2.1c-0.6-0.5-1.4-0.8-2.5-0.8h-0.5
				v-1.5h0.6c1,0,1.7-0.2,2.2-0.7c0.5-0.5,0.8-1.1,0.8-1.8c0-0.5-0.1-0.9-0.3-1.2c-0.2-0.3-0.5-0.5-0.9-0.7
				c-0.4-0.2-0.8-0.2-1.3-0.2c-0.7,0-1.4,0.2-1.9,0.5c-0.6,0.3-1,0.8-1.3,1.3l-1.1-1.1c0.2-0.5,0.6-0.8,1-1.2c0.4-0.3,1-0.6,1.6-0.8
				c0.6-0.2,1.2-0.3,1.9-0.3c0.8,0,1.6,0.1,2.2,0.4c0.6,0.3,1.1,0.7,1.5,1.3c0.4,0.5,0.5,1.2,0.5,1.9c0,0.5-0.1,1-0.3,1.5
				c-0.2,0.5-0.5,0.9-0.9,1.2C94.7,25.8,94.2,26,93.7,26.1z"/>
			<path class="st4" d="M98.1,25.8c0-1,0.2-1.9,0.6-2.7c0.4-0.8,1-1.5,1.7-2c0.7-0.5,1.5-0.7,2.5-0.7c0.8,0,1.6,0.2,2.3,0.7
				c0.7,0.4,1.2,1,1.6,1.6v-6.3h1.8V29c0,0.2,0,0.4,0.1,0.5c0.1,0.1,0.2,0.2,0.4,0.2V31c-0.3,0.1-0.6,0.1-0.8,0.1
				c-0.3,0-0.6-0.1-0.9-0.4c-0.3-0.2-0.4-0.5-0.4-0.8V29c-0.4,0.7-1,1.2-1.7,1.6s-1.4,0.6-2.2,0.6c-0.7,0-1.4-0.1-2-0.4
				c-0.6-0.3-1.1-0.7-1.6-1.2s-0.8-1.1-1-1.7C98.2,27.2,98.1,26.6,98.1,25.8z M106.6,27.4v-3c-0.2-0.4-0.4-0.9-0.8-1.2
				s-0.8-0.7-1.2-0.9c-0.4-0.2-0.9-0.3-1.3-0.3c-0.5,0-1,0.1-1.4,0.3c-0.4,0.2-0.8,0.5-1.1,0.9c-0.3,0.4-0.5,0.8-0.7,1.2
				c-0.2,0.5-0.2,0.9-0.2,1.4c0,0.5,0.1,1,0.3,1.5c0.2,0.5,0.4,0.9,0.8,1.2s0.7,0.6,1.1,0.8c0.4,0.2,0.9,0.3,1.4,0.3
				c0.3,0,0.6-0.1,1-0.2c0.3-0.1,0.7-0.3,1-0.5c0.3-0.2,0.6-0.5,0.8-0.7S106.6,27.7,106.6,27.4z"/>
			<path class="st4" d="M114.9,31.2c-0.9,0-1.7-0.1-2.4-0.4c-0.8-0.3-1.4-0.7-2-1.3l0.7-1.2c0.6,0.6,1.2,1,1.8,1.2
				c0.6,0.2,1.2,0.4,1.8,0.4c0.7,0,1.3-0.1,1.8-0.4c0.5-0.3,0.7-0.7,0.7-1.2c0-0.4-0.1-0.7-0.4-0.9s-0.6-0.3-1-0.5
				c-0.4-0.1-0.9-0.3-1.5-0.4c-0.7-0.2-1.3-0.4-1.8-0.7c-0.5-0.2-0.9-0.5-1.1-0.9c-0.3-0.4-0.4-0.8-0.4-1.3c0-0.7,0.2-1.2,0.5-1.7
				c0.3-0.5,0.8-0.8,1.4-1c0.6-0.2,1.3-0.4,2.1-0.4c0.8,0,1.5,0.1,2.1,0.4c0.6,0.2,1.2,0.6,1.6,1.1l-0.8,1.2
				c-0.4-0.4-0.9-0.7-1.4-0.9c-0.5-0.2-1-0.3-1.7-0.3c-0.4,0-0.7,0-1.1,0.1s-0.6,0.2-0.9,0.5c-0.2,0.2-0.3,0.5-0.3,0.9
				c0,0.3,0.1,0.6,0.3,0.8c0.2,0.2,0.4,0.4,0.8,0.5c0.4,0.1,0.8,0.3,1.3,0.4c0.8,0.2,1.5,0.4,2,0.7s1,0.5,1.4,0.9
				c0.3,0.4,0.5,0.9,0.5,1.5c0,1-0.4,1.7-1.1,2.3C117.1,30.9,116.1,31.2,114.9,31.2z"/>
			<path class="st4" d="M138.7,31V20.2l-4.7,8.3h-1.1l-4.7-8.3V31h-1.8V16.8h1.9l5.1,9.2l5.2-9.2h1.9V31H138.7z"/>
			<path class="st4" d="M142.7,28c0-0.7,0.2-1.2,0.6-1.7c0.4-0.5,0.9-0.9,1.6-1.1c0.7-0.3,1.4-0.4,2.3-0.4c0.5,0,1,0,1.5,0.1
				c0.5,0.1,1,0.2,1.4,0.3v-0.8c0-0.8-0.2-1.4-0.7-1.9c-0.5-0.5-1.2-0.7-2-0.7c-0.6,0-1.1,0.1-1.7,0.3c-0.5,0.2-1.1,0.5-1.7,0.9
				l-0.6-1.2c0.7-0.5,1.4-0.8,2-1.1c0.7-0.2,1.4-0.3,2.1-0.3c1.3,0,2.4,0.4,3.2,1.1c0.8,0.7,1.2,1.8,1.2,3.1V29c0,0.2,0,0.4,0.1,0.5
				c0.1,0.1,0.2,0.2,0.4,0.2V31c-0.2,0-0.3,0-0.5,0.1c-0.1,0-0.2,0-0.3,0c-0.4,0-0.7-0.1-0.9-0.3c-0.2-0.2-0.3-0.5-0.3-0.7l0-0.7
				c-0.5,0.6-1,1-1.8,1.4c-0.7,0.3-1.5,0.5-2.2,0.5c-0.7,0-1.3-0.1-1.9-0.4c-0.5-0.3-1-0.7-1.3-1.2C142.9,29.1,142.7,28.6,142.7,28z
				 M149.5,28.7c0.2-0.2,0.3-0.4,0.4-0.6c0.1-0.2,0.1-0.4,0.1-0.5v-1.3c-0.4-0.2-0.8-0.3-1.3-0.4c-0.5-0.1-0.9-0.1-1.3-0.1
				c-0.9,0-1.6,0.2-2.2,0.5c-0.6,0.3-0.8,0.8-0.8,1.4c0,0.3,0.1,0.7,0.3,1c0.2,0.3,0.4,0.6,0.8,0.8c0.4,0.2,0.8,0.3,1.3,0.3
				c0.5,0,1.1-0.1,1.6-0.3C148.8,29.3,149.2,29.1,149.5,28.7z"/>
			<path class="st4" d="M155.4,20.6l2.8,3.8l0.2,0.3l0.2-0.3l2.7-3.8h2l-3.9,5.2l3.9,5.2h-2l-2.8-3.8l-0.2-0.3l-0.2,0.3l-2.8,3.8h-2
				l3.9-5.2l-3.9-5.2H155.4z"/>
		</g>
		<path id="Rectangle_4" class="st5" d="M64,95.2h136l0,0v112l0,0H67.6c-1.9,0-3.5-1.6-3.5-3.5V95.2L64,95.2z"/>
		<path id="Rectangle_5" class="st6" d="M74.7,69h111.5c2.7,0,4.8,2.2,4.8,4.8l0,0v107.9l0,0H74.7l0,0V69L74.7,69z"/>
		<path id="Path_330" class="st7" d="M50,197.3l24.7-15.5V69L50,84.5V197.3z"/>
		<g id="Group_263" transform="translate(173.051 358.739)">
			<path id="Path_337" class="st8" d="M-59.2-204.9c-3.9-3.4-6.3-8.1-6.7-13.2h14.7c0.2,2,1.1,3.9,2.7,5.3c1.5,1.4,3.8,2.1,6.7,2.1
				c2.4,0.1,4.8-0.6,6.7-2.1c1.6-1.4,2.4-3.4,2.4-6.2v-1.9c0-3.1-1.1-5.1-3.4-6.3c-2.5-1.2-5.2-1.8-7.9-1.7H-49v-10.5h4.9
				c2.3,0.1,4.5-0.4,6.5-1.5c1.8-1.1,2.8-3.1,2.6-5.1v-2.2c0.1-1.8-0.6-3.5-1.9-4.6c-1.6-1.1-3.5-1.7-5.4-1.6
				c-2.1-0.1-4.2,0.6-5.8,2c-1.4,1.4-2.2,3.3-2.3,5.3h-14.7c0.2-3.3,1.2-6.4,3.1-9.1c2.1-2.9,4.9-5.2,8.1-6.7
				c3.9-1.8,8.2-2.6,12.5-2.5c3.9-0.1,7.7,0.6,11.3,2c3,1.2,5.7,3.1,7.8,5.6c1.9,2.3,2.9,5.2,2.8,8.1v3.4c-0.1,2.7-1.2,5.3-3.2,7.1
				c-2.2,2.2-5,3.6-8,4.3c3.5,0.6,6.8,2.1,9.5,4.4c2.7,2.2,4.3,5.6,4.1,9.1v4.2c0,3.3-1.1,6.5-3.1,9c-2.3,2.8-5.2,5-8.5,6.3
				c-3.9,1.6-8.1,2.4-12.3,2.3C-49.2-199.6-55.3-201.4-59.2-204.9z"/>
		</g>
		<g id="Group_268" transform="translate(159.336 451.866)">
			<path id="Path_358" class="st9" d="M-63.6-249c-0.9-0.4-1.7-1-2.3-1.8l1.6-1.6c1,1.1,2.4,1.8,3.9,1.8c0.8,0,1.6-0.2,2.3-0.6
				c0.6-0.4,0.9-1.1,0.9-1.9v-0.6c0.1-0.8-0.3-1.5-1-1.9c-0.7-0.4-1.4-0.6-2.2-0.6h-1.5v-2h1.5c0.7,0,1.3-0.1,1.9-0.5
				c0.6-0.3,0.9-0.9,0.8-1.6v-0.5c0-0.6-0.2-1.2-0.8-1.6c-0.6-0.4-1.3-0.5-1.9-0.5c-0.7,0-1.4,0.1-2,0.4c-0.7,0.3-1.3,0.7-1.8,1.3
				l-1.5-1.5c0.7-0.7,1.5-1.3,2.5-1.7c1-0.4,2-0.6,3.1-0.6c0.9,0,1.8,0.2,2.6,0.5c0.7,0.3,1.4,0.8,1.9,1.4c0.5,0.6,0.7,1.3,0.7,2
				v0.9c0,0.7-0.3,1.3-0.8,1.8c-0.5,0.5-1.2,0.9-1.9,1c0.5,0.1,1,0.3,1.5,0.6c0.5,0.3,0.9,0.7,1.3,1.2c0.3,0.5,0.5,1,0.5,1.6v1
				c0,0.8-0.3,1.6-0.8,2.3c-0.5,0.7-1.3,1.3-2.1,1.6c-0.9,0.4-2,0.6-3,0.6C-61.4-248.4-62.6-248.6-63.6-249z"/>
			<path id="Path_359" class="st9" d="M-41.5-265.4v16.7h-2.2L-44-250c-0.8,1-2,1.6-3.3,1.6c-0.9,0-1.7-0.2-2.5-0.7
				c-0.7-0.5-1.3-1.2-1.7-2c-0.4-0.9-0.6-2-0.6-3v-1.3c0-1,0.2-2,0.6-2.9c0.4-0.8,1-1.5,1.7-2c0.8-0.5,1.6-0.8,2.5-0.7
				c1,0,2.1,0.4,2.8,1.1v-5.4H-41.5z M-45.4-250.9c0.4-0.3,0.8-0.6,1.1-1v-6c-0.6-0.6-1.5-1-2.4-1c-0.7,0-1.4,0.3-1.9,0.9
				c-0.5,0.8-0.7,1.7-0.7,2.6v1.4c-0.1,0.9,0.2,1.8,0.6,2.6c0.4,0.6,1.1,0.9,1.8,0.9C-46.3-250.5-45.8-250.6-45.4-250.9L-45.4-250.9
				z"/>
			<path id="Path_360" class="st9" d="M-36.8-248.8c-0.8-0.3-1.5-0.7-2.2-1.2l1.3-1.6c0.5,0.4,1,0.7,1.6,0.9
				c0.6,0.2,1.2,0.3,1.8,0.3c1.5,0,2.3-0.4,2.3-1.3v-0.2c0-0.4-0.1-0.7-0.4-0.9c-0.5-0.3-1-0.6-1.6-0.8l-1.5-0.5
				c-0.8-0.2-1.6-0.7-2.2-1.3c-0.5-0.5-0.7-1.2-0.7-1.8v-0.5c0-0.6,0.2-1.2,0.6-1.7c0.4-0.5,1-0.9,1.6-1.1c0.7-0.3,1.5-0.4,2.3-0.4
				c0.8,0,1.7,0.1,2.5,0.4c0.7,0.2,1.4,0.6,2,1.1l-1.3,1.5c-0.5-0.3-1-0.6-1.6-0.8c-0.5-0.1-1-0.2-1.6-0.2c-0.5,0-1,0.1-1.4,0.3
				c-0.3,0.2-0.5,0.5-0.5,0.8v0.2c0,0.3,0.1,0.6,0.4,0.8c0.5,0.3,1,0.6,1.5,0.7l1.5,0.5c0.8,0.3,1.5,0.7,2.2,1.2
				c0.5,0.5,0.8,1.3,0.7,2v0.5c0,1-0.5,2-1.4,2.5c-1,0.6-2.2,0.9-3.4,0.9C-35-248.4-35.9-248.5-36.8-248.8z"/>
			<path id="Path_361" class="st9" d="M-5.1-264.5v15.8h-2.7v-11.5l-3.3,9.2l0,0h-3l-3.4-9.6v11.9H-20v-15.8h3.7l3.8,11.2l4-11.1
				l0,0L-5.1-264.5z"/>
			<path id="Path_362" class="st9" d="M7-259.9c0.8,0.8,1.2,1.9,1.2,3.1v8.1H6l-0.2-1.1c-0.9,0.9-2.2,1.5-3.6,1.4
				c-0.7,0-1.4-0.1-2-0.4c-0.6-0.3-1.1-0.7-1.5-1.2c-0.4-0.5-0.6-1.2-0.5-1.8v-0.8c0-1,0.5-2,1.3-2.5c1.1-0.7,2.4-1,3.6-0.9h2.2
				v-0.8c0.1-0.6-0.1-1.1-0.5-1.5c-0.5-0.4-1-0.5-1.6-0.5c-0.6,0-1.2,0.1-1.8,0.2c-0.6,0.2-1.2,0.4-1.7,0.7l-0.9-1.7
				c1.4-0.8,3-1.3,4.6-1.3C4.7-261.1,6-260.7,7-259.9z M4.2-250.8c0.5-0.2,0.9-0.5,1.2-0.9v-2.7H3.4c-1.7,0-2.5,0.6-2.5,1.8v0.5
				c0,0.4,0.1,0.8,0.4,1.1c0.4,0.3,0.8,0.5,1.3,0.4C3.2-250.5,3.7-250.6,4.2-250.8L4.2-250.8z"/>
			<path id="Path_363" class="st9" d="M21.5-248.7h-3.1l-2.5-4.4l-2.7,4.4h-2.9l3.9-6l-3.7-6h3l2.4,4.5l2.5-4.5h2.9l-3.7,6
				L21.5-248.7z"/>
		</g>
	</g>
</g>
</svg>
