<?xml version="1.0" encoding="utf-8"?>
<!-- Generator: Adobe Illustrator 26.0.1, SVG Export Plug-In . SVG Version: 6.00 Build 0)  -->
<svg version="1.1" id="Layer_1" xmlns="http://www.w3.org/2000/svg" xmlns:xlink="http://www.w3.org/1999/xlink" x="0px" y="0px"
	 viewBox="0 0 250 250" style="enable-background:new 0 0 250 250;" xml:space="preserve">
<style type="text/css">
	.st0{clip-path:url(#SVGID_00000016792114980083201210000005341305536236060060_);}
	.st1{fill:#FFFFFF;}
	.st2{fill:#035397;}
	.st3{enable-background:new    ;}
	.st4{fill:#F1F1F1;}
	.st5{fill:#757575;}
	.st6{fill:#CACACA;}
	.st7{fill:#EAEAEA;}
	.st8{fill:#EEEEEE;}
</style>
<g>
	<defs>
		<rect id="SVGID_1_" y="0" width="250" height="250"/>
	</defs>
	<clipPath id="SVGID_00000169549366699483632040000005945390904019882376_">
		<use xlink:href="#SVGID_1_"  style="overflow:visible;"/>
	</clipPath>
	<g id="Alias-Modeling" style="clip-path:url(#SVGID_00000169549366699483632040000005945390904019882376_);">
		<rect y="0" class="st1" width="250" height="250"/>
		<path id="Rectangle_1" class="st2" d="M7,0h236c3.9,0,7,3.1,7,7v236c0,3.9-3.1,7-7,7H7c-3.9,0-7-3.1-7-7V7C0,3.1,3.1,0,7,0z"/>
		<g class="st3">
			<path class="st4" d="M62,16.8h1.5L69.3,31h-1.9l-1.6-4.2h-6.1L58.1,31h-1.9L62,16.8z M65.3,25.4l-2.5-6.6l-2.5,6.6H65.3z"/>
			<path class="st4" d="M71,16.4h1.8v12c0,0.6,0.1,0.9,0.2,1.1s0.4,0.2,0.6,0.2c0.3,0,0.5,0,0.8-0.1c0.3-0.1,0.5-0.1,0.6-0.2
				l0.3,1.4c-0.3,0.1-0.6,0.2-1,0.3c-0.4,0.1-0.8,0.1-1.1,0.1c-0.7,0-1.2-0.2-1.6-0.6C71.2,30.2,71,29.7,71,29V16.4z"/>
			<path class="st4" d="M76.7,18.6v-2.2h1.8v2.2H76.7z M76.7,31V20.6h1.8V31H76.7z"/>
			<path class="st4" d="M80.4,28c0-0.7,0.2-1.2,0.6-1.7c0.4-0.5,0.9-0.9,1.6-1.1c0.7-0.3,1.4-0.4,2.3-0.4c0.5,0,1,0,1.5,0.1
				s1,0.2,1.4,0.3v-0.8c0-0.8-0.2-1.4-0.7-1.9c-0.5-0.5-1.2-0.7-2-0.7c-0.6,0-1.1,0.1-1.7,0.3c-0.5,0.2-1.1,0.5-1.7,0.9L81,21.9
				c0.7-0.5,1.4-0.8,2-1.1c0.7-0.2,1.4-0.3,2.1-0.3c1.3,0,2.4,0.4,3.2,1.1c0.8,0.7,1.2,1.8,1.2,3.1V29c0,0.2,0,0.4,0.1,0.5
				c0.1,0.1,0.2,0.2,0.4,0.2V31c-0.2,0-0.3,0-0.5,0.1c-0.1,0-0.2,0-0.3,0c-0.4,0-0.7-0.1-0.9-0.3S88.1,30.3,88,30l0-0.7
				c-0.5,0.6-1,1-1.8,1.4c-0.7,0.3-1.5,0.5-2.2,0.5c-0.7,0-1.3-0.1-1.9-0.4c-0.5-0.3-1-0.7-1.3-1.2C80.6,29.1,80.4,28.6,80.4,28z
				 M87.2,28.7c0.2-0.2,0.3-0.4,0.4-0.6s0.1-0.4,0.1-0.5v-1.3c-0.4-0.2-0.8-0.3-1.3-0.4c-0.5-0.1-0.9-0.1-1.3-0.1
				c-0.9,0-1.6,0.2-2.2,0.5s-0.8,0.8-0.8,1.4c0,0.3,0.1,0.7,0.3,1c0.2,0.3,0.4,0.6,0.8,0.8c0.4,0.2,0.8,0.3,1.3,0.3
				c0.5,0,1.1-0.1,1.6-0.3C86.6,29.3,86.9,29.1,87.2,28.7z"/>
			<path class="st4" d="M95.9,31.2c-0.9,0-1.7-0.1-2.4-0.4c-0.8-0.3-1.4-0.7-2-1.3l0.7-1.2c0.6,0.6,1.2,1,1.8,1.2
				c0.6,0.2,1.2,0.4,1.8,0.4c0.7,0,1.3-0.1,1.8-0.4c0.5-0.3,0.7-0.7,0.7-1.2c0-0.4-0.1-0.7-0.4-0.9s-0.6-0.3-1-0.5
				c-0.4-0.1-0.9-0.3-1.5-0.4c-0.7-0.2-1.3-0.4-1.8-0.7c-0.5-0.2-0.9-0.5-1.1-0.9c-0.3-0.4-0.4-0.8-0.4-1.3c0-0.7,0.2-1.2,0.5-1.7
				c0.3-0.5,0.8-0.8,1.4-1c0.6-0.2,1.3-0.4,2.1-0.4c0.8,0,1.5,0.1,2.1,0.4c0.6,0.2,1.2,0.6,1.6,1.1L99,23.1
				c-0.4-0.4-0.9-0.7-1.4-0.9c-0.5-0.2-1-0.3-1.7-0.3c-0.4,0-0.7,0-1.1,0.1s-0.6,0.2-0.9,0.5c-0.2,0.2-0.3,0.5-0.3,0.9
				c0,0.3,0.1,0.6,0.3,0.8c0.2,0.2,0.4,0.4,0.8,0.5c0.4,0.1,0.8,0.3,1.3,0.4c0.8,0.2,1.5,0.4,2,0.7s1,0.5,1.4,0.9
				c0.3,0.4,0.5,0.9,0.5,1.5c0,1-0.4,1.7-1.1,2.3C98.1,30.9,97.1,31.2,95.9,31.2z"/>
			<path class="st4" d="M119.7,31V20.2l-4.7,8.3h-1.1l-4.7-8.3V31h-1.8V16.8h1.9l5.1,9.2l5.2-9.2h1.9V31H119.7z"/>
			<path class="st4" d="M129,31.2c-0.8,0-1.5-0.1-2.1-0.4c-0.6-0.3-1.2-0.7-1.7-1.2c-0.5-0.5-0.8-1.1-1.1-1.7
				c-0.3-0.6-0.4-1.3-0.4-2c0-0.7,0.1-1.4,0.4-2.1c0.3-0.6,0.6-1.2,1.1-1.7c0.5-0.5,1-0.9,1.7-1.2c0.6-0.3,1.4-0.4,2.1-0.4
				c0.8,0,1.5,0.1,2.1,0.4c0.6,0.3,1.2,0.7,1.7,1.2c0.5,0.5,0.8,1.1,1.1,1.7c0.3,0.6,0.4,1.3,0.4,2.1c0,0.7-0.1,1.4-0.4,2
				c-0.3,0.6-0.6,1.2-1.1,1.7s-1,0.9-1.7,1.2C130.5,31.1,129.8,31.2,129,31.2z M125.6,25.9c0,0.7,0.2,1.4,0.5,1.9
				c0.3,0.6,0.7,1,1.2,1.4c0.5,0.3,1.1,0.5,1.7,0.5c0.6,0,1.2-0.2,1.8-0.5c0.5-0.3,0.9-0.8,1.3-1.4c0.3-0.6,0.5-1.2,0.5-1.9
				s-0.2-1.4-0.5-1.9c-0.3-0.6-0.7-1-1.3-1.4c-0.5-0.3-1.1-0.5-1.8-0.5c-0.6,0-1.2,0.2-1.7,0.5s-0.9,0.8-1.2,1.4
				C125.7,24.5,125.6,25.1,125.6,25.9z"/>
			<path class="st4" d="M135.8,25.8c0-1,0.2-1.9,0.6-2.7c0.4-0.8,1-1.5,1.7-2c0.7-0.5,1.5-0.7,2.5-0.7c0.8,0,1.6,0.2,2.3,0.7
				c0.7,0.4,1.2,1,1.6,1.6v-6.3h1.8V29c0,0.2,0,0.4,0.1,0.5c0.1,0.1,0.2,0.2,0.4,0.2V31c-0.3,0.1-0.6,0.1-0.8,0.1
				c-0.3,0-0.7-0.1-0.9-0.4c-0.3-0.2-0.4-0.5-0.4-0.8V29c-0.4,0.7-1,1.2-1.7,1.6s-1.4,0.6-2.2,0.6c-0.7,0-1.4-0.1-2-0.4
				c-0.6-0.3-1.1-0.7-1.6-1.2c-0.4-0.5-0.8-1.1-1-1.7C135.9,27.2,135.8,26.6,135.8,25.8z M144.3,27.4v-3c-0.2-0.4-0.4-0.9-0.8-1.2
				c-0.4-0.4-0.8-0.7-1.2-0.9S141.4,22,141,22c-0.5,0-1,0.1-1.4,0.3c-0.4,0.2-0.8,0.5-1.1,0.9c-0.3,0.4-0.5,0.8-0.7,1.2
				s-0.2,0.9-0.2,1.4c0,0.5,0.1,1,0.3,1.5c0.2,0.5,0.4,0.9,0.8,1.2c0.3,0.4,0.7,0.6,1.1,0.8c0.4,0.2,0.9,0.3,1.4,0.3
				c0.3,0,0.7-0.1,1-0.2s0.7-0.3,1-0.5c0.3-0.2,0.6-0.5,0.8-0.7C144.1,28,144.3,27.7,144.3,27.4z"/>
			<path class="st4" d="M153.6,31.2c-0.8,0-1.5-0.1-2.2-0.4c-0.6-0.3-1.2-0.7-1.7-1.2c-0.5-0.5-0.8-1.1-1.1-1.7
				c-0.3-0.6-0.4-1.3-0.4-2.1c0-1,0.2-1.9,0.7-2.7c0.5-0.8,1.1-1.5,1.9-1.9c0.8-0.5,1.7-0.7,2.8-0.7c1.1,0,2,0.2,2.8,0.7
				s1.4,1.1,1.8,1.9c0.4,0.8,0.6,1.7,0.6,2.6c0,0.1,0,0.3,0,0.4s0,0.2,0,0.3h-8.7c0.1,0.7,0.2,1.3,0.6,1.8c0.3,0.5,0.8,0.9,1.3,1.2
				c0.5,0.3,1.1,0.4,1.7,0.4c0.6,0,1.2-0.2,1.8-0.5c0.6-0.3,1-0.7,1.2-1.3l1.5,0.4c-0.2,0.5-0.6,1-1,1.4c-0.4,0.4-1,0.7-1.6,0.9
				S154.3,31.2,153.6,31.2z M150.1,25.2h7.1c-0.1-0.7-0.2-1.3-0.6-1.8s-0.8-0.9-1.3-1.2c-0.5-0.3-1.1-0.4-1.7-0.4
				c-0.6,0-1.2,0.1-1.7,0.4c-0.5,0.3-0.9,0.7-1.3,1.2C150.4,23.9,150.2,24.5,150.1,25.2z"/>
			<path class="st4" d="M160.9,16.4h1.8v12c0,0.6,0.1,0.9,0.2,1.1s0.4,0.2,0.6,0.2c0.3,0,0.5,0,0.8-0.1c0.3-0.1,0.5-0.1,0.6-0.2
				l0.3,1.4c-0.3,0.1-0.6,0.2-1,0.3s-0.8,0.1-1.1,0.1c-0.7,0-1.2-0.2-1.6-0.6c-0.4-0.4-0.6-0.9-0.6-1.6V16.4z"/>
			<path class="st4" d="M166.6,18.6v-2.2h1.8v2.2H166.6z M166.6,31V20.6h1.8V31H166.6z"/>
			<path class="st4" d="M180.2,31h-1.8v-5.8c0-1.1-0.2-1.9-0.5-2.4s-0.9-0.8-1.5-0.8c-0.5,0-1,0.1-1.4,0.4c-0.5,0.2-0.9,0.6-1.3,1
				c-0.4,0.4-0.6,0.9-0.8,1.4V31h-1.8V20.6h1.6v2.2c0.3-0.5,0.6-0.9,1.1-1.3c0.4-0.4,0.9-0.6,1.5-0.8c0.6-0.2,1.1-0.3,1.8-0.3
				c0.6,0,1.1,0.1,1.5,0.3c0.4,0.2,0.7,0.5,1,0.9c0.2,0.4,0.4,0.9,0.5,1.4c0.1,0.5,0.1,1.1,0.1,1.7V31z"/>
			<path class="st4" d="M187.1,31.2c-0.7,0-1.4-0.1-2-0.4c-0.6-0.3-1.1-0.7-1.5-1.2s-0.8-1.1-1-1.7s-0.3-1.3-0.3-2
				c0-0.7,0.1-1.4,0.3-2.1s0.6-1.2,1-1.7c0.4-0.5,0.9-0.9,1.5-1.2c0.6-0.3,1.2-0.4,2-0.4c0.9,0,1.6,0.2,2.3,0.6
				c0.6,0.4,1.2,1,1.6,1.6v-2.1h1.6v10.3c0,1-0.2,1.8-0.7,2.5c-0.5,0.7-1.1,1.2-1.9,1.5c-0.8,0.4-1.7,0.5-2.7,0.5
				c-1.2,0-2.1-0.2-2.9-0.6c-0.7-0.4-1.4-1-1.9-1.7l1-0.9c0.4,0.6,1,1.1,1.6,1.4s1.4,0.5,2.1,0.5c0.6,0,1.2-0.1,1.8-0.3
				c0.5-0.2,1-0.6,1.3-1s0.5-1.1,0.5-1.8v-1.8c-0.4,0.6-0.9,1.1-1.6,1.5C188.6,31,187.9,31.2,187.1,31.2z M187.7,29.8
				c0.4,0,0.7-0.1,1.1-0.2c0.3-0.1,0.7-0.3,1-0.5c0.3-0.2,0.5-0.5,0.7-0.8c0.2-0.3,0.3-0.6,0.4-0.9v-3c-0.2-0.5-0.5-0.9-0.8-1.3
				c-0.3-0.4-0.7-0.7-1.2-0.9c-0.4-0.2-0.9-0.3-1.4-0.3c-0.5,0-1,0.1-1.4,0.3c-0.4,0.2-0.8,0.5-1.1,0.9c-0.3,0.4-0.5,0.8-0.7,1.3
				c-0.2,0.5-0.2,0.9-0.2,1.4c0,0.5,0.1,1,0.3,1.5s0.4,0.9,0.8,1.2c0.3,0.4,0.7,0.6,1.1,0.8S187.2,29.8,187.7,29.8z"/>
		</g>
		<g id="Group_273">
			<path id="Rectangle_6" class="st5" d="M63.5,96.7h135.8l0,0v113.1l0,0H67c-1.9,0-3.5-1.6-3.5-3.5c0,0,0,0,0,0V96.7L63.5,96.7z"/>
			<path id="Rectangle_7" class="st6" d="M72.9,70.3h112.6c2.7,0,4.8,2.2,4.8,4.8l0,0v109l0,0H72.9l0,0V70.3L72.9,70.3z"/>
			<path id="Path_331" class="st7" d="M49.3,199.7l25-15.6V70.3l-25,15.6V199.7z"/>
			<g id="Group_260" transform="translate(102.069 96.462)">
				<path id="Path_332" class="st8" d="M38.6,49.9H19.4l-3.6,14H0L18.3,0h21.3l19.3,63.9H42.5L38.6,49.9z M28.9,10.5l-6.5,27.6h13.1
					L28.9,10.5z"/>
			</g>
			<g id="Group_269" transform="translate(101.894 185.849)">
				<path id="Path_364" class="st4" d="M10.7,14.8H4.6l-1.3,4.7H0L5.5,1.6h4.4l5.7,17.9h-3.3L10.7,14.8z M5.3,12.2H10L7.6,3.9
					L5.3,12.2z"/>
				<path id="Path_365" class="st4" d="M21,16.4c0,0.3,0,0.6,0.2,0.8c0.2,0.2,0.5,0.3,0.7,0.2c0.1,0,0.3,0,0.5-0.1l0.3,2.2
					c-0.6,0.2-1.2,0.3-1.8,0.3c-0.8,0-1.7-0.2-2.3-0.8c-0.6-0.6-0.9-1.4-0.8-2.3V0.6H21L21,16.4z"/>
				<path id="Path_366" class="st4" d="M29.5,19.5h-3.2V8.3h-2V5.9h5.2L29.5,19.5z M26.4,3.3c-0.4-0.3-0.6-0.8-0.6-1.3
					c0-1.1,0.9-1.9,1.9-1.9c1.1,0,1.9,0.9,1.9,1.9c0,0.5-0.2,1-0.6,1.3C28.4,4,27.2,4,26.4,3.3L26.4,3.3z"/>
				<path id="Path_367" class="st4" d="M42.6,6.8C43.6,7.8,44,9,44,10.4v9.2h-2.5l-0.3-1.3c-1.1,1.1-2.5,1.7-4,1.6
					c-0.8,0-1.5-0.2-2.3-0.5c-0.7-0.3-1.2-0.8-1.6-1.4c-0.4-0.6-0.6-1.3-0.6-2v-0.9c0-1.1,0.5-2.2,1.5-2.9c1.2-0.8,2.7-1.2,4.1-1.1
					h2.5v-0.9c0.1-0.6-0.2-1.3-0.6-1.8c-0.5-0.4-1.2-0.6-1.8-0.5c-0.7,0-1.3,0.1-2,0.3c-0.7,0.2-1.3,0.4-1.9,0.8l-1-2
					c1.6-1,3.4-1.5,5.2-1.4C40.1,5.5,41.5,5.9,42.6,6.8z M39.5,17.2c0.5-0.2,1-0.6,1.4-1v-3h-2.2c-1.9,0-2.8,0.7-2.8,2.1v0.5
					c0,0.5,0.2,1,0.5,1.3c0.4,0.3,1,0.5,1.5,0.5C38.4,17.5,38.9,17.4,39.5,17.2L39.5,17.2z"/>
				<path id="Path_368" class="st4" d="M49.1,19.4c-0.9-0.3-1.7-0.8-2.5-1.4l1.5-1.8c0.6,0.4,1.2,0.8,1.8,1c0.6,0.2,1.3,0.3,2,0.3
					c1.7,0,2.6-0.5,2.6-1.5v-0.2c0-0.4-0.2-0.8-0.5-1.1c-0.6-0.4-1.2-0.7-1.8-0.9l-1.7-0.6c-0.9-0.3-1.8-0.8-2.5-1.4
					c-0.5-0.6-0.8-1.3-0.8-2.1V9.2c0-0.7,0.2-1.4,0.7-1.9c0.5-0.6,1.1-1,1.8-1.3c0.8-0.3,1.7-0.5,2.6-0.5c0.9,0,1.9,0.1,2.8,0.4
					c0.8,0.3,1.6,0.7,2.3,1.3L56.1,9c-0.5-0.4-1.1-0.7-1.8-0.9c-0.6-0.2-1.2-0.2-1.8-0.2C52,7.9,51.4,8,51,8.3
					c-0.3,0.2-0.5,0.6-0.5,0.9v0.2c0,0.4,0.2,0.7,0.5,0.9c0.5,0.4,1.1,0.7,1.7,0.8l1.7,0.6c0.9,0.3,1.8,0.8,2.5,1.4
					c0.6,0.6,0.9,1.4,0.8,2.2V16c0,1.2-0.6,2.2-1.6,2.8c-1.2,0.7-2.5,1.1-3.9,1C51.1,19.9,50.1,19.7,49.1,19.4z"/>
			</g>
		</g>
		<g class="st3">
			<path class="st4" d="M23.3,232.7v1.3h-5.7v-1.3h2.3v-6.2c-0.1,0.1-0.2,0.3-0.4,0.4c-0.2,0.1-0.4,0.3-0.7,0.4s-0.5,0.2-0.8,0.3
				s-0.5,0.1-0.7,0.1v-1.3c0.2,0,0.5-0.1,0.8-0.2c0.3-0.1,0.6-0.3,0.8-0.5s0.5-0.4,0.7-0.5c0.2-0.2,0.3-0.3,0.3-0.3h1.4v7.9H23.3z"
				/>
			<path class="st4" d="M32.7,229.4c0,0.9-0.2,1.7-0.5,2.5s-0.8,1.3-1.4,1.7c-0.6,0.4-1.3,0.6-2.1,0.6c-0.8,0-1.5-0.2-2.1-0.6
				c-0.6-0.4-1.1-1-1.4-1.7s-0.5-1.5-0.5-2.5s0.2-1.7,0.5-2.5s0.8-1.3,1.4-1.7s1.3-0.6,2.1-0.6c0.8,0,1.5,0.2,2.1,0.6
				c0.6,0.4,1.1,1,1.4,1.7S32.7,228.5,32.7,229.4z M31.3,229.4c0-0.7-0.1-1.3-0.3-1.8c-0.2-0.5-0.5-0.9-0.9-1.2
				c-0.4-0.3-0.8-0.4-1.4-0.4c-0.5,0-1,0.1-1.4,0.4c-0.4,0.3-0.7,0.7-0.9,1.2s-0.3,1.1-0.3,1.8c0,0.7,0.1,1.3,0.3,1.8
				c0.2,0.5,0.5,0.9,0.9,1.2c0.4,0.3,0.9,0.4,1.4,0.4c0.5,0,1-0.1,1.4-0.4c0.4-0.3,0.7-0.7,0.9-1.2
				C31.2,230.7,31.3,230.1,31.3,229.4z"/>
			<path class="st4" d="M42.5,229.4c0,0.9-0.2,1.7-0.5,2.5s-0.8,1.3-1.4,1.7c-0.6,0.4-1.3,0.6-2.1,0.6c-0.8,0-1.5-0.2-2.1-0.6
				c-0.6-0.4-1.1-1-1.4-1.7s-0.5-1.5-0.5-2.5s0.2-1.7,0.5-2.5s0.8-1.3,1.4-1.7s1.3-0.6,2.1-0.6c0.8,0,1.5,0.2,2.1,0.6
				c0.6,0.4,1.1,1,1.4,1.7S42.5,228.5,42.5,229.4z M41.1,229.4c0-0.7-0.1-1.3-0.3-1.8c-0.2-0.5-0.5-0.9-0.9-1.2
				c-0.4-0.3-0.8-0.4-1.4-0.4c-0.5,0-1,0.1-1.4,0.4c-0.4,0.3-0.7,0.7-0.9,1.2s-0.3,1.1-0.3,1.8c0,0.7,0.1,1.3,0.3,1.8
				c0.2,0.5,0.5,0.9,0.9,1.2c0.4,0.3,0.9,0.4,1.4,0.4c0.5,0,1-0.1,1.4-0.4c0.4-0.3,0.7-0.7,0.9-1.2C41,230.7,41.1,230.1,41.1,229.4z
				"/>
			<path class="st4" d="M46.4,227.2c-0.4,0-0.9-0.1-1.2-0.3c-0.4-0.2-0.7-0.5-0.9-0.8c-0.2-0.4-0.3-0.8-0.3-1.2
				c0-0.4,0.1-0.8,0.3-1.2c0.2-0.4,0.5-0.6,0.9-0.8c0.4-0.2,0.8-0.3,1.2-0.3c0.5,0,0.9,0.1,1.2,0.3c0.4,0.2,0.7,0.5,0.9,0.8
				c0.2,0.4,0.3,0.7,0.3,1.2c0,0.4-0.1,0.8-0.3,1.2s-0.5,0.6-0.9,0.8C47.3,227.1,46.9,227.2,46.4,227.2z M44.5,233.4l4.5-5.3
				l4.3-5.4l0.7,0.6l-4.4,5.3l-4.4,5.5L44.5,233.4z M46.4,226.5c0.3,0,0.5-0.1,0.7-0.2c0.2-0.1,0.4-0.3,0.5-0.6
				c0.1-0.2,0.2-0.5,0.2-0.8c0-0.3-0.1-0.6-0.2-0.8c-0.1-0.2-0.3-0.4-0.5-0.6c-0.2-0.1-0.5-0.2-0.7-0.2c-0.3,0-0.5,0.1-0.7,0.2
				c-0.2,0.1-0.4,0.3-0.5,0.6s-0.2,0.5-0.2,0.8c0,0.3,0.1,0.5,0.2,0.8c0.1,0.2,0.3,0.4,0.5,0.6C45.9,226.4,46.2,226.5,46.4,226.5z
				 M52,234.1c-0.5,0-0.9-0.1-1.2-0.3c-0.4-0.2-0.7-0.5-0.9-0.8s-0.3-0.7-0.3-1.2c0-0.4,0.1-0.8,0.3-1.2c0.2-0.4,0.5-0.6,0.9-0.8
				c0.4-0.2,0.8-0.3,1.2-0.3s0.9,0.1,1.2,0.3s0.7,0.5,0.9,0.8c0.2,0.4,0.3,0.7,0.3,1.2c0,0.4-0.1,0.8-0.3,1.2
				c-0.2,0.4-0.5,0.6-0.9,0.8S52.5,234.1,52,234.1z M52,233.3c0.3,0,0.5-0.1,0.7-0.2c0.2-0.1,0.4-0.3,0.5-0.6
				c0.1-0.2,0.2-0.5,0.2-0.8c0-0.3-0.1-0.6-0.2-0.8c-0.1-0.2-0.3-0.4-0.5-0.6s-0.5-0.2-0.7-0.2c-0.3,0-0.5,0.1-0.7,0.2
				c-0.2,0.1-0.4,0.3-0.5,0.6s-0.2,0.5-0.2,0.8c0,0.3,0.1,0.5,0.2,0.8c0.1,0.2,0.3,0.4,0.5,0.6C51.6,233.2,51.8,233.3,52,233.3z"/>
			<path class="st4" d="M59.3,232.2c0.2,0.1,0.5,0.3,0.8,0.4c0.4,0.1,0.8,0.2,1.3,0.2c0.5,0,0.9-0.1,1.2-0.2
				c0.3-0.2,0.6-0.4,0.7-0.7c0.2-0.3,0.3-0.8,0.4-1.3s0.1-1.1,0.1-1.8v-6h1.4v5.7c0,0.8,0,1.6-0.1,2.3s-0.3,1.3-0.5,1.8
				c-0.3,0.5-0.6,0.9-1.1,1.2c-0.5,0.3-1.2,0.4-2,0.4c-0.5,0-1-0.1-1.4-0.2s-0.8-0.3-1.1-0.5L59.3,232.2z"/>
			<path class="st4" d="M71.1,234.2c-0.6,0-1.2-0.1-1.7-0.3c-0.5-0.2-1-0.5-1.3-0.9c-0.4-0.4-0.7-0.9-0.9-1.4s-0.3-1.1-0.3-1.6
				c0-0.6,0.1-1.1,0.3-1.7c0.2-0.5,0.5-1,0.9-1.4c0.4-0.4,0.8-0.7,1.3-0.9c0.5-0.2,1.1-0.3,1.7-0.3c0.6,0,1.2,0.1,1.7,0.3
				c0.5,0.2,1,0.5,1.3,0.9c0.4,0.4,0.7,0.9,0.9,1.4c0.2,0.5,0.3,1.1,0.3,1.7c0,0.6-0.1,1.1-0.3,1.6s-0.5,1-0.9,1.4
				c-0.4,0.4-0.8,0.7-1.3,0.9S71.7,234.2,71.1,234.2z M68.4,229.9c0,0.6,0.1,1.1,0.4,1.6c0.3,0.5,0.6,0.8,1,1.1
				c0.4,0.3,0.9,0.4,1.4,0.4c0.5,0,1-0.1,1.4-0.4s0.8-0.6,1-1.1s0.4-1,0.4-1.6c0-0.6-0.1-1.1-0.4-1.6c-0.3-0.5-0.6-0.8-1-1.1
				c-0.4-0.3-0.9-0.4-1.4-0.4c-0.5,0-1,0.1-1.4,0.4c-0.4,0.3-0.7,0.7-1,1.1C68.5,228.8,68.4,229.3,68.4,229.9z"/>
			<path class="st4" d="M81.3,234.2c-0.7,0-1.2-0.2-1.8-0.5c-0.5-0.3-1-0.7-1.3-1.2v1.6h-1.2v-11.7h1.4v5.1c0.4-0.5,0.8-1,1.3-1.3
				c0.5-0.3,1.1-0.5,1.8-0.5c0.6,0,1.1,0.1,1.6,0.4c0.5,0.2,0.9,0.6,1.2,1c0.3,0.4,0.6,0.9,0.8,1.4c0.2,0.5,0.3,1.1,0.3,1.6
				c0,0.6-0.1,1.1-0.3,1.6c-0.2,0.5-0.5,1-0.8,1.4c-0.4,0.4-0.8,0.7-1.3,0.9C82.4,234,81.9,234.2,81.3,234.2z M81,232.9
				c0.4,0,0.8-0.1,1.2-0.3s0.7-0.4,0.9-0.7c0.3-0.3,0.5-0.6,0.6-1c0.1-0.4,0.2-0.8,0.2-1.1c0-0.5-0.1-1-0.3-1.5
				c-0.2-0.5-0.5-0.9-1-1.1s-0.9-0.4-1.4-0.4c-0.4,0-0.8,0.1-1.1,0.3c-0.3,0.2-0.6,0.4-0.9,0.7s-0.5,0.6-0.6,1v2.4
				c0.1,0.3,0.2,0.5,0.3,0.7s0.4,0.4,0.6,0.6c0.2,0.2,0.5,0.3,0.8,0.4C80.5,232.9,80.7,232.9,81,232.9z"/>
			<path class="st4" d="M95.9,234.1c-0.7,0-1.4-0.2-2.1-0.5c-0.6-0.3-1.2-0.8-1.7-1.3c-0.5-0.5-0.9-1.2-1.1-1.9
				c-0.3-0.7-0.4-1.4-0.4-2.1c0-0.8,0.1-1.5,0.4-2.2c0.3-0.7,0.6-1.3,1.1-1.8c0.5-0.5,1-1,1.7-1.3c0.6-0.3,1.3-0.5,2.1-0.5
				c1.1,0,2,0.2,2.7,0.7c0.7,0.5,1.3,1.1,1.6,1.8l-1.1,0.8c-0.3-0.7-0.8-1.2-1.4-1.5s-1.2-0.5-1.9-0.5c-0.6,0-1.1,0.1-1.6,0.4
				c-0.5,0.2-0.9,0.6-1.2,1c-0.3,0.4-0.6,0.9-0.8,1.4c-0.2,0.5-0.3,1.1-0.3,1.7c0,0.6,0.1,1.2,0.3,1.7c0.2,0.5,0.5,1,0.8,1.4
				c0.4,0.4,0.8,0.7,1.3,1c0.5,0.2,1,0.4,1.6,0.4c0.7,0,1.3-0.2,1.9-0.5c0.6-0.3,1.1-0.8,1.7-1.5v1.5
				C98.5,233.5,97.3,234.1,95.9,234.1z M99.3,229.4h-2.4v-1.1h3.7v5.7h-1.2V229.4z"/>
			<path class="st4" d="M102.4,230.7v-5h1.4v4.7c0,0.8,0.1,1.5,0.4,1.9c0.3,0.4,0.7,0.6,1.3,0.6c0.4,0,0.8-0.1,1.1-0.2
				s0.7-0.4,1-0.7c0.3-0.3,0.5-0.7,0.7-1.1v-5.2h1.4v6.7c0,0.2,0,0.3,0.1,0.4c0.1,0.1,0.2,0.1,0.3,0.1v1.1c-0.2,0-0.3,0-0.4,0
				c-0.1,0-0.2,0-0.3,0c-0.3,0-0.5-0.1-0.7-0.2c-0.2-0.2-0.3-0.4-0.3-0.6l0-1c-0.4,0.6-0.9,1.1-1.5,1.4c-0.6,0.3-1.3,0.5-2,0.5
				c-0.9,0-1.5-0.3-2-0.9C102.6,232.7,102.4,231.8,102.4,230.7z"/>
			<path class="st4" d="M111.5,231.6c0-0.5,0.2-1,0.5-1.4s0.7-0.7,1.3-0.9s1.2-0.3,1.9-0.3c0.4,0,0.8,0,1.2,0.1s0.8,0.1,1.1,0.3
				v-0.6c0-0.6-0.2-1.1-0.6-1.5c-0.4-0.4-0.9-0.5-1.6-0.5c-0.5,0-0.9,0.1-1.3,0.2c-0.4,0.2-0.9,0.4-1.3,0.7l-0.5-1
				c0.5-0.4,1.1-0.7,1.6-0.8c0.5-0.2,1.1-0.3,1.7-0.3c1.1,0,1.9,0.3,2.5,0.9s0.9,1.4,0.9,2.5v3.5c0,0.2,0,0.3,0.1,0.4
				c0.1,0.1,0.2,0.1,0.3,0.1v1.1c-0.1,0-0.3,0-0.4,0c-0.1,0-0.2,0-0.2,0c-0.3,0-0.6-0.1-0.7-0.3s-0.3-0.4-0.3-0.6l0-0.5
				c-0.4,0.5-0.8,0.8-1.4,1.1c-0.6,0.3-1.2,0.4-1.7,0.4c-0.6,0-1.1-0.1-1.5-0.3c-0.4-0.2-0.8-0.5-1-0.9
				C111.6,232.5,111.5,232.1,111.5,231.6z M116.9,232.2c0.1-0.1,0.2-0.3,0.3-0.5c0.1-0.2,0.1-0.3,0.1-0.4v-1c-0.3-0.1-0.7-0.2-1-0.3
				c-0.4-0.1-0.7-0.1-1.1-0.1c-0.7,0-1.3,0.1-1.7,0.4c-0.4,0.3-0.7,0.7-0.7,1.1c0,0.3,0.1,0.5,0.2,0.8s0.4,0.5,0.6,0.6
				c0.3,0.2,0.6,0.2,1,0.2c0.4,0,0.9-0.1,1.2-0.3C116.3,232.7,116.7,232.4,116.9,232.2z"/>
			<path class="st4" d="M125.4,226.9c-0.7,0-1.3,0.2-1.9,0.5s-0.9,0.8-1.1,1.4v5.2H121v-8.3h1.3v1.9c0.3-0.6,0.7-1,1.1-1.4
				c0.5-0.4,1-0.6,1.5-0.6c0.1,0,0.2,0,0.3,0s0.1,0,0.2,0V226.9z"/>
			<path class="st4" d="M126.1,231.6c0-0.5,0.2-1,0.5-1.4c0.3-0.4,0.7-0.7,1.3-0.9s1.2-0.3,1.9-0.3c0.4,0,0.8,0,1.2,0.1
				s0.8,0.1,1.1,0.3v-0.6c0-0.6-0.2-1.1-0.6-1.5c-0.4-0.4-0.9-0.5-1.6-0.5c-0.5,0-0.9,0.1-1.3,0.2c-0.4,0.2-0.9,0.4-1.3,0.7l-0.5-1
				c0.5-0.4,1.1-0.7,1.6-0.8c0.5-0.2,1.1-0.3,1.7-0.3c1.1,0,1.9,0.3,2.5,0.9c0.6,0.6,0.9,1.4,0.9,2.5v3.5c0,0.2,0,0.3,0.1,0.4
				c0.1,0.1,0.2,0.1,0.3,0.1v1.1c-0.1,0-0.3,0-0.4,0s-0.2,0-0.2,0c-0.3,0-0.6-0.1-0.7-0.3c-0.2-0.2-0.3-0.4-0.3-0.6l0-0.5
				c-0.4,0.5-0.8,0.8-1.4,1.1c-0.6,0.3-1.2,0.4-1.7,0.4c-0.6,0-1.1-0.1-1.5-0.3c-0.4-0.2-0.8-0.5-1-0.9
				C126.2,232.5,126.1,232.1,126.1,231.6z M131.6,232.2c0.1-0.1,0.2-0.3,0.3-0.5c0.1-0.2,0.1-0.3,0.1-0.4v-1c-0.3-0.1-0.7-0.2-1-0.3
				c-0.4-0.1-0.7-0.1-1.1-0.1c-0.7,0-1.3,0.1-1.7,0.4s-0.7,0.7-0.7,1.1c0,0.3,0.1,0.5,0.2,0.8c0.1,0.2,0.4,0.5,0.6,0.6
				c0.3,0.2,0.6,0.2,1,0.2c0.4,0,0.9-0.1,1.2-0.3C131,232.7,131.3,232.4,131.6,232.2z"/>
			<path class="st4" d="M142.9,234h-1.4v-4.6c0-0.9-0.1-1.5-0.4-1.9c-0.3-0.4-0.7-0.6-1.2-0.6c-0.4,0-0.8,0.1-1.1,0.3
				c-0.4,0.2-0.7,0.4-1,0.8c-0.3,0.3-0.5,0.7-0.6,1.1v5h-1.4v-8.3h1.3v1.8c0.2-0.4,0.5-0.7,0.9-1c0.4-0.3,0.8-0.5,1.2-0.7
				c0.4-0.2,0.9-0.2,1.4-0.2c0.5,0,0.9,0.1,1.2,0.3s0.6,0.4,0.8,0.7s0.3,0.7,0.4,1.1c0.1,0.4,0.1,0.9,0.1,1.4V234z"/>
			<path class="st4" d="M149.3,233.6c-0.1,0.1-0.3,0.1-0.5,0.2c-0.2,0.1-0.4,0.2-0.7,0.2c-0.3,0.1-0.5,0.1-0.8,0.1
				c-0.3,0-0.7-0.1-0.9-0.2c-0.3-0.1-0.5-0.3-0.7-0.6c-0.2-0.3-0.3-0.6-0.3-1v-5.6h-1.1v-1.1h1.1v-2.8h1.4v2.8h1.9v1.1h-1.9v5.2
				c0,0.3,0.1,0.5,0.3,0.7c0.2,0.1,0.4,0.2,0.6,0.2c0.3,0,0.5,0,0.8-0.1c0.2-0.1,0.4-0.2,0.5-0.2L149.3,233.6z"/>
			<path class="st4" d="M154.2,234.2c-0.6,0-1.2-0.1-1.7-0.3c-0.5-0.2-1-0.5-1.3-0.9c-0.4-0.4-0.7-0.9-0.9-1.4s-0.3-1.1-0.3-1.7
				c0-0.8,0.2-1.5,0.5-2.1c0.4-0.6,0.9-1.2,1.5-1.6c0.6-0.4,1.4-0.6,2.2-0.6c0.8,0,1.6,0.2,2.2,0.6s1.1,0.9,1.5,1.6
				c0.3,0.6,0.5,1.3,0.5,2.1c0,0.1,0,0.2,0,0.3c0,0.1,0,0.2,0,0.2h-6.9c0,0.5,0.2,1,0.5,1.4c0.3,0.4,0.6,0.7,1,1s0.9,0.4,1.3,0.4
				c0.5,0,1-0.1,1.4-0.4c0.5-0.3,0.8-0.6,0.9-1l1.2,0.3c-0.2,0.4-0.5,0.8-0.8,1.1c-0.4,0.3-0.8,0.6-1.3,0.8
				C155.3,234.1,154.8,234.2,154.2,234.2z M151.4,229.4h5.7c0-0.5-0.2-1-0.5-1.4s-0.6-0.7-1-1c-0.4-0.2-0.9-0.3-1.4-0.3
				c-0.5,0-0.9,0.1-1.4,0.3c-0.4,0.2-0.8,0.6-1,1S151.4,228.8,151.4,229.4z"/>
			<path class="st4" d="M163.7,234.2c-0.6,0-1.2-0.1-1.7-0.3c-0.5-0.2-1-0.5-1.3-0.9c-0.4-0.4-0.7-0.9-0.9-1.4s-0.3-1.1-0.3-1.7
				c0-0.8,0.2-1.5,0.5-2.1c0.4-0.6,0.9-1.2,1.5-1.6c0.6-0.4,1.4-0.6,2.2-0.6c0.8,0,1.6,0.2,2.2,0.6s1.1,0.9,1.5,1.6
				c0.3,0.6,0.5,1.3,0.5,2.1c0,0.1,0,0.2,0,0.3c0,0.1,0,0.2,0,0.2h-6.9c0,0.5,0.2,1,0.5,1.4c0.3,0.4,0.6,0.7,1,1s0.9,0.4,1.3,0.4
				c0.5,0,1-0.1,1.4-0.4c0.5-0.3,0.8-0.6,0.9-1l1.2,0.3c-0.2,0.4-0.5,0.8-0.8,1.1c-0.4,0.3-0.8,0.6-1.3,0.8
				C164.8,234.1,164.2,234.2,163.7,234.2z M160.9,229.4h5.7c0-0.5-0.2-1-0.5-1.4s-0.6-0.7-1-1c-0.4-0.2-0.9-0.3-1.4-0.3
				c-0.5,0-0.9,0.1-1.4,0.3c-0.4,0.2-0.8,0.6-1,1S160.9,228.8,160.9,229.4z"/>
			<path class="st4" d="M168.9,229.9c0-0.8,0.2-1.5,0.5-2.2c0.3-0.7,0.8-1.2,1.3-1.6c0.6-0.4,1.2-0.6,2-0.6c0.7,0,1.3,0.2,1.8,0.5
				c0.5,0.4,0.9,0.8,1.2,1.3v-5.1h1.4v10.1c0,0.2,0,0.3,0.1,0.4c0.1,0.1,0.2,0.1,0.3,0.1v1.1c-0.3,0-0.5,0.1-0.6,0.1
				c-0.3,0-0.5-0.1-0.7-0.3c-0.2-0.2-0.3-0.4-0.3-0.6v-0.7c-0.3,0.5-0.8,1-1.3,1.3c-0.6,0.3-1.1,0.5-1.7,0.5c-0.6,0-1.1-0.1-1.6-0.3
				s-0.9-0.5-1.3-0.9c-0.4-0.4-0.6-0.9-0.8-1.4S168.9,230.4,168.9,229.9z M175.7,231.1v-2.4c-0.1-0.4-0.3-0.7-0.6-1s-0.6-0.5-1-0.7
				c-0.4-0.2-0.7-0.3-1.1-0.3c-0.4,0-0.8,0.1-1.1,0.3c-0.3,0.2-0.6,0.4-0.9,0.7s-0.4,0.6-0.6,1c-0.1,0.4-0.2,0.8-0.2,1.2
				c0,0.4,0.1,0.8,0.2,1.2c0.1,0.4,0.3,0.7,0.6,1c0.3,0.3,0.6,0.5,0.9,0.7c0.3,0.2,0.7,0.2,1.1,0.2c0.3,0,0.5,0,0.8-0.1
				c0.3-0.1,0.5-0.2,0.8-0.4c0.2-0.2,0.5-0.4,0.6-0.6C175.6,231.6,175.7,231.3,175.7,231.1z"/>
			<path class="st4" d="M187.2,234.2c-0.6,0-1.2-0.1-1.7-0.3c-0.5-0.2-1-0.5-1.3-0.9c-0.4-0.4-0.7-0.9-0.9-1.4s-0.3-1.1-0.3-1.7
				c0-0.8,0.2-1.5,0.5-2.1c0.4-0.6,0.8-1.2,1.5-1.5c0.6-0.4,1.4-0.6,2.2-0.6c0.8,0,1.5,0.2,2.2,0.6s1.1,0.9,1.4,1.5l-1.4,0.4
				c-0.2-0.4-0.5-0.7-0.9-0.9c-0.4-0.2-0.8-0.3-1.3-0.3c-0.5,0-1,0.1-1.4,0.4c-0.4,0.3-0.8,0.6-1,1.1s-0.4,1-0.4,1.6
				c0,0.6,0.1,1.1,0.4,1.6s0.6,0.8,1,1.1c0.4,0.3,0.9,0.4,1.4,0.4c0.3,0,0.6-0.1,1-0.2c0.3-0.1,0.6-0.3,0.8-0.5s0.4-0.4,0.5-0.6
				l1.4,0.4c-0.2,0.4-0.4,0.8-0.8,1.1c-0.3,0.3-0.8,0.6-1.2,0.7C188.3,234.1,187.8,234.2,187.2,234.2z"/>
			<path class="st4" d="M196,234.2c-0.6,0-1.2-0.1-1.7-0.3c-0.5-0.2-1-0.5-1.3-0.9c-0.4-0.4-0.7-0.9-0.9-1.4
				c-0.2-0.5-0.3-1.1-0.3-1.6c0-0.6,0.1-1.1,0.3-1.7c0.2-0.5,0.5-1,0.9-1.4c0.4-0.4,0.8-0.7,1.3-0.9c0.5-0.2,1.1-0.3,1.7-0.3
				c0.6,0,1.2,0.1,1.7,0.3c0.5,0.2,1,0.5,1.3,0.9c0.4,0.4,0.7,0.9,0.9,1.4c0.2,0.5,0.3,1.1,0.3,1.7c0,0.6-0.1,1.1-0.3,1.6
				c-0.2,0.5-0.5,1-0.9,1.4c-0.4,0.4-0.8,0.7-1.3,0.9S196.6,234.2,196,234.2z M193.2,229.9c0,0.6,0.1,1.1,0.4,1.6
				c0.3,0.5,0.6,0.8,1,1.1c0.4,0.3,0.9,0.4,1.4,0.4c0.5,0,1-0.1,1.4-0.4c0.4-0.3,0.8-0.6,1-1.1c0.3-0.5,0.4-1,0.4-1.6
				c0-0.6-0.1-1.1-0.4-1.6c-0.2-0.5-0.6-0.8-1-1.1c-0.4-0.3-0.9-0.4-1.4-0.4c-0.5,0-1,0.1-1.4,0.4c-0.4,0.3-0.7,0.7-1,1.1
				C193.3,228.8,193.2,229.3,193.2,229.9z"/>
			<path class="st4" d="M201.8,230.7v-5h1.4v4.7c0,0.8,0.1,1.5,0.4,1.9c0.3,0.4,0.7,0.6,1.3,0.6c0.4,0,0.8-0.1,1.1-0.2
				s0.7-0.4,1-0.7c0.3-0.3,0.5-0.7,0.7-1.1v-5.2h1.4v6.7c0,0.2,0,0.3,0.1,0.4c0.1,0.1,0.2,0.1,0.3,0.1v1.1c-0.2,0-0.3,0-0.4,0
				c-0.1,0-0.2,0-0.3,0c-0.3,0-0.5-0.1-0.7-0.2c-0.2-0.2-0.3-0.4-0.3-0.6l0-1c-0.4,0.6-0.9,1.1-1.5,1.4c-0.6,0.3-1.3,0.5-2,0.5
				c-0.9,0-1.5-0.3-2-0.9S201.8,231.8,201.8,230.7z"/>
			<path class="st4" d="M216,226.9c-0.7,0-1.3,0.2-1.9,0.5c-0.5,0.3-0.9,0.8-1.1,1.4v5.2h-1.4v-8.3h1.3v1.9c0.3-0.6,0.7-1,1.1-1.4
				c0.5-0.4,1-0.6,1.5-0.6c0.1,0,0.2,0,0.3,0c0.1,0,0.1,0,0.2,0V226.9z"/>
			<path class="st4" d="M220.2,234.2c-0.7,0-1.3-0.1-2-0.3c-0.6-0.2-1.1-0.6-1.6-1l0.5-1c0.5,0.4,1,0.8,1.4,1c0.5,0.2,1,0.3,1.5,0.3
				c0.6,0,1-0.1,1.4-0.3s0.5-0.5,0.5-1c0-0.3-0.1-0.5-0.3-0.7s-0.5-0.3-0.8-0.4c-0.3-0.1-0.7-0.2-1.2-0.3c-0.6-0.2-1.1-0.3-1.5-0.5
				s-0.7-0.4-0.9-0.7c-0.2-0.3-0.3-0.6-0.3-1.1c0-0.5,0.1-1,0.4-1.3c0.3-0.4,0.7-0.6,1.1-0.8c0.5-0.2,1-0.3,1.7-0.3
				c0.6,0,1.2,0.1,1.7,0.3c0.5,0.2,0.9,0.5,1.3,0.8l-0.6,1c-0.3-0.3-0.7-0.6-1.1-0.8c-0.4-0.2-0.8-0.2-1.3-0.2c-0.3,0-0.6,0-0.8,0.1
				c-0.3,0.1-0.5,0.2-0.7,0.4c-0.2,0.2-0.3,0.4-0.3,0.7c0,0.3,0.1,0.5,0.2,0.6c0.1,0.2,0.4,0.3,0.6,0.4c0.3,0.1,0.6,0.2,1,0.3
				c0.6,0.2,1.2,0.4,1.6,0.5s0.8,0.4,1.1,0.7s0.4,0.7,0.4,1.2c0,0.8-0.3,1.4-0.9,1.8C222,233.9,221.2,234.2,220.2,234.2z"/>
			<path class="st4" d="M228.8,234.2c-0.6,0-1.2-0.1-1.7-0.3c-0.5-0.2-1-0.5-1.3-0.9c-0.4-0.4-0.7-0.9-0.9-1.4s-0.3-1.1-0.3-1.7
				c0-0.8,0.2-1.5,0.5-2.1c0.4-0.6,0.9-1.2,1.5-1.6c0.6-0.4,1.4-0.6,2.2-0.6c0.8,0,1.6,0.2,2.2,0.6s1.1,0.9,1.5,1.6
				c0.3,0.6,0.5,1.3,0.5,2.1c0,0.1,0,0.2,0,0.3c0,0.1,0,0.2,0,0.2h-6.9c0,0.5,0.2,1,0.5,1.4c0.3,0.4,0.6,0.7,1,1s0.9,0.4,1.3,0.4
				c0.5,0,1-0.1,1.4-0.4c0.5-0.3,0.8-0.6,0.9-1l1.2,0.3c-0.2,0.4-0.5,0.8-0.8,1.1c-0.4,0.3-0.8,0.6-1.3,0.8
				C229.9,234.1,229.4,234.2,228.8,234.2z M226,229.4h5.7c0-0.5-0.2-1-0.5-1.4s-0.6-0.7-1-1c-0.4-0.2-0.9-0.3-1.4-0.3
				c-0.5,0-0.9,0.1-1.4,0.3c-0.4,0.2-0.8,0.6-1,1S226.1,228.8,226,229.4z"/>
		</g>
	</g>
</g>
</svg>
