<?xml version="1.0" encoding="utf-8"?>
<!-- Generator: Adobe Illustrator 26.0.1, SVG Export Plug-In . SVG Version: 6.00 Build 0)  -->
<svg version="1.1" id="Layer_1" xmlns="http://www.w3.org/2000/svg" xmlns:xlink="http://www.w3.org/1999/xlink" x="0px" y="0px"
	 viewBox="0 0 250 250" style="enable-background:new 0 0 250 250;" xml:space="preserve">
<style type="text/css">
	.st0{clip-path:url(#SVGID_00000000906599641992468950000000163952829673501887_);}
	.st1{fill:#FFFFFF;}
	.st2{fill:#035397;}
	.st3{enable-background:new    ;}
	.st4{fill:#F1F1F1;}
	.st5{fill:#757575;}
	.st6{fill:#CACACA;}
	.st7{fill:#EAEAEA;}
	.st8{fill:#EEEEEE;}
	.st9{fill:#1A1818;}
</style>
<g>
	<defs>
		<rect id="SVGID_1_" y="0" width="250" height="250"/>
	</defs>
	<clipPath id="SVGID_00000168082755153314131910000012686844427549879683_">
		<use xlink:href="#SVGID_1_"  style="overflow:visible;"/>
	</clipPath>
	<g id="AutoCAD" style="clip-path:url(#SVGID_00000168082755153314131910000012686844427549879683_);">
		<rect y="0" class="st1" width="250" height="250"/>
		<path id="Rectangle_1" class="st2" d="M7,0h236c3.9,0,7,3.1,7,7v236c0,3.9-3.1,7-7,7H7c-3.9,0-7-3.1-7-7V7C0,3.1,3.1,0,7,0z"/>
		<g class="st3">
			<path class="st4" d="M88.3,16.8h1.5L95.6,31h-1.9l-1.6-4.2H86L84.4,31h-1.9L88.3,16.8z M91.5,25.4L89,18.9l-2.5,6.6H91.5z"/>
			<path class="st4" d="M96.9,26.8v-6.2h1.8v5.9c0,1.1,0.2,1.9,0.6,2.4c0.4,0.5,0.9,0.8,1.7,0.8c0.5,0,0.9-0.1,1.4-0.3
				c0.4-0.2,0.8-0.5,1.2-0.9c0.4-0.4,0.6-0.8,0.8-1.4v-6.5h1.8V29c0,0.2,0,0.4,0.1,0.5c0.1,0.1,0.2,0.2,0.4,0.2V31
				c-0.2,0-0.4,0-0.5,0s-0.2,0-0.3,0c-0.3,0-0.6-0.1-0.9-0.3c-0.2-0.2-0.4-0.5-0.4-0.8l0-1.2c-0.5,0.8-1.1,1.4-1.8,1.8
				c-0.8,0.4-1.6,0.6-2.5,0.6c-1.1,0-1.9-0.4-2.5-1.1C97.2,29.4,96.9,28.3,96.9,26.8z"/>
			<path class="st4" d="M114.4,30.5c-0.1,0.1-0.3,0.2-0.6,0.3c-0.3,0.1-0.5,0.2-0.9,0.3c-0.3,0.1-0.7,0.1-1.1,0.1
				c-0.4,0-0.8-0.1-1.2-0.2c-0.4-0.2-0.6-0.4-0.9-0.7c-0.2-0.3-0.3-0.7-0.3-1.2v-7h-1.4v-1.4h1.4v-3.5h1.8v3.5h2.3V22h-2.3v6.5
				c0,0.4,0.2,0.6,0.4,0.8c0.2,0.2,0.5,0.3,0.8,0.3c0.3,0,0.7-0.1,1-0.2c0.3-0.1,0.5-0.2,0.6-0.3L114.4,30.5z"/>
			<path class="st4" d="M120.5,31.2c-0.8,0-1.5-0.1-2.1-0.4c-0.6-0.3-1.2-0.7-1.7-1.2s-0.8-1.1-1.1-1.7s-0.4-1.3-0.4-2
				c0-0.7,0.1-1.4,0.4-2.1s0.6-1.2,1.1-1.7c0.5-0.5,1-0.9,1.7-1.2c0.6-0.3,1.4-0.4,2.2-0.4c0.8,0,1.5,0.1,2.1,0.4
				c0.6,0.3,1.2,0.7,1.7,1.2c0.5,0.5,0.8,1.1,1.1,1.7c0.3,0.6,0.4,1.3,0.4,2.1c0,0.7-0.1,1.4-0.4,2c-0.3,0.6-0.6,1.2-1.1,1.7
				s-1,0.9-1.7,1.2C122,31.1,121.2,31.2,120.5,31.2z M117,25.9c0,0.7,0.2,1.4,0.5,1.9c0.3,0.6,0.7,1,1.2,1.4
				c0.5,0.3,1.1,0.5,1.7,0.5c0.6,0,1.2-0.2,1.8-0.5c0.5-0.3,0.9-0.8,1.3-1.4c0.3-0.6,0.5-1.2,0.5-1.9s-0.2-1.4-0.5-1.9
				c-0.3-0.6-0.7-1-1.3-1.4c-0.5-0.3-1.1-0.5-1.8-0.5c-0.6,0-1.2,0.2-1.7,0.5c-0.5,0.3-0.9,0.8-1.2,1.4
				C117.2,24.5,117,25.1,117,25.9z"/>
			<path class="st4" d="M127.2,23.8c0-0.9,0.2-1.7,0.5-2.5c0.3-0.8,0.7-1.6,1.3-2.3s1.3-1.2,2.1-1.6c0.8-0.4,1.8-0.6,2.9-0.6
				c1.3,0,2.4,0.3,3.3,0.9c0.9,0.6,1.6,1.3,2,2.2l-1.4,0.9c-0.3-0.6-0.6-1.1-1.1-1.4c-0.4-0.4-0.9-0.6-1.4-0.8s-1-0.2-1.5-0.2
				c-0.8,0-1.5,0.2-2.1,0.5c-0.6,0.3-1.1,0.7-1.5,1.3s-0.7,1.1-0.9,1.8c-0.2,0.7-0.3,1.3-0.3,2c0,0.7,0.1,1.4,0.4,2.1
				c0.2,0.7,0.6,1.3,1,1.8c0.4,0.5,1,0.9,1.6,1.2c0.6,0.3,1.3,0.5,2,0.5c0.5,0,1-0.1,1.5-0.3c0.5-0.2,1-0.4,1.5-0.8
				c0.5-0.4,0.8-0.8,1.1-1.4l1.5,0.8c-0.3,0.7-0.7,1.3-1.4,1.8c-0.6,0.5-1.3,0.9-2,1.1c-0.8,0.3-1.5,0.4-2.2,0.4
				c-1,0-1.9-0.2-2.7-0.6s-1.5-1-2.1-1.7c-0.6-0.7-1.1-1.5-1.4-2.4C127.4,25.6,127.2,24.7,127.2,23.8z"/>
			<path class="st4" d="M145.9,16.8h1.5l5.8,14.2h-1.9l-1.6-4.2h-6.1L142,31h-1.9L145.9,16.8z M149.2,25.4l-2.5-6.6l-2.5,6.6H149.2z
				"/>
			<path class="st4" d="M155.1,31V16.8h4.9c1.5,0,2.8,0.3,3.8,1c1,0.6,1.8,1.5,2.3,2.6c0.5,1.1,0.8,2.3,0.8,3.6
				c0,1.4-0.3,2.7-0.8,3.8c-0.6,1.1-1.4,1.9-2.4,2.5c-1,0.6-2.2,0.9-3.6,0.9H155.1z M165.1,23.9c0-1.1-0.2-2-0.6-2.8
				c-0.4-0.8-1-1.5-1.7-1.9c-0.7-0.5-1.7-0.7-2.7-0.7h-3.1v11h3.1c1.1,0,2-0.2,2.8-0.7c0.7-0.5,1.3-1.1,1.7-2
				C164.9,25.9,165.1,24.9,165.1,23.9z"/>
		</g>
		<g id="Group_274" transform="translate(-65.973 -63)">
			<path id="Rectangle_8" class="st5" d="M130,158.2h136l0,0v112l0,0H133.5c-1.9,0-3.5-1.6-3.5-3.5V158.2L130,158.2z"/>
			<path id="Rectangle_9" class="st6" d="M140.7,132h111.5c2.7,0,4.8,2.2,4.8,4.8l0,0v107.9l0,0H140.7l0,0V132L140.7,132z"/>
			<path id="Path_333" class="st7" d="M116,260.3l24.7-15.5V132L116,147.5V260.3z"/>
			<g id="Group_261" transform="translate(169.762 156.73)">
				<path id="Path_334" class="st8" d="M38.3,49.5h-19l-3.5,13.8H0L18.1,0h21.1l19.1,63.3H42.1L38.3,49.5z M28.6,10.4l-6.4,27.3h13
					L28.6,10.4z"/>
			</g>
			<g id="Group_266" transform="translate(174.088 249.017)">
				<path id="Path_350" class="st9" d="M3.2,17.6c-1-0.5-1.8-1.3-2.4-2.3C0.3,14.1,0,12.9,0,11.7V7.1c0-1.3,0.3-2.6,0.9-3.7
					c0.6-1,1.4-1.9,2.4-2.5C4.5,0.3,5.8,0,7.1,0c1,0,2,0.1,3,0.5c0.9,0.3,1.7,0.8,2.4,1.4l-1.6,1.8c-0.5-0.4-1.1-0.7-1.7-1
					c-0.6-0.2-1.3-0.3-2-0.3C6.1,2.4,5,2.8,4.2,3.6c-0.8,0.9-1.1,2.1-1,3.3v4.8c-0.1,1.1,0.3,2.3,1,3.2C4.9,15.6,6,16,7,15.9
					c0.7,0,1.5-0.1,2.1-0.3c0.7-0.2,1.3-0.6,1.8-1l1.3,1.9c-0.7,0.6-1.5,1-2.4,1.3c-1,0.4-2,0.5-3,0.5C5.7,18.4,4.4,18.1,3.2,17.6z"
					/>
				<path id="Path_351" class="st9" d="M26.6,13.4h-6.1l-1.3,4.7h-3.2l5.4-17.7h4.3l5.7,17.7h-3.3L26.6,13.4z M21.2,10.8h4.6
					l-2.3-8.3L21.2,10.8z"/>
				<path id="Path_352" class="st9" d="M46.5,2.2c1.3,1.4,1.9,3.3,1.8,5.2v3.1c0.1,2-0.6,4-2,5.5c-1.6,1.4-3.7,2.1-5.8,2h-5.1V0.3
					h5.8C43.1,0.2,45.1,0.9,46.5,2.2z M45.2,7.3c0.1-1.2-0.3-2.4-1-3.4c-0.8-0.8-2-1.3-3.1-1.2h-2.4v12.8h2c1.3,0.1,2.5-0.4,3.5-1.2
					c0.8-1.1,1.3-2.4,1.1-3.7L45.2,7.3z"/>
			</g>
		</g>
	</g>
</g>
</svg>
