<?xml version="1.0" encoding="utf-8"?>
<!-- Generator: Adobe Illustrator 26.0.1, SVG Export Plug-In . SVG Version: 6.00 Build 0)  -->
<svg version="1.1" id="Layer_1" xmlns="http://www.w3.org/2000/svg" xmlns:xlink="http://www.w3.org/1999/xlink" x="0px" y="0px"
	 viewBox="0 0 250 250" style="enable-background:new 0 0 250 250;" xml:space="preserve">
<style type="text/css">
	.st0{clip-path:url(#SVGID_00000070836052890221206830000013487679443841130631_);}
	.st1{fill:#FFFFFF;}
	.st2{fill:#035397;}
	.st3{enable-background:new    ;}
	.st4{fill:#F1F1F1;}
	.st5{fill:none;stroke:#F1F1F1;stroke-width:4;}
	.st6{fill:none;stroke:#F1F1F1;}
</style>
<g>
	<defs>
		<rect id="SVGID_1_" y="0" width="250" height="250"/>
	</defs>
	<clipPath id="SVGID_00000118368354751974380510000003397935810144594568_">
		<use xlink:href="#SVGID_1_"  style="overflow:visible;"/>
	</clipPath>
	<g id="Diploma-in-Architectural-Designing" style="clip-path:url(#SVGID_00000118368354751974380510000003397935810144594568_);">
		<rect y="0" class="st1" width="250" height="250"/>
		<g id="Group_238">
			<path id="Rectangle_1" class="st2" d="M7,0h236c3.9,0,7,3.1,7,7v236c0,3.9-3.1,7-7,7H7c-3.9,0-7-3.1-7-7V7C0,3.1,3.1,0,7,0z"/>
			<g class="st3">
				<path class="st4" d="M74.1,31V16.8H79c1.5,0,2.8,0.3,3.8,1c1,0.6,1.8,1.5,2.3,2.6c0.5,1.1,0.8,2.3,0.8,3.6
					c0,1.4-0.3,2.7-0.8,3.8c-0.6,1.1-1.4,1.9-2.4,2.5S80.4,31,79,31H74.1z M84.1,23.9c0-1.1-0.2-2-0.6-2.8c-0.4-0.8-1-1.5-1.7-1.9
					c-0.7-0.5-1.7-0.7-2.7-0.7h-3.1v11H79c1.1,0,2-0.2,2.8-0.7c0.7-0.5,1.3-1.1,1.7-2C83.9,25.9,84.1,24.9,84.1,23.9z"/>
				<path class="st4" d="M88.2,18.6v-2.2h1.8v2.2H88.2z M88.2,31V20.6h1.8V31H88.2z"/>
				<path class="st4" d="M98.4,31.2c-0.9,0-1.6-0.2-2.3-0.6c-0.7-0.4-1.2-1-1.6-1.6v6.3h-1.8V20.6h1.6v2c0.4-0.6,1-1.1,1.6-1.5
					c0.7-0.4,1.4-0.6,2.2-0.6c0.7,0,1.4,0.1,2,0.4c0.6,0.3,1.1,0.7,1.6,1.2s0.8,1.1,1,1.7c0.2,0.6,0.4,1.3,0.4,2
					c0,1-0.2,1.9-0.6,2.7c-0.4,0.8-0.9,1.5-1.6,2C100.1,31,99.3,31.2,98.4,31.2z M97.8,29.7c0.5,0,1-0.1,1.4-0.3s0.8-0.5,1.1-0.9
					c0.3-0.4,0.5-0.8,0.7-1.2c0.2-0.5,0.2-0.9,0.2-1.4c0-0.5-0.1-1-0.3-1.5c-0.2-0.5-0.4-0.9-0.8-1.2c-0.3-0.4-0.7-0.6-1.1-0.8
					c-0.4-0.2-0.9-0.3-1.4-0.3c-0.3,0-0.6,0.1-1,0.2c-0.3,0.1-0.7,0.3-1,0.5c-0.3,0.2-0.6,0.5-0.8,0.7c-0.2,0.3-0.4,0.6-0.4,0.9v3
					c0.2,0.4,0.5,0.9,0.8,1.2c0.3,0.4,0.7,0.7,1.2,0.9C96.9,29.6,97.4,29.7,97.8,29.7z"/>
				<path class="st4" d="M105.3,16.4h1.8v12c0,0.6,0.1,0.9,0.2,1.1s0.4,0.2,0.6,0.2c0.3,0,0.5,0,0.8-0.1c0.3-0.1,0.5-0.1,0.6-0.2
					l0.3,1.4c-0.3,0.1-0.6,0.2-1,0.3c-0.4,0.1-0.8,0.1-1.1,0.1c-0.7,0-1.2-0.2-1.6-0.6c-0.4-0.4-0.6-0.9-0.6-1.6V16.4z"/>
				<path class="st4" d="M115.5,31.2c-0.8,0-1.5-0.1-2.1-0.4c-0.6-0.3-1.2-0.7-1.7-1.2c-0.5-0.5-0.8-1.1-1.1-1.7
					c-0.3-0.6-0.4-1.3-0.4-2c0-0.7,0.1-1.4,0.4-2.1c0.3-0.6,0.6-1.2,1.1-1.7c0.5-0.5,1-0.9,1.7-1.2c0.6-0.3,1.4-0.4,2.1-0.4
					c0.8,0,1.5,0.1,2.1,0.4c0.6,0.3,1.2,0.7,1.7,1.2c0.5,0.5,0.8,1.1,1.1,1.7s0.4,1.3,0.4,2.1c0,0.7-0.1,1.4-0.4,2s-0.6,1.2-1.1,1.7
					s-1,0.9-1.7,1.2C117,31.1,116.3,31.2,115.5,31.2z M112,25.9c0,0.7,0.2,1.4,0.5,1.9c0.3,0.6,0.7,1,1.2,1.4
					c0.5,0.3,1.1,0.5,1.7,0.5s1.2-0.2,1.8-0.5c0.5-0.3,0.9-0.8,1.3-1.4c0.3-0.6,0.5-1.2,0.5-1.9s-0.2-1.4-0.5-1.9
					c-0.3-0.6-0.7-1-1.3-1.4c-0.5-0.3-1.1-0.5-1.8-0.5s-1.2,0.2-1.7,0.5c-0.5,0.3-0.9,0.8-1.2,1.4C112.2,24.5,112,25.1,112,25.9z"/>
				<path class="st4" d="M138.7,31h-1.8v-5.8c0-1.1-0.2-1.9-0.5-2.4s-0.9-0.8-1.6-0.8c-0.7,0-1.3,0.3-1.9,0.8s-1,1.2-1.2,2V31h-1.8
					v-5.8c0-1.1-0.2-1.9-0.5-2.4s-0.9-0.8-1.6-0.8s-1.3,0.2-1.9,0.7s-1,1.1-1.2,2V31h-1.8V20.6h1.6v2.2c0.4-0.8,1-1.4,1.7-1.8
					c0.7-0.4,1.4-0.6,2.3-0.6c0.9,0,1.6,0.2,2.1,0.7c0.5,0.5,0.8,1.1,1,1.8c0.5-0.8,1-1.4,1.7-1.9c0.7-0.4,1.4-0.6,2.3-0.6
					c0.6,0,1.1,0.1,1.5,0.3c0.4,0.2,0.7,0.5,1,0.9c0.2,0.4,0.4,0.9,0.5,1.4s0.2,1.1,0.2,1.7V31z"/>
				<path class="st4" d="M140.6,28c0-0.7,0.2-1.2,0.6-1.7c0.4-0.5,0.9-0.9,1.6-1.1c0.7-0.3,1.4-0.4,2.3-0.4c0.5,0,1,0,1.5,0.1
					c0.5,0.1,1,0.2,1.4,0.3v-0.8c0-0.8-0.2-1.4-0.7-1.9c-0.5-0.5-1.2-0.7-2-0.7c-0.6,0-1.1,0.1-1.7,0.3c-0.5,0.2-1.1,0.5-1.7,0.9
					l-0.6-1.2c0.7-0.5,1.4-0.8,2-1.1c0.7-0.2,1.4-0.3,2.1-0.3c1.3,0,2.4,0.4,3.2,1.1s1.2,1.8,1.2,3.1V29c0,0.2,0,0.4,0.1,0.5
					s0.2,0.2,0.4,0.2V31c-0.2,0-0.3,0-0.5,0.1c-0.1,0-0.2,0-0.3,0c-0.4,0-0.7-0.1-0.9-0.3c-0.2-0.2-0.3-0.5-0.3-0.7l0-0.7
					c-0.5,0.6-1,1-1.8,1.4c-0.7,0.3-1.5,0.5-2.2,0.5c-0.7,0-1.3-0.1-1.9-0.4c-0.5-0.3-1-0.7-1.3-1.2S140.6,28.6,140.6,28z
					 M147.4,28.7c0.2-0.2,0.3-0.4,0.4-0.6c0.1-0.2,0.1-0.4,0.1-0.5v-1.3c-0.4-0.2-0.8-0.3-1.3-0.4c-0.5-0.1-0.9-0.1-1.3-0.1
					c-0.9,0-1.6,0.2-2.2,0.5c-0.6,0.3-0.8,0.8-0.8,1.4c0,0.3,0.1,0.7,0.3,1c0.2,0.3,0.4,0.6,0.8,0.8s0.8,0.3,1.3,0.3
					c0.5,0,1.1-0.1,1.6-0.3S147.1,29.1,147.4,28.7z"/>
				<path class="st4" d="M157.5,18.6v-2.2h1.8v2.2H157.5z M157.5,31V20.6h1.8V31H157.5z"/>
				<path class="st4" d="M171.2,31h-1.8v-5.8c0-1.1-0.2-1.9-0.5-2.4s-0.9-0.8-1.5-0.8c-0.5,0-1,0.1-1.4,0.4c-0.5,0.2-0.9,0.6-1.3,1
					c-0.4,0.4-0.6,0.9-0.8,1.4V31h-1.8V20.6h1.6v2.2c0.3-0.5,0.6-0.9,1.1-1.3c0.4-0.4,0.9-0.6,1.5-0.8c0.6-0.2,1.1-0.3,1.8-0.3
					c0.6,0,1.1,0.1,1.5,0.3c0.4,0.2,0.7,0.5,1,0.9c0.2,0.4,0.4,0.9,0.5,1.4c0.1,0.5,0.2,1.1,0.2,1.7V31z"/>
			</g>
			<g class="st3">
				<path class="st4" d="M21.5,40.8H23L28.8,55h-1.9l-1.6-4.2h-6.1L17.6,55h-1.9L21.5,40.8z M24.8,49.4l-2.5-6.6l-2.5,6.6H24.8z"/>
				<path class="st4" d="M35.9,46.1c-0.9,0-1.7,0.2-2.3,0.7c-0.7,0.4-1.1,1-1.4,1.8V55h-1.8V44.6h1.6V47c0.4-0.7,0.8-1.3,1.4-1.8
					c0.6-0.4,1.2-0.7,1.9-0.8c0.1,0,0.2,0,0.3,0c0.1,0,0.2,0,0.2,0V46.1z"/>
				<path class="st4" d="M42.1,55.2c-0.8,0-1.5-0.1-2.1-0.4c-0.6-0.3-1.2-0.7-1.7-1.2c-0.5-0.5-0.8-1.1-1.1-1.7
					c-0.3-0.6-0.4-1.3-0.4-2.1c0-1,0.2-1.9,0.7-2.7s1.1-1.5,1.9-1.9c0.8-0.5,1.7-0.7,2.8-0.7c1,0,1.9,0.2,2.7,0.7s1.3,1.1,1.7,1.8
					l-1.7,0.5c-0.3-0.5-0.6-0.9-1.1-1.2c-0.5-0.3-1-0.4-1.6-0.4c-0.6,0-1.2,0.2-1.8,0.5c-0.5,0.3-0.9,0.8-1.2,1.4s-0.5,1.2-0.5,2
					c0,0.7,0.2,1.4,0.5,2c0.3,0.6,0.7,1.1,1.3,1.4c0.5,0.3,1.1,0.5,1.8,0.5c0.4,0,0.8-0.1,1.2-0.2s0.7-0.3,1-0.6s0.5-0.5,0.6-0.8
					l1.7,0.5c-0.2,0.5-0.5,1-1,1.3c-0.4,0.4-0.9,0.7-1.5,0.9C43.4,55.1,42.8,55.2,42.1,55.2z"/>
				<path class="st4" d="M57.6,55h-1.8v-5.8c0-1.1-0.2-1.8-0.6-2.4c-0.4-0.5-0.9-0.8-1.6-0.8c-0.5,0-0.9,0.1-1.4,0.4
					c-0.5,0.2-0.9,0.6-1.2,1c-0.3,0.4-0.6,0.9-0.8,1.4V55h-1.8V40.4h1.8v6.5c0.4-0.7,1-1.3,1.7-1.8c0.7-0.4,1.5-0.6,2.3-0.6
					c0.6,0,1.1,0.1,1.6,0.3c0.4,0.2,0.8,0.5,1,0.9c0.3,0.4,0.4,0.9,0.6,1.4c0.1,0.5,0.2,1.1,0.2,1.7V55z"/>
				<path class="st4" d="M60.3,42.6v-2.2h1.8v2.2H60.3z M60.3,55V44.6h1.8V55H60.3z"/>
				<path class="st4" d="M70.3,54.5c-0.1,0.1-0.3,0.2-0.6,0.3c-0.3,0.1-0.5,0.2-0.9,0.3s-0.7,0.1-1.1,0.1c-0.4,0-0.8-0.1-1.2-0.2
					s-0.6-0.4-0.9-0.7c-0.2-0.3-0.3-0.7-0.3-1.2v-7H64v-1.4h1.4v-3.5h1.8v3.5h2.3V46h-2.3v6.5c0,0.4,0.2,0.6,0.4,0.8
					c0.2,0.2,0.5,0.3,0.8,0.3c0.3,0,0.7-0.1,1-0.2c0.3-0.1,0.5-0.2,0.6-0.3L70.3,54.5z"/>
				<path class="st4" d="M76.4,55.2c-0.8,0-1.5-0.1-2.1-0.4c-0.6-0.3-1.2-0.7-1.7-1.2c-0.5-0.5-0.8-1.1-1.1-1.7
					c-0.3-0.6-0.4-1.3-0.4-2.1c0-1,0.2-1.9,0.7-2.7c0.5-0.8,1.1-1.5,1.9-1.9c0.8-0.5,1.7-0.7,2.8-0.7c1.1,0,2,0.2,2.8,0.7
					c0.8,0.5,1.4,1.1,1.8,1.9c0.4,0.8,0.6,1.7,0.6,2.6c0,0.1,0,0.3,0,0.4c0,0.1,0,0.2,0,0.3H73c0.1,0.7,0.2,1.3,0.6,1.8
					c0.3,0.5,0.8,0.9,1.3,1.2c0.5,0.3,1.1,0.4,1.7,0.4c0.6,0,1.2-0.2,1.8-0.5c0.6-0.3,1-0.7,1.2-1.3l1.5,0.4c-0.2,0.5-0.6,1-1,1.4
					s-1,0.7-1.6,0.9C77.8,55.1,77.1,55.2,76.4,55.2z M72.9,49.2H80c-0.1-0.7-0.2-1.3-0.6-1.8c-0.3-0.5-0.8-0.9-1.3-1.2
					s-1.1-0.4-1.7-0.4c-0.6,0-1.2,0.1-1.7,0.4s-0.9,0.7-1.3,1.2S73,48.5,72.9,49.2z"/>
				<path class="st4" d="M88.3,55.2c-0.8,0-1.5-0.1-2.1-0.4c-0.6-0.3-1.2-0.7-1.7-1.2c-0.5-0.5-0.8-1.1-1.1-1.7
					c-0.3-0.6-0.4-1.3-0.4-2.1c0-1,0.2-1.9,0.7-2.7s1.1-1.5,1.9-1.9c0.8-0.5,1.7-0.7,2.8-0.7c1,0,1.9,0.2,2.7,0.7s1.3,1.1,1.7,1.8
					l-1.7,0.5c-0.3-0.5-0.6-0.9-1.1-1.2c-0.5-0.3-1-0.4-1.6-0.4c-0.6,0-1.2,0.2-1.8,0.5c-0.5,0.3-0.9,0.8-1.2,1.4s-0.5,1.2-0.5,2
					c0,0.7,0.2,1.4,0.5,2c0.3,0.6,0.7,1.1,1.3,1.4c0.5,0.3,1.1,0.5,1.8,0.5c0.4,0,0.8-0.1,1.2-0.2s0.7-0.3,1-0.6s0.5-0.5,0.6-0.8
					l1.7,0.5c-0.2,0.5-0.5,1-1,1.3c-0.4,0.4-0.9,0.7-1.5,0.9C89.6,55.1,89,55.2,88.3,55.2z"/>
				<path class="st4" d="M100.1,54.5c-0.1,0.1-0.3,0.2-0.6,0.3c-0.3,0.1-0.5,0.2-0.9,0.3s-0.7,0.1-1.1,0.1c-0.4,0-0.8-0.1-1.2-0.2
					s-0.6-0.4-0.9-0.7c-0.2-0.3-0.3-0.7-0.3-1.2v-7h-1.4v-1.4h1.4v-3.5H97v3.5h2.3V46H97v6.5c0,0.4,0.2,0.6,0.4,0.8
					c0.2,0.2,0.5,0.3,0.8,0.3c0.3,0,0.7-0.1,1-0.2c0.3-0.1,0.5-0.2,0.6-0.3L100.1,54.5z"/>
				<path class="st4" d="M101.7,50.8v-6.2h1.8v5.9c0,1.1,0.2,1.9,0.6,2.4c0.4,0.5,0.9,0.8,1.7,0.8c0.5,0,0.9-0.1,1.4-0.3
					s0.9-0.5,1.2-0.9c0.4-0.4,0.6-0.8,0.8-1.4v-6.5h1.8V53c0,0.2,0,0.4,0.1,0.5c0.1,0.1,0.2,0.2,0.4,0.2V55c-0.2,0-0.4,0-0.5,0
					s-0.2,0-0.3,0c-0.3,0-0.6-0.1-0.9-0.3c-0.2-0.2-0.4-0.5-0.4-0.8l0-1.2c-0.5,0.8-1.1,1.4-1.8,1.8c-0.8,0.4-1.6,0.6-2.5,0.6
					c-1.1,0-1.9-0.4-2.5-1.1C101.9,53.4,101.7,52.3,101.7,50.8z"/>
				<path class="st4" d="M119.3,46.1c-0.9,0-1.7,0.2-2.3,0.7c-0.7,0.4-1.1,1-1.4,1.8V55h-1.8V44.6h1.6V47c0.4-0.7,0.8-1.3,1.4-1.8
					c0.6-0.4,1.2-0.7,1.9-0.8c0.1,0,0.2,0,0.3,0c0.1,0,0.2,0,0.2,0V46.1z"/>
				<path class="st4" d="M120.2,52c0-0.7,0.2-1.2,0.6-1.7c0.4-0.5,0.9-0.9,1.6-1.1c0.7-0.3,1.4-0.4,2.3-0.4c0.5,0,1,0,1.5,0.1
					c0.5,0.1,1,0.2,1.4,0.3v-0.8c0-0.8-0.2-1.4-0.7-1.9c-0.5-0.5-1.2-0.7-2-0.7c-0.6,0-1.1,0.1-1.7,0.3c-0.5,0.2-1.1,0.5-1.7,0.9
					l-0.6-1.2c0.7-0.5,1.4-0.8,2-1.1c0.7-0.2,1.4-0.3,2.1-0.3c1.3,0,2.4,0.4,3.2,1.1c0.8,0.7,1.2,1.8,1.2,3.1V53
					c0,0.2,0,0.4,0.1,0.5c0.1,0.1,0.2,0.2,0.4,0.2V55c-0.2,0-0.3,0-0.5,0.1c-0.1,0-0.2,0-0.3,0c-0.4,0-0.7-0.1-0.9-0.3
					c-0.2-0.2-0.3-0.5-0.3-0.7l0-0.7c-0.5,0.6-1,1-1.8,1.4c-0.7,0.3-1.5,0.5-2.2,0.5c-0.7,0-1.3-0.1-1.9-0.4c-0.5-0.3-1-0.7-1.3-1.2
					C120.4,53.1,120.2,52.6,120.2,52z M127,52.7c0.2-0.2,0.3-0.4,0.4-0.6c0.1-0.2,0.1-0.4,0.1-0.5v-1.3c-0.4-0.2-0.8-0.3-1.3-0.4
					c-0.5-0.1-0.9-0.1-1.3-0.1c-0.9,0-1.6,0.2-2.2,0.5s-0.8,0.8-0.8,1.4c0,0.3,0.1,0.7,0.3,1c0.2,0.3,0.4,0.6,0.8,0.8
					c0.4,0.2,0.8,0.3,1.3,0.3c0.5,0,1.1-0.1,1.6-0.3C126.3,53.3,126.7,53.1,127,52.7z"/>
				<path class="st4" d="M132.2,40.4h1.8v12c0,0.6,0.1,0.9,0.2,1.1s0.4,0.2,0.6,0.2c0.3,0,0.5,0,0.8-0.1c0.3-0.1,0.5-0.1,0.6-0.2
					l0.3,1.4c-0.3,0.1-0.6,0.2-1,0.3c-0.4,0.1-0.8,0.1-1.1,0.1c-0.7,0-1.2-0.2-1.6-0.6c-0.4-0.4-0.6-0.9-0.6-1.6V40.4z"/>
				<path class="st4" d="M142.6,55V40.8h4.9c1.5,0,2.8,0.3,3.8,1c1,0.6,1.8,1.5,2.3,2.6c0.5,1.1,0.8,2.3,0.8,3.6
					c0,1.4-0.3,2.7-0.8,3.8c-0.6,1.1-1.4,1.9-2.4,2.5c-1,0.6-2.2,0.9-3.6,0.9H142.6z M152.5,47.9c0-1.1-0.2-2-0.6-2.8
					c-0.4-0.8-1-1.5-1.7-1.9c-0.7-0.5-1.7-0.7-2.7-0.7h-3.1v11h3.1c1.1,0,2-0.2,2.8-0.7c0.7-0.5,1.3-1.1,1.7-2
					C152.3,49.9,152.5,48.9,152.5,47.9z"/>
				<path class="st4" d="M161.2,55.2c-0.8,0-1.5-0.1-2.1-0.4c-0.6-0.3-1.2-0.7-1.7-1.2s-0.8-1.1-1.1-1.7s-0.4-1.3-0.4-2.1
					c0-1,0.2-1.9,0.7-2.7c0.5-0.8,1.1-1.5,1.9-1.9c0.8-0.5,1.7-0.7,2.8-0.7c1.1,0,2,0.2,2.8,0.7c0.8,0.5,1.4,1.1,1.8,1.9
					c0.4,0.8,0.7,1.7,0.7,2.6c0,0.1,0,0.3,0,0.4c0,0.1,0,0.2,0,0.3h-8.7c0.1,0.7,0.2,1.3,0.6,1.8c0.3,0.5,0.8,0.9,1.3,1.2
					c0.5,0.3,1.1,0.4,1.7,0.4c0.6,0,1.2-0.2,1.8-0.5c0.6-0.3,1-0.7,1.2-1.3l1.5,0.4c-0.2,0.5-0.6,1-1,1.4c-0.4,0.4-1,0.7-1.6,0.9
					C162.6,55.1,161.9,55.2,161.2,55.2z M157.7,49.2h7.1c-0.1-0.7-0.2-1.3-0.6-1.8c-0.3-0.5-0.8-0.9-1.3-1.2
					c-0.5-0.3-1.1-0.4-1.7-0.4c-0.6,0-1.2,0.1-1.7,0.4c-0.5,0.3-0.9,0.7-1.3,1.2C158,47.9,157.8,48.5,157.7,49.2z"/>
				<path class="st4" d="M172,55.2c-0.9,0-1.7-0.1-2.4-0.4c-0.8-0.3-1.4-0.7-2-1.3l0.7-1.2c0.6,0.6,1.2,1,1.8,1.2
					c0.6,0.2,1.2,0.4,1.8,0.4c0.7,0,1.3-0.1,1.8-0.4s0.7-0.7,0.7-1.2c0-0.4-0.1-0.7-0.3-0.9s-0.6-0.3-1-0.5
					c-0.4-0.1-0.9-0.3-1.5-0.4c-0.7-0.2-1.3-0.4-1.8-0.7c-0.5-0.2-0.9-0.5-1.1-0.9c-0.3-0.4-0.4-0.8-0.4-1.3c0-0.7,0.2-1.2,0.5-1.7
					c0.3-0.5,0.8-0.8,1.4-1c0.6-0.2,1.3-0.4,2.1-0.4c0.8,0,1.5,0.1,2.1,0.4c0.6,0.2,1.2,0.6,1.6,1.1l-0.8,1.2
					c-0.4-0.4-0.9-0.7-1.4-0.9c-0.5-0.2-1-0.3-1.7-0.3c-0.4,0-0.7,0-1.1,0.1s-0.6,0.2-0.9,0.5c-0.2,0.2-0.3,0.5-0.3,0.9
					c0,0.3,0.1,0.6,0.3,0.8c0.2,0.2,0.4,0.4,0.8,0.5c0.4,0.1,0.8,0.3,1.3,0.4c0.8,0.2,1.5,0.4,2,0.7s1,0.5,1.3,0.9
					c0.3,0.4,0.5,0.9,0.5,1.5c0,1-0.4,1.7-1.1,2.3C174.2,54.9,173.2,55.2,172,55.2z"/>
				<path class="st4" d="M178.2,42.6v-2.2h1.8v2.2H178.2z M178.2,55V44.6h1.8V55H178.2z"/>
				<path class="st4" d="M187,55.2c-0.7,0-1.4-0.1-2-0.4c-0.6-0.3-1.1-0.7-1.5-1.2c-0.4-0.5-0.8-1.1-1-1.7s-0.4-1.3-0.4-2
					c0-0.7,0.1-1.4,0.4-2.1s0.6-1.2,1-1.7c0.4-0.5,0.9-0.9,1.5-1.2c0.6-0.3,1.2-0.4,2-0.4c0.9,0,1.6,0.2,2.3,0.6s1.2,1,1.6,1.6v-2.1
					h1.6v10.3c0,1-0.2,1.8-0.7,2.5c-0.5,0.7-1.1,1.2-1.9,1.5c-0.8,0.4-1.7,0.5-2.7,0.5c-1.2,0-2.1-0.2-2.9-0.6
					c-0.7-0.4-1.4-1-1.9-1.7l1-0.9c0.4,0.6,1,1.1,1.6,1.4c0.7,0.3,1.4,0.5,2.1,0.5c0.6,0,1.2-0.1,1.8-0.3c0.5-0.2,1-0.6,1.3-1
					c0.3-0.5,0.5-1.1,0.5-1.8v-1.8c-0.4,0.6-0.9,1.1-1.6,1.5C188.4,55,187.7,55.2,187,55.2z M187.5,53.8c0.4,0,0.7-0.1,1.1-0.2
					c0.3-0.1,0.7-0.3,1-0.5c0.3-0.2,0.5-0.5,0.7-0.8c0.2-0.3,0.3-0.6,0.4-0.9v-3c-0.2-0.5-0.5-0.9-0.8-1.3c-0.3-0.4-0.7-0.7-1.2-0.9
					c-0.4-0.2-0.9-0.3-1.4-0.3c-0.5,0-1,0.1-1.4,0.3s-0.8,0.5-1.1,0.9c-0.3,0.4-0.5,0.8-0.7,1.3s-0.2,0.9-0.2,1.4
					c0,0.5,0.1,1,0.3,1.5s0.4,0.9,0.8,1.2s0.7,0.6,1.1,0.8C186.5,53.7,187,53.8,187.5,53.8z"/>
				<path class="st4" d="M204.3,55h-1.8v-5.8c0-1.1-0.2-1.9-0.5-2.4s-0.9-0.8-1.5-0.8c-0.5,0-1,0.1-1.4,0.4c-0.5,0.2-0.9,0.6-1.3,1
					c-0.4,0.4-0.6,0.9-0.8,1.4V55h-1.8V44.6h1.6v2.2c0.3-0.5,0.6-0.9,1.1-1.3c0.4-0.4,0.9-0.6,1.5-0.8c0.6-0.2,1.1-0.3,1.8-0.3
					c0.6,0,1.1,0.1,1.5,0.3c0.4,0.2,0.7,0.5,1,0.9c0.2,0.4,0.4,0.9,0.5,1.4c0.1,0.5,0.1,1.1,0.1,1.7V55z"/>
				<path class="st4" d="M207.1,42.6v-2.2h1.8v2.2H207.1z M207.1,55V44.6h1.8V55H207.1z"/>
				<path class="st4" d="M220.7,55H219v-5.8c0-1.1-0.2-1.9-0.5-2.4s-0.9-0.8-1.5-0.8c-0.5,0-1,0.1-1.4,0.4c-0.5,0.2-0.9,0.6-1.3,1
					c-0.4,0.4-0.6,0.9-0.8,1.4V55h-1.8V44.6h1.6v2.2c0.3-0.5,0.6-0.9,1.1-1.3c0.4-0.4,0.9-0.6,1.5-0.8c0.6-0.2,1.1-0.3,1.8-0.3
					c0.6,0,1.1,0.1,1.5,0.3c0.4,0.2,0.7,0.5,1,0.9c0.2,0.4,0.4,0.9,0.5,1.4c0.1,0.5,0.2,1.1,0.2,1.7V55z"/>
				<path class="st4" d="M227.6,55.2c-0.7,0-1.4-0.1-2-0.4c-0.6-0.3-1.1-0.7-1.5-1.2c-0.4-0.5-0.8-1.1-1-1.7s-0.4-1.3-0.4-2
					c0-0.7,0.1-1.4,0.4-2.1s0.6-1.2,1-1.7c0.4-0.5,0.9-0.9,1.5-1.2c0.6-0.3,1.2-0.4,2-0.4c0.9,0,1.6,0.2,2.3,0.6s1.2,1,1.6,1.6v-2.1
					h1.6v10.3c0,1-0.2,1.8-0.7,2.5c-0.5,0.7-1.1,1.2-1.9,1.5c-0.8,0.4-1.7,0.5-2.7,0.5c-1.2,0-2.1-0.2-2.9-0.6
					c-0.7-0.4-1.4-1-1.9-1.7l1-0.9c0.4,0.6,1,1.1,1.6,1.4c0.7,0.3,1.4,0.5,2.1,0.5c0.6,0,1.2-0.1,1.8-0.3c0.5-0.2,1-0.6,1.3-1
					c0.3-0.5,0.5-1.1,0.5-1.8v-1.8c-0.4,0.6-0.9,1.1-1.6,1.5C229.1,55,228.4,55.2,227.6,55.2z M228.2,53.8c0.4,0,0.7-0.1,1.1-0.2
					c0.3-0.1,0.7-0.3,1-0.5c0.3-0.2,0.5-0.5,0.7-0.8c0.2-0.3,0.3-0.6,0.4-0.9v-3c-0.2-0.5-0.5-0.9-0.8-1.3c-0.3-0.4-0.7-0.7-1.2-0.9
					c-0.4-0.2-0.9-0.3-1.4-0.3c-0.5,0-1,0.1-1.4,0.3s-0.8,0.5-1.1,0.9c-0.3,0.4-0.5,0.8-0.7,1.3s-0.2,0.9-0.2,1.4
					c0,0.5,0.1,1,0.3,1.5s0.4,0.9,0.8,1.2s0.7,0.6,1.1,0.8C227.2,53.7,227.7,53.8,228.2,53.8z"/>
			</g>
			<g id="Group_3" transform="translate(6.72 11.5)">
				<g id="Group_2">
					<path id="Path_4" class="st5" d="M60.8,187.8h29.5v-86.6l25.1-24v66.6"/>
					<path id="Path_5" class="st5" d="M176.9,186.4h-29.5v-55.7l-23.6-23.5v38.1"/>
					<path id="Path_6" class="st5" d="M35.3,199.5h67v-42.2l16.4-16.4l16.4,16.4v42.2h66.6"/>
					<rect id="Rectangle_2" x="113" y="181" class="st4" width="11" height="21"/>
					<path id="Path_7" class="st4" d="M113,172.8v-10.4l5.6-5l5.3,5v10.4L113,172.8z"/>
					<line id="Line_1" class="st6" x1="148.5" y1="67.5" x2="148.5" y2="140.5"/>
					<line id="Line_6" class="st6" x1="176.9" y1="67.5" x2="176.9" y2="187.5"/>
					<line id="Line_2" class="st6" x1="120.5" y1="67.5" x2="120.5" y2="140.5"/>
					<line id="Line_3" class="st6" x1="110.5" y1="72.5" x2="184.5" y2="72.5"/>
					<line id="Line_4" class="st6" x1="118.5" y1="101.5" x2="192.5" y2="101.5"/>
					<line id="Line_5" class="st6" x1="147.5" y1="128.5" x2="192.5" y2="128.5"/>
					<line id="Line_7" class="st6" x1="147.5" y1="157.5" x2="176.5" y2="157.5"/>
					<line id="Line_8" class="st6" x1="176.5" y1="157.5" x2="136.5" y2="197.5"/>
					<line id="Line_10" class="st6" x1="148.5" y1="72.5" x2="120.5" y2="101.5"/>
					<line id="Line_9" class="st6" x1="136.9" y1="117.5" x2="176.9" y2="157.5"/>
				</g>
			</g>
		</g>
		<g class="st3">
			<path class="st4" d="M23.3,232.7v1.3h-5.7v-1.3h2.3v-6.2c-0.1,0.1-0.2,0.3-0.4,0.4c-0.2,0.1-0.4,0.3-0.7,0.4s-0.5,0.2-0.8,0.3
				s-0.5,0.1-0.7,0.1v-1.3c0.2,0,0.5-0.1,0.8-0.2c0.3-0.1,0.6-0.3,0.8-0.5s0.5-0.4,0.7-0.5c0.2-0.2,0.3-0.3,0.3-0.3h1.4v7.9H23.3z"
				/>
			<path class="st4" d="M32.7,229.4c0,0.9-0.2,1.7-0.5,2.5s-0.8,1.3-1.4,1.7c-0.6,0.4-1.3,0.6-2.1,0.6c-0.8,0-1.5-0.2-2.1-0.6
				c-0.6-0.4-1.1-1-1.4-1.7s-0.5-1.5-0.5-2.5s0.2-1.7,0.5-2.5s0.8-1.3,1.4-1.7s1.3-0.6,2.1-0.6c0.8,0,1.5,0.2,2.1,0.6
				c0.6,0.4,1.1,1,1.4,1.7S32.7,228.5,32.7,229.4z M31.3,229.4c0-0.7-0.1-1.3-0.3-1.8c-0.2-0.5-0.5-0.9-0.9-1.2
				c-0.4-0.3-0.8-0.4-1.4-0.4c-0.5,0-1,0.1-1.4,0.4c-0.4,0.3-0.7,0.7-0.9,1.2s-0.3,1.1-0.3,1.8c0,0.7,0.1,1.3,0.3,1.8
				c0.2,0.5,0.5,0.9,0.9,1.2c0.4,0.3,0.9,0.4,1.4,0.4c0.5,0,1-0.1,1.4-0.4c0.4-0.3,0.7-0.7,0.9-1.2
				C31.2,230.7,31.3,230.1,31.3,229.4z"/>
			<path class="st4" d="M42.5,229.4c0,0.9-0.2,1.7-0.5,2.5s-0.8,1.3-1.4,1.7c-0.6,0.4-1.3,0.6-2.1,0.6c-0.8,0-1.5-0.2-2.1-0.6
				c-0.6-0.4-1.1-1-1.4-1.7s-0.5-1.5-0.5-2.5s0.2-1.7,0.5-2.5s0.8-1.3,1.4-1.7s1.3-0.6,2.1-0.6c0.8,0,1.5,0.2,2.1,0.6
				c0.6,0.4,1.1,1,1.4,1.7S42.5,228.5,42.5,229.4z M41.1,229.4c0-0.7-0.1-1.3-0.3-1.8c-0.2-0.5-0.5-0.9-0.9-1.2
				c-0.4-0.3-0.8-0.4-1.4-0.4c-0.5,0-1,0.1-1.4,0.4c-0.4,0.3-0.7,0.7-0.9,1.2s-0.3,1.1-0.3,1.8c0,0.7,0.1,1.3,0.3,1.8
				c0.2,0.5,0.5,0.9,0.9,1.2c0.4,0.3,0.9,0.4,1.4,0.4c0.5,0,1-0.1,1.4-0.4c0.4-0.3,0.7-0.7,0.9-1.2C41,230.7,41.1,230.1,41.1,229.4z
				"/>
			<path class="st4" d="M46.4,227.2c-0.4,0-0.9-0.1-1.2-0.3c-0.4-0.2-0.7-0.5-0.9-0.8c-0.2-0.4-0.3-0.8-0.3-1.2
				c0-0.4,0.1-0.8,0.3-1.2c0.2-0.4,0.5-0.6,0.9-0.8c0.4-0.2,0.8-0.3,1.2-0.3c0.5,0,0.9,0.1,1.2,0.3c0.4,0.2,0.7,0.5,0.9,0.8
				c0.2,0.4,0.3,0.7,0.3,1.2c0,0.4-0.1,0.8-0.3,1.2s-0.5,0.6-0.9,0.8C47.3,227.1,46.9,227.2,46.4,227.2z M44.5,233.4l4.5-5.3
				l4.3-5.4l0.7,0.6l-4.4,5.3l-4.4,5.5L44.5,233.4z M46.4,226.5c0.3,0,0.5-0.1,0.7-0.2c0.2-0.1,0.4-0.3,0.5-0.6
				c0.1-0.2,0.2-0.5,0.2-0.8c0-0.3-0.1-0.6-0.2-0.8c-0.1-0.2-0.3-0.4-0.5-0.6c-0.2-0.1-0.5-0.2-0.7-0.2c-0.3,0-0.5,0.1-0.7,0.2
				c-0.2,0.1-0.4,0.3-0.5,0.6s-0.2,0.5-0.2,0.8c0,0.3,0.1,0.5,0.2,0.8c0.1,0.2,0.3,0.4,0.5,0.6C45.9,226.4,46.2,226.5,46.4,226.5z
				 M52,234.1c-0.5,0-0.9-0.1-1.2-0.3c-0.4-0.2-0.7-0.5-0.9-0.8s-0.3-0.7-0.3-1.2c0-0.4,0.1-0.8,0.3-1.2c0.2-0.4,0.5-0.6,0.9-0.8
				c0.4-0.2,0.8-0.3,1.2-0.3s0.9,0.1,1.2,0.3s0.7,0.5,0.9,0.8c0.2,0.4,0.3,0.7,0.3,1.2c0,0.4-0.1,0.8-0.3,1.2
				c-0.2,0.4-0.5,0.6-0.9,0.8S52.5,234.1,52,234.1z M52,233.3c0.3,0,0.5-0.1,0.7-0.2c0.2-0.1,0.4-0.3,0.5-0.6
				c0.1-0.2,0.2-0.5,0.2-0.8c0-0.3-0.1-0.6-0.2-0.8c-0.1-0.2-0.3-0.4-0.5-0.6s-0.5-0.2-0.7-0.2c-0.3,0-0.5,0.1-0.7,0.2
				c-0.2,0.1-0.4,0.3-0.5,0.6s-0.2,0.5-0.2,0.8c0,0.3,0.1,0.5,0.2,0.8c0.1,0.2,0.3,0.4,0.5,0.6C51.6,233.2,51.8,233.3,52,233.3z"/>
			<path class="st4" d="M59.3,232.2c0.2,0.1,0.5,0.3,0.8,0.4c0.4,0.1,0.8,0.2,1.3,0.2c0.5,0,0.9-0.1,1.2-0.2
				c0.3-0.2,0.6-0.4,0.7-0.7c0.2-0.3,0.3-0.8,0.4-1.3s0.1-1.1,0.1-1.8v-6h1.4v5.7c0,0.8,0,1.6-0.1,2.3s-0.3,1.3-0.5,1.8
				c-0.3,0.5-0.6,0.9-1.1,1.2c-0.5,0.3-1.2,0.4-2,0.4c-0.5,0-1-0.1-1.4-0.2s-0.8-0.3-1.1-0.5L59.3,232.2z"/>
			<path class="st4" d="M71.1,234.2c-0.6,0-1.2-0.1-1.7-0.3c-0.5-0.2-1-0.5-1.3-0.9c-0.4-0.4-0.7-0.9-0.9-1.4s-0.3-1.1-0.3-1.6
				c0-0.6,0.1-1.1,0.3-1.7c0.2-0.5,0.5-1,0.9-1.4c0.4-0.4,0.8-0.7,1.3-0.9c0.5-0.2,1.1-0.3,1.7-0.3c0.6,0,1.2,0.1,1.7,0.3
				c0.5,0.2,1,0.5,1.3,0.9c0.4,0.4,0.7,0.9,0.9,1.4c0.2,0.5,0.3,1.1,0.3,1.7c0,0.6-0.1,1.1-0.3,1.6s-0.5,1-0.9,1.4
				c-0.4,0.4-0.8,0.7-1.3,0.9S71.7,234.2,71.1,234.2z M68.4,229.9c0,0.6,0.1,1.1,0.4,1.6c0.3,0.5,0.6,0.8,1,1.1
				c0.4,0.3,0.9,0.4,1.4,0.4c0.5,0,1-0.1,1.4-0.4s0.8-0.6,1-1.1s0.4-1,0.4-1.6c0-0.6-0.1-1.1-0.4-1.6c-0.3-0.5-0.6-0.8-1-1.1
				c-0.4-0.3-0.9-0.4-1.4-0.4c-0.5,0-1,0.1-1.4,0.4c-0.4,0.3-0.7,0.7-1,1.1C68.5,228.8,68.4,229.3,68.4,229.9z"/>
			<path class="st4" d="M81.3,234.2c-0.7,0-1.2-0.2-1.8-0.5c-0.5-0.3-1-0.7-1.3-1.2v1.6h-1.2v-11.7h1.4v5.1c0.4-0.5,0.8-1,1.3-1.3
				c0.5-0.3,1.1-0.5,1.8-0.5c0.6,0,1.1,0.1,1.6,0.4c0.5,0.2,0.9,0.6,1.2,1c0.3,0.4,0.6,0.9,0.8,1.4c0.2,0.5,0.3,1.1,0.3,1.6
				c0,0.6-0.1,1.1-0.3,1.6c-0.2,0.5-0.5,1-0.8,1.4c-0.4,0.4-0.8,0.7-1.3,0.9C82.4,234,81.9,234.2,81.3,234.2z M81,232.9
				c0.4,0,0.8-0.1,1.2-0.3s0.7-0.4,0.9-0.7c0.3-0.3,0.5-0.6,0.6-1c0.1-0.4,0.2-0.8,0.2-1.1c0-0.5-0.1-1-0.3-1.5
				c-0.2-0.5-0.5-0.9-1-1.1s-0.9-0.4-1.4-0.4c-0.4,0-0.8,0.1-1.1,0.3c-0.3,0.2-0.6,0.4-0.9,0.7s-0.5,0.6-0.6,1v2.4
				c0.1,0.3,0.2,0.5,0.3,0.7s0.4,0.4,0.6,0.6c0.2,0.2,0.5,0.3,0.8,0.4C80.5,232.9,80.7,232.9,81,232.9z"/>
			<path class="st4" d="M95.9,234.1c-0.7,0-1.4-0.2-2.1-0.5c-0.6-0.3-1.2-0.8-1.7-1.3c-0.5-0.5-0.9-1.2-1.1-1.9
				c-0.3-0.7-0.4-1.4-0.4-2.1c0-0.8,0.1-1.5,0.4-2.2c0.3-0.7,0.6-1.3,1.1-1.8c0.5-0.5,1-1,1.7-1.3c0.6-0.3,1.3-0.5,2.1-0.5
				c1.1,0,2,0.2,2.7,0.7c0.7,0.5,1.3,1.1,1.6,1.8l-1.1,0.8c-0.3-0.7-0.8-1.2-1.4-1.5s-1.2-0.5-1.9-0.5c-0.6,0-1.1,0.1-1.6,0.4
				c-0.5,0.2-0.9,0.6-1.2,1c-0.3,0.4-0.6,0.9-0.8,1.4c-0.2,0.5-0.3,1.1-0.3,1.7c0,0.6,0.1,1.2,0.3,1.7c0.2,0.5,0.5,1,0.8,1.4
				c0.4,0.4,0.8,0.7,1.3,1c0.5,0.2,1,0.4,1.6,0.4c0.7,0,1.3-0.2,1.9-0.5c0.6-0.3,1.1-0.8,1.7-1.5v1.5
				C98.5,233.5,97.3,234.1,95.9,234.1z M99.3,229.4h-2.4v-1.1h3.7v5.7h-1.2V229.4z"/>
			<path class="st4" d="M102.4,230.7v-5h1.4v4.7c0,0.8,0.1,1.5,0.4,1.9c0.3,0.4,0.7,0.6,1.3,0.6c0.4,0,0.8-0.1,1.1-0.2
				s0.7-0.4,1-0.7c0.3-0.3,0.5-0.7,0.7-1.1v-5.2h1.4v6.7c0,0.2,0,0.3,0.1,0.4c0.1,0.1,0.2,0.1,0.3,0.1v1.1c-0.2,0-0.3,0-0.4,0
				c-0.1,0-0.2,0-0.3,0c-0.3,0-0.5-0.1-0.7-0.2c-0.2-0.2-0.3-0.4-0.3-0.6l0-1c-0.4,0.6-0.9,1.1-1.5,1.4c-0.6,0.3-1.3,0.5-2,0.5
				c-0.9,0-1.5-0.3-2-0.9C102.6,232.7,102.4,231.8,102.4,230.7z"/>
			<path class="st4" d="M111.5,231.6c0-0.5,0.2-1,0.5-1.4s0.7-0.7,1.3-0.9s1.2-0.3,1.9-0.3c0.4,0,0.8,0,1.2,0.1s0.8,0.1,1.1,0.3
				v-0.6c0-0.6-0.2-1.1-0.6-1.5c-0.4-0.4-0.9-0.5-1.6-0.5c-0.5,0-0.9,0.1-1.3,0.2c-0.4,0.2-0.9,0.4-1.3,0.7l-0.5-1
				c0.5-0.4,1.1-0.7,1.6-0.8c0.5-0.2,1.1-0.3,1.7-0.3c1.1,0,1.9,0.3,2.5,0.9s0.9,1.4,0.9,2.5v3.5c0,0.2,0,0.3,0.1,0.4
				c0.1,0.1,0.2,0.1,0.3,0.1v1.1c-0.1,0-0.3,0-0.4,0c-0.1,0-0.2,0-0.2,0c-0.3,0-0.6-0.1-0.7-0.3s-0.3-0.4-0.3-0.6l0-0.5
				c-0.4,0.5-0.8,0.8-1.4,1.1c-0.6,0.3-1.2,0.4-1.7,0.4c-0.6,0-1.1-0.1-1.5-0.3c-0.4-0.2-0.8-0.5-1-0.9
				C111.6,232.5,111.5,232.1,111.5,231.6z M116.9,232.2c0.1-0.1,0.2-0.3,0.3-0.5c0.1-0.2,0.1-0.3,0.1-0.4v-1c-0.3-0.1-0.7-0.2-1-0.3
				c-0.4-0.1-0.7-0.1-1.1-0.1c-0.7,0-1.3,0.1-1.7,0.4c-0.4,0.3-0.7,0.7-0.7,1.1c0,0.3,0.1,0.5,0.2,0.8s0.4,0.5,0.6,0.6
				c0.3,0.2,0.6,0.2,1,0.2c0.4,0,0.9-0.1,1.2-0.3C116.3,232.7,116.7,232.4,116.9,232.2z"/>
			<path class="st4" d="M125.4,226.9c-0.7,0-1.3,0.2-1.9,0.5s-0.9,0.8-1.1,1.4v5.2H121v-8.3h1.3v1.9c0.3-0.6,0.7-1,1.1-1.4
				c0.5-0.4,1-0.6,1.5-0.6c0.1,0,0.2,0,0.3,0s0.1,0,0.2,0V226.9z"/>
			<path class="st4" d="M126.1,231.6c0-0.5,0.2-1,0.5-1.4c0.3-0.4,0.7-0.7,1.3-0.9s1.2-0.3,1.9-0.3c0.4,0,0.8,0,1.2,0.1
				s0.8,0.1,1.1,0.3v-0.6c0-0.6-0.2-1.1-0.6-1.5c-0.4-0.4-0.9-0.5-1.6-0.5c-0.5,0-0.9,0.1-1.3,0.2c-0.4,0.2-0.9,0.4-1.3,0.7l-0.5-1
				c0.5-0.4,1.1-0.7,1.6-0.8c0.5-0.2,1.1-0.3,1.7-0.3c1.1,0,1.9,0.3,2.5,0.9c0.6,0.6,0.9,1.4,0.9,2.5v3.5c0,0.2,0,0.3,0.1,0.4
				c0.1,0.1,0.2,0.1,0.3,0.1v1.1c-0.1,0-0.3,0-0.4,0s-0.2,0-0.2,0c-0.3,0-0.6-0.1-0.7-0.3c-0.2-0.2-0.3-0.4-0.3-0.6l0-0.5
				c-0.4,0.5-0.8,0.8-1.4,1.1c-0.6,0.3-1.2,0.4-1.7,0.4c-0.6,0-1.1-0.1-1.5-0.3c-0.4-0.2-0.8-0.5-1-0.9
				C126.2,232.5,126.1,232.1,126.1,231.6z M131.6,232.2c0.1-0.1,0.2-0.3,0.3-0.5c0.1-0.2,0.1-0.3,0.1-0.4v-1c-0.3-0.1-0.7-0.2-1-0.3
				c-0.4-0.1-0.7-0.1-1.1-0.1c-0.7,0-1.3,0.1-1.7,0.4s-0.7,0.7-0.7,1.1c0,0.3,0.1,0.5,0.2,0.8c0.1,0.2,0.4,0.5,0.6,0.6
				c0.3,0.2,0.6,0.2,1,0.2c0.4,0,0.9-0.1,1.2-0.3C131,232.7,131.3,232.4,131.6,232.2z"/>
			<path class="st4" d="M142.9,234h-1.4v-4.6c0-0.9-0.1-1.5-0.4-1.9c-0.3-0.4-0.7-0.6-1.2-0.6c-0.4,0-0.8,0.1-1.1,0.3
				c-0.4,0.2-0.7,0.4-1,0.8c-0.3,0.3-0.5,0.7-0.6,1.1v5h-1.4v-8.3h1.3v1.8c0.2-0.4,0.5-0.7,0.9-1c0.4-0.3,0.8-0.5,1.2-0.7
				c0.4-0.2,0.9-0.2,1.4-0.2c0.5,0,0.9,0.1,1.2,0.3s0.6,0.4,0.8,0.7s0.3,0.7,0.4,1.1c0.1,0.4,0.1,0.9,0.1,1.4V234z"/>
			<path class="st4" d="M149.3,233.6c-0.1,0.1-0.3,0.1-0.5,0.2c-0.2,0.1-0.4,0.2-0.7,0.2c-0.3,0.1-0.5,0.1-0.8,0.1
				c-0.3,0-0.7-0.1-0.9-0.2c-0.3-0.1-0.5-0.3-0.7-0.6c-0.2-0.3-0.3-0.6-0.3-1v-5.6h-1.1v-1.1h1.1v-2.8h1.4v2.8h1.9v1.1h-1.9v5.2
				c0,0.3,0.1,0.5,0.3,0.7c0.2,0.1,0.4,0.2,0.6,0.2c0.3,0,0.5,0,0.8-0.1c0.2-0.1,0.4-0.2,0.5-0.2L149.3,233.6z"/>
			<path class="st4" d="M154.2,234.2c-0.6,0-1.2-0.1-1.7-0.3c-0.5-0.2-1-0.5-1.3-0.9c-0.4-0.4-0.7-0.9-0.9-1.4s-0.3-1.1-0.3-1.7
				c0-0.8,0.2-1.5,0.5-2.1c0.4-0.6,0.9-1.2,1.5-1.6c0.6-0.4,1.4-0.6,2.2-0.6c0.8,0,1.6,0.2,2.2,0.6s1.1,0.9,1.5,1.6
				c0.3,0.6,0.5,1.3,0.5,2.1c0,0.1,0,0.2,0,0.3c0,0.1,0,0.2,0,0.2h-6.9c0,0.5,0.2,1,0.5,1.4c0.3,0.4,0.6,0.7,1,1s0.9,0.4,1.3,0.4
				c0.5,0,1-0.1,1.4-0.4c0.5-0.3,0.8-0.6,0.9-1l1.2,0.3c-0.2,0.4-0.5,0.8-0.8,1.1c-0.4,0.3-0.8,0.6-1.3,0.8
				C155.3,234.1,154.8,234.2,154.2,234.2z M151.4,229.4h5.7c0-0.5-0.2-1-0.5-1.4s-0.6-0.7-1-1c-0.4-0.2-0.9-0.3-1.4-0.3
				c-0.5,0-0.9,0.1-1.4,0.3c-0.4,0.2-0.8,0.6-1,1S151.4,228.8,151.4,229.4z"/>
			<path class="st4" d="M163.7,234.2c-0.6,0-1.2-0.1-1.7-0.3c-0.5-0.2-1-0.5-1.3-0.9c-0.4-0.4-0.7-0.9-0.9-1.4s-0.3-1.1-0.3-1.7
				c0-0.8,0.2-1.5,0.5-2.1c0.4-0.6,0.9-1.2,1.5-1.6c0.6-0.4,1.4-0.6,2.2-0.6c0.8,0,1.6,0.2,2.2,0.6s1.1,0.9,1.5,1.6
				c0.3,0.6,0.5,1.3,0.5,2.1c0,0.1,0,0.2,0,0.3c0,0.1,0,0.2,0,0.2h-6.9c0,0.5,0.2,1,0.5,1.4c0.3,0.4,0.6,0.7,1,1s0.9,0.4,1.3,0.4
				c0.5,0,1-0.1,1.4-0.4c0.5-0.3,0.8-0.6,0.9-1l1.2,0.3c-0.2,0.4-0.5,0.8-0.8,1.1c-0.4,0.3-0.8,0.6-1.3,0.8
				C164.8,234.1,164.2,234.2,163.7,234.2z M160.9,229.4h5.7c0-0.5-0.2-1-0.5-1.4s-0.6-0.7-1-1c-0.4-0.2-0.9-0.3-1.4-0.3
				c-0.5,0-0.9,0.1-1.4,0.3c-0.4,0.2-0.8,0.6-1,1S160.9,228.8,160.9,229.4z"/>
			<path class="st4" d="M168.9,229.9c0-0.8,0.2-1.5,0.5-2.2c0.3-0.7,0.8-1.2,1.3-1.6c0.6-0.4,1.2-0.6,2-0.6c0.7,0,1.3,0.2,1.8,0.5
				c0.5,0.4,0.9,0.8,1.2,1.3v-5.1h1.4v10.1c0,0.2,0,0.3,0.1,0.4c0.1,0.1,0.2,0.1,0.3,0.1v1.1c-0.3,0-0.5,0.1-0.6,0.1
				c-0.3,0-0.5-0.1-0.7-0.3c-0.2-0.2-0.3-0.4-0.3-0.6v-0.7c-0.3,0.5-0.8,1-1.3,1.3c-0.6,0.3-1.1,0.5-1.7,0.5c-0.6,0-1.1-0.1-1.6-0.3
				s-0.9-0.5-1.3-0.9c-0.4-0.4-0.6-0.9-0.8-1.4S168.9,230.4,168.9,229.9z M175.7,231.1v-2.4c-0.1-0.4-0.3-0.7-0.6-1s-0.6-0.5-1-0.7
				c-0.4-0.2-0.7-0.3-1.1-0.3c-0.4,0-0.8,0.1-1.1,0.3c-0.3,0.2-0.6,0.4-0.9,0.7s-0.4,0.6-0.6,1c-0.1,0.4-0.2,0.8-0.2,1.2
				c0,0.4,0.1,0.8,0.2,1.2c0.1,0.4,0.3,0.7,0.6,1c0.3,0.3,0.6,0.5,0.9,0.7c0.3,0.2,0.7,0.2,1.1,0.2c0.3,0,0.5,0,0.8-0.1
				c0.3-0.1,0.5-0.2,0.8-0.4c0.2-0.2,0.5-0.4,0.6-0.6C175.6,231.6,175.7,231.3,175.7,231.1z"/>
			<path class="st4" d="M187.2,234.2c-0.6,0-1.2-0.1-1.7-0.3c-0.5-0.2-1-0.5-1.3-0.9c-0.4-0.4-0.7-0.9-0.9-1.4s-0.3-1.1-0.3-1.7
				c0-0.8,0.2-1.5,0.5-2.1c0.4-0.6,0.8-1.2,1.5-1.5c0.6-0.4,1.4-0.6,2.2-0.6c0.8,0,1.5,0.2,2.2,0.6s1.1,0.9,1.4,1.5l-1.4,0.4
				c-0.2-0.4-0.5-0.7-0.9-0.9c-0.4-0.2-0.8-0.3-1.3-0.3c-0.5,0-1,0.1-1.4,0.4c-0.4,0.3-0.8,0.6-1,1.1s-0.4,1-0.4,1.6
				c0,0.6,0.1,1.1,0.4,1.6s0.6,0.8,1,1.1c0.4,0.3,0.9,0.4,1.4,0.4c0.3,0,0.6-0.1,1-0.2c0.3-0.1,0.6-0.3,0.8-0.5s0.4-0.4,0.5-0.6
				l1.4,0.4c-0.2,0.4-0.4,0.8-0.8,1.1c-0.3,0.3-0.8,0.6-1.2,0.7C188.3,234.1,187.8,234.2,187.2,234.2z"/>
			<path class="st4" d="M196,234.2c-0.6,0-1.2-0.1-1.7-0.3c-0.5-0.2-1-0.5-1.3-0.9c-0.4-0.4-0.7-0.9-0.9-1.4
				c-0.2-0.5-0.3-1.1-0.3-1.6c0-0.6,0.1-1.1,0.3-1.7c0.2-0.5,0.5-1,0.9-1.4c0.4-0.4,0.8-0.7,1.3-0.9c0.5-0.2,1.1-0.3,1.7-0.3
				c0.6,0,1.2,0.1,1.7,0.3c0.5,0.2,1,0.5,1.3,0.9c0.4,0.4,0.7,0.9,0.9,1.4c0.2,0.5,0.3,1.1,0.3,1.7c0,0.6-0.1,1.1-0.3,1.6
				c-0.2,0.5-0.5,1-0.9,1.4c-0.4,0.4-0.8,0.7-1.3,0.9S196.6,234.2,196,234.2z M193.2,229.9c0,0.6,0.1,1.1,0.4,1.6
				c0.3,0.5,0.6,0.8,1,1.1c0.4,0.3,0.9,0.4,1.4,0.4c0.5,0,1-0.1,1.4-0.4c0.4-0.3,0.8-0.6,1-1.1c0.3-0.5,0.4-1,0.4-1.6
				c0-0.6-0.1-1.1-0.4-1.6c-0.2-0.5-0.6-0.8-1-1.1c-0.4-0.3-0.9-0.4-1.4-0.4c-0.5,0-1,0.1-1.4,0.4c-0.4,0.3-0.7,0.7-1,1.1
				C193.3,228.8,193.2,229.3,193.2,229.9z"/>
			<path class="st4" d="M201.8,230.7v-5h1.4v4.7c0,0.8,0.1,1.5,0.4,1.9c0.3,0.4,0.7,0.6,1.3,0.6c0.4,0,0.8-0.1,1.1-0.2
				s0.7-0.4,1-0.7c0.3-0.3,0.5-0.7,0.7-1.1v-5.2h1.4v6.7c0,0.2,0,0.3,0.1,0.4c0.1,0.1,0.2,0.1,0.3,0.1v1.1c-0.2,0-0.3,0-0.4,0
				c-0.1,0-0.2,0-0.3,0c-0.3,0-0.5-0.1-0.7-0.2c-0.2-0.2-0.3-0.4-0.3-0.6l0-1c-0.4,0.6-0.9,1.1-1.5,1.4c-0.6,0.3-1.3,0.5-2,0.5
				c-0.9,0-1.5-0.3-2-0.9S201.8,231.8,201.8,230.7z"/>
			<path class="st4" d="M216,226.9c-0.7,0-1.3,0.2-1.9,0.5c-0.5,0.3-0.9,0.8-1.1,1.4v5.2h-1.4v-8.3h1.3v1.9c0.3-0.6,0.7-1,1.1-1.4
				c0.5-0.4,1-0.6,1.5-0.6c0.1,0,0.2,0,0.3,0c0.1,0,0.1,0,0.2,0V226.9z"/>
			<path class="st4" d="M220.2,234.2c-0.7,0-1.3-0.1-2-0.3c-0.6-0.2-1.1-0.6-1.6-1l0.5-1c0.5,0.4,1,0.8,1.4,1c0.5,0.2,1,0.3,1.5,0.3
				c0.6,0,1-0.1,1.4-0.3s0.5-0.5,0.5-1c0-0.3-0.1-0.5-0.3-0.7s-0.5-0.3-0.8-0.4c-0.3-0.1-0.7-0.2-1.2-0.3c-0.6-0.2-1.1-0.3-1.5-0.5
				s-0.7-0.4-0.9-0.7c-0.2-0.3-0.3-0.6-0.3-1.1c0-0.5,0.1-1,0.4-1.3c0.3-0.4,0.7-0.6,1.1-0.8c0.5-0.2,1-0.3,1.7-0.3
				c0.6,0,1.2,0.1,1.7,0.3c0.5,0.2,0.9,0.5,1.3,0.8l-0.6,1c-0.3-0.3-0.7-0.6-1.1-0.8c-0.4-0.2-0.8-0.2-1.3-0.2c-0.3,0-0.6,0-0.8,0.1
				c-0.3,0.1-0.5,0.2-0.7,0.4c-0.2,0.2-0.3,0.4-0.3,0.7c0,0.3,0.1,0.5,0.2,0.6c0.1,0.2,0.4,0.3,0.6,0.4c0.3,0.1,0.6,0.2,1,0.3
				c0.6,0.2,1.2,0.4,1.6,0.5s0.8,0.4,1.1,0.7s0.4,0.7,0.4,1.2c0,0.8-0.3,1.4-0.9,1.8C222,233.9,221.2,234.2,220.2,234.2z"/>
			<path class="st4" d="M228.8,234.2c-0.6,0-1.2-0.1-1.7-0.3c-0.5-0.2-1-0.5-1.3-0.9c-0.4-0.4-0.7-0.9-0.9-1.4s-0.3-1.1-0.3-1.7
				c0-0.8,0.2-1.5,0.5-2.1c0.4-0.6,0.9-1.2,1.5-1.6c0.6-0.4,1.4-0.6,2.2-0.6c0.8,0,1.6,0.2,2.2,0.6s1.1,0.9,1.5,1.6
				c0.3,0.6,0.5,1.3,0.5,2.1c0,0.1,0,0.2,0,0.3c0,0.1,0,0.2,0,0.2h-6.9c0,0.5,0.2,1,0.5,1.4c0.3,0.4,0.6,0.7,1,1s0.9,0.4,1.3,0.4
				c0.5,0,1-0.1,1.4-0.4c0.5-0.3,0.8-0.6,0.9-1l1.2,0.3c-0.2,0.4-0.5,0.8-0.8,1.1c-0.4,0.3-0.8,0.6-1.3,0.8
				C229.9,234.1,229.4,234.2,228.8,234.2z M226,229.4h5.7c0-0.5-0.2-1-0.5-1.4s-0.6-0.7-1-1c-0.4-0.2-0.9-0.3-1.4-0.3
				c-0.5,0-0.9,0.1-1.4,0.3c-0.4,0.2-0.8,0.6-1,1S226.1,228.8,226,229.4z"/>
		</g>
	</g>
</g>
</svg>
