<?xml version="1.0" encoding="utf-8"?>
<!-- Generator: Adobe Illustrator 26.0.1, SVG Export Plug-In . SVG Version: 6.00 Build 0)  -->
<svg version="1.1" id="Layer_1" xmlns="http://www.w3.org/2000/svg" xmlns:xlink="http://www.w3.org/1999/xlink" x="0px" y="0px"
	 viewBox="0 0 250 250" style="enable-background:new 0 0 250 250;" xml:space="preserve">
<style type="text/css">
	.st0{clip-path:url(#SVGID_00000085216572974767434540000001125995825020433321_);}
	.st1{fill:#FFFFFF;}
	.st2{fill:#035397;}
	.st3{enable-background:new    ;}
	.st4{fill:#F1F1F1;}
	.st5{fill:none;stroke:#F1F1F1;stroke-width:3;stroke-miterlimit:10;}
	.st6{fill:none;stroke:#F1F1F1;stroke-width:2;stroke-miterlimit:10;}
	.st7{fill:#F1F1F1;stroke:#F1F1F1;stroke-width:2;stroke-miterlimit:10;}
</style>
<g>
	<defs>
		<rect id="SVGID_1_" y="0" width="250" height="250"/>
	</defs>
	<clipPath id="SVGID_00000056413029043391622440000015858130566551192457_">
		<use xlink:href="#SVGID_1_"  style="overflow:visible;"/>
	</clipPath>
	
		<g id="Diploma-in-Design-and-Manufacturing-Process-Engineering" style="clip-path:url(#SVGID_00000056413029043391622440000015858130566551192457_);">
		<rect y="0" class="st1" width="250" height="250"/>
		<g id="Group_236">
			<path id="Rectangle_1" class="st2" d="M7,0h236c3.9,0,7,3.1,7,7v236c0,3.9-3.1,7-7,7H7c-3.9,0-7-3.1-7-7V7C0,3.1,3.1,0,7,0z"/>
			<g class="st3">
				<path class="st4" d="M39.4,31V18.2h4.4c1.4,0,2.5,0.3,3.4,0.9s1.6,1.3,2.1,2.3s0.7,2,0.7,3.2c0,1.3-0.3,2.4-0.8,3.4
					c-0.5,1-1.2,1.7-2.1,2.2c-0.9,0.5-2,0.8-3.3,0.8H39.4z M48.3,24.6c0-1-0.2-1.8-0.5-2.6c-0.4-0.7-0.9-1.3-1.5-1.7
					s-1.5-0.6-2.5-0.6H41v9.9h2.8c1,0,1.8-0.2,2.5-0.7c0.7-0.4,1.2-1,1.5-1.8C48.2,26.4,48.3,25.5,48.3,24.6z"/>
				<path class="st4" d="M52,19.8v-2h1.6v2H52z M52,31v-9.4h1.6V31H52z"/>
				<path class="st4" d="M61.2,31.2c-0.8,0-1.5-0.2-2.1-0.6c-0.6-0.4-1.1-0.9-1.4-1.4v5.7h-1.6V21.7h1.4v1.8c0.4-0.6,0.9-1,1.5-1.4
					s1.3-0.5,2-0.5c0.6,0,1.2,0.1,1.8,0.4s1,0.6,1.4,1.1c0.4,0.5,0.7,1,0.9,1.5c0.2,0.6,0.3,1.2,0.3,1.8c0,0.9-0.2,1.7-0.5,2.4
					c-0.4,0.7-0.8,1.3-1.5,1.8C62.8,31,62,31.2,61.2,31.2z M60.7,29.8c0.5,0,0.9-0.1,1.3-0.3c0.4-0.2,0.7-0.5,1-0.8
					c0.3-0.3,0.5-0.7,0.6-1.1c0.1-0.4,0.2-0.8,0.2-1.3c0-0.5-0.1-0.9-0.2-1.3c-0.2-0.4-0.4-0.8-0.7-1.1c-0.3-0.3-0.6-0.6-1-0.8
					c-0.4-0.2-0.8-0.3-1.3-0.3c-0.3,0-0.6,0.1-0.9,0.2c-0.3,0.1-0.6,0.3-0.9,0.5c-0.3,0.2-0.5,0.4-0.7,0.7c-0.2,0.2-0.3,0.5-0.4,0.8
					v2.7c0.2,0.4,0.4,0.8,0.7,1.1c0.3,0.3,0.6,0.6,1,0.8C59.9,29.7,60.3,29.8,60.7,29.8z"/>
				<path class="st4" d="M67.4,17.9H69v10.8c0,0.5,0.1,0.8,0.2,1c0.1,0.1,0.3,0.2,0.5,0.2c0.3,0,0.5,0,0.7-0.1
					c0.2-0.1,0.4-0.1,0.6-0.2l0.3,1.3c-0.3,0.1-0.6,0.2-0.9,0.3c-0.4,0.1-0.7,0.1-1,0.1c-0.6,0-1.1-0.2-1.4-0.5
					c-0.4-0.3-0.5-0.8-0.5-1.5V17.9z"/>
				<path class="st4" d="M76.6,31.2c-0.7,0-1.3-0.1-1.9-0.4s-1.1-0.6-1.5-1.1c-0.4-0.4-0.7-1-1-1.5c-0.2-0.6-0.3-1.2-0.3-1.8
					c0-0.7,0.1-1.3,0.3-1.9c0.2-0.6,0.6-1.1,1-1.5c0.4-0.4,0.9-0.8,1.5-1.1s1.2-0.4,1.9-0.4c0.7,0,1.3,0.1,1.9,0.4s1.1,0.6,1.5,1.1
					c0.4,0.4,0.8,1,1,1.5c0.2,0.6,0.3,1.2,0.3,1.9c0,0.6-0.1,1.3-0.3,1.8c-0.2,0.6-0.6,1.1-1,1.5c-0.4,0.4-0.9,0.8-1.5,1.1
					S77.3,31.2,76.6,31.2z M73.5,26.4c0,0.6,0.1,1.2,0.4,1.7c0.3,0.5,0.7,0.9,1.1,1.2c0.5,0.3,1,0.5,1.6,0.5s1.1-0.2,1.6-0.5
					c0.5-0.3,0.9-0.7,1.1-1.3s0.4-1.1,0.4-1.8s-0.1-1.2-0.4-1.7c-0.3-0.5-0.7-0.9-1.1-1.2c-0.5-0.3-1-0.5-1.6-0.5S75.5,23,75,23.4
					c-0.5,0.3-0.8,0.7-1.1,1.3S73.5,25.7,73.5,26.4z"/>
				<path class="st4" d="M97.5,31h-1.6v-5.2c0-1-0.2-1.7-0.5-2.2c-0.3-0.5-0.8-0.7-1.4-0.7c-0.6,0-1.2,0.2-1.7,0.7
					c-0.5,0.5-0.9,1-1.1,1.8V31h-1.6v-5.2c0-1-0.2-1.7-0.5-2.2c-0.3-0.5-0.8-0.7-1.4-0.7s-1.2,0.2-1.7,0.7c-0.5,0.4-0.9,1-1.1,1.8
					V31h-1.6v-9.3h1.4v2c0.4-0.7,0.9-1.2,1.5-1.6c0.6-0.4,1.3-0.6,2.1-0.6c0.8,0,1.4,0.2,1.9,0.6c0.5,0.4,0.8,1,0.9,1.6
					c0.4-0.7,0.9-1.3,1.5-1.7c0.6-0.4,1.3-0.6,2.1-0.6c0.5,0,1,0.1,1.4,0.3c0.4,0.2,0.7,0.5,0.9,0.8s0.4,0.8,0.5,1.2
					c0.1,0.5,0.1,1,0.1,1.6V31z"/>
				<path class="st4" d="M99.2,28.3c0-0.6,0.2-1.1,0.5-1.5c0.3-0.4,0.8-0.8,1.4-1c0.6-0.2,1.3-0.4,2.1-0.4c0.4,0,0.9,0,1.3,0.1
					c0.5,0.1,0.9,0.2,1.2,0.3v-0.7c0-0.7-0.2-1.3-0.6-1.7c-0.4-0.4-1-0.6-1.8-0.6c-0.5,0-1,0.1-1.5,0.3c-0.5,0.2-1,0.5-1.5,0.8
					l-0.6-1.1c0.6-0.4,1.2-0.7,1.8-0.9c0.6-0.2,1.2-0.3,1.9-0.3c1.2,0,2.1,0.3,2.8,1c0.7,0.7,1,1.6,1,2.8v3.9c0,0.2,0,0.3,0.1,0.4
					c0.1,0.1,0.2,0.1,0.4,0.2V31c-0.2,0-0.3,0-0.4,0.1s-0.2,0-0.3,0c-0.4,0-0.7-0.1-0.8-0.3c-0.2-0.2-0.3-0.4-0.3-0.6l0-0.6
					c-0.4,0.5-0.9,0.9-1.6,1.2c-0.7,0.3-1.3,0.4-2,0.4c-0.6,0-1.2-0.1-1.7-0.4c-0.5-0.3-0.9-0.6-1.2-1
					C99.3,29.3,99.2,28.8,99.2,28.3z M105.3,29c0.1-0.2,0.3-0.3,0.3-0.5c0.1-0.2,0.1-0.3,0.1-0.4v-1.2c-0.4-0.1-0.8-0.3-1.2-0.3
					c-0.4-0.1-0.8-0.1-1.2-0.1c-0.8,0-1.5,0.2-2,0.5c-0.5,0.3-0.7,0.7-0.7,1.3c0,0.3,0.1,0.6,0.2,0.9c0.2,0.3,0.4,0.5,0.7,0.7
					c0.3,0.2,0.7,0.3,1.2,0.3c0.5,0,1-0.1,1.4-0.3S105,29.3,105.3,29z"/>
				<path class="st4" d="M114.5,19.8v-2h1.6v2H114.5z M114.5,31v-9.4h1.6V31H114.5z"/>
				<path class="st4" d="M126.7,31h-1.6v-5.2c0-1-0.2-1.7-0.5-2.2c-0.3-0.5-0.8-0.7-1.4-0.7c-0.4,0-0.9,0.1-1.3,0.3
					c-0.4,0.2-0.8,0.5-1.1,0.9c-0.3,0.4-0.6,0.8-0.7,1.3V31h-1.6v-9.3h1.4v2c0.3-0.4,0.6-0.8,1-1.1c0.4-0.3,0.8-0.6,1.3-0.8
					s1-0.3,1.6-0.3c0.5,0,1,0.1,1.4,0.3s0.7,0.5,0.9,0.8c0.2,0.4,0.4,0.8,0.4,1.2c0.1,0.5,0.1,1,0.1,1.6V31z"/>
				<path class="st4" d="M134,31V18.2h4.4c1.4,0,2.5,0.3,3.4,0.9s1.6,1.3,2.1,2.3s0.7,2,0.7,3.2c0,1.3-0.3,2.4-0.8,3.4
					c-0.5,1-1.2,1.7-2.1,2.2c-0.9,0.5-2,0.8-3.3,0.8H134z M143,24.6c0-1-0.2-1.8-0.5-2.6c-0.4-0.7-0.9-1.3-1.5-1.7s-1.5-0.6-2.5-0.6
					h-2.8v9.9h2.8c1,0,1.8-0.2,2.5-0.7c0.7-0.4,1.2-1,1.5-1.8C142.8,26.4,143,25.5,143,24.6z"/>
				<path class="st4" d="M150.8,31.2c-0.7,0-1.4-0.1-1.9-0.4s-1.1-0.6-1.5-1.1c-0.4-0.4-0.8-1-1-1.5c-0.2-0.6-0.4-1.2-0.4-1.9
					c0-0.9,0.2-1.7,0.6-2.4c0.4-0.7,1-1.3,1.7-1.8c0.7-0.4,1.6-0.7,2.5-0.7c0.9,0,1.8,0.2,2.5,0.7c0.7,0.4,1.2,1,1.6,1.8
					c0.4,0.7,0.6,1.5,0.6,2.3c0,0.1,0,0.2,0,0.3c0,0.1,0,0.2,0,0.3h-7.8c0,0.6,0.2,1.1,0.5,1.6s0.7,0.8,1.1,1.1
					c0.5,0.3,1,0.4,1.5,0.4c0.6,0,1.1-0.1,1.6-0.4c0.5-0.3,0.9-0.7,1.1-1.1l1.4,0.4c-0.2,0.5-0.5,0.9-0.9,1.2
					c-0.4,0.4-0.9,0.6-1.4,0.8S151.4,31.2,150.8,31.2z M147.6,25.8h6.4c0-0.6-0.2-1.1-0.5-1.6s-0.7-0.8-1.2-1.1
					c-0.5-0.3-1-0.4-1.5-0.4c-0.6,0-1.1,0.1-1.5,0.4c-0.5,0.3-0.8,0.6-1.1,1.1S147.7,25.2,147.6,25.8z"/>
				<path class="st4" d="M160.5,31.2c-0.8,0-1.5-0.1-2.2-0.4c-0.7-0.3-1.3-0.6-1.8-1.2l0.6-1.1c0.5,0.5,1.1,0.9,1.6,1.1
					s1.1,0.3,1.7,0.3c0.6,0,1.2-0.1,1.6-0.4c0.4-0.2,0.6-0.6,0.6-1.1c0-0.3-0.1-0.6-0.3-0.8s-0.5-0.3-0.9-0.4s-0.8-0.2-1.4-0.4
					c-0.6-0.2-1.2-0.4-1.6-0.6c-0.4-0.2-0.8-0.5-1-0.8c-0.2-0.3-0.3-0.7-0.3-1.2c0-0.6,0.2-1.1,0.5-1.5c0.3-0.4,0.7-0.7,1.3-0.9
					c0.5-0.2,1.2-0.3,1.9-0.3c0.7,0,1.3,0.1,1.9,0.3c0.6,0.2,1,0.5,1.5,1l-0.7,1.1c-0.4-0.4-0.8-0.7-1.2-0.9
					c-0.4-0.2-0.9-0.3-1.5-0.3c-0.3,0-0.6,0-1,0.1c-0.3,0.1-0.6,0.2-0.8,0.4s-0.3,0.5-0.3,0.8c0,0.3,0.1,0.5,0.2,0.7
					c0.2,0.2,0.4,0.3,0.7,0.4c0.3,0.1,0.7,0.2,1.2,0.4c0.7,0.2,1.3,0.4,1.8,0.6c0.5,0.2,0.9,0.5,1.2,0.8s0.4,0.8,0.4,1.3
					c0,0.9-0.3,1.6-1,2.1S161.6,31.2,160.5,31.2z"/>
				<path class="st4" d="M166.1,19.8v-2h1.6v2H166.1z M166.1,31v-9.4h1.6V31H166.1z"/>
				<path class="st4" d="M174,31.2c-0.6,0-1.2-0.1-1.8-0.4c-0.5-0.3-1-0.6-1.4-1.1c-0.4-0.5-0.7-1-0.9-1.5c-0.2-0.6-0.3-1.2-0.3-1.8
					c0-0.7,0.1-1.3,0.3-1.9c0.2-0.6,0.5-1.1,0.9-1.6c0.4-0.5,0.8-0.8,1.4-1.1c0.5-0.3,1.1-0.4,1.8-0.4c0.8,0,1.5,0.2,2,0.6
					s1.1,0.9,1.5,1.4v-1.9h1.4v9.2c0,0.9-0.2,1.6-0.6,2.2c-0.4,0.6-1,1.1-1.7,1.4c-0.7,0.3-1.5,0.5-2.4,0.5c-1.1,0-1.9-0.2-2.6-0.6
					s-1.2-0.9-1.7-1.5l0.9-0.8c0.4,0.6,0.9,1,1.4,1.2c0.6,0.3,1.2,0.4,1.9,0.4c0.6,0,1.1-0.1,1.6-0.3c0.5-0.2,0.9-0.5,1.2-0.9
					c0.3-0.4,0.4-0.9,0.4-1.6v-1.7c-0.3,0.6-0.8,1-1.4,1.4C175.3,31,174.6,31.2,174,31.2z M174.4,29.9c0.3,0,0.7-0.1,1-0.2
					c0.3-0.1,0.6-0.3,0.9-0.5c0.3-0.2,0.5-0.4,0.7-0.7c0.2-0.3,0.3-0.5,0.4-0.8v-2.7c-0.2-0.4-0.4-0.8-0.7-1.1
					c-0.3-0.3-0.7-0.6-1.1-0.8c-0.4-0.2-0.8-0.3-1.2-0.3c-0.5,0-0.9,0.1-1.3,0.3s-0.7,0.5-1,0.8s-0.5,0.7-0.6,1.1
					c-0.1,0.4-0.2,0.8-0.2,1.3c0,0.5,0.1,0.9,0.3,1.3s0.4,0.8,0.7,1.1c0.3,0.3,0.6,0.6,1,0.8C173.6,29.8,174,29.9,174.4,29.9z"/>
				<path class="st4" d="M189.6,31H188v-5.2c0-1-0.2-1.7-0.5-2.2s-0.8-0.7-1.4-0.7c-0.4,0-0.9,0.1-1.3,0.3c-0.4,0.2-0.8,0.5-1.1,0.9
					c-0.3,0.4-0.6,0.8-0.7,1.3V31h-1.6v-9.3h1.4v2c0.3-0.4,0.6-0.8,1-1.1c0.4-0.3,0.8-0.6,1.4-0.8s1-0.3,1.6-0.3
					c0.5,0,1,0.1,1.4,0.3s0.7,0.5,0.9,0.8s0.4,0.8,0.5,1.2s0.1,1,0.1,1.6V31z"/>
				<path class="st4" d="M205.4,31l-6.3-6.6c-0.5-0.5-0.9-1-1.2-1.4c-0.3-0.4-0.5-0.7-0.7-1c-0.1-0.3-0.2-0.6-0.2-1
					c0-0.5,0.1-1,0.4-1.5s0.7-0.8,1.2-1c0.5-0.2,1.1-0.4,1.7-0.4c0.6,0,1.1,0.1,1.6,0.3c0.5,0.2,0.8,0.5,1.1,0.9
					c0.3,0.4,0.4,0.8,0.4,1.4c0,0.5-0.2,1-0.5,1.4c-0.3,0.4-0.7,0.8-1.2,1.2s-1,0.7-1.6,1.1c-0.5,0.3-0.9,0.6-1.3,0.9
					c-0.4,0.3-0.7,0.7-0.9,1c-0.2,0.4-0.3,0.8-0.3,1.2c0,0.5,0.1,0.9,0.4,1.2c0.3,0.3,0.6,0.6,1,0.8c0.4,0.2,0.9,0.3,1.3,0.3
					c0.6,0,1.2-0.1,1.7-0.4c0.5-0.3,1-0.7,1.4-1.2c0.4-0.5,0.7-1.1,0.9-1.8c0.2-0.7,0.3-1.4,0.3-2.2h1.3c0,1-0.2,1.9-0.5,2.7
					s-0.7,1.5-1.3,2.1c-0.5,0.6-1.2,1.1-1.9,1.4s-1.5,0.5-2.3,0.5c-0.8,0-1.5-0.2-2.1-0.5s-1.1-0.7-1.5-1.3
					c-0.4-0.5-0.5-1.1-0.5-1.8c0-0.7,0.2-1.2,0.5-1.7c0.3-0.5,0.7-0.9,1.2-1.3c0.5-0.4,1-0.7,1.5-1.1c0.5-0.3,1-0.6,1.4-0.9
					c0.4-0.3,0.7-0.6,1-0.9c0.2-0.3,0.4-0.6,0.4-1c0-0.4-0.2-0.8-0.5-1c-0.3-0.3-0.7-0.4-1.2-0.4c-0.4,0-0.7,0.1-1,0.2
					c-0.3,0.1-0.5,0.3-0.6,0.6c-0.2,0.2-0.2,0.5-0.2,0.8c0,0.2,0,0.4,0.1,0.6c0.1,0.2,0.3,0.5,0.5,0.8c0.3,0.3,0.7,0.7,1.1,1.2
					l7.1,7.5H205.4z"/>
			</g>
			<g class="st3">
				<path class="st4" d="M23.3,52v-9.8l-4.2,7.5h-1l-4.2-7.5V52h-1.6V39.2h1.7l4.6,8.3l4.6-8.3h1.7V52H23.3z"/>
				<path class="st4" d="M26.9,49.3c0-0.6,0.2-1.1,0.5-1.5c0.3-0.4,0.8-0.8,1.4-1c0.6-0.2,1.3-0.4,2.1-0.4c0.4,0,0.9,0,1.3,0.1
					c0.5,0.1,0.9,0.2,1.2,0.3v-0.7c0-0.7-0.2-1.3-0.6-1.7s-1-0.6-1.8-0.6c-0.5,0-1,0.1-1.5,0.3c-0.5,0.2-1,0.5-1.5,0.8l-0.6-1.1
					c0.6-0.4,1.2-0.7,1.8-0.9s1.2-0.3,1.9-0.3c1.2,0,2.1,0.3,2.8,1c0.7,0.7,1,1.6,1,2.8v3.9c0,0.2,0,0.3,0.1,0.4
					c0.1,0.1,0.2,0.1,0.4,0.2V52c-0.2,0-0.3,0-0.4,0.1c-0.1,0-0.2,0-0.3,0c-0.4,0-0.7-0.1-0.8-0.3c-0.2-0.2-0.3-0.4-0.3-0.6l0-0.6
					c-0.4,0.5-0.9,0.9-1.6,1.2c-0.7,0.3-1.3,0.4-2,0.4c-0.6,0-1.2-0.1-1.7-0.4c-0.5-0.3-0.9-0.6-1.2-1C27,50.3,26.9,49.8,26.9,49.3z
					 M33,50c0.1-0.2,0.3-0.3,0.3-0.5c0.1-0.2,0.1-0.3,0.1-0.4v-1.2c-0.4-0.1-0.8-0.3-1.2-0.3c-0.4-0.1-0.8-0.1-1.2-0.1
					c-0.8,0-1.5,0.2-2,0.5c-0.5,0.3-0.7,0.7-0.7,1.3c0,0.3,0.1,0.6,0.2,0.9c0.2,0.3,0.4,0.5,0.7,0.7c0.3,0.2,0.7,0.3,1.2,0.3
					c0.5,0,1-0.1,1.4-0.3C32.4,50.5,32.7,50.3,33,50z"/>
				<path class="st4" d="M45.7,52h-1.6v-5.2c0-1-0.2-1.7-0.5-2.2c-0.3-0.5-0.8-0.7-1.4-0.7c-0.4,0-0.9,0.1-1.3,0.3
					c-0.4,0.2-0.8,0.5-1.1,0.9c-0.3,0.4-0.6,0.8-0.7,1.3V52h-1.6v-9.3H39v2c0.3-0.4,0.6-0.8,1-1.1c0.4-0.3,0.8-0.6,1.4-0.8
					s1-0.3,1.6-0.3c0.5,0,1,0.1,1.4,0.3s0.7,0.5,0.9,0.8c0.2,0.4,0.4,0.8,0.4,1.2c0.1,0.5,0.1,1,0.1,1.6V52z"/>
				<path class="st4" d="M48.1,48.3v-5.6h1.6V48c0,1,0.2,1.7,0.5,2.1c0.3,0.5,0.8,0.7,1.5,0.7c0.4,0,0.8-0.1,1.3-0.3
					c0.4-0.2,0.8-0.4,1.1-0.8c0.3-0.3,0.6-0.8,0.8-1.2v-5.9h1.6v7.5c0,0.2,0,0.3,0.1,0.4c0.1,0.1,0.2,0.1,0.4,0.2V52
					c-0.2,0-0.3,0-0.4,0s-0.2,0-0.3,0c-0.3,0-0.6-0.1-0.8-0.3c-0.2-0.2-0.3-0.4-0.3-0.7l0-1.1c-0.4,0.7-1,1.2-1.6,1.6
					c-0.7,0.4-1.4,0.6-2.3,0.6c-1,0-1.7-0.3-2.2-1C48.4,50.5,48.1,49.5,48.1,48.3z"/>
				<path class="st4" d="M59.5,52v-8.2h-1.3v-1.2h1.3v-0.2c0-0.8,0.1-1.4,0.4-2c0.2-0.6,0.6-1,1-1.3c0.4-0.3,0.9-0.5,1.5-0.5
					c0.4,0,0.7,0.1,1.1,0.2c0.4,0.1,0.7,0.2,1,0.4l-0.4,1.2c-0.2-0.1-0.4-0.2-0.6-0.3C63.2,40.1,63,40,62.7,40
					c-0.5,0-0.9,0.2-1.2,0.6c-0.3,0.4-0.4,1-0.4,1.7v0.3h2.5v1.2h-2.5V52H59.5z"/>
				<path class="st4" d="M64.5,49.3c0-0.6,0.2-1.1,0.5-1.5c0.3-0.4,0.8-0.8,1.4-1c0.6-0.2,1.3-0.4,2.1-0.4c0.4,0,0.9,0,1.3,0.1
					c0.5,0.1,0.9,0.2,1.2,0.3v-0.7c0-0.7-0.2-1.3-0.6-1.7s-1-0.6-1.8-0.6c-0.5,0-1,0.1-1.5,0.3c-0.5,0.2-1,0.5-1.5,0.8L65,43.8
					c0.6-0.4,1.2-0.7,1.8-0.9s1.2-0.3,1.9-0.3c1.2,0,2.1,0.3,2.8,1c0.7,0.7,1,1.6,1,2.8v3.9c0,0.2,0,0.3,0.1,0.4
					c0.1,0.1,0.2,0.1,0.4,0.2V52c-0.2,0-0.3,0-0.4,0.1c-0.1,0-0.2,0-0.3,0c-0.4,0-0.7-0.1-0.8-0.3c-0.2-0.2-0.3-0.4-0.3-0.6l0-0.6
					c-0.4,0.5-0.9,0.9-1.6,1.2c-0.7,0.3-1.3,0.4-2,0.4c-0.6,0-1.2-0.1-1.7-0.4c-0.5-0.3-0.9-0.6-1.2-1
					C64.6,50.3,64.5,49.8,64.5,49.3z M70.6,50c0.1-0.2,0.3-0.3,0.3-0.5C71,49.3,71,49.1,71,49v-1.2c-0.4-0.1-0.8-0.3-1.2-0.3
					c-0.4-0.1-0.8-0.1-1.2-0.1c-0.8,0-1.5,0.2-2,0.5c-0.5,0.3-0.7,0.7-0.7,1.3c0,0.3,0.1,0.6,0.2,0.9c0.2,0.3,0.4,0.5,0.7,0.7
					c0.3,0.2,0.7,0.3,1.2,0.3c0.5,0,1-0.1,1.4-0.3C70,50.5,70.3,50.3,70.6,50z"/>
				<path class="st4" d="M79.3,52.2c-0.7,0-1.4-0.1-1.9-0.4s-1.1-0.6-1.5-1.1c-0.4-0.5-0.8-1-1-1.6c-0.2-0.6-0.4-1.2-0.4-1.9
					c0-0.9,0.2-1.7,0.6-2.4s1-1.3,1.7-1.7s1.6-0.7,2.5-0.7c0.9,0,1.7,0.2,2.4,0.6s1.2,1,1.5,1.7l-1.5,0.5c-0.2-0.4-0.6-0.8-1-1
					c-0.4-0.2-0.9-0.4-1.4-0.4c-0.6,0-1.1,0.1-1.6,0.4c-0.5,0.3-0.8,0.7-1.1,1.2c-0.3,0.5-0.4,1.1-0.4,1.8c0,0.7,0.1,1.2,0.4,1.8
					c0.3,0.5,0.7,0.9,1.1,1.3c0.5,0.3,1,0.5,1.6,0.5c0.4,0,0.7-0.1,1.1-0.2c0.3-0.1,0.6-0.3,0.9-0.5c0.3-0.2,0.4-0.5,0.5-0.7
					l1.5,0.5c-0.2,0.5-0.5,0.9-0.9,1.2c-0.4,0.4-0.9,0.6-1.4,0.8C80.5,52.1,80,52.2,79.3,52.2z"/>
				<path class="st4" d="M90,51.6c-0.1,0.1-0.3,0.1-0.5,0.2c-0.2,0.1-0.5,0.2-0.8,0.3c-0.3,0.1-0.6,0.1-1,0.1
					c-0.4,0-0.7-0.1-1.1-0.2c-0.3-0.1-0.6-0.4-0.8-0.6c-0.2-0.3-0.3-0.7-0.3-1.1v-6.3h-1.3v-1.2h1.3v-3.1h1.6v3.1h2.1v1.2h-2.1v5.8
					c0,0.3,0.1,0.6,0.3,0.7c0.2,0.2,0.4,0.2,0.7,0.2c0.3,0,0.6-0.1,0.9-0.2c0.3-0.1,0.4-0.2,0.5-0.2L90,51.6z"/>
				<path class="st4" d="M91.4,48.3v-5.6H93V48c0,1,0.2,1.7,0.5,2.1c0.3,0.5,0.8,0.7,1.5,0.7c0.4,0,0.8-0.1,1.3-0.3
					c0.4-0.2,0.8-0.4,1.1-0.8c0.3-0.3,0.6-0.8,0.8-1.2v-5.9h1.6v7.5c0,0.2,0,0.3,0.1,0.4c0.1,0.1,0.2,0.1,0.4,0.2V52
					c-0.2,0-0.3,0-0.4,0s-0.2,0-0.3,0c-0.3,0-0.6-0.1-0.8-0.3c-0.2-0.2-0.3-0.4-0.3-0.7l0-1.1c-0.4,0.7-1,1.2-1.6,1.6
					c-0.7,0.4-1.4,0.6-2.3,0.6c-1,0-1.7-0.3-2.2-1C91.6,50.5,91.4,49.5,91.4,48.3z"/>
				<path class="st4" d="M107.3,44c-0.8,0-1.5,0.2-2.1,0.6c-0.6,0.4-1,0.9-1.3,1.6V52h-1.6v-9.3h1.5v2.1c0.3-0.6,0.8-1.2,1.3-1.6
					c0.5-0.4,1.1-0.6,1.7-0.7c0.1,0,0.2,0,0.3,0s0.2,0,0.2,0V44z"/>
				<path class="st4" d="M108.8,40.8v-2h1.6v2H108.8z M108.8,52v-9.4h1.6V52H108.8z"/>
				<path class="st4" d="M121.1,52h-1.6v-5.2c0-1-0.2-1.7-0.5-2.2c-0.3-0.5-0.8-0.7-1.4-0.7c-0.4,0-0.9,0.1-1.3,0.3
					c-0.4,0.2-0.8,0.5-1.1,0.9c-0.3,0.4-0.6,0.8-0.7,1.3V52H113v-9.3h1.4v2c0.3-0.4,0.6-0.8,1-1.1c0.4-0.3,0.8-0.6,1.4-0.8
					s1-0.3,1.6-0.3c0.5,0,1,0.1,1.4,0.3s0.7,0.5,0.9,0.8c0.2,0.4,0.4,0.8,0.4,1.2c0.1,0.5,0.1,1,0.1,1.6V52z"/>
				<path class="st4" d="M127.3,52.2c-0.6,0-1.2-0.1-1.8-0.4s-1-0.6-1.4-1.1c-0.4-0.5-0.7-1-0.9-1.5c-0.2-0.6-0.3-1.2-0.3-1.8
					c0-0.7,0.1-1.3,0.3-1.9c0.2-0.6,0.5-1.1,0.9-1.6c0.4-0.5,0.8-0.8,1.4-1.1c0.5-0.3,1.1-0.4,1.8-0.4c0.8,0,1.5,0.2,2,0.6
					s1.1,0.9,1.5,1.4v-1.9h1.4v9.2c0,0.9-0.2,1.6-0.6,2.2s-1,1.1-1.7,1.4c-0.7,0.3-1.5,0.5-2.4,0.5c-1.1,0-1.9-0.2-2.6-0.6
					c-0.7-0.4-1.2-0.9-1.7-1.5l0.9-0.8c0.4,0.6,0.9,1,1.4,1.2c0.6,0.3,1.2,0.4,1.9,0.4c0.6,0,1.1-0.1,1.6-0.3s0.9-0.5,1.2-0.9
					c0.3-0.4,0.4-0.9,0.4-1.6v-1.7c-0.3,0.6-0.8,1-1.4,1.4C128.6,52,128,52.2,127.3,52.2z M127.8,50.9c0.3,0,0.7-0.1,1-0.2
					c0.3-0.1,0.6-0.3,0.9-0.5c0.3-0.2,0.5-0.4,0.7-0.7s0.3-0.5,0.4-0.8v-2.7c-0.2-0.4-0.4-0.8-0.7-1.1c-0.3-0.3-0.7-0.6-1.1-0.8
					c-0.4-0.2-0.8-0.3-1.2-0.3c-0.5,0-0.9,0.1-1.3,0.3s-0.7,0.5-1,0.8c-0.3,0.3-0.5,0.7-0.6,1.1s-0.2,0.8-0.2,1.3
					c0,0.5,0.1,0.9,0.3,1.3c0.2,0.4,0.4,0.8,0.7,1.1c0.3,0.3,0.6,0.6,1,0.8C127,50.8,127.4,50.9,127.8,50.9z"/>
				<path class="st4" d="M148.3,50.6V52h-8.7V39.2h8.5v1.4h-6.9v4.1h6v1.4h-6v4.4H148.3z"/>
				<path class="st4" d="M158.3,52h-1.6v-5.2c0-1-0.2-1.7-0.5-2.2s-0.8-0.7-1.4-0.7c-0.4,0-0.9,0.1-1.3,0.3
					c-0.4,0.2-0.8,0.5-1.1,0.9c-0.3,0.4-0.6,0.8-0.7,1.3V52h-1.6v-9.3h1.4v2c0.3-0.4,0.6-0.8,1-1.1c0.4-0.3,0.8-0.6,1.4-0.8
					s1-0.3,1.6-0.3c0.5,0,1,0.1,1.4,0.3s0.7,0.5,0.9,0.8s0.4,0.8,0.5,1.2s0.1,1,0.1,1.6V52z"/>
				<path class="st4" d="M164.5,52.2c-0.6,0-1.2-0.1-1.8-0.4s-1-0.6-1.4-1.1c-0.4-0.5-0.7-1-0.9-1.5c-0.2-0.6-0.3-1.2-0.3-1.8
					c0-0.7,0.1-1.3,0.3-1.9c0.2-0.6,0.5-1.1,0.9-1.6s0.8-0.8,1.4-1.1c0.5-0.3,1.1-0.4,1.8-0.4c0.8,0,1.5,0.2,2,0.6s1.1,0.9,1.5,1.4
					v-1.9h1.4v9.2c0,0.9-0.2,1.6-0.6,2.2s-1,1.1-1.7,1.4c-0.7,0.3-1.5,0.5-2.4,0.5c-1.1,0-1.9-0.2-2.6-0.6c-0.7-0.4-1.2-0.9-1.7-1.5
					l0.9-0.8c0.4,0.6,0.9,1,1.4,1.2s1.2,0.4,1.9,0.4c0.6,0,1.1-0.1,1.6-0.3s0.9-0.5,1.2-0.9c0.3-0.4,0.4-0.9,0.4-1.6v-1.7
					c-0.3,0.6-0.8,1-1.4,1.4C165.8,52,165.2,52.2,164.5,52.2z M165,50.9c0.3,0,0.7-0.1,1-0.2c0.3-0.1,0.6-0.3,0.9-0.5
					c0.3-0.2,0.5-0.4,0.7-0.7s0.3-0.5,0.4-0.8v-2.7c-0.2-0.4-0.4-0.8-0.7-1.1c-0.3-0.3-0.7-0.6-1.1-0.8c-0.4-0.2-0.8-0.3-1.2-0.3
					c-0.5,0-0.9,0.1-1.3,0.3s-0.7,0.5-1,0.8c-0.3,0.3-0.5,0.7-0.6,1.1c-0.1,0.4-0.2,0.8-0.2,1.3c0,0.5,0.1,0.9,0.3,1.3
					c0.2,0.4,0.4,0.8,0.7,1.1c0.3,0.3,0.6,0.6,1,0.8C164.2,50.8,164.6,50.9,165,50.9z"/>
				<path class="st4" d="M172,40.8v-2h1.6v2H172z M172,52v-9.4h1.6V52H172z"/>
				<path class="st4" d="M184.3,52h-1.6v-5.2c0-1-0.2-1.7-0.5-2.2c-0.3-0.5-0.8-0.7-1.4-0.7c-0.4,0-0.9,0.1-1.3,0.3
					c-0.4,0.2-0.8,0.5-1.1,0.9c-0.3,0.4-0.6,0.8-0.7,1.3V52h-1.6v-9.3h1.4v2c0.3-0.4,0.6-0.8,1-1.1c0.4-0.3,0.8-0.6,1.3-0.8
					s1-0.3,1.6-0.3c0.5,0,1,0.1,1.4,0.3s0.7,0.5,0.9,0.8c0.2,0.4,0.4,0.8,0.4,1.2c0.1,0.5,0.1,1,0.1,1.6V52z"/>
				<path class="st4" d="M190.9,52.2c-0.7,0-1.4-0.1-1.9-0.4s-1.1-0.6-1.5-1.1c-0.4-0.4-0.8-1-1-1.5c-0.2-0.6-0.4-1.2-0.4-1.9
					c0-0.9,0.2-1.7,0.6-2.4c0.4-0.7,1-1.3,1.7-1.8c0.7-0.4,1.6-0.7,2.5-0.7c0.9,0,1.8,0.2,2.5,0.7c0.7,0.4,1.2,1,1.6,1.8
					c0.4,0.7,0.6,1.5,0.6,2.3c0,0.1,0,0.2,0,0.3c0,0.1,0,0.2,0,0.3h-7.8c0,0.6,0.2,1.1,0.5,1.6s0.7,0.8,1.1,1.1
					c0.5,0.3,1,0.4,1.5,0.4c0.6,0,1.1-0.1,1.6-0.4c0.5-0.3,0.9-0.7,1.1-1.1l1.4,0.4c-0.2,0.5-0.5,0.9-0.9,1.2
					c-0.4,0.4-0.9,0.6-1.4,0.8S191.6,52.2,190.9,52.2z M187.8,46.8h6.4c0-0.6-0.2-1.1-0.5-1.6s-0.7-0.8-1.2-1.1
					c-0.5-0.3-1-0.4-1.5-0.4c-0.6,0-1.1,0.1-1.5,0.4c-0.5,0.3-0.8,0.6-1.1,1.1S187.8,46.2,187.8,46.8z"/>
				<path class="st4" d="M201.6,52.2c-0.7,0-1.4-0.1-1.9-0.4s-1.1-0.6-1.5-1.1c-0.4-0.4-0.8-1-1-1.5c-0.2-0.6-0.4-1.2-0.4-1.9
					c0-0.9,0.2-1.7,0.6-2.4c0.4-0.7,1-1.3,1.7-1.8c0.7-0.4,1.6-0.7,2.5-0.7c0.9,0,1.8,0.2,2.5,0.7c0.7,0.4,1.2,1,1.6,1.8
					c0.4,0.7,0.6,1.5,0.6,2.3c0,0.1,0,0.2,0,0.3c0,0.1,0,0.2,0,0.3h-7.8c0,0.6,0.2,1.1,0.5,1.6s0.7,0.8,1.1,1.1
					c0.5,0.3,1,0.4,1.5,0.4c0.6,0,1.1-0.1,1.6-0.4c0.5-0.3,0.9-0.7,1.1-1.1l1.4,0.4c-0.2,0.5-0.5,0.9-0.9,1.2
					c-0.4,0.4-0.9,0.6-1.4,0.8S202.2,52.2,201.6,52.2z M198.4,46.8h6.4c0-0.6-0.2-1.1-0.5-1.6s-0.7-0.8-1.2-1.1
					c-0.5-0.3-1-0.4-1.5-0.4c-0.6,0-1.1,0.1-1.5,0.4c-0.5,0.3-0.8,0.6-1.1,1.1S198.5,46.2,198.4,46.8z"/>
				<path class="st4" d="M213,44c-0.8,0-1.5,0.2-2.1,0.6c-0.6,0.4-1,0.9-1.3,1.6V52h-1.6v-9.3h1.5v2.1c0.3-0.6,0.8-1.2,1.3-1.6
					s1.1-0.6,1.7-0.7c0.1,0,0.2,0,0.3,0s0.2,0,0.2,0V44z"/>
				<path class="st4" d="M214.6,40.8v-2h1.6v2H214.6z M214.6,52v-9.4h1.6V52H214.6z"/>
				<path class="st4" d="M226.9,52h-1.6v-5.2c0-1-0.2-1.7-0.5-2.2c-0.3-0.5-0.8-0.7-1.4-0.7c-0.4,0-0.9,0.1-1.3,0.3
					c-0.4,0.2-0.8,0.5-1.1,0.9c-0.3,0.4-0.6,0.8-0.7,1.3V52h-1.6v-9.3h1.4v2c0.3-0.4,0.6-0.8,1-1.1c0.4-0.3,0.8-0.6,1.3-0.8
					s1-0.3,1.6-0.3c0.5,0,1,0.1,1.4,0.3s0.7,0.5,0.9,0.8c0.2,0.4,0.4,0.8,0.4,1.2c0.1,0.5,0.1,1,0.1,1.6V52z"/>
				<path class="st4" d="M233.1,52.2c-0.6,0-1.2-0.1-1.8-0.4c-0.5-0.3-1-0.6-1.4-1.1c-0.4-0.5-0.7-1-0.9-1.5
					c-0.2-0.6-0.3-1.2-0.3-1.8c0-0.7,0.1-1.3,0.3-1.9c0.2-0.6,0.5-1.1,0.9-1.6c0.4-0.5,0.8-0.8,1.4-1.1c0.5-0.3,1.1-0.4,1.8-0.4
					c0.8,0,1.5,0.2,2,0.6s1.1,0.9,1.5,1.4v-1.9h1.4v9.2c0,0.9-0.2,1.6-0.6,2.2c-0.4,0.6-1,1.1-1.7,1.4c-0.7,0.3-1.5,0.5-2.4,0.5
					c-1.1,0-1.9-0.2-2.6-0.6s-1.2-0.9-1.7-1.5l0.9-0.8c0.4,0.6,0.9,1,1.4,1.2c0.6,0.3,1.2,0.4,1.9,0.4c0.6,0,1.1-0.1,1.6-0.3
					c0.5-0.2,0.9-0.5,1.2-0.9c0.3-0.4,0.4-0.9,0.4-1.6v-1.7c-0.3,0.6-0.8,1-1.4,1.4C234.4,52,233.8,52.2,233.1,52.2z M233.6,50.9
					c0.3,0,0.7-0.1,1-0.2c0.3-0.1,0.6-0.3,0.9-0.5c0.3-0.2,0.5-0.4,0.7-0.7c0.2-0.3,0.3-0.5,0.4-0.8v-2.7c-0.2-0.4-0.4-0.8-0.7-1.1
					c-0.3-0.3-0.7-0.6-1.1-0.8c-0.4-0.2-0.8-0.3-1.2-0.3c-0.5,0-0.9,0.1-1.3,0.3s-0.7,0.5-1,0.8s-0.5,0.7-0.6,1.1
					c-0.1,0.4-0.2,0.8-0.2,1.3c0,0.5,0.1,0.9,0.3,1.3s0.4,0.8,0.7,1.1c0.3,0.3,0.6,0.6,1,0.8C232.7,50.8,233.1,50.9,233.6,50.9z"/>
			</g>
			<g class="st3">
				<path class="st4" d="M23.3,232.7v1.3h-5.7v-1.3h2.3v-6.2c-0.1,0.1-0.2,0.3-0.4,0.4c-0.2,0.1-0.4,0.3-0.7,0.4s-0.5,0.2-0.8,0.3
					s-0.5,0.1-0.7,0.1v-1.3c0.2,0,0.5-0.1,0.8-0.2c0.3-0.1,0.6-0.3,0.8-0.5s0.5-0.4,0.7-0.5c0.2-0.2,0.3-0.3,0.3-0.3h1.4v7.9H23.3z"
					/>
				<path class="st4" d="M32.7,229.4c0,0.9-0.2,1.7-0.5,2.5s-0.8,1.3-1.4,1.7c-0.6,0.4-1.3,0.6-2.1,0.6c-0.8,0-1.5-0.2-2.1-0.6
					c-0.6-0.4-1.1-1-1.4-1.7s-0.5-1.5-0.5-2.5s0.2-1.7,0.5-2.5s0.8-1.3,1.4-1.7s1.3-0.6,2.1-0.6c0.8,0,1.5,0.2,2.1,0.6
					c0.6,0.4,1.1,1,1.4,1.7S32.7,228.5,32.7,229.4z M31.3,229.4c0-0.7-0.1-1.3-0.3-1.8c-0.2-0.5-0.5-0.9-0.9-1.2
					c-0.4-0.3-0.8-0.4-1.4-0.4c-0.5,0-1,0.1-1.4,0.4c-0.4,0.3-0.7,0.7-0.9,1.2s-0.3,1.1-0.3,1.8c0,0.7,0.1,1.3,0.3,1.8
					c0.2,0.5,0.5,0.9,0.9,1.2c0.4,0.3,0.9,0.4,1.4,0.4c0.5,0,1-0.1,1.4-0.4c0.4-0.3,0.7-0.7,0.9-1.2
					C31.2,230.7,31.3,230.1,31.3,229.4z"/>
				<path class="st4" d="M42.5,229.4c0,0.9-0.2,1.7-0.5,2.5s-0.8,1.3-1.4,1.7c-0.6,0.4-1.3,0.6-2.1,0.6c-0.8,0-1.5-0.2-2.1-0.6
					c-0.6-0.4-1.1-1-1.4-1.7s-0.5-1.5-0.5-2.5s0.2-1.7,0.5-2.5s0.8-1.3,1.4-1.7s1.3-0.6,2.1-0.6c0.8,0,1.5,0.2,2.1,0.6
					c0.6,0.4,1.1,1,1.4,1.7S42.5,228.5,42.5,229.4z M41.1,229.4c0-0.7-0.1-1.3-0.3-1.8c-0.2-0.5-0.5-0.9-0.9-1.2
					c-0.4-0.3-0.8-0.4-1.4-0.4c-0.5,0-1,0.1-1.4,0.4c-0.4,0.3-0.7,0.7-0.9,1.2s-0.3,1.1-0.3,1.8c0,0.7,0.1,1.3,0.3,1.8
					c0.2,0.5,0.5,0.9,0.9,1.2c0.4,0.3,0.9,0.4,1.4,0.4c0.5,0,1-0.1,1.4-0.4c0.4-0.3,0.7-0.7,0.9-1.2C41,230.7,41.1,230.1,41.1,229.4
					z"/>
				<path class="st4" d="M46.4,227.2c-0.4,0-0.9-0.1-1.2-0.3c-0.4-0.2-0.7-0.5-0.9-0.8c-0.2-0.4-0.3-0.8-0.3-1.2
					c0-0.4,0.1-0.8,0.3-1.2c0.2-0.4,0.5-0.6,0.9-0.8c0.4-0.2,0.8-0.3,1.2-0.3c0.5,0,0.9,0.1,1.2,0.3c0.4,0.2,0.7,0.5,0.9,0.8
					c0.2,0.4,0.3,0.7,0.3,1.2c0,0.4-0.1,0.8-0.3,1.2s-0.5,0.6-0.9,0.8C47.3,227.1,46.9,227.2,46.4,227.2z M44.5,233.4l4.5-5.3
					l4.3-5.4l0.7,0.6l-4.4,5.3l-4.4,5.5L44.5,233.4z M46.4,226.5c0.3,0,0.5-0.1,0.7-0.2c0.2-0.1,0.4-0.3,0.5-0.6
					c0.1-0.2,0.2-0.5,0.2-0.8c0-0.3-0.1-0.6-0.2-0.8c-0.1-0.2-0.3-0.4-0.5-0.6c-0.2-0.1-0.5-0.2-0.7-0.2c-0.3,0-0.5,0.1-0.7,0.2
					c-0.2,0.1-0.4,0.3-0.5,0.6s-0.2,0.5-0.2,0.8c0,0.3,0.1,0.5,0.2,0.8c0.1,0.2,0.3,0.4,0.5,0.6C45.9,226.4,46.2,226.5,46.4,226.5z
					 M52,234.1c-0.5,0-0.9-0.1-1.2-0.3c-0.4-0.2-0.7-0.5-0.9-0.8s-0.3-0.7-0.3-1.2c0-0.4,0.1-0.8,0.3-1.2c0.2-0.4,0.5-0.6,0.9-0.8
					c0.4-0.2,0.8-0.3,1.2-0.3s0.9,0.1,1.2,0.3s0.7,0.5,0.9,0.8c0.2,0.4,0.3,0.7,0.3,1.2c0,0.4-0.1,0.8-0.3,1.2
					c-0.2,0.4-0.5,0.6-0.9,0.8S52.5,234.1,52,234.1z M52,233.3c0.3,0,0.5-0.1,0.7-0.2c0.2-0.1,0.4-0.3,0.5-0.6
					c0.1-0.2,0.2-0.5,0.2-0.8c0-0.3-0.1-0.6-0.2-0.8c-0.1-0.2-0.3-0.4-0.5-0.6s-0.5-0.2-0.7-0.2c-0.3,0-0.5,0.1-0.7,0.2
					c-0.2,0.1-0.4,0.3-0.5,0.6s-0.2,0.5-0.2,0.8c0,0.3,0.1,0.5,0.2,0.8c0.1,0.2,0.3,0.4,0.5,0.6C51.6,233.2,51.8,233.3,52,233.3z"/>
				<path class="st4" d="M59.3,232.2c0.2,0.1,0.5,0.3,0.8,0.4c0.4,0.1,0.8,0.2,1.3,0.2c0.5,0,0.9-0.1,1.2-0.2
					c0.3-0.2,0.6-0.4,0.7-0.7c0.2-0.3,0.3-0.8,0.4-1.3s0.1-1.1,0.1-1.8v-6h1.4v5.7c0,0.8,0,1.6-0.1,2.3s-0.3,1.3-0.5,1.8
					c-0.3,0.5-0.6,0.9-1.1,1.2c-0.5,0.3-1.2,0.4-2,0.4c-0.5,0-1-0.1-1.4-0.2s-0.8-0.3-1.1-0.5L59.3,232.2z"/>
				<path class="st4" d="M71.1,234.2c-0.6,0-1.2-0.1-1.7-0.3c-0.5-0.2-1-0.5-1.3-0.9c-0.4-0.4-0.7-0.9-0.9-1.4s-0.3-1.1-0.3-1.6
					c0-0.6,0.1-1.1,0.3-1.7c0.2-0.5,0.5-1,0.9-1.4c0.4-0.4,0.8-0.7,1.3-0.9c0.5-0.2,1.1-0.3,1.7-0.3c0.6,0,1.2,0.1,1.7,0.3
					c0.5,0.2,1,0.5,1.3,0.9c0.4,0.4,0.7,0.9,0.9,1.4c0.2,0.5,0.3,1.1,0.3,1.7c0,0.6-0.1,1.1-0.3,1.6s-0.5,1-0.9,1.4
					c-0.4,0.4-0.8,0.7-1.3,0.9S71.7,234.2,71.1,234.2z M68.4,229.9c0,0.6,0.1,1.1,0.4,1.6c0.3,0.5,0.6,0.8,1,1.1
					c0.4,0.3,0.9,0.4,1.4,0.4c0.5,0,1-0.1,1.4-0.4s0.8-0.6,1-1.1s0.4-1,0.4-1.6c0-0.6-0.1-1.1-0.4-1.6c-0.3-0.5-0.6-0.8-1-1.1
					c-0.4-0.3-0.9-0.4-1.4-0.4c-0.5,0-1,0.1-1.4,0.4c-0.4,0.3-0.7,0.7-1,1.1C68.5,228.8,68.4,229.3,68.4,229.9z"/>
				<path class="st4" d="M81.3,234.2c-0.7,0-1.2-0.2-1.8-0.5c-0.5-0.3-1-0.7-1.3-1.2v1.6h-1.2v-11.7h1.4v5.1c0.4-0.5,0.8-1,1.3-1.3
					c0.5-0.3,1.1-0.5,1.8-0.5c0.6,0,1.1,0.1,1.6,0.4c0.5,0.2,0.9,0.6,1.2,1c0.3,0.4,0.6,0.9,0.8,1.4c0.2,0.5,0.3,1.1,0.3,1.6
					c0,0.6-0.1,1.1-0.3,1.6c-0.2,0.5-0.5,1-0.8,1.4c-0.4,0.4-0.8,0.7-1.3,0.9C82.4,234,81.9,234.2,81.3,234.2z M81,232.9
					c0.4,0,0.8-0.1,1.2-0.3s0.7-0.4,0.9-0.7c0.3-0.3,0.5-0.6,0.6-1c0.1-0.4,0.2-0.8,0.2-1.1c0-0.5-0.1-1-0.3-1.5
					c-0.2-0.5-0.5-0.9-1-1.1s-0.9-0.4-1.4-0.4c-0.4,0-0.8,0.1-1.1,0.3c-0.3,0.2-0.6,0.4-0.9,0.7s-0.5,0.6-0.6,1v2.4
					c0.1,0.3,0.2,0.5,0.3,0.7s0.4,0.4,0.6,0.6c0.2,0.2,0.5,0.3,0.8,0.4C80.5,232.9,80.7,232.9,81,232.9z"/>
				<path class="st4" d="M95.9,234.1c-0.7,0-1.4-0.2-2.1-0.5c-0.6-0.3-1.2-0.8-1.7-1.3c-0.5-0.5-0.9-1.2-1.1-1.9
					c-0.3-0.7-0.4-1.4-0.4-2.1c0-0.8,0.1-1.5,0.4-2.2c0.3-0.7,0.6-1.3,1.1-1.8c0.5-0.5,1-1,1.7-1.3c0.6-0.3,1.3-0.5,2.1-0.5
					c1.1,0,2,0.2,2.7,0.7c0.7,0.5,1.3,1.1,1.6,1.8l-1.1,0.8c-0.3-0.7-0.8-1.2-1.4-1.5s-1.2-0.5-1.9-0.5c-0.6,0-1.1,0.1-1.6,0.4
					c-0.5,0.2-0.9,0.6-1.2,1c-0.3,0.4-0.6,0.9-0.8,1.4c-0.2,0.5-0.3,1.1-0.3,1.7c0,0.6,0.1,1.2,0.3,1.7c0.2,0.5,0.5,1,0.8,1.4
					c0.4,0.4,0.8,0.7,1.3,1c0.5,0.2,1,0.4,1.6,0.4c0.7,0,1.3-0.2,1.9-0.5c0.6-0.3,1.1-0.8,1.7-1.5v1.5
					C98.5,233.5,97.3,234.1,95.9,234.1z M99.3,229.4h-2.4v-1.1h3.7v5.7h-1.2V229.4z"/>
				<path class="st4" d="M102.4,230.7v-5h1.4v4.7c0,0.8,0.1,1.5,0.4,1.9c0.3,0.4,0.7,0.6,1.3,0.6c0.4,0,0.8-0.1,1.1-0.2
					s0.7-0.4,1-0.7c0.3-0.3,0.5-0.7,0.7-1.1v-5.2h1.4v6.7c0,0.2,0,0.3,0.1,0.4c0.1,0.1,0.2,0.1,0.3,0.1v1.1c-0.2,0-0.3,0-0.4,0
					c-0.1,0-0.2,0-0.3,0c-0.3,0-0.5-0.1-0.7-0.2c-0.2-0.2-0.3-0.4-0.3-0.6l0-1c-0.4,0.6-0.9,1.1-1.5,1.4c-0.6,0.3-1.3,0.5-2,0.5
					c-0.9,0-1.5-0.3-2-0.9C102.6,232.7,102.4,231.8,102.4,230.7z"/>
				<path class="st4" d="M111.5,231.6c0-0.5,0.2-1,0.5-1.4s0.7-0.7,1.3-0.9s1.2-0.3,1.9-0.3c0.4,0,0.8,0,1.2,0.1s0.8,0.1,1.1,0.3
					v-0.6c0-0.6-0.2-1.1-0.6-1.5c-0.4-0.4-0.9-0.5-1.6-0.5c-0.5,0-0.9,0.1-1.3,0.2c-0.4,0.2-0.9,0.4-1.3,0.7l-0.5-1
					c0.5-0.4,1.1-0.7,1.6-0.8c0.5-0.2,1.1-0.3,1.7-0.3c1.1,0,1.9,0.3,2.5,0.9s0.9,1.4,0.9,2.5v3.5c0,0.2,0,0.3,0.1,0.4
					c0.1,0.1,0.2,0.1,0.3,0.1v1.1c-0.1,0-0.3,0-0.4,0c-0.1,0-0.2,0-0.2,0c-0.3,0-0.6-0.1-0.7-0.3s-0.3-0.4-0.3-0.6l0-0.5
					c-0.4,0.5-0.8,0.8-1.4,1.1c-0.6,0.3-1.2,0.4-1.7,0.4c-0.6,0-1.1-0.1-1.5-0.3c-0.4-0.2-0.8-0.5-1-0.9
					C111.6,232.5,111.5,232.1,111.5,231.6z M116.9,232.2c0.1-0.1,0.2-0.3,0.3-0.5c0.1-0.2,0.1-0.3,0.1-0.4v-1
					c-0.3-0.1-0.7-0.2-1-0.3c-0.4-0.1-0.7-0.1-1.1-0.1c-0.7,0-1.3,0.1-1.7,0.4c-0.4,0.3-0.7,0.7-0.7,1.1c0,0.3,0.1,0.5,0.2,0.8
					s0.4,0.5,0.6,0.6c0.3,0.2,0.6,0.2,1,0.2c0.4,0,0.9-0.1,1.2-0.3C116.3,232.7,116.7,232.4,116.9,232.2z"/>
				<path class="st4" d="M125.4,226.9c-0.7,0-1.3,0.2-1.9,0.5s-0.9,0.8-1.1,1.4v5.2H121v-8.3h1.3v1.9c0.3-0.6,0.7-1,1.1-1.4
					c0.5-0.4,1-0.6,1.5-0.6c0.1,0,0.2,0,0.3,0s0.1,0,0.2,0V226.9z"/>
				<path class="st4" d="M126.1,231.6c0-0.5,0.2-1,0.5-1.4c0.3-0.4,0.7-0.7,1.3-0.9s1.2-0.3,1.9-0.3c0.4,0,0.8,0,1.2,0.1
					s0.8,0.1,1.1,0.3v-0.6c0-0.6-0.2-1.1-0.6-1.5c-0.4-0.4-0.9-0.5-1.6-0.5c-0.5,0-0.9,0.1-1.3,0.2c-0.4,0.2-0.9,0.4-1.3,0.7l-0.5-1
					c0.5-0.4,1.1-0.7,1.6-0.8c0.5-0.2,1.1-0.3,1.7-0.3c1.1,0,1.9,0.3,2.5,0.9c0.6,0.6,0.9,1.4,0.9,2.5v3.5c0,0.2,0,0.3,0.1,0.4
					c0.1,0.1,0.2,0.1,0.3,0.1v1.1c-0.1,0-0.3,0-0.4,0s-0.2,0-0.2,0c-0.3,0-0.6-0.1-0.7-0.3c-0.2-0.2-0.3-0.4-0.3-0.6l0-0.5
					c-0.4,0.5-0.8,0.8-1.4,1.1c-0.6,0.3-1.2,0.4-1.7,0.4c-0.6,0-1.1-0.1-1.5-0.3c-0.4-0.2-0.8-0.5-1-0.9
					C126.2,232.5,126.1,232.1,126.1,231.6z M131.6,232.2c0.1-0.1,0.2-0.3,0.3-0.5c0.1-0.2,0.1-0.3,0.1-0.4v-1
					c-0.3-0.1-0.7-0.2-1-0.3c-0.4-0.1-0.7-0.1-1.1-0.1c-0.7,0-1.3,0.1-1.7,0.4s-0.7,0.7-0.7,1.1c0,0.3,0.1,0.5,0.2,0.8
					c0.1,0.2,0.4,0.5,0.6,0.6c0.3,0.2,0.6,0.2,1,0.2c0.4,0,0.9-0.1,1.2-0.3C131,232.7,131.3,232.4,131.6,232.2z"/>
				<path class="st4" d="M142.9,234h-1.4v-4.6c0-0.9-0.1-1.5-0.4-1.9c-0.3-0.4-0.7-0.6-1.2-0.6c-0.4,0-0.8,0.1-1.1,0.3
					c-0.4,0.2-0.7,0.4-1,0.8c-0.3,0.3-0.5,0.7-0.6,1.1v5h-1.4v-8.3h1.3v1.8c0.2-0.4,0.5-0.7,0.9-1c0.4-0.3,0.8-0.5,1.2-0.7
					c0.4-0.2,0.9-0.2,1.4-0.2c0.5,0,0.9,0.1,1.2,0.3s0.6,0.4,0.8,0.7s0.3,0.7,0.4,1.1c0.1,0.4,0.1,0.9,0.1,1.4V234z"/>
				<path class="st4" d="M149.3,233.6c-0.1,0.1-0.3,0.1-0.5,0.2c-0.2,0.1-0.4,0.2-0.7,0.2c-0.3,0.1-0.5,0.1-0.8,0.1
					c-0.3,0-0.7-0.1-0.9-0.2c-0.3-0.1-0.5-0.3-0.7-0.6c-0.2-0.3-0.3-0.6-0.3-1v-5.6h-1.1v-1.1h1.1v-2.8h1.4v2.8h1.9v1.1h-1.9v5.2
					c0,0.3,0.1,0.5,0.3,0.7c0.2,0.1,0.4,0.2,0.6,0.2c0.3,0,0.5,0,0.8-0.1c0.2-0.1,0.4-0.2,0.5-0.2L149.3,233.6z"/>
				<path class="st4" d="M154.2,234.2c-0.6,0-1.2-0.1-1.7-0.3c-0.5-0.2-1-0.5-1.3-0.9c-0.4-0.4-0.7-0.9-0.9-1.4s-0.3-1.1-0.3-1.7
					c0-0.8,0.2-1.5,0.5-2.1c0.4-0.6,0.9-1.2,1.5-1.6c0.6-0.4,1.4-0.6,2.2-0.6c0.8,0,1.6,0.2,2.2,0.6s1.1,0.9,1.5,1.6
					c0.3,0.6,0.5,1.3,0.5,2.1c0,0.1,0,0.2,0,0.3c0,0.1,0,0.2,0,0.2h-6.9c0,0.5,0.2,1,0.5,1.4c0.3,0.4,0.6,0.7,1,1s0.9,0.4,1.3,0.4
					c0.5,0,1-0.1,1.4-0.4c0.5-0.3,0.8-0.6,0.9-1l1.2,0.3c-0.2,0.4-0.5,0.8-0.8,1.1c-0.4,0.3-0.8,0.6-1.3,0.8
					C155.3,234.1,154.8,234.2,154.2,234.2z M151.4,229.4h5.7c0-0.5-0.2-1-0.5-1.4s-0.6-0.7-1-1c-0.4-0.2-0.9-0.3-1.4-0.3
					c-0.5,0-0.9,0.1-1.4,0.3c-0.4,0.2-0.8,0.6-1,1S151.4,228.8,151.4,229.4z"/>
				<path class="st4" d="M163.7,234.2c-0.6,0-1.2-0.1-1.7-0.3c-0.5-0.2-1-0.5-1.3-0.9c-0.4-0.4-0.7-0.9-0.9-1.4s-0.3-1.1-0.3-1.7
					c0-0.8,0.2-1.5,0.5-2.1c0.4-0.6,0.9-1.2,1.5-1.6c0.6-0.4,1.4-0.6,2.2-0.6c0.8,0,1.6,0.2,2.2,0.6s1.1,0.9,1.5,1.6
					c0.3,0.6,0.5,1.3,0.5,2.1c0,0.1,0,0.2,0,0.3c0,0.1,0,0.2,0,0.2h-6.9c0,0.5,0.2,1,0.5,1.4c0.3,0.4,0.6,0.7,1,1s0.9,0.4,1.3,0.4
					c0.5,0,1-0.1,1.4-0.4c0.5-0.3,0.8-0.6,0.9-1l1.2,0.3c-0.2,0.4-0.5,0.8-0.8,1.1c-0.4,0.3-0.8,0.6-1.3,0.8
					C164.8,234.1,164.2,234.2,163.7,234.2z M160.9,229.4h5.7c0-0.5-0.2-1-0.5-1.4s-0.6-0.7-1-1c-0.4-0.2-0.9-0.3-1.4-0.3
					c-0.5,0-0.9,0.1-1.4,0.3c-0.4,0.2-0.8,0.6-1,1S160.9,228.8,160.9,229.4z"/>
				<path class="st4" d="M168.9,229.9c0-0.8,0.2-1.5,0.5-2.2c0.3-0.7,0.8-1.2,1.3-1.6c0.6-0.4,1.2-0.6,2-0.6c0.7,0,1.3,0.2,1.8,0.5
					c0.5,0.4,0.9,0.8,1.2,1.3v-5.1h1.4v10.1c0,0.2,0,0.3,0.1,0.4c0.1,0.1,0.2,0.1,0.3,0.1v1.1c-0.3,0-0.5,0.1-0.6,0.1
					c-0.3,0-0.5-0.1-0.7-0.3c-0.2-0.2-0.3-0.4-0.3-0.6v-0.7c-0.3,0.5-0.8,1-1.3,1.3c-0.6,0.3-1.1,0.5-1.7,0.5
					c-0.6,0-1.1-0.1-1.6-0.3s-0.9-0.5-1.3-0.9c-0.4-0.4-0.6-0.9-0.8-1.4S168.9,230.4,168.9,229.9z M175.7,231.1v-2.4
					c-0.1-0.4-0.3-0.7-0.6-1s-0.6-0.5-1-0.7c-0.4-0.2-0.7-0.3-1.1-0.3c-0.4,0-0.8,0.1-1.1,0.3c-0.3,0.2-0.6,0.4-0.9,0.7
					s-0.4,0.6-0.6,1c-0.1,0.4-0.2,0.8-0.2,1.2c0,0.4,0.1,0.8,0.2,1.2c0.1,0.4,0.3,0.7,0.6,1c0.3,0.3,0.6,0.5,0.9,0.7
					c0.3,0.2,0.7,0.2,1.1,0.2c0.3,0,0.5,0,0.8-0.1c0.3-0.1,0.5-0.2,0.8-0.4c0.2-0.2,0.5-0.4,0.6-0.6
					C175.6,231.6,175.7,231.3,175.7,231.1z"/>
				<path class="st4" d="M187.2,234.2c-0.6,0-1.2-0.1-1.7-0.3c-0.5-0.2-1-0.5-1.3-0.9c-0.4-0.4-0.7-0.9-0.9-1.4s-0.3-1.1-0.3-1.7
					c0-0.8,0.2-1.5,0.5-2.1c0.4-0.6,0.8-1.2,1.5-1.5c0.6-0.4,1.4-0.6,2.2-0.6c0.8,0,1.5,0.2,2.2,0.6s1.1,0.9,1.4,1.5l-1.4,0.4
					c-0.2-0.4-0.5-0.7-0.9-0.9c-0.4-0.2-0.8-0.3-1.3-0.3c-0.5,0-1,0.1-1.4,0.4c-0.4,0.3-0.8,0.6-1,1.1s-0.4,1-0.4,1.6
					c0,0.6,0.1,1.1,0.4,1.6s0.6,0.8,1,1.1c0.4,0.3,0.9,0.4,1.4,0.4c0.3,0,0.6-0.1,1-0.2c0.3-0.1,0.6-0.3,0.8-0.5s0.4-0.4,0.5-0.6
					l1.4,0.4c-0.2,0.4-0.4,0.8-0.8,1.1c-0.3,0.3-0.8,0.6-1.2,0.7C188.3,234.1,187.8,234.2,187.2,234.2z"/>
				<path class="st4" d="M196,234.2c-0.6,0-1.2-0.1-1.7-0.3c-0.5-0.2-1-0.5-1.3-0.9c-0.4-0.4-0.7-0.9-0.9-1.4
					c-0.2-0.5-0.3-1.1-0.3-1.6c0-0.6,0.1-1.1,0.3-1.7c0.2-0.5,0.5-1,0.9-1.4c0.4-0.4,0.8-0.7,1.3-0.9c0.5-0.2,1.1-0.3,1.7-0.3
					c0.6,0,1.2,0.1,1.7,0.3c0.5,0.2,1,0.5,1.3,0.9c0.4,0.4,0.7,0.9,0.9,1.4c0.2,0.5,0.3,1.1,0.3,1.7c0,0.6-0.1,1.1-0.3,1.6
					c-0.2,0.5-0.5,1-0.9,1.4c-0.4,0.4-0.8,0.7-1.3,0.9S196.6,234.2,196,234.2z M193.2,229.9c0,0.6,0.1,1.1,0.4,1.6
					c0.3,0.5,0.6,0.8,1,1.1c0.4,0.3,0.9,0.4,1.4,0.4c0.5,0,1-0.1,1.4-0.4c0.4-0.3,0.8-0.6,1-1.1c0.3-0.5,0.4-1,0.4-1.6
					c0-0.6-0.1-1.1-0.4-1.6c-0.2-0.5-0.6-0.8-1-1.1c-0.4-0.3-0.9-0.4-1.4-0.4c-0.5,0-1,0.1-1.4,0.4c-0.4,0.3-0.7,0.7-1,1.1
					C193.3,228.8,193.2,229.3,193.2,229.9z"/>
				<path class="st4" d="M201.8,230.7v-5h1.4v4.7c0,0.8,0.1,1.5,0.4,1.9c0.3,0.4,0.7,0.6,1.3,0.6c0.4,0,0.8-0.1,1.1-0.2
					s0.7-0.4,1-0.7c0.3-0.3,0.5-0.7,0.7-1.1v-5.2h1.4v6.7c0,0.2,0,0.3,0.1,0.4c0.1,0.1,0.2,0.1,0.3,0.1v1.1c-0.2,0-0.3,0-0.4,0
					c-0.1,0-0.2,0-0.3,0c-0.3,0-0.5-0.1-0.7-0.2c-0.2-0.2-0.3-0.4-0.3-0.6l0-1c-0.4,0.6-0.9,1.1-1.5,1.4c-0.6,0.3-1.3,0.5-2,0.5
					c-0.9,0-1.5-0.3-2-0.9S201.8,231.8,201.8,230.7z"/>
				<path class="st4" d="M216,226.9c-0.7,0-1.3,0.2-1.9,0.5c-0.5,0.3-0.9,0.8-1.1,1.4v5.2h-1.4v-8.3h1.3v1.9c0.3-0.6,0.7-1,1.1-1.4
					c0.5-0.4,1-0.6,1.5-0.6c0.1,0,0.2,0,0.3,0c0.1,0,0.1,0,0.2,0V226.9z"/>
				<path class="st4" d="M220.2,234.2c-0.7,0-1.3-0.1-2-0.3c-0.6-0.2-1.1-0.6-1.6-1l0.5-1c0.5,0.4,1,0.8,1.4,1
					c0.5,0.2,1,0.3,1.5,0.3c0.6,0,1-0.1,1.4-0.3s0.5-0.5,0.5-1c0-0.3-0.1-0.5-0.3-0.7s-0.5-0.3-0.8-0.4c-0.3-0.1-0.7-0.2-1.2-0.3
					c-0.6-0.2-1.1-0.3-1.5-0.5s-0.7-0.4-0.9-0.7c-0.2-0.3-0.3-0.6-0.3-1.1c0-0.5,0.1-1,0.4-1.3c0.3-0.4,0.7-0.6,1.1-0.8
					c0.5-0.2,1-0.3,1.7-0.3c0.6,0,1.2,0.1,1.7,0.3c0.5,0.2,0.9,0.5,1.3,0.8l-0.6,1c-0.3-0.3-0.7-0.6-1.1-0.8
					c-0.4-0.2-0.8-0.2-1.3-0.2c-0.3,0-0.6,0-0.8,0.1c-0.3,0.1-0.5,0.2-0.7,0.4c-0.2,0.2-0.3,0.4-0.3,0.7c0,0.3,0.1,0.5,0.2,0.6
					c0.1,0.2,0.4,0.3,0.6,0.4c0.3,0.1,0.6,0.2,1,0.3c0.6,0.2,1.2,0.4,1.6,0.5s0.8,0.4,1.1,0.7s0.4,0.7,0.4,1.2
					c0,0.8-0.3,1.4-0.9,1.8C222,233.9,221.2,234.2,220.2,234.2z"/>
				<path class="st4" d="M228.8,234.2c-0.6,0-1.2-0.1-1.7-0.3c-0.5-0.2-1-0.5-1.3-0.9c-0.4-0.4-0.7-0.9-0.9-1.4s-0.3-1.1-0.3-1.7
					c0-0.8,0.2-1.5,0.5-2.1c0.4-0.6,0.9-1.2,1.5-1.6c0.6-0.4,1.4-0.6,2.2-0.6c0.8,0,1.6,0.2,2.2,0.6s1.1,0.9,1.5,1.6
					c0.3,0.6,0.5,1.3,0.5,2.1c0,0.1,0,0.2,0,0.3c0,0.1,0,0.2,0,0.2h-6.9c0,0.5,0.2,1,0.5,1.4c0.3,0.4,0.6,0.7,1,1s0.9,0.4,1.3,0.4
					c0.5,0,1-0.1,1.4-0.4c0.5-0.3,0.8-0.6,0.9-1l1.2,0.3c-0.2,0.4-0.5,0.8-0.8,1.1c-0.4,0.3-0.8,0.6-1.3,0.8
					C229.9,234.1,229.4,234.2,228.8,234.2z M226,229.4h5.7c0-0.5-0.2-1-0.5-1.4s-0.6-0.7-1-1c-0.4-0.2-0.9-0.3-1.4-0.3
					c-0.5,0-0.9,0.1-1.4,0.3c-0.4,0.2-0.8,0.6-1,1S226.1,228.8,226,229.4z"/>
			</g>
			<g id="Group_235" transform="translate(-1539 -554.076)">
				<g id="Group_207" transform="translate(1556.849 643.883)">
					<path id="Path_290" class="st5" d="M48.7,83.5c1.8,12.4-27,12.8-29.4-6c-11.8,3.3-20-8.1-14.3-18.2c-6.9-4.7-6.7-18.4,0.4-22.5
						C0,31,6.6,14.7,19.9,17.6C16.3,4.5,35.4-6.2,48.8,4.2L48.7,83.5z"/>
					<path id="Path_291" class="st5" d="M19.5,14.6c1,5.8,6.1,10.3,11.9,11.4"/>
					<path id="Path_292" class="st5" d="M31.4,10.3C30.1,19,44.6,22.6,48.6,17"/>
					<path id="Path_293" class="st5" d="M24.1,23.1c0,3-4.1,7-6.4,7.9"/>
					<path id="Path_294" class="st5" d="M15.1,40.9c3.6,1.8,3.7,7,7.6,8.2c4.1,1.2,6.3-3.3,7.9-6.4c2.5-4.8,6.2-6.7,11.6-5.9
						c2,0.4,4,1.1,5.8,2"/>
					<path id="Path_295" class="st5" d="M11,40.6c2.8,3.5,7.3-1.7,4.4-4.7"/>
					<path id="Path_296" class="st5" d="M48.9,58.7c-3.8-3.8-9.8,0.5-11.1,4.6c-1.5,4.9,3.1,8.8,1.5,13.6c-0.7,2.7-3.4,4.3-6.1,3.7"
						/>
					<path id="Path_297" class="st5" d="M19.5,79.9c-4.5-11.8,17.8-8.4,8.2-26.2"/>
					<path id="Path_298" class="st5" d="M4.9,59.8c1.6-2.6,5.4-2.8,8.2-2.6c2.5,0.2,5.3,2,6.4,2.3"/>
				</g>
				<path id="Path_299" class="st5" d="M1663.6,697.6l0.4-12.8l-7.8-0.3c-0.5-2.6-1.2-5.2-2.2-7.7l7.1-3.9l-6.2-11.2l-7.6,4.2
					c-1.6-1.9-3.4-3.7-5.4-5.3l4.5-7.7l-11-6.5l-4.7,7.9c-2.3-0.8-4.7-1.4-7.1-1.8v-9.3h-6.3v93h6.3v-5.7c2.4-0.4,4.7-1,7-1.8
					l2.7,5.1l11.3-6l-2.9-5.4c2.1-1.7,4.1-3.6,5.8-5.7l5.3,3.4l6.9-10.8l-5.8-3.7c1-2.6,1.7-5.4,2.2-8.2L1663.6,697.6z"/>
				<path id="Path_300" class="st5" d="M1617.4,661.6v8.8c10.6,0,19.2,8.6,19.2,19.2s-8.6,19.2-19.2,19.2v8.8
					c15.5-0.1,28-12.7,27.9-28.2C1645.2,674.1,1632.8,661.7,1617.4,661.6L1617.4,661.6z"/>
			</g>
			<g id="Group_202" transform="translate(-928.32 -980.541)">
				<g id="Group_201" transform="translate(1084.848 1080.914)">
					<path id="Path_265" class="st6" d="M5.7,69.1l23-66.2L20.5,0L0,67.1v14.5L5.7,69.1z"/>
					<path id="Path_266" class="st6" d="M54.9,81.7l0.3-12.6L35.6,0l-8.3,2.9L54.9,81.7z"/>
				</g>
				<path id="Path_267" class="st7" d="M1122.7,1084.5c0,5.4-4.4,9.8-9.8,9.8c-5.4,0-9.8-4.4-9.8-9.8c0-5.4,4.4-9.8,9.8-9.8
					c0,0,0,0,0,0C1118.3,1074.7,1122.7,1079.1,1122.7,1084.5z"/>
				<path id="Path_268" class="st6" d="M1140,1099c-15.6,14.4-39.6,14.4-55.2,0"/>
				<line id="Line_33" class="st6" x1="1112.9" y1="1102" x2="1112.9" y2="1114.4"/>
				<path id="Path_269" class="st6" d="M1112.9,1074.7c1.1,0,2.2,0.2,3.3,0.6v-8.9c0-1.8-1.5-3.3-3.3-3.3c-1.8,0-3.3,1.5-3.3,3.3
					c0,0,0,0,0,0v8.9C1110.7,1074.9,1111.8,1074.7,1112.9,1074.7z"/>
				<path id="Path_270" class="st7" d="M1098.3,1136.8c0,3.7-3,6.7-6.7,6.7c-3.7,0-6.7-3-6.7-6.7c0-3.7,3-6.7,6.7-6.7
					C1095.3,1130.1,1098.3,1133.1,1098.3,1136.8C1098.3,1136.8,1098.3,1136.8,1098.3,1136.8z"/>
			</g>
		</g>
	</g>
</g>
</svg>
