<?xml version="1.0" encoding="utf-8"?>
<!-- Generator: Adobe Illustrator 26.0.1, SVG Export Plug-In . SVG Version: 6.00 Build 0)  -->
<svg version="1.1" id="Layer_1" xmlns="http://www.w3.org/2000/svg" xmlns:xlink="http://www.w3.org/1999/xlink" x="0px" y="0px"
	 viewBox="0 0 250 250" style="enable-background:new 0 0 250 250;" xml:space="preserve">
<style type="text/css">
	.st0{clip-path:url(#SVGID_00000016784138899979446170000016105971461851757699_);}
	.st1{fill:#FFFFFF;}
	.st2{fill:#035397;}
	.st3{enable-background:new    ;}
	.st4{fill:#F1F1F1;}
</style>
<g>
	<defs>
		<rect id="SVGID_1_" y="0" width="250" height="250"/>
	</defs>
	<clipPath id="SVGID_00000037653083183590933010000001923375203895682965_">
		<use xlink:href="#SVGID_1_"  style="overflow:visible;"/>
	</clipPath>
	<g id="MongoDB" style="clip-path:url(#SVGID_00000037653083183590933010000001923375203895682965_);">
		<rect y="0" class="st1" width="250" height="250"/>
		<g id="Group_254">
			<path id="Rectangle_1" class="st2" d="M7,0h236c3.9,0,7,3.1,7,7v236c0,3.9-3.1,7-7,7H7c-3.9,0-7-3.1-7-7V7C0,3.1,3.1,0,7,0z"/>
			<g class="st3">
				<path class="st4" d="M92.4,31V20.2l-4.7,8.3h-1.1L82,20.2V31h-1.8V16.8h1.9l5.1,9.2l5.2-9.2h1.9V31H92.4z"/>
				<path class="st4" d="M101.7,31.2c-0.8,0-1.5-0.1-2.1-0.4c-0.6-0.3-1.2-0.7-1.7-1.2c-0.5-0.5-0.8-1.1-1.1-1.7
					c-0.3-0.6-0.4-1.3-0.4-2c0-0.7,0.1-1.4,0.4-2.1c0.3-0.6,0.6-1.2,1.1-1.7c0.5-0.5,1-0.9,1.7-1.2c0.6-0.3,1.4-0.4,2.1-0.4
					c0.8,0,1.5,0.1,2.1,0.4c0.6,0.3,1.2,0.7,1.7,1.2c0.5,0.5,0.8,1.1,1.1,1.7s0.4,1.3,0.4,2.1c0,0.7-0.1,1.4-0.4,2s-0.6,1.2-1.1,1.7
					s-1,0.9-1.7,1.2C103.2,31.1,102.5,31.2,101.7,31.2z M98.3,25.9c0,0.7,0.2,1.4,0.5,1.9c0.3,0.6,0.7,1,1.2,1.4
					c0.5,0.3,1.1,0.5,1.7,0.5s1.2-0.2,1.8-0.5c0.5-0.3,0.9-0.8,1.3-1.4c0.3-0.6,0.5-1.2,0.5-1.9s-0.2-1.4-0.5-1.9
					c-0.3-0.6-0.7-1-1.3-1.4c-0.5-0.3-1.1-0.5-1.8-0.5s-1.2,0.2-1.7,0.5c-0.5,0.3-0.9,0.8-1.2,1.4C98.4,24.5,98.3,25.1,98.3,25.9z"
					/>
				<path class="st4" d="M118.2,31h-1.8v-5.8c0-1.1-0.2-1.9-0.5-2.4s-0.9-0.8-1.5-0.8c-0.5,0-1,0.1-1.4,0.4c-0.5,0.2-0.9,0.6-1.3,1
					c-0.4,0.4-0.6,0.9-0.8,1.4V31h-1.8V20.6h1.6v2.2c0.3-0.5,0.6-0.9,1.1-1.3s0.9-0.6,1.5-0.8c0.6-0.2,1.1-0.3,1.8-0.3
					c0.6,0,1.1,0.1,1.5,0.3c0.4,0.2,0.7,0.5,1,0.9c0.2,0.4,0.4,0.9,0.5,1.4s0.1,1.1,0.1,1.7V31z"/>
				<path class="st4" d="M125.1,31.2c-0.7,0-1.4-0.1-2-0.4c-0.6-0.3-1.1-0.7-1.5-1.2c-0.4-0.5-0.8-1.1-1-1.7s-0.4-1.3-0.4-2
					c0-0.7,0.1-1.4,0.4-2.1s0.6-1.2,1-1.7s0.9-0.9,1.5-1.2c0.6-0.3,1.2-0.4,2-0.4c0.9,0,1.6,0.2,2.3,0.6c0.6,0.4,1.2,1,1.6,1.6v-2.1
					h1.6v10.3c0,1-0.2,1.8-0.7,2.5c-0.5,0.7-1.1,1.2-1.9,1.5c-0.8,0.4-1.7,0.5-2.7,0.5c-1.2,0-2.1-0.2-2.9-0.6s-1.4-1-1.9-1.7l1-0.9
					c0.4,0.6,1,1.1,1.6,1.4c0.7,0.3,1.4,0.5,2.1,0.5c0.6,0,1.2-0.1,1.8-0.3c0.5-0.2,1-0.6,1.3-1s0.5-1.1,0.5-1.8v-1.8
					c-0.4,0.6-0.9,1.1-1.6,1.5C126.6,31,125.9,31.2,125.1,31.2z M125.7,29.8c0.4,0,0.7-0.1,1.1-0.2c0.3-0.1,0.7-0.3,1-0.5
					c0.3-0.2,0.5-0.5,0.7-0.8c0.2-0.3,0.3-0.6,0.4-0.9v-3c-0.2-0.5-0.5-0.9-0.8-1.3c-0.3-0.4-0.7-0.7-1.2-0.9
					c-0.4-0.2-0.9-0.3-1.4-0.3c-0.5,0-1,0.1-1.4,0.3c-0.4,0.2-0.8,0.5-1.1,0.9c-0.3,0.4-0.5,0.8-0.7,1.3c-0.2,0.5-0.2,0.9-0.2,1.4
					c0,0.5,0.1,1,0.3,1.5s0.4,0.9,0.8,1.2c0.3,0.4,0.7,0.6,1.1,0.8C124.7,29.7,125.2,29.8,125.7,29.8z"/>
				<path class="st4" d="M138,31.2c-0.8,0-1.5-0.1-2.1-0.4c-0.6-0.3-1.2-0.7-1.7-1.2c-0.5-0.5-0.8-1.1-1.1-1.7
					c-0.3-0.6-0.4-1.3-0.4-2c0-0.7,0.1-1.4,0.4-2.1c0.3-0.6,0.6-1.2,1.1-1.7c0.5-0.5,1-0.9,1.7-1.2c0.6-0.3,1.4-0.4,2.1-0.4
					c0.8,0,1.5,0.1,2.1,0.4c0.6,0.3,1.2,0.7,1.7,1.2c0.5,0.5,0.8,1.1,1.1,1.7c0.3,0.6,0.4,1.3,0.4,2.1c0,0.7-0.1,1.4-0.4,2
					c-0.3,0.6-0.6,1.2-1.1,1.7s-1,0.9-1.7,1.2C139.5,31.1,138.8,31.2,138,31.2z M134.5,25.9c0,0.7,0.2,1.4,0.5,1.9
					c0.3,0.6,0.7,1,1.2,1.4c0.5,0.3,1.1,0.5,1.7,0.5c0.6,0,1.2-0.2,1.8-0.5c0.5-0.3,0.9-0.8,1.3-1.4c0.3-0.6,0.5-1.2,0.5-1.9
					s-0.2-1.4-0.5-1.9c-0.3-0.6-0.7-1-1.3-1.4c-0.5-0.3-1.1-0.5-1.8-0.5c-0.6,0-1.2,0.2-1.7,0.5s-0.9,0.8-1.2,1.4
					C134.7,24.5,134.5,25.1,134.5,25.9z"/>
				<path class="st4" d="M145.5,31V16.8h4.9c1.5,0,2.8,0.3,3.8,1c1,0.6,1.8,1.5,2.3,2.6c0.5,1.1,0.8,2.3,0.8,3.6
					c0,1.4-0.3,2.7-0.8,3.8c-0.6,1.1-1.4,1.9-2.4,2.5c-1,0.6-2.2,0.9-3.6,0.9H145.5z M155.5,23.9c0-1.1-0.2-2-0.6-2.8
					c-0.4-0.8-1-1.5-1.7-1.9c-0.7-0.5-1.7-0.7-2.7-0.7h-3.1v11h3.1c1.1,0,2-0.2,2.8-0.7c0.7-0.5,1.3-1.1,1.7-2
					C155.3,25.9,155.5,24.9,155.5,23.9z"/>
				<path class="st4" d="M170.7,27.3c0,0.7-0.2,1.4-0.6,1.9c-0.4,0.5-0.9,1-1.5,1.3c-0.6,0.3-1.3,0.5-2.1,0.5h-6.7V16.8h7.1
					c0.7,0,1.2,0.2,1.7,0.5c0.5,0.4,0.9,0.8,1.1,1.4c0.3,0.6,0.4,1.1,0.4,1.7c0,0.7-0.2,1.3-0.5,2s-0.9,1.1-1.5,1.3
					c0.8,0.2,1.5,0.7,1.9,1.3C170.5,25.7,170.7,26.5,170.7,27.3z M161.6,18.4v4.7h4.5c0.4,0,0.8-0.1,1.1-0.3
					c0.3-0.2,0.6-0.5,0.8-0.9s0.3-0.8,0.3-1.2c0-0.5-0.1-0.9-0.3-1.2c-0.2-0.4-0.4-0.6-0.7-0.9c-0.3-0.2-0.7-0.3-1.1-0.3H161.6z
					 M168.9,27c0-0.4-0.1-0.8-0.3-1.2c-0.2-0.4-0.5-0.7-0.8-0.9c-0.3-0.2-0.7-0.3-1.1-0.3h-5.1v4.9h4.9c0.4,0,0.8-0.1,1.2-0.3
					c0.4-0.2,0.6-0.5,0.8-0.9C168.8,27.8,168.9,27.4,168.9,27z"/>
			</g>
		</g>
		<g id="kuyjf3vea2hg34taa-horizontal_default_slate_blue" transform="translate(21 108)">
			<path id="Path_311" class="st4" d="M15.6,5.4c-2-2.4-3.8-4.9-4.2-5.4c0,0-0.1,0-0.1,0c0,0,0,0,0,0c-0.4,0.5-2.1,3-4.2,5.4
				c-17.6,22.4,2.8,37.5,2.8,37.5l0.2,0.1c0.2,2.3,0.5,5.7,0.5,5.7h1.5c0,0,0.4-3.3,0.5-5.7l0.2-0.1C12.8,42.9,33.2,27.8,15.6,5.4z
				 M11.4,42.6c-0.4-0.4-0.8-0.7-1.2-1.2v0L11.3,17c0,0,0-0.1,0.1-0.1s0.1,0,0.1,0.1l1.1,24.4v0C12.2,41.8,11.8,42.2,11.4,42.6z"/>
			<path id="Path_312" class="st4" d="M49.4,37.6l-8.5-20.7l0-0.1h-6.6v1.4h1.1c0.7,0,1.2,0.5,1.2,1.2c0,0,0,0,0,0l-0.2,20.8
				c0,0.7-0.5,1.2-1.2,1.2l-1.1,0v1.4h6.4v-1.4l-0.7,0c-0.7,0-1.2-0.5-1.2-1.2V20.7l9.2,22.2c0.2,0.4,0.7,0.6,1.1,0.5
				c0.2-0.1,0.4-0.3,0.5-0.5l9-21.7l0.1,19.1c0,0.7-0.5,1.2-1.2,1.2h-0.7v1.4h7.5v-1.4h-1c-0.7,0-1.2-0.5-1.2-1.2L62,19.5
				c0-0.7,0.5-1.2,1.2-1.2l1.1,0v-1.4h-6.4L49.4,37.6z"/>
			<path id="Path_313" class="st4" d="M108.4,41.2c-0.2-0.2-0.3-0.5-0.3-0.8V30.1c0.1-1.7-0.5-3.3-1.7-4.6c-1.3-1.1-2.9-1.7-4.6-1.6
				c-2.6-0.1-5,1.2-6.4,3.3c0,0-0.1,0.1-0.1,0.1c0,0-0.1,0-0.1-0.1c0,0,0,0,0,0l-0.7-2.7h-1.2l-3,1.7v1H91c0.3,0,0.6,0.1,0.9,0.3
				c0.2,0.2,0.3,0.6,0.3,0.9v12c0,0.6-0.4,1.1-1.1,1.2c0,0-0.1,0-0.1,0h-0.8v1.4h7v-1.4h-0.8c-0.6,0-1.1-0.4-1.2-1.1
				c0,0,0-0.1,0-0.1v-8c0-1,0.2-2.1,0.6-3c0.4-1,1.1-1.8,1.9-2.4c0.9-0.6,2-1,3.1-0.9c1.1-0.1,2.2,0.4,3,1.3c0.7,0.9,1,2.1,1,3.2
				v9.8c0,0.6-0.4,1.1-1.1,1.2c0,0-0.1,0-0.1,0H103v1.4h7v-1.4h-0.8C108.9,41.5,108.6,41.4,108.4,41.2z"/>
			<path id="Path_314" class="st4" d="M172.1,18.4c-2-1-4.2-1.6-6.4-1.6h-9.1v1.4h0.9c0.4,0,0.7,0.2,0.9,0.4
				c0.3,0.2,0.4,0.6,0.4,0.9v20.4c0,0.4-0.2,0.7-0.4,0.9c-0.2,0.3-0.6,0.4-0.9,0.4h-0.9v1.4h9.1c2.2,0,4.4-0.5,6.4-1.6
				c1.9-1,3.5-2.6,4.6-4.5c2.3-4.3,2.3-9.5,0-13.9C175.6,21,174,19.5,172.1,18.4z M174.8,29.8c0.1,2.1-0.4,4.2-1.3,6.1
				c-0.7,1.5-1.9,2.8-3.4,3.7c-1.4,0.8-3,1.2-4.6,1.2h-1.8c-0.4,0-0.7-0.2-0.9-0.4c-0.3-0.2-0.4-0.6-0.4-0.9V20.2
				c0-0.4,0.2-0.7,0.4-0.9c0.2-0.3,0.6-0.4,0.9-0.4h1.8c1.6,0,3.2,0.4,4.6,1.2c1.5,0.9,2.6,2.2,3.4,3.7
				C174.4,25.6,174.8,27.7,174.8,29.8z"/>
			<path id="Path_315" class="st4" d="M199.8,31.2c-1.2-1.2-2.7-1.9-4.4-2.2c2.6-1.3,4-3.2,4-5.5c0-1.2-0.3-2.4-1-3.4
				c-0.7-1-1.7-1.8-2.9-2.3c-1.4-0.6-2.8-0.9-4.3-0.8H181v1.4h0.8c0.4,0,0.7,0.2,1,0.4c0.3,0.2,0.4,0.6,0.4,0.9v20.4
				c-0.1,0.7-0.6,1.3-1.4,1.4h-0.9v1.4H192c1.6,0,3.2-0.3,4.7-0.9c1.3-0.5,2.5-1.4,3.4-2.5c0.9-1.2,1.3-2.6,1.3-4
				C201.4,33.9,200.8,32.4,199.8,31.2z M187.1,40.4c-0.3-0.2-0.4-0.6-0.4-0.9v-9.2h5.3c1.6-0.1,3.1,0.4,4.3,1.4c1,1,1.5,2.3,1.5,3.7
				c0,0.9-0.2,1.8-0.6,2.6c-0.4,0.8-1.1,1.5-2,2c-1,0.5-2.1,0.8-3.2,0.8H188C187.7,40.8,187.3,40.7,187.1,40.4z M186.6,28.4v-8.1
				c0-0.4,0.2-0.7,0.4-0.9c0.2-0.3,0.6-0.4,1-0.4h2.5c1.5-0.1,2.9,0.4,4,1.3c0.9,0.9,1.3,2.2,1.3,3.4c0.1,1.3-0.4,2.5-1.2,3.5
				c-0.9,0.9-2.2,1.4-3.5,1.3L186.6,28.4z"/>
			<path id="Path_316" class="st4" d="M81.9,25.1c-1.5-0.8-3.1-1.2-4.8-1.2c-1.7,0-3.4,0.4-4.8,1.2c-1.4,0.8-2.6,2-3.5,3.4
				c-1.7,3.2-1.7,7,0,10.1c0.8,1.4,2,2.6,3.5,3.4c1.5,0.8,3.1,1.2,4.8,1.2c1.7,0,3.4-0.4,4.8-1.2c1.4-0.8,2.6-2,3.5-3.4
				c1.7-3.2,1.7-7,0-10.1C84.5,27.1,83.4,25.9,81.9,25.1z M83.3,33.6c0.1,2-0.5,4-1.7,5.6c-2.2,2.5-6,2.8-8.5,0.6
				c-0.2-0.2-0.4-0.4-0.6-0.6c-2.3-3.4-2.3-7.8,0-11.2c2.2-2.5,6-2.8,8.5-0.6c0.2,0.2,0.4,0.4,0.6,0.6
				C82.8,29.6,83.4,31.6,83.3,33.6L83.3,33.6z"/>
			<path id="Path_317" class="st4" d="M148.8,25.1c-1.5-0.8-3.1-1.2-4.8-1.2c-1.7,0-3.4,0.4-4.8,1.2c-1.4,0.8-2.6,2-3.5,3.4
				c-1.7,3.2-1.7,7,0,10.1c0.8,1.4,2,2.6,3.5,3.4c1.5,0.8,3.1,1.2,4.8,1.2c1.7,0,3.4-0.4,4.8-1.2c1.4-0.8,2.6-2,3.5-3.4
				c1.7-3.2,1.7-7,0-10.1C151.5,27.1,150.3,25.9,148.8,25.1z M150.2,33.6c0.1,2-0.5,4-1.7,5.6c-2.2,2.5-6,2.8-8.5,0.6
				c-0.2-0.2-0.4-0.4-0.6-0.6c-2.3-3.4-2.3-7.8,0-11.2c2.2-2.5,6-2.8,8.5-0.6c0.2,0.2,0.4,0.4,0.6,0.6
				C149.7,29.6,150.3,31.6,150.2,33.6L150.2,33.6z"/>
			<path id="Path_318" class="st4" d="M121.8,23.9c-1.4,0-2.9,0.3-4.2,1c-1.2,0.6-2.2,1.5-2.9,2.6c-0.7,1.1-1.1,2.4-1.1,3.6
				c0,1.1,0.3,2.2,0.8,3.2c0.5,0.9,1.3,1.7,2.2,2.4l-2.7,3.7c-0.3,0.5-0.4,1.1-0.1,1.6c0.3,0.5,0.8,0.8,1.3,0.8h0.8
				c-0.7,0.5-1.3,1.1-1.8,1.8c-0.5,0.8-0.7,1.6-0.7,2.5c0,1.6,0.8,3.1,2.1,4c1.8,1.1,3.8,1.6,5.9,1.5c1.7,0,3.3-0.3,4.9-0.8
				c1.4-0.5,2.7-1.3,3.7-2.4c0.9-1.1,1.4-2.4,1.4-3.8c0-1.5-0.7-2.9-1.9-3.7c-1.5-1-3.3-1.5-5.2-1.4h-7.6c0,0,0,0,0,0c0,0,0,0,0-0.1
				l2-2.7c0.5,0.2,1,0.4,1.5,0.5c0.5,0.1,1,0.1,1.5,0.1c1.5,0,3-0.3,4.3-1c1.2-0.6,2.2-1.5,3-2.6c0.7-1.1,1.1-2.4,1.1-3.6
				c0-2.1-1-4-2.5-5.3c0,0,0,0,0,0l4.1,0.5v-1.9H125C124,24.1,122.9,23.9,121.8,23.9z M124.1,35.8c-0.7,0.4-1.5,0.6-2.3,0.6
				c-1.3,0-2.5-0.5-3.3-1.4c-1.9-2.2-1.9-5.5,0-7.8c0.9-0.9,2.1-1.4,3.3-1.4c1.7,0,3.2,0.9,4.1,2.3c0.5,0.9,0.7,1.9,0.7,2.9
				c0,1-0.2,2-0.7,2.9C125.5,34.8,124.9,35.4,124.1,35.8z M119,42.8h5.2c1.1-0.1,2.1,0.2,2.9,0.9c0.6,0.6,0.9,1.5,0.9,2.4
				c0,1.3-0.6,2.6-1.7,3.4c-1.3,0.9-2.8,1.4-4.4,1.3c-1.4,0.1-2.7-0.3-3.9-1c-1-0.7-1.5-1.9-1.5-3.1c0-0.8,0.2-1.6,0.7-2.3
				C117.7,43.7,118.3,43.1,119,42.8z"/>
			<path id="Path_319" class="st4" d="M205.2,42.5c-0.7-0.4-1.2-1.2-1.2-2.1c0-0.4,0.1-0.8,0.3-1.2c0.2-0.4,0.5-0.7,0.9-0.9
				c0.8-0.4,1.7-0.4,2.5,0c0.7,0.4,1.2,1.2,1.2,2.1c0,0.4-0.1,0.8-0.3,1.2c-0.2,0.4-0.5,0.7-0.9,0.9c-0.4,0.2-0.8,0.3-1.3,0.3
				C206,42.9,205.6,42.8,205.2,42.5z M207.5,42.3c0.3-0.2,0.6-0.4,0.7-0.7c0.4-0.7,0.4-1.5,0-2.1c-0.2-0.3-0.4-0.6-0.7-0.7
				c-0.7-0.3-1.4-0.3-2.1,0c-0.3,0.2-0.6,0.4-0.7,0.7c-0.4,0.7-0.4,1.5,0,2.1c0.2,0.3,0.4,0.6,0.7,0.7c0.3,0.2,0.7,0.3,1.1,0.3
				C206.8,42.5,207.2,42.4,207.5,42.3L207.5,42.3z M205.5,41.6v-0.2l0,0h0.1c0,0,0.1,0,0.1,0c0,0,0-0.1,0-0.1v-1.7c0,0,0-0.1,0-0.1
				c0,0-0.1,0-0.1,0h-0.1l0,0v-0.2l0,0h1c0.2,0,0.5,0.1,0.7,0.2c0.2,0.1,0.3,0.3,0.2,0.5c0,0.2-0.1,0.3-0.2,0.4
				c-0.1,0.1-0.3,0.2-0.5,0.2l0.2,0.1l0.4,0.7c0,0,0.1,0.1,0.1,0.1h0.1l0,0v0.2l0,0H207l0,0l-0.6-1h-0.2v0.7c0,0,0,0.1,0,0.1
				c0,0,0.1,0,0.1,0h0.1l0,0v0.2l0,0L205.5,41.6L205.5,41.6z M206.4,40.4c0.1,0,0.3,0,0.4-0.1c0.1-0.1,0.1-0.2,0.1-0.4
				c0-0.1,0-0.3-0.1-0.4c-0.1-0.1-0.2-0.1-0.3-0.1h-0.1c0,0-0.1,0-0.1,0c0,0,0,0.1,0,0.1v0.8L206.4,40.4z"/>
		</g>
	</g>
</g>
</svg>
