<?xml version="1.0" encoding="utf-8"?>
<!-- Generator: Adobe Illustrator 26.0.1, SVG Export Plug-In . SVG Version: 6.00 Build 0)  -->
<svg version="1.1" id="Layer_1" xmlns="http://www.w3.org/2000/svg" xmlns:xlink="http://www.w3.org/1999/xlink" x="0px" y="0px"
	 viewBox="0 0 250 250" style="enable-background:new 0 0 250 250;" xml:space="preserve">
<style type="text/css">
	.st0{clip-path:url(#SVGID_00000112626916463133248340000007761486694571365521_);}
	.st1{fill:#FFFFFF;}
	.st2{fill:#035397;}
	.st3{enable-background:new    ;}
	.st4{fill:#F1F1F1;}
	.st5{fill-rule:evenodd;clip-rule:evenodd;fill:#FFFFFF;}
	.st6{fill-rule:evenodd;clip-rule:evenodd;fill:#F1F1F1;}
	.st7{clip-path:url(#SVGID_00000055683015352632639960000015874968838645010824_);}
	.st8{clip-path:url(#SVGID_00000083066523604250731140000001167496540187031482_);}
	.st9{clip-path:url(#SVGID_00000109719015834788826200000018400803465080408981_);}
</style>
<g>
	<defs>
		<rect id="SVGID_1_" y="0" width="250" height="250"/>
	</defs>
	<clipPath id="SVGID_00000121987246656021173130000007589404388457734811_">
		<use xlink:href="#SVGID_1_"  style="overflow:visible;"/>
	</clipPath>
	<g id="NodeJS" style="clip-path:url(#SVGID_00000121987246656021173130000007589404388457734811_);">
		<rect y="0" class="st1" width="250" height="250"/>
		<g id="Group_254">
			<path id="Rectangle_1" class="st2" d="M7,0h236c3.9,0,7,3.1,7,7v236c0,3.9-3.1,7-7,7H7c-3.9,0-7-3.1-7-7V7C0,3.1,3.1,0,7,0z"/>
			<g class="st3">
				<path class="st4" d="M91.9,20.1V31h-1.8V16.8h1.5l8.7,11.1V16.8h1.8V31h-1.6L91.9,20.1z"/>
				<path class="st4" d="M109.6,31.2c-0.8,0-1.5-0.1-2.1-0.4c-0.6-0.3-1.2-0.7-1.7-1.2c-0.5-0.5-0.8-1.1-1.1-1.7
					c-0.3-0.6-0.4-1.3-0.4-2c0-0.7,0.1-1.4,0.4-2.1c0.3-0.6,0.6-1.2,1.1-1.7c0.5-0.5,1-0.9,1.7-1.2c0.6-0.3,1.4-0.4,2.1-0.4
					c0.8,0,1.5,0.1,2.1,0.4c0.6,0.3,1.2,0.7,1.7,1.2c0.5,0.5,0.8,1.1,1.1,1.7s0.4,1.3,0.4,2.1c0,0.7-0.1,1.4-0.4,2s-0.6,1.2-1.1,1.7
					s-1,0.9-1.7,1.2C111.1,31.1,110.3,31.2,109.6,31.2z M106.1,25.9c0,0.7,0.2,1.4,0.5,1.9c0.3,0.6,0.7,1,1.2,1.4
					c0.5,0.3,1.1,0.5,1.7,0.5s1.2-0.2,1.8-0.5c0.5-0.3,0.9-0.8,1.3-1.4c0.3-0.6,0.5-1.2,0.5-1.9s-0.2-1.4-0.5-1.9
					c-0.3-0.6-0.7-1-1.3-1.4c-0.5-0.3-1.1-0.5-1.8-0.5s-1.2,0.2-1.7,0.5c-0.5,0.3-0.9,0.8-1.2,1.4C106.2,24.5,106.1,25.1,106.1,25.9
					z"/>
				<path class="st4" d="M116.3,25.8c0-1,0.2-1.9,0.6-2.7c0.4-0.8,1-1.5,1.7-2c0.7-0.5,1.5-0.7,2.5-0.7c0.8,0,1.6,0.2,2.3,0.7
					c0.7,0.4,1.2,1,1.6,1.6v-6.3h1.8V29c0,0.2,0,0.4,0.1,0.5c0.1,0.1,0.2,0.2,0.4,0.2V31c-0.3,0.1-0.6,0.1-0.8,0.1
					c-0.3,0-0.6-0.1-0.9-0.4c-0.3-0.2-0.4-0.5-0.4-0.8V29c-0.4,0.7-1,1.2-1.7,1.6s-1.4,0.6-2.2,0.6c-0.7,0-1.4-0.1-2-0.4
					c-0.6-0.3-1.1-0.7-1.6-1.2s-0.8-1.1-1-1.7C116.4,27.2,116.3,26.6,116.3,25.8z M124.9,27.4v-3c-0.2-0.4-0.4-0.9-0.8-1.2
					s-0.8-0.7-1.2-0.9c-0.4-0.2-0.9-0.3-1.3-0.3c-0.5,0-1,0.1-1.4,0.3c-0.4,0.2-0.8,0.5-1.1,0.9c-0.3,0.4-0.5,0.8-0.7,1.2
					c-0.2,0.5-0.2,0.9-0.2,1.4c0,0.5,0.1,1,0.3,1.5c0.2,0.5,0.4,0.9,0.8,1.2s0.7,0.6,1.1,0.8c0.4,0.2,0.9,0.3,1.4,0.3
					c0.3,0,0.6-0.1,1-0.2c0.3-0.1,0.7-0.3,1-0.5c0.3-0.2,0.6-0.5,0.8-0.7S124.8,27.7,124.9,27.4z"/>
				<path class="st4" d="M134.2,31.2c-0.8,0-1.5-0.1-2.2-0.4c-0.6-0.3-1.2-0.7-1.7-1.2c-0.5-0.5-0.8-1.1-1.1-1.7
					c-0.3-0.6-0.4-1.3-0.4-2.1c0-1,0.2-1.9,0.7-2.7c0.5-0.8,1.1-1.5,1.9-1.9c0.8-0.5,1.7-0.7,2.8-0.7c1.1,0,2,0.2,2.8,0.7
					s1.4,1.1,1.8,1.9c0.4,0.8,0.6,1.7,0.6,2.6c0,0.1,0,0.3,0,0.4s0,0.2,0,0.3h-8.7c0.1,0.7,0.2,1.3,0.6,1.8c0.3,0.5,0.8,0.9,1.3,1.2
					c0.5,0.3,1.1,0.4,1.7,0.4c0.6,0,1.2-0.2,1.8-0.5c0.6-0.3,1-0.7,1.2-1.3l1.5,0.4c-0.2,0.5-0.6,1-1,1.4c-0.4,0.4-1,0.7-1.6,0.9
					S134.9,31.2,134.2,31.2z M130.6,25.2h7.1c-0.1-0.7-0.2-1.3-0.6-1.8s-0.8-0.9-1.3-1.2c-0.5-0.3-1.1-0.4-1.7-0.4
					c-0.6,0-1.2,0.1-1.7,0.4c-0.5,0.3-0.9,0.7-1.3,1.2C130.9,23.9,130.7,24.5,130.6,25.2z"/>
				<path class="st4" d="M140.5,28.8c0.3,0.2,0.6,0.3,1,0.5c0.4,0.2,1,0.2,1.6,0.2c0.6,0,1.1-0.1,1.5-0.3c0.4-0.2,0.7-0.5,0.9-0.9
					c0.2-0.4,0.4-0.9,0.4-1.6c0.1-0.6,0.1-1.4,0.1-2.3v-7.5h1.8V24c0,1-0.1,2-0.2,2.9s-0.3,1.6-0.6,2.3c-0.3,0.6-0.8,1.1-1.4,1.5
					c-0.6,0.3-1.5,0.5-2.5,0.5c-0.7,0-1.3-0.1-1.8-0.2c-0.5-0.1-1-0.4-1.4-0.7L140.5,28.8z"/>
				<path class="st4" d="M159.5,19.8c-0.2-0.2-0.4-0.4-0.6-0.5c-0.3-0.2-0.6-0.3-0.9-0.5c-0.3-0.1-0.7-0.3-1.1-0.3
					c-0.4-0.1-0.8-0.1-1.2-0.1c-1.1,0-1.9,0.2-2.4,0.6s-0.8,1-0.8,1.7c0,0.5,0.1,0.9,0.4,1.2c0.3,0.3,0.7,0.5,1.2,0.7
					c0.6,0.2,1.3,0.4,2.1,0.6c1,0.2,1.8,0.5,2.6,0.8c0.7,0.3,1.3,0.7,1.7,1.2c0.4,0.5,0.6,1.2,0.6,2c0,0.7-0.1,1.3-0.4,1.8
					c-0.3,0.5-0.6,0.9-1.1,1.2c-0.5,0.3-1,0.6-1.6,0.7c-0.6,0.2-1.3,0.2-2,0.2c-0.7,0-1.4-0.1-2.1-0.2c-0.7-0.2-1.3-0.4-2-0.7
					s-1.2-0.7-1.7-1.1l0.9-1.5c0.2,0.2,0.5,0.5,0.8,0.7s0.7,0.4,1.2,0.6s0.9,0.3,1.4,0.4c0.5,0.1,1,0.2,1.6,0.2c1,0,1.8-0.2,2.4-0.5
					s0.8-0.9,0.8-1.6c0-0.5-0.2-1-0.5-1.3c-0.3-0.3-0.8-0.6-1.4-0.8c-0.6-0.2-1.4-0.4-2.2-0.6c-1-0.2-1.8-0.5-2.4-0.8
					c-0.7-0.3-1.1-0.7-1.5-1.1c-0.3-0.5-0.5-1.1-0.5-1.8c0-0.9,0.2-1.7,0.7-2.3c0.4-0.6,1-1.1,1.8-1.4s1.6-0.5,2.6-0.5
					c0.6,0,1.2,0.1,1.8,0.2c0.6,0.1,1.1,0.3,1.5,0.6c0.5,0.2,0.9,0.5,1.3,0.9L159.5,19.8z"/>
			</g>
		</g>
		<g id="NodeJS_logo" transform="translate(38 79)">
			<path id="Path_320" class="st4" d="M86.1,106.7c-0.6,0-1.1-0.2-1.6-0.4l-5.2-3.1c-0.8-0.4-0.4-0.6-0.1-0.7
				c0.8-0.3,1.6-0.6,2.4-1.1c0.1-0.1,0.3,0,0.4,0l4,2.4c0.2,0.1,0.3,0.1,0.5,0l15.7-9.1c0.1-0.1,0.2-0.3,0.2-0.4V76.1
				c0-0.2-0.1-0.3-0.2-0.4l-15.7-9.1c-0.1-0.1-0.3-0.1-0.5,0l-15.7,9.1c-0.2,0.1-0.2,0.3-0.2,0.4v18.1c0,0.2,0.1,0.3,0.2,0.4
				l4.3,2.5c2.3,1.2,3.8-0.2,3.8-1.6V77.7c0-0.2,0.2-0.5,0.4-0.5c0,0,0,0,0,0h2c0.2,0,0.5,0.2,0.5,0.4c0,0,0,0,0,0v17.9
				c0,3.1-1.7,4.9-4.7,4.9c-1.3,0-2.5-0.3-3.6-1l-4.1-2.4c-1-0.6-1.6-1.7-1.6-2.9V76.1c0-1.2,0.6-2.3,1.6-2.9l15.7-9.1
				c1-0.6,2.3-0.6,3.3,0l15.7,9.1c1,0.6,1.6,1.7,1.6,2.9v18.1c0,1.2-0.6,2.3-1.6,2.9l-15.7,9.1C87.2,106.5,86.7,106.7,86.1,106.7"/>
			<path id="Path_321" class="st4" d="M90.9,94.2c-6.9,0-8.3-3.2-8.3-5.8c0-0.2,0.2-0.5,0.5-0.5c0,0,0,0,0,0h2
				c0.2,0,0.4,0.2,0.4,0.4c0.3,2.1,1.2,3.1,5.4,3.1c3.3,0,4.7-0.7,4.7-2.5c0-1-0.4-1.8-5.6-2.3c-4.3-0.4-7-1.4-7-4.8
				c0-3.2,2.7-5.1,7.2-5.1c5,0,7.5,1.7,7.8,5.5c0,0.3-0.2,0.5-0.4,0.5c0,0,0,0,0,0h-2c-0.2,0-0.4-0.1-0.4-0.4
				c-0.5-2.2-1.7-2.9-4.9-2.9c-3.6,0-4,1.3-4,2.2c0,1.1,0.5,1.5,5.4,2.1c4.8,0.6,7.1,1.5,7.1,4.9C98.8,92.2,95.9,94.2,90.9,94.2
				 M110.1,74.9h0.5c0.3,0,0.5-0.1,0.5-0.4c0,0,0-0.1,0-0.1c0-0.5-0.3-0.5-0.5-0.5h-0.5V74.9z M109.4,73.4h1.2c0.4,0,1.2,0,1.2,0.9
				c0,0.4-0.2,0.8-0.6,0.8c0.5,0,0.5,0.3,0.6,0.8c0,0.3,0.1,0.6,0.2,0.9h-0.7c0-0.2-0.1-1-0.1-1.1c0-0.2-0.1-0.3-0.4-0.3h-0.6v1.4
				h-0.7L109.4,73.4z M108,75.1c0,1.4,1.1,2.5,2.5,2.5c1.4,0,2.5-1.1,2.5-2.5s-1.1-2.5-2.5-2.5c0,0,0,0,0,0
				C109.2,72.6,108,73.7,108,75.1 M113.6,75.1c0,1.7-1.4,3-3,3s-3-1.4-3-3c0-1.7,1.4-3,3-3C112.2,72.1,113.6,73.5,113.6,75.1"/>
			<path id="Path_322" class="st5" d="M37.4,35.6c0-0.7-0.4-1.4-1-1.8l-16.7-9.6c-0.3-0.2-0.6-0.3-0.9-0.3h-0.2
				c-0.3,0-0.6,0.1-0.9,0.3L1,33.9c-0.6,0.4-1,1-1,1.7l0,25.8c0,0.4,0.2,0.7,0.5,0.9c0.3,0.2,0.7,0.2,1,0l9.9-5.7c0.6-0.4,1-1,1-1.7
				V42.9c0-0.7,0.4-1.4,1-1.7l4.2-2.4c0.3-0.2,0.7-0.3,1-0.3c0.4,0,0.7,0.1,1,0.3l4.2,2.4c0.6,0.4,1,1,1,1.7v12.1
				c0,0.7,0.4,1.4,1,1.7l9.9,5.7c0.3,0.2,0.7,0.2,1,0c0.3-0.2,0.5-0.5,0.5-0.9L37.4,35.6z M116.1,49.1c0,0.2-0.1,0.3-0.3,0.4
				l-5.7,3.3c-0.2,0.1-0.3,0.1-0.5,0l-5.7-3.3c-0.2-0.1-0.3-0.3-0.3-0.4v-6.6c0-0.2,0.1-0.3,0.2-0.4l5.7-3.3c0.2-0.1,0.4-0.1,0.5,0
				l5.7,3.3c0.2,0.1,0.3,0.3,0.3,0.4L116.1,49.1z M117.6,0.1c-0.5-0.3-1.1-0.1-1.4,0.4c-0.1,0.2-0.1,0.3-0.1,0.5v25.6
				c0,0.4-0.3,0.7-0.7,0.7c-0.1,0-0.3,0-0.4-0.1l-4.2-2.4c-0.6-0.4-1.4-0.4-2,0l-16.7,9.6c-0.6,0.4-1,1-1,1.7v19.3
				c0,0.7,0.4,1.4,1,1.7l16.7,9.6c0.6,0.4,1.4,0.4,2,0l16.7-9.6c0.6-0.4,1-1,1-1.7v-48c0-0.7-0.4-1.4-1-1.8L117.6,0.1z M173.1,42.3
				c0.6-0.4,1-1,1-1.7v-4.7c0-0.7-0.4-1.4-1-1.7l-16.6-9.6c-0.6-0.4-1.4-0.4-2,0l-16.7,9.6c-0.6,0.4-1,1-1,1.7v19.2
				c0,0.7,0.4,1.4,1,1.8l16.6,9.4c0.6,0.4,1.4,0.4,2,0l10-5.6c0.5-0.3,0.7-0.9,0.4-1.4c-0.1-0.2-0.2-0.3-0.4-0.4l-16.8-9.6
				c-0.3-0.2-0.5-0.5-0.5-0.9v-6c0-0.4,0.2-0.7,0.5-0.9l5.2-3c0.3-0.2,0.7-0.2,1,0l5.2,3c0.3,0.2,0.5,0.5,0.5,0.9v4.7
				c0,0.6,0.4,1,1,1c0.2,0,0.4,0,0.5-0.1L173.1,42.3z"/>
			<path id="Path_323" class="st6" d="M155.3,41.4c0.1-0.1,0.3-0.1,0.4,0l3.2,1.8c0.1,0.1,0.2,0.2,0.2,0.3v3.7
				c0,0.1-0.1,0.3-0.2,0.3l-3.2,1.8c-0.1,0.1-0.3,0.1-0.4,0l-3.2-1.8c-0.1-0.1-0.2-0.2-0.2-0.3v-3.7c0-0.1,0.1-0.3,0.2-0.3
				L155.3,41.4z"/>
			<g>
				<defs>
					<path id="SVGID_00000108289930232631849520000001748398102907634855_" d="M63.3,24.6l-16.6,9.6c-0.6,0.4-1,1-1,1.7v19.2
						c0,0.7,0.4,1.4,1,1.7l16.6,9.6c0.6,0.4,1.4,0.4,2,0l16.6-9.6c0.6-0.4,1-1,1-1.7V35.9c0-0.7-0.4-1.4-1-1.7l-16.6-9.6
						C64.7,24.3,63.9,24.3,63.3,24.6"/>
				</defs>
				<clipPath id="SVGID_00000067951551475044820410000000879650108845399466_">
					<use xlink:href="#SVGID_00000108289930232631849520000001748398102907634855_"  style="overflow:visible;"/>
				</clipPath>
				
					<g id="Group_257" transform="translate(45.685 24.372)" style="clip-path:url(#SVGID_00000067951551475044820410000000879650108845399466_);">
					<path id="Path_324" class="st4" d="M53.9,8.2L7.2-14.7l-24,48.9L30,57.1L53.9,8.2z"/>
				</g>
			</g>
			<g>
				<defs>
					<path id="SVGID_00000145776215262479711010000012406851928356060302_" d="M46.1,56.3c0.2,0.2,0.4,0.4,0.6,0.5l14.2,8.2l2.4,1.4
						c0.3,0.2,0.8,0.3,1.2,0.3c0.1,0,0.3,0,0.4-0.1l17.5-32c-0.1-0.1-0.3-0.3-0.5-0.4L71,27.9l-5.7-3.3c-0.2-0.1-0.3-0.2-0.5-0.2
						L46.1,56.3z"/>
				</defs>
				<clipPath id="SVGID_00000037667877651929372910000014879252382877162630_">
					<use xlink:href="#SVGID_00000145776215262479711010000012406851928356060302_"  style="overflow:visible;"/>
				</clipPath>
				
					<g id="Group_258" transform="translate(46.096 24.429)" style="clip-path:url(#SVGID_00000037667877651929372910000014879252382877162630_);">
					<path id="Path_326" class="st4" d="M-20.2,14.9l33,44.7l43.6-32.2l-33-44.7L-20.2,14.9z"/>
				</g>
			</g>
			<g>
				<defs>
					<path id="SVGID_00000147904792157231696950000008219554191715883703_" d="M64.1,24.4c-0.3,0-0.6,0.1-0.8,0.3l-16.5,9.5
						l17.8,32.5c0.3,0,0.5-0.1,0.7-0.2l16.6-9.6c0.5-0.3,0.9-0.8,1-1.4L64.7,24.4c-0.1,0-0.3,0-0.4,0C64.2,24.4,64.1,24.4,64.1,24.4
						"/>
				</defs>
				<clipPath id="SVGID_00000158029722165729865360000013840264385312351155_">
					<use xlink:href="#SVGID_00000147904792157231696950000008219554191715883703_"  style="overflow:visible;"/>
				</clipPath>
				
					<g id="Group_259" transform="translate(46.735 24.375)" style="clip-path:url(#SVGID_00000158029722165729865360000013840264385312351155_);">
					<path id="Path_328" class="st4" d="M0,0v42.3h36.1V0H0z"/>
				</g>
			</g>
		</g>
	</g>
</g>
</svg>
