<?xml version="1.0" encoding="utf-8"?>
<!-- Generator: Adobe Illustrator 26.0.1, SVG Export Plug-In . SVG Version: 6.00 Build 0)  -->
<svg version="1.1" id="Layer_1" xmlns="http://www.w3.org/2000/svg" xmlns:xlink="http://www.w3.org/1999/xlink" x="0px" y="0px"
	 viewBox="0 0 250 250" style="enable-background:new 0 0 250 250;" xml:space="preserve">
<style type="text/css">
	.st0{clip-path:url(#SVGID_00000135668457065220233270000009167106357375982257_);}
	.st1{fill:#FFFFFF;}
	.st2{fill:#035397;}
	.st3{enable-background:new    ;}
	.st4{fill:#F1F1F1;}
</style>
<g>
	<defs>
		<rect id="SVGID_1_" y="0" width="250" height="250"/>
	</defs>
	<clipPath id="SVGID_00000120555914518133430210000014622729127108489388_">
		<use xlink:href="#SVGID_1_"  style="overflow:visible;"/>
	</clipPath>
	<g id="Python" style="clip-path:url(#SVGID_00000120555914518133430210000014622729127108489388_);">
		<rect y="0" class="st1" width="250" height="250"/>
		<path id="Rectangle_1" class="st2" d="M7,0h236c3.9,0,7,3.1,7,7v236c0,3.9-3.1,7-7,7H7c-3.9,0-7-3.1-7-7V7C0,3.1,3.1,0,7,0z"/>
		<g class="st3">
			<path class="st4" d="M93.7,31V16.8h5.9c0.6,0,1.2,0.1,1.7,0.4c0.5,0.3,1,0.6,1.4,1c0.4,0.4,0.7,0.9,0.9,1.5
				c0.2,0.5,0.3,1.1,0.3,1.6c0,0.8-0.2,1.5-0.5,2.2s-0.8,1.3-1.5,1.7c-0.6,0.4-1.4,0.7-2.2,0.7h-4.2V31H93.7z M95.5,24.3h4.1
				c0.5,0,0.9-0.1,1.3-0.4c0.4-0.3,0.7-0.6,0.9-1.1s0.3-0.9,0.3-1.5c0-0.6-0.1-1.1-0.4-1.5c-0.2-0.4-0.6-0.8-0.9-1s-0.8-0.4-1.3-0.4
				h-4V24.3z"/>
			<path class="st4" d="M106.4,33.8c0.2,0,0.3,0,0.5,0c0.2,0,0.3,0,0.4,0c0.2,0,0.4-0.1,0.6-0.2c0.2-0.1,0.3-0.4,0.5-0.8
				c0.2-0.4,0.4-1,0.8-1.8l-4.4-10.4h1.9l3.5,8.6l3.2-8.6h1.7l-5.1,13.1c-0.1,0.3-0.3,0.6-0.5,0.9c-0.2,0.3-0.5,0.5-0.9,0.6
				c-0.4,0.2-0.8,0.2-1.3,0.2c-0.1,0-0.2,0-0.4,0c-0.1,0-0.3,0-0.5-0.1V33.8z"/>
			<path class="st4" d="M122.2,30.5c-0.1,0.1-0.3,0.2-0.6,0.3c-0.3,0.1-0.5,0.2-0.9,0.3c-0.3,0.1-0.7,0.1-1.1,0.1
				c-0.4,0-0.8-0.1-1.2-0.2c-0.4-0.2-0.6-0.4-0.9-0.7c-0.2-0.3-0.3-0.7-0.3-1.2v-7h-1.4v-1.4h1.4v-3.5h1.8v3.5h2.3V22H119v6.5
				c0,0.4,0.2,0.6,0.4,0.8c0.2,0.2,0.5,0.3,0.8,0.3c0.3,0,0.7-0.1,1-0.2c0.3-0.1,0.5-0.2,0.6-0.3L122.2,30.5z"/>
			<path class="st4" d="M132.9,31h-1.8v-5.8c0-1.1-0.2-1.8-0.6-2.4c-0.4-0.5-0.9-0.8-1.6-0.8c-0.5,0-0.9,0.1-1.4,0.4
				c-0.5,0.2-0.9,0.6-1.2,1c-0.3,0.4-0.6,0.9-0.8,1.4V31h-1.8V16.4h1.8v6.5c0.4-0.7,1-1.3,1.7-1.8s1.5-0.6,2.3-0.6
				c0.6,0,1.1,0.1,1.6,0.3c0.4,0.2,0.8,0.5,1,0.9c0.3,0.4,0.4,0.9,0.6,1.4c0.1,0.5,0.2,1.1,0.2,1.7V31z"/>
			<path class="st4" d="M140.2,31.2c-0.8,0-1.5-0.1-2.1-0.4c-0.6-0.3-1.2-0.7-1.7-1.2c-0.5-0.5-0.8-1.1-1.1-1.7
				c-0.3-0.6-0.4-1.3-0.4-2c0-0.7,0.1-1.4,0.4-2.1c0.3-0.6,0.6-1.2,1.1-1.7c0.5-0.5,1-0.9,1.7-1.2c0.6-0.3,1.4-0.4,2.1-0.4
				c0.8,0,1.5,0.1,2.1,0.4c0.6,0.3,1.2,0.7,1.7,1.2c0.5,0.5,0.8,1.1,1.1,1.7c0.3,0.6,0.4,1.3,0.4,2.1c0,0.7-0.1,1.4-0.4,2
				c-0.3,0.6-0.6,1.2-1.1,1.7s-1,0.9-1.7,1.2C141.7,31.1,141,31.2,140.2,31.2z M136.7,25.9c0,0.7,0.2,1.4,0.5,1.9
				c0.3,0.6,0.7,1,1.2,1.4c0.5,0.3,1.1,0.5,1.7,0.5c0.6,0,1.2-0.2,1.8-0.5c0.5-0.3,0.9-0.8,1.3-1.4c0.3-0.6,0.5-1.2,0.5-1.9
				s-0.2-1.4-0.5-1.9c-0.3-0.6-0.7-1-1.3-1.4c-0.5-0.3-1.1-0.5-1.8-0.5c-0.6,0-1.2,0.2-1.7,0.5s-0.9,0.8-1.2,1.4
				C136.9,24.5,136.7,25.1,136.7,25.9z"/>
			<path class="st4" d="M156.7,31h-1.8v-5.8c0-1.1-0.2-1.9-0.5-2.4s-0.9-0.8-1.5-0.8c-0.5,0-1,0.1-1.4,0.4c-0.5,0.2-0.9,0.6-1.3,1
				c-0.4,0.4-0.6,0.9-0.8,1.4V31h-1.8V20.6h1.6v2.2c0.3-0.5,0.6-0.9,1.1-1.3c0.4-0.4,0.9-0.6,1.5-0.8c0.6-0.2,1.1-0.3,1.8-0.3
				c0.6,0,1.1,0.1,1.5,0.3c0.4,0.2,0.7,0.5,1,0.9c0.2,0.4,0.4,0.9,0.5,1.4c0.1,0.5,0.1,1.1,0.1,1.7V31z"/>
		</g>
		<g id="Group_125" transform="translate(-12.506 -40)">
			<g id="layer1" transform="translate(69.789 110.275)">
				<g id="g1894" transform="translate(0 0)">
					<path id="path8615" class="st4" d="M67.2,0C32.8,0,35,14.9,35,14.9l0,15.4h32.8V35H22c0,0-22-2.5-22,32.2s19.2,33.5,19.2,33.5
						h11.5V84.6c0,0-0.6-19.2,18.9-19.2h32.5c0,0,18.3,0.3,18.3-17.7V18C100.4,18,103.2,0,67.2,0z M49.1,10.4c3.3,0,5.9,2.6,5.9,5.9
						c0,3.3-2.6,5.9-5.9,5.9c-3.3,0-5.9-2.6-5.9-5.9C43.2,13,45.9,10.4,49.1,10.4L49.1,10.4z"/>
					<path id="path8620" class="st4" d="M68.2,134.7c34.4,0,32.2-14.9,32.2-14.9l0-15.4H67.6v-4.6h45.8c0,0,22,2.5,22-32.2
						s-19.2-33.5-19.2-33.5h-11.5v16.1c0,0,0.6,19.2-18.9,19.2H53.3c0,0-18.3-0.3-18.3,17.7v29.7C35.1,116.7,32.3,134.7,68.2,134.7z
						 M86.3,124.3c-3.3,0-5.9-2.6-5.9-5.9c0-3.3,2.6-5.9,5.9-5.9c3.3,0,5.9,2.6,5.9,5.9v0C92.2,121.7,89.6,124.3,86.3,124.3
						C86.3,124.3,86.3,124.3,86.3,124.3L86.3,124.3z"/>
				</g>
			</g>
		</g>
	</g>
</g>
</svg>
