<?xml version="1.0" encoding="utf-8"?>
<!-- Generator: Adobe Illustrator 26.0.1, SVG Export Plug-In . SVG Version: 6.00 Build 0)  -->
<svg version="1.1" id="Layer_1" xmlns="http://www.w3.org/2000/svg" xmlns:xlink="http://www.w3.org/1999/xlink" x="0px" y="0px"
	 viewBox="0 0 250 250" style="enable-background:new 0 0 250 250;" xml:space="preserve">
<style type="text/css">
	.st0{clip-path:url(#SVGID_00000035502463514157257200000002371452407220799400_);}
	.st1{fill:#FFFFFF;}
	.st2{fill:#035397;}
	.st3{enable-background:new    ;}
	.st4{fill:#F1F1F1;}
	.st5{fill:none;stroke:#F1F1F1;stroke-width:4;}
</style>
<g>
	<defs>
		<rect id="SVGID_1_" y="0" width="250" height="250"/>
	</defs>
	<clipPath id="SVGID_00000116941036563841663880000005375756614107931582_">
		<use xlink:href="#SVGID_1_"  style="overflow:visible;"/>
	</clipPath>
	<g id="React" style="clip-path:url(#SVGID_00000116941036563841663880000005375756614107931582_);">
		<rect y="0" class="st1" width="250" height="250"/>
		<path id="Rectangle_1" class="st2" d="M7,0h236c3.9,0,7,3.1,7,7v236c0,3.9-3.1,7-7,7H7c-3.9,0-7-3.1-7-7V7C0,3.1,3.1,0,7,0z"/>
		<g class="st3">
			<path class="st4" d="M99.8,31V16.8h6.1c0.6,0,1.2,0.1,1.7,0.4c0.5,0.3,1,0.6,1.4,1c0.4,0.4,0.7,0.9,0.9,1.5s0.3,1.1,0.3,1.6
				c0,0.7-0.1,1.3-0.4,1.9c-0.2,0.6-0.6,1.1-1,1.5s-1,0.7-1.6,0.9l3.4,5.4h-2l-3.2-5.1h-3.8V31H99.8z M101.6,24.3h4.3
				c0.5,0,0.9-0.1,1.3-0.4c0.4-0.3,0.7-0.6,0.9-1.1c0.2-0.5,0.3-0.9,0.3-1.5c0-0.5-0.1-1-0.4-1.5c-0.2-0.4-0.6-0.8-0.9-1.1
				s-0.8-0.4-1.3-0.4h-4.2V24.3z"/>
			<path class="st4" d="M116.9,31.2c-0.8,0-1.5-0.1-2.1-0.4c-0.6-0.3-1.2-0.7-1.7-1.2c-0.5-0.5-0.8-1.1-1.1-1.7
				c-0.3-0.6-0.4-1.3-0.4-2.1c0-1,0.2-1.9,0.7-2.7c0.5-0.8,1.1-1.5,1.9-1.9c0.8-0.5,1.7-0.7,2.8-0.7c1.1,0,2,0.2,2.8,0.7
				c0.8,0.5,1.4,1.1,1.8,1.9c0.4,0.8,0.6,1.7,0.6,2.6c0,0.1,0,0.3,0,0.4c0,0.1,0,0.2,0,0.3h-8.7c0.1,0.7,0.2,1.3,0.6,1.8
				c0.3,0.5,0.8,0.9,1.3,1.2c0.5,0.3,1.1,0.4,1.7,0.4c0.6,0,1.2-0.2,1.8-0.5c0.6-0.3,1-0.7,1.2-1.3l1.5,0.4c-0.2,0.5-0.6,1-1,1.4
				s-1,0.7-1.6,0.9C118.3,31.1,117.6,31.2,116.9,31.2z M113.4,25.2h7.1c-0.1-0.7-0.2-1.3-0.6-1.8c-0.3-0.5-0.8-0.9-1.3-1.2
				s-1.1-0.4-1.7-0.4c-0.6,0-1.2,0.1-1.7,0.4s-0.9,0.7-1.3,1.2S113.5,24.5,113.4,25.2z"/>
			<path class="st4" d="M123.3,28c0-0.7,0.2-1.2,0.6-1.7c0.4-0.5,0.9-0.9,1.6-1.1c0.7-0.3,1.4-0.4,2.3-0.4c0.5,0,1,0,1.5,0.1
				c0.5,0.1,1,0.2,1.4,0.3v-0.8c0-0.8-0.2-1.4-0.7-1.9c-0.5-0.5-1.2-0.7-2-0.7c-0.6,0-1.1,0.1-1.7,0.3c-0.5,0.2-1.1,0.5-1.7,0.9
				l-0.6-1.2c0.7-0.5,1.4-0.8,2-1.1c0.7-0.2,1.4-0.3,2.1-0.3c1.3,0,2.4,0.4,3.2,1.1s1.2,1.8,1.2,3.1V29c0,0.2,0,0.4,0.1,0.5
				s0.2,0.2,0.4,0.2V31c-0.2,0-0.3,0-0.5,0.1c-0.1,0-0.2,0-0.3,0c-0.4,0-0.7-0.1-0.9-0.3c-0.2-0.2-0.3-0.5-0.3-0.7l0-0.7
				c-0.5,0.6-1,1-1.8,1.4c-0.7,0.3-1.5,0.5-2.2,0.5c-0.7,0-1.3-0.1-1.9-0.4c-0.5-0.3-1-0.7-1.3-1.2C123.5,29.1,123.3,28.6,123.3,28z
				 M130.1,28.7c0.2-0.2,0.3-0.4,0.4-0.6c0.1-0.2,0.1-0.4,0.1-0.5v-1.3c-0.4-0.2-0.8-0.3-1.3-0.4c-0.5-0.1-0.9-0.1-1.3-0.1
				c-0.9,0-1.6,0.2-2.2,0.5c-0.6,0.3-0.8,0.8-0.8,1.4c0,0.3,0.1,0.7,0.3,1c0.2,0.3,0.4,0.6,0.8,0.8s0.8,0.3,1.3,0.3
				c0.5,0,1.1-0.1,1.6-0.3S129.8,29.1,130.1,28.7z"/>
			<path class="st4" d="M139.8,31.2c-0.8,0-1.5-0.1-2.1-0.4c-0.6-0.3-1.2-0.7-1.7-1.2s-0.8-1.1-1.1-1.7s-0.4-1.3-0.4-2.1
				c0-1,0.2-1.9,0.7-2.7c0.4-0.8,1.1-1.5,1.9-1.9s1.7-0.7,2.8-0.7c1,0,1.9,0.2,2.7,0.7s1.3,1.1,1.7,1.8l-1.7,0.5
				c-0.3-0.5-0.6-0.9-1.1-1.2c-0.5-0.3-1-0.4-1.6-0.4c-0.6,0-1.2,0.2-1.8,0.5c-0.5,0.3-0.9,0.8-1.2,1.4s-0.5,1.2-0.5,2
				c0,0.7,0.2,1.4,0.5,2c0.3,0.6,0.7,1.1,1.3,1.4c0.5,0.3,1.1,0.5,1.8,0.5c0.4,0,0.8-0.1,1.2-0.2s0.7-0.3,1-0.6
				c0.3-0.2,0.5-0.5,0.6-0.8l1.7,0.5c-0.2,0.5-0.5,1-1,1.3c-0.4,0.4-0.9,0.7-1.5,0.9C141.2,31.1,140.5,31.2,139.8,31.2z"/>
			<path class="st4" d="M151.7,30.5c-0.1,0.1-0.3,0.2-0.6,0.3c-0.3,0.1-0.5,0.2-0.9,0.3c-0.3,0.1-0.7,0.1-1.1,0.1
				c-0.4,0-0.8-0.1-1.2-0.2c-0.4-0.2-0.6-0.4-0.9-0.7c-0.2-0.3-0.3-0.7-0.3-1.2v-7h-1.4v-1.4h1.4v-3.5h1.8v3.5h2.3V22h-2.3v6.5
				c0,0.4,0.2,0.6,0.4,0.8c0.2,0.2,0.5,0.3,0.8,0.3c0.3,0,0.7-0.1,1-0.2c0.3-0.1,0.5-0.2,0.6-0.3L151.7,30.5z"/>
		</g>
		<g id="Group_284" transform="translate(0 21)">
			<circle id="Ellipse_9" class="st4" cx="125" cy="124.9" r="13.2"/>
			<g id="Group_168" transform="translate(54.075 62.253)">
				<path id="Path_228" class="st5" d="M70.9,35.7c17.8,0,34.3,2.5,46.7,6.8c15,5.2,24.2,13,24.2,20.1c0,7.4-9.8,15.7-25.9,21
					c-12.2,4-28.2,6.1-45.1,6.1c-17.3,0-33.7-2-46-6.2C9.4,78.3,0,69.9,0,62.6c0-7,8.8-14.8,23.6-19.9C36.1,38.3,53,35.7,70.9,35.7
					L70.9,35.7z"/>
				<path id="Path_229" class="st5" d="M47.5,49.2c8.9-15.4,19.3-28.4,29.3-37.1c12-10.4,23.3-14.5,29.5-10.9
					c6.4,3.7,8.7,16.3,5.3,32.9c-2.6,12.6-8.8,27.5-17.2,42.1c-8.6,15-18.5,28.2-28.3,36.7c-12.4,10.8-24.4,14.8-30.6,11.1
					c-6.1-3.5-8.4-15-5.5-30.4C32.3,80.7,38.5,64.8,47.5,49.2L47.5,49.2z"/>
				<path id="Path_230" class="st5" d="M47.5,76.3c-8.9-15.4-15-30.9-17.5-43.8c-3-15.6-0.9-27.5,5.2-31C41.7-2.3,53.8,2,66.4,13.3
					c9.6,8.5,19.4,21.3,27.9,35.9c8.7,15,15.2,30.1,17.7,42.9c3.2,16.1,0.6,28.5-5.7,32.1c-6.1,3.5-17.2-0.2-29.1-10.4
					C67.2,105.2,56.5,91.8,47.5,76.3z"/>
			</g>
		</g>
	</g>
</g>
</svg>
