<?xml version="1.0" encoding="utf-8"?>
<!-- Generator: Adobe Illustrator 26.0.1, SVG Export Plug-In . SVG Version: 6.00 Build 0)  -->
<svg version="1.1" id="Layer_1" xmlns="http://www.w3.org/2000/svg" xmlns:xlink="http://www.w3.org/1999/xlink" x="0px" y="0px"
	 viewBox="0 0 250 250" style="enable-background:new 0 0 250 250;" xml:space="preserve">
<style type="text/css">
	.st0{clip-path:url(#SVGID_00000044874401131989447450000005105655262111618201_);}
	.st1{fill:#FFFFFF;}
	.st2{fill:#035397;}
	.st3{enable-background:new    ;}
	.st4{fill:#F1F1F1;}
</style>
<g>
	<defs>
		<rect id="SVGID_1_" y="0" width="250" height="250"/>
	</defs>
	<clipPath id="SVGID_00000120549596821659631710000011080165283641029554_">
		<use xlink:href="#SVGID_1_"  style="overflow:visible;"/>
	</clipPath>
	<g id="Angular" style="clip-path:url(#SVGID_00000120549596821659631710000011080165283641029554_);">
		<rect y="0" class="st1" width="250" height="250"/>
		<path id="Rectangle_1" class="st2" d="M7,0h236c3.9,0,7,3.1,7,7v236c0,3.9-3.1,7-7,7H7c-3.9,0-7-3.1-7-7V7C0,3.1,3.1,0,7,0z"/>
		<g class="st3">
			<path class="st4" d="M94.1,16.8h1.5l5.8,14.2h-1.9l-1.6-4.2h-6.1L90.2,31h-1.9L94.1,16.8z M97.3,25.4l-2.5-6.6l-2.5,6.6H97.3z"/>
			<path class="st4" d="M112.1,31h-1.8v-5.8c0-1.1-0.2-1.9-0.5-2.4s-0.9-0.8-1.5-0.8c-0.5,0-1,0.1-1.4,0.4c-0.5,0.2-0.9,0.6-1.3,1
				c-0.4,0.4-0.6,0.9-0.8,1.4V31H103V20.6h1.6v2.2c0.3-0.5,0.6-0.9,1.1-1.3s0.9-0.6,1.5-0.8c0.6-0.2,1.1-0.3,1.8-0.3
				c0.6,0,1.1,0.1,1.5,0.3c0.4,0.2,0.7,0.5,1,0.9c0.2,0.4,0.4,0.9,0.5,1.4s0.1,1.1,0.1,1.7V31z"/>
			<path class="st4" d="M119,31.2c-0.7,0-1.4-0.1-2-0.4c-0.6-0.3-1.1-0.7-1.5-1.2c-0.4-0.5-0.8-1.1-1-1.7s-0.4-1.3-0.4-2
				c0-0.7,0.1-1.4,0.4-2.1s0.6-1.2,1-1.7s0.9-0.9,1.5-1.2c0.6-0.3,1.2-0.4,2-0.4c0.9,0,1.6,0.2,2.3,0.6c0.6,0.4,1.2,1,1.6,1.6v-2.1
				h1.6v10.3c0,1-0.2,1.8-0.7,2.5c-0.5,0.7-1.1,1.2-1.9,1.5c-0.8,0.4-1.7,0.5-2.7,0.5c-1.2,0-2.1-0.2-2.9-0.6s-1.4-1-1.9-1.7l1-0.9
				c0.4,0.6,1,1.1,1.6,1.4c0.7,0.3,1.4,0.5,2.1,0.5c0.6,0,1.2-0.1,1.8-0.3c0.5-0.2,1-0.6,1.3-1c0.3-0.5,0.5-1.1,0.5-1.8v-1.8
				c-0.4,0.6-0.9,1.1-1.6,1.5S119.7,31.2,119,31.2z M119.5,29.8c0.4,0,0.7-0.1,1.1-0.2c0.3-0.1,0.7-0.3,1-0.5
				c0.3-0.2,0.5-0.5,0.7-0.8c0.2-0.3,0.3-0.6,0.4-0.9v-3c-0.2-0.5-0.5-0.9-0.8-1.3c-0.3-0.4-0.7-0.7-1.2-0.9s-0.9-0.3-1.4-0.3
				c-0.5,0-1,0.1-1.4,0.3c-0.4,0.2-0.8,0.5-1.1,0.9c-0.3,0.4-0.5,0.8-0.7,1.3c-0.2,0.5-0.2,0.9-0.2,1.4c0,0.5,0.1,1,0.3,1.5
				s0.4,0.9,0.8,1.2c0.3,0.4,0.7,0.6,1.1,0.8C118.5,29.7,119,29.8,119.5,29.8z"/>
			<path class="st4" d="M127.2,26.8v-6.2h1.8v5.9c0,1.1,0.2,1.9,0.6,2.4c0.4,0.5,0.9,0.8,1.7,0.8c0.5,0,0.9-0.1,1.4-0.3
				c0.4-0.2,0.8-0.5,1.2-0.9c0.4-0.4,0.6-0.8,0.8-1.4v-6.5h1.8V29c0,0.2,0,0.4,0.1,0.5c0.1,0.1,0.2,0.2,0.4,0.2V31
				c-0.2,0-0.4,0-0.5,0s-0.2,0-0.3,0c-0.3,0-0.6-0.1-0.9-0.3c-0.2-0.2-0.4-0.5-0.4-0.8l0-1.2c-0.5,0.8-1.1,1.4-1.8,1.8
				c-0.8,0.4-1.6,0.6-2.5,0.6c-1.1,0-1.9-0.4-2.5-1.1C127.5,29.4,127.2,28.3,127.2,26.8z"/>
			<path class="st4" d="M139.3,16.4h1.8v12c0,0.6,0.1,0.9,0.2,1.1s0.4,0.2,0.6,0.2c0.3,0,0.5,0,0.8-0.1c0.3-0.1,0.5-0.1,0.6-0.2
				l0.3,1.4c-0.3,0.1-0.6,0.2-1,0.3s-0.8,0.1-1.1,0.1c-0.7,0-1.2-0.2-1.6-0.6c-0.4-0.4-0.6-0.9-0.6-1.6V16.4z"/>
			<path class="st4" d="M144.2,28c0-0.7,0.2-1.2,0.6-1.7c0.4-0.5,0.9-0.9,1.6-1.1c0.7-0.3,1.4-0.4,2.3-0.4c0.5,0,1,0,1.5,0.1
				c0.5,0.1,1,0.2,1.4,0.3v-0.8c0-0.8-0.2-1.4-0.7-1.9c-0.5-0.5-1.2-0.7-2-0.7c-0.6,0-1.1,0.1-1.7,0.3c-0.5,0.2-1.1,0.5-1.7,0.9
				l-0.6-1.2c0.7-0.5,1.4-0.8,2-1.1c0.7-0.2,1.4-0.3,2.1-0.3c1.3,0,2.4,0.4,3.2,1.1c0.8,0.7,1.2,1.8,1.2,3.1V29c0,0.2,0,0.4,0.1,0.5
				c0.1,0.1,0.2,0.2,0.4,0.2V31c-0.2,0-0.3,0-0.5,0.1c-0.1,0-0.2,0-0.3,0c-0.4,0-0.7-0.1-0.9-0.3c-0.2-0.2-0.3-0.5-0.3-0.7l0-0.7
				c-0.5,0.6-1,1-1.8,1.4c-0.7,0.3-1.5,0.5-2.2,0.5c-0.7,0-1.3-0.1-1.9-0.4c-0.5-0.3-1-0.7-1.3-1.2C144.4,29.1,144.2,28.6,144.2,28z
				 M151,28.7c0.2-0.2,0.3-0.4,0.4-0.6c0.1-0.2,0.1-0.4,0.1-0.5v-1.3c-0.4-0.2-0.8-0.3-1.3-0.4c-0.5-0.1-0.9-0.1-1.3-0.1
				c-0.9,0-1.6,0.2-2.2,0.5c-0.6,0.3-0.8,0.8-0.8,1.4c0,0.3,0.1,0.7,0.3,1c0.2,0.3,0.4,0.6,0.8,0.8c0.4,0.2,0.8,0.3,1.3,0.3
				c0.5,0,1.1-0.1,1.6-0.3C150.3,29.3,150.7,29.1,151,28.7z"/>
			<path class="st4" d="M161.6,22.1c-0.9,0-1.7,0.2-2.3,0.7c-0.7,0.4-1.1,1-1.4,1.8V31h-1.8V20.6h1.6V23c0.4-0.7,0.8-1.3,1.4-1.8
				c0.6-0.4,1.2-0.7,1.9-0.8c0.1,0,0.2,0,0.3,0c0.1,0,0.2,0,0.2,0V22.1z"/>
		</g>
		<g id="Group_8" transform="translate(0 22)">
			<path id="Path_1" class="st4" d="M122.5,52L122.5,52L55,76.1l10.3,89.3l57.2,31.7l0,0l57.2-31.7L190,76.1L122.5,52z"/>
			<path id="Path_2" class="st4" d="M122.5,52v89.5l0,0V197l0,0l57.2-31.7L190,76.1L122.5,52z"/>
			<path id="Path_3" class="st2" d="M122.5,68l-42.2,94.6H96l8.5-21.2h35.8l8.5,21.2h15.7L122.5,68z M134.8,128.4h-24.7l12.3-29.7
				L134.8,128.4z"/>
		</g>
	</g>
</g>
</svg>
