<?xml version="1.0" encoding="utf-8"?>
<!-- Generator: Adobe Illustrator 26.0.1, SVG Export Plug-In . SVG Version: 6.00 Build 0)  -->
<svg version="1.1" id="Layer_1" xmlns="http://www.w3.org/2000/svg" xmlns:xlink="http://www.w3.org/1999/xlink" x="0px" y="0px"
	 viewBox="0 0 250 250" style="enable-background:new 0 0 250 250;" xml:space="preserve">
<style type="text/css">
	.st0{clip-path:url(#SVGID_00000069356628117177286100000006967199402817390009_);}
	.st1{fill:#FFFFFF;}
	.st2{fill:#035397;}
	.st3{enable-background:new    ;}
	.st4{fill:#F1F1F1;}
</style>
<g>
	<defs>
		<rect id="SVGID_1_" y="0" width="250" height="250"/>
	</defs>
	<clipPath id="SVGID_00000032637054054009773190000015645605532208875428_">
		<use xlink:href="#SVGID_1_"  style="overflow:visible;"/>
	</clipPath>
	<g id="Core-Java-Advance-Java" style="clip-path:url(#SVGID_00000032637054054009773190000015645605532208875428_);">
		<rect y="0" class="st1" width="250" height="250"/>
		<path id="Rectangle_1" class="st2" d="M7,0h236c3.9,0,7,3.1,7,7v236c0,3.9-3.1,7-7,7H7c-3.9,0-7-3.1-7-7V7C0,3.1,3.1,0,7,0z"/>
		<g class="st3">
			<path class="st4" d="M69,23.8c0-0.9,0.2-1.7,0.5-2.5c0.3-0.8,0.7-1.6,1.3-2.3c0.6-0.7,1.3-1.2,2.1-1.6c0.8-0.4,1.8-0.6,2.9-0.6
				c1.3,0,2.4,0.3,3.3,0.9s1.6,1.3,2,2.2l-1.4,0.9c-0.3-0.6-0.6-1.1-1.1-1.4c-0.4-0.4-0.9-0.6-1.4-0.8s-1-0.2-1.5-0.2
				c-0.8,0-1.5,0.2-2.1,0.5c-0.6,0.3-1.1,0.7-1.5,1.3s-0.7,1.1-0.9,1.8c-0.2,0.7-0.3,1.3-0.3,2c0,0.7,0.1,1.4,0.4,2.1
				c0.2,0.7,0.6,1.3,1,1.8c0.4,0.5,1,0.9,1.6,1.2c0.6,0.3,1.3,0.5,2,0.5c0.5,0,1-0.1,1.5-0.3c0.5-0.2,1-0.4,1.5-0.8
				c0.5-0.4,0.8-0.8,1.1-1.4l1.5,0.8c-0.3,0.7-0.7,1.3-1.4,1.8c-0.6,0.5-1.3,0.9-2.1,1.1c-0.8,0.3-1.5,0.4-2.2,0.4
				c-1,0-1.9-0.2-2.7-0.6c-0.8-0.4-1.5-1-2.1-1.7s-1.1-1.5-1.4-2.4C69.1,25.6,69,24.7,69,23.8z"/>
			<path class="st4" d="M87.8,31.2c-0.8,0-1.5-0.1-2.1-0.4c-0.6-0.3-1.2-0.7-1.7-1.2c-0.5-0.5-0.8-1.1-1.1-1.7
				c-0.3-0.6-0.4-1.3-0.4-2c0-0.7,0.1-1.4,0.4-2.1c0.3-0.6,0.6-1.2,1.1-1.7c0.5-0.5,1-0.9,1.7-1.2c0.6-0.3,1.4-0.4,2.1-0.4
				c0.8,0,1.5,0.1,2.1,0.4c0.6,0.3,1.2,0.7,1.7,1.2c0.5,0.5,0.8,1.1,1.1,1.7s0.4,1.3,0.4,2.1c0,0.7-0.1,1.4-0.4,2s-0.6,1.2-1.1,1.7
				s-1,0.9-1.7,1.2C89.3,31.1,88.6,31.2,87.8,31.2z M84.3,25.9c0,0.7,0.2,1.4,0.5,1.9c0.3,0.6,0.7,1,1.2,1.4
				c0.5,0.3,1.1,0.5,1.7,0.5s1.2-0.2,1.8-0.5c0.5-0.3,0.9-0.8,1.3-1.4c0.3-0.6,0.5-1.2,0.5-1.9s-0.2-1.4-0.5-1.9
				c-0.3-0.6-0.7-1-1.3-1.4C89,22.2,88.4,22,87.8,22s-1.2,0.2-1.7,0.5c-0.5,0.3-0.9,0.8-1.2,1.4C84.5,24.5,84.3,25.1,84.3,25.9z"/>
			<path class="st4" d="M100.7,22.1c-0.9,0-1.7,0.2-2.3,0.7c-0.7,0.4-1.1,1-1.4,1.8V31h-1.8V20.6h1.6V23c0.4-0.7,0.8-1.3,1.4-1.8
				c0.6-0.4,1.2-0.7,1.9-0.8c0.1,0,0.2,0,0.3,0c0.1,0,0.2,0,0.2,0V22.1z"/>
			<path class="st4" d="M106.9,31.2c-0.8,0-1.5-0.1-2.1-0.4c-0.6-0.3-1.2-0.7-1.7-1.2c-0.5-0.5-0.8-1.1-1.1-1.7
				c-0.3-0.6-0.4-1.3-0.4-2.1c0-1,0.2-1.9,0.7-2.7c0.5-0.8,1.1-1.5,1.9-1.9c0.8-0.5,1.7-0.7,2.8-0.7c1.1,0,2,0.2,2.8,0.7
				c0.8,0.5,1.4,1.1,1.8,1.9c0.4,0.8,0.6,1.7,0.6,2.6c0,0.1,0,0.3,0,0.4c0,0.1,0,0.2,0,0.3h-8.7c0.1,0.7,0.2,1.3,0.6,1.8
				c0.3,0.5,0.8,0.9,1.3,1.2c0.5,0.3,1.1,0.4,1.7,0.4c0.6,0,1.2-0.2,1.8-0.5c0.6-0.3,1-0.7,1.2-1.3l1.5,0.4c-0.2,0.5-0.6,1-1,1.4
				s-1,0.7-1.6,0.9C108.2,31.1,107.6,31.2,106.9,31.2z M103.3,25.2h7.1c-0.1-0.7-0.2-1.3-0.6-1.8c-0.3-0.5-0.8-0.9-1.3-1.2
				s-1.1-0.4-1.7-0.4c-0.6,0-1.2,0.1-1.7,0.4s-0.9,0.7-1.3,1.2S103.4,24.5,103.3,25.2z"/>
			<path class="st4" d="M117.9,28.8c0.3,0.2,0.6,0.3,1,0.5s1,0.2,1.6,0.2c0.6,0,1.1-0.1,1.5-0.3c0.4-0.2,0.7-0.5,0.9-0.9
				c0.2-0.4,0.4-0.9,0.4-1.6c0.1-0.6,0.1-1.4,0.1-2.3v-7.5h1.8V24c0,1-0.1,2-0.2,2.9c-0.1,0.9-0.3,1.6-0.6,2.3
				c-0.3,0.6-0.8,1.1-1.4,1.5c-0.6,0.3-1.5,0.5-2.5,0.5c-0.7,0-1.3-0.1-1.8-0.2c-0.5-0.1-1-0.4-1.4-0.7L117.9,28.8z"/>
			<path class="st4" d="M127.3,28c0-0.7,0.2-1.2,0.6-1.7c0.4-0.5,0.9-0.9,1.6-1.1c0.7-0.3,1.4-0.4,2.3-0.4c0.5,0,1,0,1.5,0.1
				c0.5,0.1,1,0.2,1.4,0.3v-0.8c0-0.8-0.2-1.4-0.7-1.9c-0.5-0.5-1.2-0.7-2-0.7c-0.6,0-1.1,0.1-1.7,0.3c-0.5,0.2-1.1,0.5-1.7,0.9
				l-0.6-1.2c0.7-0.5,1.4-0.8,2-1.1c0.7-0.2,1.4-0.3,2.1-0.3c1.3,0,2.4,0.4,3.2,1.1c0.8,0.7,1.2,1.8,1.2,3.1V29c0,0.2,0,0.4,0.1,0.5
				c0.1,0.1,0.2,0.2,0.4,0.2V31c-0.2,0-0.3,0-0.5,0.1c-0.1,0-0.2,0-0.3,0c-0.4,0-0.7-0.1-0.9-0.3c-0.2-0.2-0.3-0.5-0.3-0.7l0-0.7
				c-0.5,0.6-1,1-1.8,1.4c-0.7,0.3-1.5,0.5-2.2,0.5c-0.7,0-1.3-0.1-1.9-0.4c-0.5-0.3-1-0.7-1.3-1.2C127.4,29.1,127.3,28.6,127.3,28z
				 M134.1,28.7c0.2-0.2,0.3-0.4,0.4-0.6c0.1-0.2,0.1-0.4,0.1-0.5v-1.3c-0.4-0.2-0.8-0.3-1.3-0.4c-0.5-0.1-0.9-0.1-1.3-0.1
				c-0.9,0-1.6,0.2-2.2,0.5c-0.6,0.3-0.8,0.8-0.8,1.4c0,0.3,0.1,0.7,0.3,1c0.2,0.3,0.4,0.6,0.8,0.8c0.4,0.2,0.8,0.3,1.3,0.3
				c0.5,0,1.1-0.1,1.6-0.3C133.4,29.3,133.8,29.1,134.1,28.7z"/>
			<path class="st4" d="M141.8,31l-4.1-10.4h1.8l3.3,8.7l3.3-8.7h1.7L143.8,31H141.8z"/>
			<path class="st4" d="M148.5,28c0-0.7,0.2-1.2,0.6-1.7c0.4-0.5,0.9-0.9,1.6-1.1c0.7-0.3,1.4-0.4,2.3-0.4c0.5,0,1,0,1.5,0.1
				c0.5,0.1,1,0.2,1.4,0.3v-0.8c0-0.8-0.2-1.4-0.7-1.9c-0.5-0.5-1.2-0.7-2-0.7c-0.6,0-1.1,0.1-1.7,0.3c-0.5,0.2-1.1,0.5-1.7,0.9
				l-0.6-1.2c0.7-0.5,1.4-0.8,2-1.1c0.7-0.2,1.4-0.3,2.1-0.3c1.3,0,2.4,0.4,3.2,1.1c0.8,0.7,1.2,1.8,1.2,3.1V29c0,0.2,0,0.4,0.1,0.5
				c0.1,0.1,0.2,0.2,0.4,0.2V31c-0.2,0-0.3,0-0.5,0.1c-0.1,0-0.2,0-0.3,0c-0.4,0-0.7-0.1-0.9-0.3c-0.2-0.2-0.3-0.5-0.3-0.7l0-0.7
				c-0.5,0.6-1,1-1.8,1.4c-0.7,0.3-1.5,0.5-2.2,0.5c-0.7,0-1.3-0.1-1.9-0.4c-0.5-0.3-1-0.7-1.3-1.2C148.7,29.1,148.5,28.6,148.5,28z
				 M155.3,28.7c0.2-0.2,0.3-0.4,0.4-0.6c0.1-0.2,0.1-0.4,0.1-0.5v-1.3c-0.4-0.2-0.8-0.3-1.3-0.4c-0.5-0.1-0.9-0.1-1.3-0.1
				c-0.9,0-1.6,0.2-2.2,0.5c-0.6,0.3-0.8,0.8-0.8,1.4c0,0.3,0.1,0.7,0.3,1c0.2,0.3,0.4,0.6,0.8,0.8c0.4,0.2,0.8,0.3,1.3,0.3
				c0.5,0,1.1-0.1,1.6-0.3C154.7,29.3,155.1,29.1,155.3,28.7z"/>
			<path class="st4" d="M176.2,16.8L166.6,31h-2l9.6-14.2H176.2z"/>
		</g>
		<g class="st3">
			<path class="st4" d="M66.8,40.8h1.5L74.1,55h-1.9l-1.6-4.2h-6.1L62.9,55H61L66.8,40.8z M70.1,49.4l-2.5-6.6l-2.5,6.6H70.1z"/>
			<path class="st4" d="M74.8,49.8c0-1,0.2-1.9,0.6-2.7c0.4-0.8,1-1.5,1.7-2c0.7-0.5,1.5-0.7,2.5-0.7c0.8,0,1.6,0.2,2.3,0.7
				c0.7,0.4,1.2,1,1.6,1.6v-6.3h1.8V53c0,0.2,0,0.4,0.1,0.5c0.1,0.1,0.2,0.2,0.4,0.2V55c-0.3,0.1-0.6,0.1-0.8,0.1
				c-0.3,0-0.6-0.1-0.9-0.4c-0.3-0.2-0.4-0.5-0.4-0.8V53c-0.4,0.7-1,1.2-1.7,1.6s-1.4,0.6-2.2,0.6c-0.7,0-1.4-0.1-2-0.4
				c-0.6-0.3-1.1-0.7-1.6-1.2s-0.8-1.1-1-1.7C74.9,51.2,74.8,50.6,74.8,49.8z M83.3,51.4v-3c-0.2-0.4-0.4-0.9-0.8-1.2
				s-0.8-0.7-1.2-0.9C80.9,46.1,80.5,46,80,46c-0.5,0-1,0.1-1.4,0.3c-0.4,0.2-0.8,0.5-1.1,0.9c-0.3,0.4-0.5,0.8-0.7,1.2
				c-0.2,0.5-0.2,0.9-0.2,1.4c0,0.5,0.1,1,0.3,1.5c0.2,0.5,0.4,0.9,0.8,1.2s0.7,0.6,1.1,0.8c0.4,0.2,0.9,0.3,1.4,0.3
				c0.3,0,0.6-0.1,1-0.2c0.3-0.1,0.7-0.3,1-0.5c0.3-0.2,0.6-0.5,0.8-0.7S83.3,51.7,83.3,51.4z"/>
			<path class="st4" d="M91,55l-4.1-10.4h1.8l3.3,8.7l3.3-8.7h1.7L93,55H91z"/>
			<path class="st4" d="M97.7,52c0-0.7,0.2-1.2,0.6-1.7c0.4-0.5,0.9-0.9,1.6-1.1c0.7-0.3,1.4-0.4,2.3-0.4c0.5,0,1,0,1.5,0.1
				s1,0.2,1.4,0.3v-0.8c0-0.8-0.2-1.4-0.7-1.9c-0.5-0.5-1.2-0.7-2-0.7c-0.6,0-1.1,0.1-1.7,0.3c-0.5,0.2-1.1,0.5-1.7,0.9l-0.6-1.2
				c0.7-0.5,1.4-0.8,2-1.1c0.7-0.2,1.4-0.3,2.1-0.3c1.3,0,2.4,0.4,3.2,1.1c0.8,0.7,1.2,1.8,1.2,3.1V53c0,0.2,0,0.4,0.1,0.5
				c0.1,0.1,0.2,0.2,0.4,0.2V55c-0.2,0-0.3,0-0.5,0.1c-0.1,0-0.2,0-0.3,0c-0.4,0-0.7-0.1-0.9-0.3s-0.3-0.5-0.3-0.7l0-0.7
				c-0.5,0.6-1,1-1.8,1.4c-0.7,0.3-1.5,0.5-2.2,0.5c-0.7,0-1.3-0.1-1.9-0.4c-0.5-0.3-1-0.7-1.3-1.2C97.9,53.1,97.7,52.6,97.7,52z
				 M104.5,52.7c0.2-0.2,0.3-0.4,0.4-0.6s0.1-0.4,0.1-0.5v-1.3c-0.4-0.2-0.8-0.3-1.3-0.4c-0.5-0.1-0.9-0.1-1.3-0.1
				c-0.9,0-1.6,0.2-2.2,0.5s-0.8,0.8-0.8,1.4c0,0.3,0.1,0.7,0.3,1c0.2,0.3,0.4,0.6,0.8,0.8c0.4,0.2,0.8,0.3,1.3,0.3
				c0.5,0,1.1-0.1,1.6-0.3C103.9,53.3,104.2,53.1,104.5,52.7z"/>
			<path class="st4" d="M118.7,55h-1.8v-5.8c0-1.1-0.2-1.9-0.5-2.4s-0.9-0.8-1.5-0.8c-0.5,0-1,0.1-1.4,0.4c-0.5,0.2-0.9,0.6-1.3,1
				c-0.4,0.4-0.6,0.9-0.8,1.4V55h-1.8V44.6h1.6v2.2c0.3-0.5,0.6-0.9,1.1-1.3s0.9-0.6,1.5-0.8c0.6-0.2,1.1-0.3,1.8-0.3
				c0.6,0,1.1,0.1,1.5,0.3c0.4,0.2,0.7,0.5,1,0.9c0.2,0.4,0.4,0.9,0.5,1.4s0.1,1.1,0.1,1.7V55z"/>
			<path class="st4" d="M126.1,55.2c-0.8,0-1.5-0.1-2.2-0.4c-0.6-0.3-1.2-0.7-1.7-1.2c-0.5-0.5-0.8-1.1-1.1-1.7
				c-0.3-0.6-0.4-1.3-0.4-2.1c0-1,0.2-1.9,0.7-2.7s1.1-1.5,1.9-1.9c0.8-0.5,1.7-0.7,2.8-0.7c1,0,1.9,0.2,2.7,0.7s1.3,1.1,1.7,1.8
				l-1.7,0.5c-0.3-0.5-0.6-0.9-1.1-1.2c-0.5-0.3-1-0.4-1.6-0.4c-0.6,0-1.2,0.2-1.8,0.5c-0.5,0.3-0.9,0.8-1.2,1.4s-0.5,1.2-0.5,2
				c0,0.7,0.2,1.4,0.5,2c0.3,0.6,0.7,1.1,1.3,1.4c0.5,0.3,1.1,0.5,1.8,0.5c0.4,0,0.8-0.1,1.2-0.2s0.7-0.3,1-0.6
				c0.3-0.2,0.5-0.5,0.6-0.8l1.7,0.5c-0.2,0.5-0.5,1-1,1.3c-0.4,0.4-0.9,0.7-1.5,0.9C127.4,55.1,126.8,55.2,126.1,55.2z"/>
			<path class="st4" d="M137,55.2c-0.8,0-1.5-0.1-2.1-0.4c-0.6-0.3-1.2-0.7-1.7-1.2s-0.8-1.1-1.1-1.7s-0.4-1.3-0.4-2.1
				c0-1,0.2-1.9,0.7-2.7c0.5-0.8,1.1-1.5,1.9-1.9c0.8-0.5,1.7-0.7,2.8-0.7c1.1,0,2,0.2,2.8,0.7c0.8,0.5,1.4,1.1,1.8,1.9
				c0.4,0.8,0.7,1.7,0.7,2.6c0,0.1,0,0.3,0,0.4c0,0.1,0,0.2,0,0.3h-8.7c0.1,0.7,0.2,1.3,0.6,1.8c0.3,0.5,0.8,0.9,1.3,1.2
				c0.5,0.3,1.1,0.4,1.7,0.4c0.6,0,1.2-0.2,1.8-0.5c0.6-0.3,1-0.7,1.2-1.3l1.5,0.4c-0.2,0.5-0.6,1-1,1.4c-0.4,0.4-1,0.7-1.6,0.9
				C138.4,55.1,137.7,55.2,137,55.2z M133.5,49.2h7.1c-0.1-0.7-0.2-1.3-0.6-1.8c-0.3-0.5-0.8-0.9-1.3-1.2c-0.5-0.3-1.1-0.4-1.7-0.4
				c-0.6,0-1.2,0.1-1.7,0.4c-0.5,0.3-0.9,0.7-1.3,1.2C133.8,47.9,133.6,48.5,133.5,49.2z"/>
			<path class="st4" d="M148,52.8c0.3,0.2,0.6,0.3,1,0.5c0.4,0.2,1,0.2,1.6,0.2c0.6,0,1.1-0.1,1.5-0.3c0.4-0.2,0.7-0.5,0.9-0.9
				c0.2-0.4,0.4-0.9,0.4-1.6c0.1-0.6,0.1-1.4,0.1-2.3v-7.5h1.8V48c0,1-0.1,2-0.2,2.9s-0.3,1.6-0.6,2.3c-0.3,0.6-0.8,1.1-1.4,1.5
				c-0.6,0.3-1.5,0.5-2.5,0.5c-0.7,0-1.3-0.1-1.8-0.2c-0.5-0.1-1-0.4-1.4-0.7L148,52.8z"/>
			<path class="st4" d="M157.5,52c0-0.7,0.2-1.2,0.6-1.7c0.4-0.5,0.9-0.9,1.6-1.1c0.7-0.3,1.4-0.4,2.3-0.4c0.5,0,1,0,1.5,0.1
				c0.5,0.1,1,0.2,1.4,0.3v-0.8c0-0.8-0.2-1.4-0.7-1.9c-0.5-0.5-1.2-0.7-2-0.7c-0.6,0-1.1,0.1-1.7,0.3c-0.5,0.2-1.1,0.5-1.7,0.9
				l-0.6-1.2c0.7-0.5,1.4-0.8,2-1.1c0.7-0.2,1.4-0.3,2.1-0.3c1.3,0,2.4,0.4,3.2,1.1s1.2,1.8,1.2,3.1V53c0,0.2,0,0.4,0.1,0.5
				s0.2,0.2,0.4,0.2V55c-0.2,0-0.3,0-0.5,0.1c-0.1,0-0.2,0-0.3,0c-0.4,0-0.7-0.1-0.9-0.3c-0.2-0.2-0.3-0.5-0.3-0.7l0-0.7
				c-0.5,0.6-1,1-1.8,1.4c-0.7,0.3-1.5,0.5-2.2,0.5c-0.7,0-1.3-0.1-1.9-0.4c-0.5-0.3-1-0.7-1.3-1.2S157.5,52.6,157.5,52z
				 M164.3,52.7c0.2-0.2,0.3-0.4,0.4-0.6c0.1-0.2,0.1-0.4,0.1-0.5v-1.3c-0.4-0.2-0.8-0.3-1.3-0.4c-0.5-0.1-0.9-0.1-1.3-0.1
				c-0.9,0-1.6,0.2-2.2,0.5c-0.6,0.3-0.8,0.8-0.8,1.4c0,0.3,0.1,0.7,0.3,1c0.2,0.3,0.4,0.6,0.8,0.8s0.8,0.3,1.3,0.3
				c0.5,0,1.1-0.1,1.6-0.3S164,53.1,164.3,52.7z"/>
			<path class="st4" d="M172,55l-4.1-10.4h1.8l3.3,8.7l3.3-8.7h1.7L173.9,55H172z"/>
			<path class="st4" d="M178.7,52c0-0.7,0.2-1.2,0.6-1.7c0.4-0.5,0.9-0.9,1.6-1.1c0.7-0.3,1.4-0.4,2.3-0.4c0.5,0,1,0,1.5,0.1
				c0.5,0.1,1,0.2,1.4,0.3v-0.8c0-0.8-0.2-1.4-0.7-1.9c-0.5-0.5-1.2-0.7-2-0.7c-0.6,0-1.1,0.1-1.7,0.3c-0.5,0.2-1.1,0.5-1.7,0.9
				l-0.6-1.2c0.7-0.5,1.4-0.8,2-1.1c0.7-0.2,1.4-0.3,2.1-0.3c1.3,0,2.4,0.4,3.2,1.1s1.2,1.8,1.2,3.1V53c0,0.2,0,0.4,0.1,0.5
				s0.2,0.2,0.4,0.2V55c-0.2,0-0.3,0-0.5,0.1c-0.1,0-0.2,0-0.3,0c-0.4,0-0.7-0.1-0.9-0.3c-0.2-0.2-0.3-0.5-0.3-0.7l0-0.7
				c-0.5,0.6-1,1-1.8,1.4c-0.7,0.3-1.5,0.5-2.2,0.5c-0.7,0-1.3-0.1-1.9-0.4c-0.5-0.3-1-0.7-1.3-1.2S178.7,52.6,178.7,52z
				 M185.5,52.7c0.2-0.2,0.3-0.4,0.4-0.6c0.1-0.2,0.1-0.4,0.1-0.5v-1.3c-0.4-0.2-0.8-0.3-1.3-0.4c-0.5-0.1-0.9-0.1-1.3-0.1
				c-0.9,0-1.6,0.2-2.2,0.5c-0.6,0.3-0.8,0.8-0.8,1.4c0,0.3,0.1,0.7,0.3,1c0.2,0.3,0.4,0.6,0.8,0.8s0.8,0.3,1.3,0.3
				c0.5,0,1.1-0.1,1.6-0.3S185.2,53.1,185.5,52.7z"/>
		</g>
		<g id="Group_283" transform="translate(0 10)">
			<g id="Group_7" transform="translate(27.219 -30.872)">
				<path id="Path_19" class="st4" d="M84.8,178.1c0,0-3.8,2.3,2.7,3c7.8,1,12,0.8,20.7-0.8c1.7,1.1,3.6,2,5.5,2.7
					C94.1,191.3,69.4,182.4,84.8,178.1L84.8,178.1z M82.3,167.3c0,0-4.2,3.2,2.3,3.8c8.9,1.1,17.9,0.6,26.6-1.3c1.1,1.1,2.5,2,4,2.5
					C91.8,179.3,65.4,172.9,82.3,167.3L82.3,167.3z M128.2,186.3c0,0,2.8,2.3-3.2,4.2c-11.2,3.3-46.8,4.3-56.8,0
					c-3.5-1.5,3.2-3.7,5.3-4c1.1-0.3,2.2-0.4,3.3-0.5c-3.8-2.7-25.5,5.5-11,7.8C105.7,200.3,138.5,190.9,128.2,186.3L128.2,186.3z
					 M86.6,156c0,0-18.2,4.3-6.5,5.8c5,0.7,14.8,0.5,24-0.2c7.5-0.7,15-2,15-2c-1.5,0.7-3.1,1.5-4.5,2.3c-18.5,4.8-54,2.7-43.8-2.3
					C75.7,157.2,81.1,155.9,86.6,156L86.6,156z M119.1,174.1c18.7-9.7,10-19,4-17.8c-0.7,0.1-1.5,0.4-2.2,0.7c0.4-0.6,1-1.1,1.7-1.3
					c11.8-4.2,21.2,12.5-3.8,19C118.9,174.5,119,174.3,119.1,174.1L119.1,174.1z M88.4,200.4c18,1.2,45.5-0.7,46.1-9.2
					c0,0-1.3,3.3-14.8,5.8c-15.3,2.8-34.3,2.5-45.5,0.7C74.3,197.8,76.6,199.8,88.4,200.4L88.4,200.4z"/>
				<path id="Path_20" class="st4" d="M107.7,101c0,0,10.3,10.5-9.8,26.3c-16.2,12.8-3.7,20.2,0,28.5c-9.5-8.5-16.3-16-11.6-23
					C93.1,122.5,111.9,117.5,107.7,101z M102.4,148.8c4.8,5.5-1.3,10.5-1.3,10.5s12.3-6.3,6.7-14.2c-5.2-7.5-9.2-11.2,12.5-23.6
					C120.2,121.5,86.1,130,102.4,148.8L102.4,148.8z"/>
			</g>
			<path id="Path_21" class="st4" d="M118.7,211.6v-18.2c0-4.6-2.6-7.8-9.1-7.8c-3.3,0-6.6,0.7-9.7,2l0.9,3.3
				c2.4-0.9,4.9-1.4,7.4-1.5c3.5,0,5.2,1.5,5.2,4.5v2.4h-1.9c-8.9,0-13,3.3-13,8.7c0,4.5,2.8,7.1,7.8,7.1c3.2,0,5.6-1.5,7.8-3.3
				l0.4,2.8L118.7,211.6L118.7,211.6z M113.5,205.6c-1.5,1.5-3.6,2.5-5.8,2.6c-2.4,0-3.9-1.5-3.9-4.1c0-2.6,1.5-4.5,7.4-4.5h2.2
				L113.5,205.6L113.5,205.6z M136.1,211.6h-6.5l-7.8-25.4h5.6l4.8,15.6l1.1,4.6c2.5-6.5,4.1-13.3,5-20.2h5.6
				C142.4,194.9,139.8,203.5,136.1,211.6L136.1,211.6z M166.2,211.6v-18.2c0-4.6-2.6-7.8-9.1-7.8c-3.3,0-6.6,0.7-9.6,2l0.7,3.3
				c2.4-0.9,5-1.4,7.6-1.5c3.5,0,5.2,1.5,5.2,4.5v2.4h-1.9c-8.9,0-13,3.3-13,8.7c0,4.5,2.6,7.1,7.6,7.1c3.3,0,5.8-1.5,8-3.3l0.4,2.8
				L166.2,211.6L166.2,211.6z M161,205.6c-1.5,1.5-3.6,2.5-5.8,2.6c-2.4,0-3.9-1.5-3.9-4.1c0-2.6,1.5-4.5,7.4-4.5h2.2L161,205.6
				L161,205.6z M92.9,215.8c-1.6,2.3-3.8,4-6.5,4.8l-2.4-3c1.8-1,3.4-2.5,4.5-4.3c0.7-1.3,0.9-3.2,0.9-7.4v-28.9h5.6v28.6
				C94.9,211.4,94.4,213.6,92.9,215.8L92.9,215.8z"/>
		</g>
	</g>
</g>
</svg>
