<?xml version="1.0" encoding="utf-8"?>
<!-- Generator: Adobe Illustrator 26.0.1, SVG Export Plug-In . SVG Version: 6.00 Build 0)  -->
<svg version="1.1" id="Layer_1" xmlns="http://www.w3.org/2000/svg" xmlns:xlink="http://www.w3.org/1999/xlink" x="0px" y="0px"
	 viewBox="0 0 250 250" style="enable-background:new 0 0 250 250;" xml:space="preserve">
<style type="text/css">
	.st0{clip-path:url(#SVGID_00000176041101538251801960000002956562171375799450_);}
	.st1{fill:#FFFFFF;}
	.st2{fill:#035397;}
	.st3{enable-background:new    ;}
	.st4{fill:#F1F1F1;}
</style>
<g>
	<defs>
		<rect id="SVGID_1_" y="0" width="250" height="250"/>
	</defs>
	<clipPath id="SVGID_00000069390494163592735950000002905105618281888648_">
		<use xlink:href="#SVGID_1_"  style="overflow:visible;"/>
	</clipPath>
	<g id="Creative-Master-in-UI-UX-Design" style="clip-path:url(#SVGID_00000069390494163592735950000002905105618281888648_);">
		<rect y="0" class="st1" width="250" height="250"/>
		<path id="Rectangle_1" class="st2" d="M7,0h236c3.9,0,7,3.1,7,7v236c0,3.9-3.1,7-7,7H7c-3.9,0-7-3.1-7-7V7C0,3.1,3.1,0,7,0z"/>
		<g class="st3">
			<path class="st4" d="M50.2,23.8c0-0.9,0.2-1.7,0.5-2.5c0.3-0.8,0.7-1.6,1.3-2.3c0.6-0.7,1.3-1.2,2.1-1.6c0.8-0.4,1.8-0.6,2.9-0.6
				c1.3,0,2.4,0.3,3.3,0.9s1.6,1.3,2,2.2l-1.4,0.9c-0.3-0.6-0.6-1.1-1.1-1.4c-0.4-0.4-0.9-0.6-1.4-0.8s-1-0.2-1.5-0.2
				c-0.8,0-1.5,0.2-2.1,0.5c-0.6,0.3-1.1,0.7-1.5,1.3s-0.7,1.1-0.9,1.8c-0.2,0.7-0.3,1.3-0.3,2c0,0.7,0.1,1.4,0.4,2.1
				c0.2,0.7,0.6,1.3,1,1.8c0.4,0.5,1,0.9,1.6,1.2c0.6,0.3,1.3,0.5,2,0.5c0.5,0,1-0.1,1.5-0.3c0.5-0.2,1-0.4,1.5-0.8
				c0.5-0.4,0.8-0.8,1.1-1.4l1.5,0.8c-0.3,0.7-0.7,1.3-1.4,1.8c-0.6,0.5-1.3,0.9-2.1,1.1c-0.8,0.3-1.5,0.4-2.2,0.4
				c-1,0-1.9-0.2-2.7-0.6c-0.8-0.4-1.5-1-2.1-1.7s-1.1-1.5-1.4-2.4C50.3,25.6,50.2,24.7,50.2,23.8z"/>
			<path class="st4" d="M70,22.1c-0.9,0-1.7,0.2-2.3,0.7c-0.7,0.4-1.1,1-1.4,1.8V31h-1.8V20.6h1.6V23c0.4-0.7,0.8-1.3,1.4-1.8
				c0.6-0.4,1.2-0.7,1.9-0.8c0.1,0,0.2,0,0.3,0c0.1,0,0.2,0,0.2,0V22.1z"/>
			<path class="st4" d="M76.1,31.2c-0.8,0-1.5-0.1-2.1-0.4c-0.6-0.3-1.2-0.7-1.7-1.2c-0.5-0.5-0.8-1.1-1.1-1.7
				c-0.3-0.6-0.4-1.3-0.4-2.1c0-1,0.2-1.9,0.7-2.7c0.5-0.8,1.1-1.5,1.9-1.9c0.8-0.5,1.7-0.7,2.8-0.7c1.1,0,2,0.2,2.8,0.7
				c0.8,0.5,1.4,1.1,1.8,1.9c0.4,0.8,0.6,1.7,0.6,2.6c0,0.1,0,0.3,0,0.4c0,0.1,0,0.2,0,0.3h-8.7c0.1,0.7,0.2,1.3,0.6,1.8
				c0.3,0.5,0.8,0.9,1.3,1.2c0.5,0.3,1.1,0.4,1.7,0.4c0.6,0,1.2-0.2,1.8-0.5c0.6-0.3,1-0.7,1.2-1.3l1.5,0.4c-0.2,0.5-0.6,1-1,1.4
				s-1,0.7-1.6,0.9C77.5,31.1,76.8,31.2,76.1,31.2z M72.6,25.2h7.1c-0.1-0.7-0.2-1.3-0.6-1.8c-0.3-0.5-0.8-0.9-1.3-1.2
				s-1.1-0.4-1.7-0.4c-0.6,0-1.2,0.1-1.7,0.4s-0.9,0.7-1.3,1.2S72.6,24.5,72.6,25.2z"/>
			<path class="st4" d="M82.5,28c0-0.7,0.2-1.2,0.6-1.7c0.4-0.5,0.9-0.9,1.6-1.1c0.7-0.3,1.4-0.4,2.3-0.4c0.5,0,1,0,1.5,0.1
				s1,0.2,1.4,0.3v-0.8c0-0.8-0.2-1.4-0.7-1.9c-0.5-0.5-1.2-0.7-2-0.7c-0.6,0-1.1,0.1-1.7,0.3c-0.5,0.2-1.1,0.5-1.7,0.9l-0.6-1.2
				c0.7-0.5,1.4-0.8,2-1.1c0.7-0.2,1.4-0.3,2.1-0.3c1.3,0,2.4,0.4,3.2,1.1c0.8,0.7,1.2,1.8,1.2,3.1V29c0,0.2,0,0.4,0.1,0.5
				c0.1,0.1,0.2,0.2,0.4,0.2V31c-0.2,0-0.3,0-0.5,0.1c-0.1,0-0.2,0-0.3,0c-0.4,0-0.7-0.1-0.9-0.3s-0.3-0.5-0.3-0.7l0-0.7
				c-0.5,0.6-1,1-1.8,1.4c-0.7,0.3-1.5,0.5-2.2,0.5c-0.7,0-1.3-0.1-1.9-0.4c-0.5-0.3-1-0.7-1.3-1.2C82.6,29.1,82.5,28.6,82.5,28z
				 M89.3,28.7c0.2-0.2,0.3-0.4,0.4-0.6s0.1-0.4,0.1-0.5v-1.3c-0.4-0.2-0.8-0.3-1.3-0.4c-0.5-0.1-0.9-0.1-1.3-0.1
				c-0.9,0-1.6,0.2-2.2,0.5s-0.8,0.8-0.8,1.4c0,0.3,0.1,0.7,0.3,1c0.2,0.3,0.4,0.6,0.8,0.8c0.4,0.2,0.8,0.3,1.3,0.3
				c0.5,0,1.1-0.1,1.6-0.3C88.6,29.3,89,29.1,89.3,28.7z"/>
			<path class="st4" d="M99.7,30.5c-0.1,0.1-0.3,0.2-0.6,0.3c-0.3,0.1-0.5,0.2-0.9,0.3s-0.7,0.1-1.1,0.1c-0.4,0-0.8-0.1-1.2-0.2
				s-0.6-0.4-0.9-0.7c-0.2-0.3-0.3-0.7-0.3-1.2v-7h-1.4v-1.4h1.4v-3.5h1.8v3.5h2.3V22h-2.3v6.5c0,0.4,0.2,0.6,0.4,0.8
				c0.2,0.2,0.5,0.3,0.8,0.3c0.3,0,0.7-0.1,1-0.2c0.3-0.1,0.5-0.2,0.6-0.3L99.7,30.5z"/>
			<path class="st4" d="M101.3,18.6v-2.2h1.8v2.2H101.3z M101.3,31V20.6h1.8V31H101.3z"/>
			<path class="st4" d="M108.9,31l-4.1-10.4h1.8l3.3,8.7l3.3-8.7h1.7L110.8,31H108.9z"/>
			<path class="st4" d="M121,31.2c-0.8,0-1.5-0.1-2.1-0.4c-0.6-0.3-1.2-0.7-1.7-1.2c-0.5-0.5-0.8-1.1-1.1-1.7
				c-0.3-0.6-0.4-1.3-0.4-2.1c0-1,0.2-1.9,0.7-2.7c0.5-0.8,1.1-1.5,1.9-1.9c0.8-0.5,1.7-0.7,2.8-0.7c1.1,0,2,0.2,2.8,0.7
				c0.8,0.5,1.4,1.1,1.8,1.9c0.4,0.8,0.6,1.7,0.6,2.6c0,0.1,0,0.3,0,0.4c0,0.1,0,0.2,0,0.3h-8.7c0.1,0.7,0.2,1.3,0.6,1.8
				c0.3,0.5,0.8,0.9,1.3,1.2c0.5,0.3,1.1,0.4,1.7,0.4c0.6,0,1.2-0.2,1.8-0.5c0.6-0.3,1-0.7,1.2-1.3l1.5,0.4c-0.2,0.5-0.6,1-1,1.4
				s-1,0.7-1.6,0.9C122.3,31.1,121.7,31.2,121,31.2z M117.4,25.2h7.1c-0.1-0.7-0.2-1.3-0.6-1.8c-0.3-0.5-0.8-0.9-1.3-1.2
				s-1.1-0.4-1.7-0.4c-0.6,0-1.2,0.1-1.7,0.4s-0.9,0.7-1.3,1.2S117.5,24.5,117.4,25.2z"/>
			<path class="st4" d="M145.8,31V20.2l-4.7,8.3H140l-4.7-8.3V31h-1.8V16.8h1.9l5.1,9.2l5.2-9.2h1.9V31H145.8z"/>
			<path class="st4" d="M149.8,28c0-0.7,0.2-1.2,0.6-1.7c0.4-0.5,0.9-0.9,1.6-1.1c0.7-0.3,1.4-0.4,2.3-0.4c0.5,0,1,0,1.5,0.1
				c0.5,0.1,1,0.2,1.4,0.3v-0.8c0-0.8-0.2-1.4-0.7-1.9c-0.5-0.5-1.2-0.7-2-0.7c-0.6,0-1.1,0.1-1.7,0.3c-0.5,0.2-1.1,0.5-1.7,0.9
				l-0.6-1.2c0.7-0.5,1.4-0.8,2-1.1c0.7-0.2,1.4-0.3,2.1-0.3c1.3,0,2.4,0.4,3.2,1.1c0.8,0.7,1.2,1.8,1.2,3.1V29c0,0.2,0,0.4,0.1,0.5
				c0.1,0.1,0.2,0.2,0.4,0.2V31c-0.2,0-0.3,0-0.5,0.1c-0.1,0-0.2,0-0.3,0c-0.4,0-0.7-0.1-0.9-0.3c-0.2-0.2-0.3-0.5-0.3-0.7l0-0.7
				c-0.5,0.6-1,1-1.8,1.4c-0.7,0.3-1.5,0.5-2.2,0.5c-0.7,0-1.3-0.1-1.9-0.4c-0.5-0.3-1-0.7-1.3-1.2C149.9,29.1,149.8,28.6,149.8,28z
				 M156.6,28.7c0.2-0.2,0.3-0.4,0.4-0.6c0.1-0.2,0.1-0.4,0.1-0.5v-1.3c-0.4-0.2-0.8-0.3-1.3-0.4c-0.5-0.1-0.9-0.1-1.3-0.1
				c-0.9,0-1.6,0.2-2.2,0.5c-0.6,0.3-0.8,0.8-0.8,1.4c0,0.3,0.1,0.7,0.3,1c0.2,0.3,0.4,0.6,0.8,0.8c0.4,0.2,0.8,0.3,1.3,0.3
				c0.5,0,1.1-0.1,1.6-0.3C155.9,29.3,156.3,29.1,156.6,28.7z"/>
			<path class="st4" d="M165.3,31.2c-0.9,0-1.7-0.1-2.4-0.4c-0.8-0.3-1.4-0.7-2-1.3l0.7-1.2c0.6,0.6,1.2,1,1.8,1.2
				c0.6,0.2,1.2,0.4,1.8,0.4c0.7,0,1.3-0.1,1.8-0.4s0.7-0.7,0.7-1.2c0-0.4-0.1-0.7-0.3-0.9s-0.6-0.3-1-0.5c-0.4-0.1-0.9-0.3-1.5-0.4
				c-0.7-0.2-1.3-0.4-1.8-0.7c-0.5-0.2-0.9-0.5-1.1-0.9c-0.3-0.4-0.4-0.8-0.4-1.3c0-0.7,0.2-1.2,0.5-1.7c0.3-0.5,0.8-0.8,1.4-1
				c0.6-0.2,1.3-0.4,2.1-0.4c0.8,0,1.5,0.1,2.1,0.4c0.6,0.2,1.2,0.6,1.6,1.1l-0.8,1.2c-0.4-0.4-0.9-0.7-1.4-0.9
				c-0.5-0.2-1-0.3-1.7-0.3c-0.4,0-0.7,0-1.1,0.1s-0.6,0.2-0.9,0.5c-0.2,0.2-0.3,0.5-0.3,0.9c0,0.3,0.1,0.6,0.3,0.8
				c0.2,0.2,0.4,0.4,0.8,0.5c0.4,0.1,0.8,0.3,1.3,0.4c0.8,0.2,1.5,0.4,2,0.7s1,0.5,1.3,0.9c0.3,0.4,0.5,0.9,0.5,1.5
				c0,1-0.4,1.7-1.1,2.3C167.5,30.9,166.5,31.2,165.3,31.2z"/>
			<path class="st4" d="M176.8,30.5c-0.1,0.1-0.3,0.2-0.6,0.3c-0.3,0.1-0.5,0.2-0.9,0.3c-0.3,0.1-0.7,0.1-1.1,0.1
				c-0.4,0-0.8-0.1-1.2-0.2c-0.4-0.2-0.6-0.4-0.9-0.7c-0.2-0.3-0.3-0.7-0.3-1.2v-7h-1.4v-1.4h1.4v-3.5h1.8v3.5h2.3V22h-2.3v6.5
				c0,0.4,0.2,0.6,0.4,0.8c0.2,0.2,0.5,0.3,0.8,0.3c0.3,0,0.7-0.1,1-0.2c0.3-0.1,0.5-0.2,0.6-0.3L176.8,30.5z"/>
			<path class="st4" d="M183,31.2c-0.8,0-1.5-0.1-2.1-0.4c-0.6-0.3-1.2-0.7-1.7-1.2s-0.8-1.1-1.1-1.7s-0.4-1.3-0.4-2.1
				c0-1,0.2-1.9,0.7-2.7c0.5-0.8,1.1-1.5,1.9-1.9c0.8-0.5,1.7-0.7,2.8-0.7c1.1,0,2,0.2,2.8,0.7c0.8,0.5,1.4,1.1,1.8,1.9
				c0.4,0.8,0.7,1.7,0.7,2.6c0,0.1,0,0.3,0,0.4c0,0.1,0,0.2,0,0.3h-8.7c0.1,0.7,0.2,1.3,0.6,1.8c0.3,0.5,0.8,0.9,1.3,1.2
				c0.5,0.3,1.1,0.4,1.7,0.4c0.6,0,1.2-0.2,1.8-0.5c0.6-0.3,1-0.7,1.2-1.3l1.5,0.4c-0.2,0.5-0.6,1-1,1.4c-0.4,0.4-1,0.7-1.6,0.9
				C184.3,31.1,183.7,31.2,183,31.2z M179.4,25.2h7.1c-0.1-0.7-0.2-1.3-0.6-1.8c-0.3-0.5-0.8-0.9-1.3-1.2c-0.5-0.3-1.1-0.4-1.7-0.4
				c-0.6,0-1.2,0.1-1.7,0.4c-0.5,0.3-0.9,0.7-1.3,1.2C179.7,23.9,179.5,24.5,179.4,25.2z"/>
			<path class="st4" d="M195.7,22.1c-0.9,0-1.7,0.2-2.3,0.7c-0.7,0.4-1.1,1-1.4,1.8V31h-1.8V20.6h1.6V23c0.4-0.7,0.8-1.3,1.4-1.8
				c0.6-0.4,1.2-0.7,1.9-0.8c0.1,0,0.2,0,0.3,0c0.1,0,0.2,0,0.2,0V22.1z"/>
		</g>
		<g class="st3">
			<path class="st4" d="M50.5,42.6v-2.2h1.8v2.2H50.5z M50.5,55V44.6h1.8V55H50.5z"/>
			<path class="st4" d="M64.1,55h-1.8v-5.8c0-1.1-0.2-1.9-0.5-2.4S61,46,60.3,46c-0.5,0-1,0.1-1.4,0.4c-0.5,0.2-0.9,0.6-1.3,1
				c-0.4,0.4-0.6,0.9-0.8,1.4V55h-1.8V44.6h1.6v2.2c0.3-0.5,0.6-0.9,1.1-1.3s0.9-0.6,1.5-0.8c0.6-0.2,1.1-0.3,1.8-0.3
				c0.6,0,1.1,0.1,1.5,0.3c0.4,0.2,0.7,0.5,1,0.9c0.2,0.4,0.4,0.9,0.5,1.4s0.1,1.1,0.1,1.7V55z"/>
			<path class="st4" d="M78.1,55.1c-1.1,0-2.1-0.2-2.9-0.6c-0.8-0.4-1.4-0.9-1.9-1.6s-0.8-1.4-1-2.3S72,48.9,72,48v-7.2h1.8V48
				c0,0.7,0.1,1.4,0.2,2c0.1,0.7,0.4,1.2,0.7,1.8c0.3,0.5,0.8,0.9,1.3,1.2c0.5,0.3,1.2,0.5,2,0.5c0.8,0,1.5-0.2,2.1-0.5
				c0.5-0.3,1-0.7,1.3-1.3c0.3-0.5,0.6-1.1,0.7-1.8c0.1-0.7,0.2-1.3,0.2-2v-7.2h1.8V48c0,1-0.1,1.9-0.3,2.7s-0.6,1.6-1,2.3
				s-1.1,1.2-1.9,1.5C80.1,54.9,79.2,55.1,78.1,55.1z"/>
			<path class="st4" d="M87.3,55V40.8h1.8V55H87.3z"/>
			<path class="st4" d="M102.9,40.8L93.3,55h-2l9.6-14.2H102.9z"/>
			<path class="st4" d="M111,55.1c-1.1,0-2.1-0.2-2.9-0.6c-0.8-0.4-1.4-0.9-1.9-1.6s-0.8-1.4-1-2.3S105,48.9,105,48v-7.2h1.8V48
				c0,0.7,0.1,1.4,0.2,2c0.1,0.7,0.4,1.2,0.7,1.8c0.3,0.5,0.8,0.9,1.3,1.2c0.5,0.3,1.2,0.5,2,0.5c0.8,0,1.5-0.2,2.1-0.5
				c0.5-0.3,1-0.7,1.3-1.3c0.3-0.5,0.6-1.1,0.7-1.8c0.1-0.7,0.2-1.3,0.2-2v-7.2h1.8V48c0,1-0.1,1.9-0.3,2.7s-0.6,1.6-1,2.3
				s-1.1,1.2-1.9,1.5C113.1,54.9,112.1,55.1,111,55.1z"/>
			<path class="st4" d="M120.7,40.8l4.3,5.9l4.3-5.9h2L126,48l5.1,7h-2l-4.1-5.7l-4.1,5.7h-2l5.1-7l-5.3-7.2H120.7z"/>
			<path class="st4" d="M137.9,55V40.8h4.9c1.5,0,2.8,0.3,3.8,1c1,0.6,1.8,1.5,2.3,2.6c0.5,1.1,0.8,2.3,0.8,3.6
				c0,1.4-0.3,2.7-0.8,3.8c-0.6,1.1-1.4,1.9-2.4,2.5c-1,0.6-2.2,0.9-3.6,0.9H137.9z M147.8,47.9c0-1.1-0.2-2-0.6-2.8
				c-0.4-0.8-1-1.5-1.7-1.9c-0.7-0.5-1.7-0.7-2.7-0.7h-3.1v11h3.1c1.1,0,2-0.2,2.8-0.7c0.7-0.5,1.3-1.1,1.7-2
				C147.6,49.9,147.8,48.9,147.8,47.9z"/>
			<path class="st4" d="M156.5,55.2c-0.8,0-1.5-0.1-2.1-0.4c-0.6-0.3-1.2-0.7-1.7-1.2s-0.8-1.1-1.1-1.7s-0.4-1.3-0.4-2.1
				c0-1,0.2-1.9,0.7-2.7c0.5-0.8,1.1-1.5,1.9-1.9c0.8-0.5,1.7-0.7,2.8-0.7c1.1,0,2,0.2,2.8,0.7c0.8,0.5,1.4,1.1,1.8,1.9
				c0.4,0.8,0.7,1.7,0.7,2.6c0,0.1,0,0.3,0,0.4c0,0.1,0,0.2,0,0.3h-8.7c0.1,0.7,0.2,1.3,0.6,1.8c0.3,0.5,0.8,0.9,1.3,1.2
				c0.5,0.3,1.1,0.4,1.7,0.4c0.6,0,1.2-0.2,1.8-0.5c0.6-0.3,1-0.7,1.2-1.3l1.5,0.4c-0.2,0.5-0.6,1-1,1.4c-0.4,0.4-1,0.7-1.6,0.9
				C157.9,55.1,157.2,55.2,156.5,55.2z M153,49.2h7.1c-0.1-0.7-0.2-1.3-0.6-1.8c-0.3-0.5-0.8-0.9-1.3-1.2c-0.5-0.3-1.1-0.4-1.7-0.4
				c-0.6,0-1.2,0.1-1.7,0.4c-0.5,0.3-0.9,0.7-1.3,1.2C153.2,47.9,153.1,48.5,153,49.2z"/>
			<path class="st4" d="M167.3,55.2c-0.9,0-1.7-0.1-2.4-0.4c-0.8-0.3-1.4-0.7-2-1.3l0.7-1.2c0.6,0.6,1.2,1,1.8,1.2
				c0.6,0.2,1.2,0.4,1.8,0.4c0.7,0,1.3-0.1,1.8-0.4c0.5-0.3,0.7-0.7,0.7-1.2c0-0.4-0.1-0.7-0.4-0.9s-0.6-0.3-1-0.5
				c-0.4-0.1-0.9-0.3-1.5-0.4c-0.7-0.2-1.3-0.4-1.8-0.7c-0.5-0.2-0.9-0.5-1.1-0.9c-0.3-0.4-0.4-0.8-0.4-1.3c0-0.7,0.2-1.2,0.5-1.7
				c0.3-0.5,0.8-0.8,1.4-1s1.3-0.4,2.1-0.4s1.5,0.1,2.1,0.4c0.6,0.2,1.2,0.6,1.6,1.1l-0.8,1.2c-0.4-0.4-0.9-0.7-1.4-0.9
				c-0.5-0.2-1-0.3-1.7-0.3c-0.4,0-0.7,0-1.1,0.1s-0.6,0.2-0.9,0.5c-0.2,0.2-0.3,0.5-0.3,0.9c0,0.3,0.1,0.6,0.3,0.8
				c0.2,0.2,0.4,0.4,0.8,0.5c0.4,0.1,0.8,0.3,1.3,0.4c0.8,0.2,1.5,0.4,2,0.7s1,0.5,1.4,0.9c0.3,0.4,0.5,0.9,0.5,1.5
				c0,1-0.4,1.7-1.1,2.3S168.5,55.2,167.3,55.2z"/>
			<path class="st4" d="M173.5,42.6v-2.2h1.8v2.2H173.5z M173.5,55V44.6h1.8V55H173.5z"/>
			<path class="st4" d="M182.2,55.2c-0.7,0-1.4-0.1-2-0.4c-0.6-0.3-1.1-0.7-1.5-1.2s-0.8-1.1-1-1.7s-0.3-1.3-0.3-2
				c0-0.7,0.1-1.4,0.3-2.1s0.6-1.2,1-1.7c0.4-0.5,0.9-0.9,1.5-1.2c0.6-0.3,1.2-0.4,2-0.4c0.9,0,1.6,0.2,2.3,0.6
				c0.6,0.4,1.2,1,1.6,1.6v-2.1h1.6v10.3c0,1-0.2,1.8-0.7,2.5c-0.5,0.7-1.1,1.2-1.9,1.5c-0.8,0.4-1.7,0.5-2.7,0.5
				c-1.2,0-2.1-0.2-2.9-0.6c-0.7-0.4-1.4-1-1.9-1.7l1-0.9c0.4,0.6,1,1.1,1.6,1.4s1.4,0.5,2.1,0.5c0.6,0,1.2-0.1,1.8-0.3
				c0.5-0.2,1-0.6,1.3-1s0.5-1.1,0.5-1.8v-1.8c-0.4,0.6-0.9,1.1-1.6,1.5C183.7,55,183,55.2,182.2,55.2z M182.8,53.8
				c0.4,0,0.7-0.1,1.1-0.2c0.3-0.1,0.7-0.3,1-0.5c0.3-0.2,0.5-0.5,0.7-0.8c0.2-0.3,0.3-0.6,0.4-0.9v-3c-0.2-0.5-0.5-0.9-0.8-1.3
				c-0.3-0.4-0.7-0.7-1.2-0.9c-0.4-0.2-0.9-0.3-1.4-0.3c-0.5,0-1,0.1-1.4,0.3c-0.4,0.2-0.8,0.5-1.1,0.9c-0.3,0.4-0.5,0.8-0.7,1.3
				c-0.2,0.5-0.2,0.9-0.2,1.4c0,0.5,0.1,1,0.3,1.5s0.4,0.9,0.8,1.2c0.3,0.4,0.7,0.6,1.1,0.8S182.3,53.8,182.8,53.8z"/>
			<path class="st4" d="M199.6,55h-1.8v-5.8c0-1.1-0.2-1.9-0.5-2.4s-0.9-0.8-1.5-0.8c-0.5,0-1,0.1-1.4,0.4c-0.5,0.2-0.9,0.6-1.3,1
				c-0.4,0.4-0.6,0.9-0.8,1.4V55h-1.8V44.6h1.6v2.2c0.3-0.5,0.6-0.9,1.1-1.3c0.4-0.4,0.9-0.6,1.5-0.8c0.6-0.2,1.1-0.3,1.8-0.3
				c0.6,0,1.1,0.1,1.5,0.3c0.4,0.2,0.7,0.5,1,0.9c0.2,0.4,0.4,0.9,0.5,1.4c0.1,0.5,0.2,1.1,0.2,1.7V55z"/>
		</g>
		<g id="a64381bba86ea7e316adadb5f158c5f8" transform="translate(11.306 68.274)">
			<g id="Group_255" transform="translate(55.89 10.007)">
				<path id="Path_301" class="st4" d="M33.9,0.4c-2.7,0.8-4.8,2.9-5.5,5.6c-0.2,0.9-0.3,9.8-0.3,26.8c0,25.2,0,25.5,0.5,26
					c0.4,0.5,1.1,0.6,1.7,0.3c0.9-0.6,0.9-1.3,0.9-19.8V20.8h62.3v18.8c0,18.4,0,18.9,0.5,19.3c0.6,0.5,1.5,0.4,1.9-0.2
					c0.1-0.1,0.1-0.1,0.1-0.2c0.2-0.3,0.3-8.8,0.2-26.6C96.2,5.8,96.2,5.8,95.7,4.6c-0.9-1.7-2.2-3.1-3.9-3.9l-1.3-0.6L62.9,0
					C39.4,0,35.1,0,33.9,0.4z M91.6,3.7c0.5,0.4,0.9,0.9,1.3,1.4c0.5,0.8,0.5,1.4,0.5,6.7v5.9l-31.1,0.1l-31.1,0.1l0.1-6.2
					c0.1-5.9,0.1-6.2,0.7-7c1.3-1.8-0.7-1.7,30.6-1.6l28.3,0.1L91.6,3.7z"/>
				<path id="Path_302" class="st4" d="M55.3,9.4c-0.4,0.7-0.4,1.5,0.2,2.1c0.4,0.4,1.3,0.4,6.9,0.4c5.9,0,6.4-0.1,6.8-0.5
					c0.5-0.6,0.6-1.4,0.1-2.1C68.8,8.9,55.7,8.9,55.3,9.4z"/>
				<path id="Path_303" class="st4" d="M0.5,15.3C0,15.8,0,15.9,0,65.1c0,44.2,0.1,49.4,0.4,49.9l0.4,0.6h9.5c9.1,0,9.5,0,10-0.5
					s0.5-0.9,0.5-14.1V87.5h4.6c5.1,0,5.6-0.1,5.6-1.4c0-1.4-0.2-1.5-5.4-1.5h-4.8V69.7h4.5c5,0,5.7-0.2,5.7-1.6s-0.6-1.6-5.7-1.6
					h-4.5l-0.1-25.5c-0.1-20.5-0.2-25.6-0.4-25.8s-2.5-0.4-9.8-0.4C1.3,14.8,1,14.8,0.5,15.3z M17.7,65.3v47.4l-7.3-0.1L3,112.6
					l-0.1-5.1l-0.1-5.2h3.9c1.4,0,2.9,0,4.3-0.2c0.7-0.4,1-1.3,0.6-2c0,0,0-0.1,0-0.1c-0.4-0.6-0.5-0.6-4.5-0.7L3,99.3v-8.9l4.1-0.1
					c4-0.1,4.1-0.1,4.5-0.7c0.4-0.7,0.2-1.6-0.4-2c0,0-0.1,0-0.1,0c-1.4-0.1-2.9-0.2-4.3-0.2H2.9v-8.9h4c1.4,0,2.8,0,4.2-0.2
					c0.2-0.2,0.5-0.5,0.6-0.8c0.3-0.4,0.2-0.9-0.1-1.2c-0.4-0.6-0.5-0.7-4.5-0.7L3,75.6v-8.9l4.1-0.1c4-0.1,4.1-0.1,4.5-0.7
					c0.4-0.7,0.2-1.6-0.4-2c0,0-0.1,0-0.1,0c-1.4-0.1-2.9-0.2-4.3-0.2H2.9v-8.9h4c1.4,0,2.8,0,4.2-0.2c0.2-0.2,0.5-0.5,0.6-0.8
					c0.3-0.4,0.2-0.9-0.1-1.2c-0.4-0.6-0.5-0.7-4.5-0.7L3,51.9v-8.9L7.1,43c4.4-0.1,4.7-0.2,4.7-1.5c0-1.2-0.6-1.4-4.9-1.4h-4v-8.9
					h4c1.4,0,2.8,0,4.2-0.2c0.2-0.2,0.5-0.5,0.6-0.8c0.3-0.4,0.2-0.9-0.1-1.2c-0.4-0.6-0.5-0.7-4.5-0.7L3,28.2l-0.1-5.2l-0.1-5.1
					h14.8V65.3L17.7,65.3z"/>
				<path id="Path_304" class="st4" d="M108.7,18.2c-0.1,0.2-1.3,3.2-2.6,6.6l-2.4,6.3v35.5h-4.5c-5,0-5.7,0.2-5.7,1.6
					s0.6,1.6,5.7,1.6h4.5v14.8h-4.8c-5.1,0-5.4,0.1-5.4,1.3c0,1.4,0.4,1.5,5.5,1.5h4.7V98c0,9.1,0.1,10.6,0.4,11.1
					c0.4,0.5,0.5,0.6,5.6,0.6c5.2,0,5.2,0,5.6-0.6c0.3-0.5,0.4-5,0.3-39.7l-0.1-39l-2.2-5.8c-1.2-3.2-2.4-6-2.6-6.2
					C110.2,17.8,109.3,17.8,108.7,18.2z M111.2,27.5l0.8,2.2h-4.6l0.9-2.3c0.5-1.3,1-2.6,1.2-3l0.3-0.8l0.3,0.9
					C110.2,24.9,110.8,26.3,111.2,27.5z M112.8,63.8v31h-6v-62h6V63.8z M112.8,102.3v4.4h-6v-8.9h6V102.3z"/>
				<path id="Path_305" class="st4" d="M36.1,25.7c-0.4,0.4-0.4,1.5-0.4,9.2c0,8.1,0,8.8,0.5,9.1c0.4,0.4,2.6,0.4,26.2,0.4
					c23,0,25.7-0.1,26.1-0.4c0.4-0.4,0.4-0.4,0.4-12.3c0-4.9-0.1-5.6-0.4-6c-0.4-0.5-1.4-0.5-26.2-0.5
					C37.7,25.2,36.5,25.2,36.1,25.7z M86,31.8v3.8H38.5v-7.6H86V31.8z M86,40v1.6H38.5v-3.1H86V40z"/>
				<path id="Path_306" class="st4" d="M36.1,49.4c-0.4,0.4-0.4,1.9-0.4,16.6c0,15.3,0,16.2,0.5,16.6C36.6,83,37.4,83,43,83
					c2.3,0.1,4.5,0,6.7-0.3c0.3-0.2,0.4-2.4,0.5-16.3C50.4,52,50.4,50.3,50,49.7L49.6,49L43.1,49C37,48.9,36.5,48.9,36.1,49.4z
					 M47.4,66v14.2h-8.9V51.8h8.9V66z"/>
				<path id="Path_307" class="st4" d="M55.4,49.4C55,49.8,55,51.4,55,66c0,14.7,0,16.1,0.4,16.6C55.8,83,56.6,83,71.9,83
					c15.2,0,16.1,0,16.5-0.5s0.4-2,0.5-16.6c0-14.8,0-16.1-0.4-16.6c-0.4-0.5-1.1-0.5-16.5-0.5C56.7,48.9,55.8,48.9,55.4,49.4z
					 M86,56.9c0,1.7,0,3.4-0.1,5.1c-0.1,0-1.3-0.9-2.8-2.1c-0.9-0.8-1.9-1.5-3-2.1c-1.1,0.8-2.2,1.6-3.1,2.7c-3,2.9-3.3,3.7-2.1,4.5
					c0.9,0.6,1.3,0.3,3.5-1.8c1.4-1.4,2-1.8,2.2-1.6c0.2,0.1,1.5,1.2,2.9,2.3l2.5,2.1v14.2H57.8V74l4.4-3.8c2.4-2.1,4.6-3.9,4.9-4.1
					c0.5-0.3,0.8-0.2,4.4,2.6c5,3.9,5.2,4,6,3.8c0.7-0.2,1.2-1,1-1.8c-0.1-0.4-9-7.5-10.3-8.2c-0.9-0.5-1.1-0.3-5.6,3.6
					c-2.1,1.8-4,3.4-4.2,3.6c-0.4,0.3-0.4-0.1-0.4-8.8v-9.1H86L86,56.9L86,56.9z"/>
				<path id="Path_308" class="st4" d="M36.1,87.9c-0.4,0.4-0.4,1.3-0.4,7c0,6,0,6.5,0.5,6.9s2,0.4,16.5,0.4c15,0,16,0,16.4-0.5
					c0.3-0.4,0.4-1.4,0.4-6.7c0.1-7.6,0.1-6.8-0.4-7.3c-0.4-0.4-2.2-0.4-16.5-0.4C37.4,87.5,36.5,87.5,36.1,87.9z M66.7,94.9v4.6
					H38.5v-9.1h28.1V94.9z"/>
				<path id="Path_309" class="st4" d="M74.7,87.9c-0.4,0.4-0.4,1.3-0.4,7c0,6,0,6.5,0.5,6.9c0.4,0.4,1.3,0.4,6.9,0.4
					c5.8,0,6.4-0.1,6.8-0.5c0.3-0.4,0.4-1.4,0.4-6.7c0.1-7.6,0.1-6.8-0.4-7.3c-0.3-0.4-1.3-0.4-6.9-0.4
					C75.6,87.5,75.1,87.5,74.7,87.9z M86,94.9v4.6h-8.9v-9.1H86V94.9z"/>
				<path id="Path_310" class="st4" d="M28.7,102.8c-0.5,0.5-0.5,0.9-0.5,9.2c0,9.5,0.1,10.2,1.5,12.2c0.5,0.7,1.1,1.3,1.8,1.8
					c2.2,1.6,1.4,1.6,31.6,1.5l27.5-0.1l1.3-0.7c0.8-0.4,1.6-1,2.3-1.6c0.6-0.7,1.2-1.4,1.6-2.2c0.5-1.1,0.5-1.6,0.6-10.3
					c0.1-7.9,0-9.1-0.3-9.7c-0.4-0.6-1.2-0.8-1.9-0.4c0,0-0.1,0-0.1,0.1c-0.4,0.2-0.5,0.6-0.5,2.2v2H31.3l-0.1-1.8
					c-0.1-1.4-0.2-1.9-0.6-2.2C30,102.2,29.2,102.2,28.7,102.8C28.7,102.8,28.7,102.8,28.7,102.8z M93.4,115.6
					c0,6.5-0.1,6.9-1.7,8.1l-0.9,0.6l-28.2,0.1c-31.3,0.1-29.3,0.2-30.6-1.6c-0.5-0.8-0.6-1.1-0.7-7l-0.1-6.2l31.1,0.1l31.1,0.1
					L93.4,115.6L93.4,115.6z"/>
			</g>
		</g>
		<g class="st3">
			<path class="st4" d="M23.3,232.7v1.3h-5.7v-1.3h2.3v-6.2c-0.1,0.1-0.2,0.3-0.4,0.4c-0.2,0.1-0.4,0.3-0.7,0.4s-0.5,0.2-0.8,0.3
				s-0.5,0.1-0.7,0.1v-1.3c0.2,0,0.5-0.1,0.8-0.2c0.3-0.1,0.6-0.3,0.8-0.5s0.5-0.4,0.7-0.5c0.2-0.2,0.3-0.3,0.3-0.3h1.4v7.9H23.3z"
				/>
			<path class="st4" d="M32.7,229.4c0,0.9-0.2,1.7-0.5,2.5s-0.8,1.3-1.4,1.7c-0.6,0.4-1.3,0.6-2.1,0.6c-0.8,0-1.5-0.2-2.1-0.6
				c-0.6-0.4-1.1-1-1.4-1.7s-0.5-1.5-0.5-2.5s0.2-1.7,0.5-2.5s0.8-1.3,1.4-1.7s1.3-0.6,2.1-0.6c0.8,0,1.5,0.2,2.1,0.6
				c0.6,0.4,1.1,1,1.4,1.7S32.7,228.5,32.7,229.4z M31.3,229.4c0-0.7-0.1-1.3-0.3-1.8c-0.2-0.5-0.5-0.9-0.9-1.2
				c-0.4-0.3-0.8-0.4-1.4-0.4c-0.5,0-1,0.1-1.4,0.4c-0.4,0.3-0.7,0.7-0.9,1.2s-0.3,1.1-0.3,1.8c0,0.7,0.1,1.3,0.3,1.8
				c0.2,0.5,0.5,0.9,0.9,1.2c0.4,0.3,0.9,0.4,1.4,0.4c0.5,0,1-0.1,1.4-0.4c0.4-0.3,0.7-0.7,0.9-1.2
				C31.2,230.7,31.3,230.1,31.3,229.4z"/>
			<path class="st4" d="M42.5,229.4c0,0.9-0.2,1.7-0.5,2.5s-0.8,1.3-1.4,1.7c-0.6,0.4-1.3,0.6-2.1,0.6c-0.8,0-1.5-0.2-2.1-0.6
				c-0.6-0.4-1.1-1-1.4-1.7s-0.5-1.5-0.5-2.5s0.2-1.7,0.5-2.5s0.8-1.3,1.4-1.7s1.3-0.6,2.1-0.6c0.8,0,1.5,0.2,2.1,0.6
				c0.6,0.4,1.1,1,1.4,1.7S42.5,228.5,42.5,229.4z M41.1,229.4c0-0.7-0.1-1.3-0.3-1.8c-0.2-0.5-0.5-0.9-0.9-1.2
				c-0.4-0.3-0.8-0.4-1.4-0.4c-0.5,0-1,0.1-1.4,0.4c-0.4,0.3-0.7,0.7-0.9,1.2s-0.3,1.1-0.3,1.8c0,0.7,0.1,1.3,0.3,1.8
				c0.2,0.5,0.5,0.9,0.9,1.2c0.4,0.3,0.9,0.4,1.4,0.4c0.5,0,1-0.1,1.4-0.4c0.4-0.3,0.7-0.7,0.9-1.2C41,230.7,41.1,230.1,41.1,229.4z
				"/>
			<path class="st4" d="M46.4,227.2c-0.4,0-0.9-0.1-1.2-0.3c-0.4-0.2-0.7-0.5-0.9-0.8c-0.2-0.4-0.3-0.8-0.3-1.2
				c0-0.4,0.1-0.8,0.3-1.2c0.2-0.4,0.5-0.6,0.9-0.8c0.4-0.2,0.8-0.3,1.2-0.3c0.5,0,0.9,0.1,1.2,0.3c0.4,0.2,0.7,0.5,0.9,0.8
				c0.2,0.4,0.3,0.7,0.3,1.2c0,0.4-0.1,0.8-0.3,1.2s-0.5,0.6-0.9,0.8C47.3,227.1,46.9,227.2,46.4,227.2z M44.5,233.4l4.5-5.3
				l4.3-5.4l0.7,0.6l-4.4,5.3l-4.4,5.5L44.5,233.4z M46.4,226.5c0.3,0,0.5-0.1,0.7-0.2c0.2-0.1,0.4-0.3,0.5-0.6
				c0.1-0.2,0.2-0.5,0.2-0.8c0-0.3-0.1-0.6-0.2-0.8c-0.1-0.2-0.3-0.4-0.5-0.6c-0.2-0.1-0.5-0.2-0.7-0.2c-0.3,0-0.5,0.1-0.7,0.2
				c-0.2,0.1-0.4,0.3-0.5,0.6s-0.2,0.5-0.2,0.8c0,0.3,0.1,0.5,0.2,0.8c0.1,0.2,0.3,0.4,0.5,0.6C45.9,226.4,46.2,226.5,46.4,226.5z
				 M52,234.1c-0.5,0-0.9-0.1-1.2-0.3c-0.4-0.2-0.7-0.5-0.9-0.8s-0.3-0.7-0.3-1.2c0-0.4,0.1-0.8,0.3-1.2c0.2-0.4,0.5-0.6,0.9-0.8
				c0.4-0.2,0.8-0.3,1.2-0.3s0.9,0.1,1.2,0.3s0.7,0.5,0.9,0.8c0.2,0.4,0.3,0.7,0.3,1.2c0,0.4-0.1,0.8-0.3,1.2
				c-0.2,0.4-0.5,0.6-0.9,0.8S52.5,234.1,52,234.1z M52,233.3c0.3,0,0.5-0.1,0.7-0.2c0.2-0.1,0.4-0.3,0.5-0.6
				c0.1-0.2,0.2-0.5,0.2-0.8c0-0.3-0.1-0.6-0.2-0.8c-0.1-0.2-0.3-0.4-0.5-0.6s-0.5-0.2-0.7-0.2c-0.3,0-0.5,0.1-0.7,0.2
				c-0.2,0.1-0.4,0.3-0.5,0.6s-0.2,0.5-0.2,0.8c0,0.3,0.1,0.5,0.2,0.8c0.1,0.2,0.3,0.4,0.5,0.6C51.6,233.2,51.8,233.3,52,233.3z"/>
			<path class="st4" d="M59.3,232.2c0.2,0.1,0.5,0.3,0.8,0.4c0.4,0.1,0.8,0.2,1.3,0.2c0.5,0,0.9-0.1,1.2-0.2
				c0.3-0.2,0.6-0.4,0.7-0.7c0.2-0.3,0.3-0.8,0.4-1.3s0.1-1.1,0.1-1.8v-6h1.4v5.7c0,0.8,0,1.6-0.1,2.3s-0.3,1.3-0.5,1.8
				c-0.3,0.5-0.6,0.9-1.1,1.2c-0.5,0.3-1.2,0.4-2,0.4c-0.5,0-1-0.1-1.4-0.2s-0.8-0.3-1.1-0.5L59.3,232.2z"/>
			<path class="st4" d="M71.1,234.2c-0.6,0-1.2-0.1-1.7-0.3c-0.5-0.2-1-0.5-1.3-0.9c-0.4-0.4-0.7-0.9-0.9-1.4s-0.3-1.1-0.3-1.6
				c0-0.6,0.1-1.1,0.3-1.7c0.2-0.5,0.5-1,0.9-1.4c0.4-0.4,0.8-0.7,1.3-0.9c0.5-0.2,1.1-0.3,1.7-0.3c0.6,0,1.2,0.1,1.7,0.3
				c0.5,0.2,1,0.5,1.3,0.9c0.4,0.4,0.7,0.9,0.9,1.4c0.2,0.5,0.3,1.1,0.3,1.7c0,0.6-0.1,1.1-0.3,1.6s-0.5,1-0.9,1.4
				c-0.4,0.4-0.8,0.7-1.3,0.9S71.7,234.2,71.1,234.2z M68.4,229.9c0,0.6,0.1,1.1,0.4,1.6c0.3,0.5,0.6,0.8,1,1.1
				c0.4,0.3,0.9,0.4,1.4,0.4c0.5,0,1-0.1,1.4-0.4s0.8-0.6,1-1.1s0.4-1,0.4-1.6c0-0.6-0.1-1.1-0.4-1.6c-0.3-0.5-0.6-0.8-1-1.1
				c-0.4-0.3-0.9-0.4-1.4-0.4c-0.5,0-1,0.1-1.4,0.4c-0.4,0.3-0.7,0.7-1,1.1C68.5,228.8,68.4,229.3,68.4,229.9z"/>
			<path class="st4" d="M81.3,234.2c-0.7,0-1.2-0.2-1.8-0.5c-0.5-0.3-1-0.7-1.3-1.2v1.6h-1.2v-11.7h1.4v5.1c0.4-0.5,0.8-1,1.3-1.3
				c0.5-0.3,1.1-0.5,1.8-0.5c0.6,0,1.1,0.1,1.6,0.4c0.5,0.2,0.9,0.6,1.2,1c0.3,0.4,0.6,0.9,0.8,1.4c0.2,0.5,0.3,1.1,0.3,1.6
				c0,0.6-0.1,1.1-0.3,1.6c-0.2,0.5-0.5,1-0.8,1.4c-0.4,0.4-0.8,0.7-1.3,0.9C82.4,234,81.9,234.2,81.3,234.2z M81,232.9
				c0.4,0,0.8-0.1,1.2-0.3s0.7-0.4,0.9-0.7c0.3-0.3,0.5-0.6,0.6-1c0.1-0.4,0.2-0.8,0.2-1.1c0-0.5-0.1-1-0.3-1.5
				c-0.2-0.5-0.5-0.9-1-1.1s-0.9-0.4-1.4-0.4c-0.4,0-0.8,0.1-1.1,0.3c-0.3,0.2-0.6,0.4-0.9,0.7s-0.5,0.6-0.6,1v2.4
				c0.1,0.3,0.2,0.5,0.3,0.7s0.4,0.4,0.6,0.6c0.2,0.2,0.5,0.3,0.8,0.4C80.5,232.9,80.7,232.9,81,232.9z"/>
			<path class="st4" d="M95.9,234.1c-0.7,0-1.4-0.2-2.1-0.5c-0.6-0.3-1.2-0.8-1.7-1.3c-0.5-0.5-0.9-1.2-1.1-1.9
				c-0.3-0.7-0.4-1.4-0.4-2.1c0-0.8,0.1-1.5,0.4-2.2c0.3-0.7,0.6-1.3,1.1-1.8c0.5-0.5,1-1,1.7-1.3c0.6-0.3,1.3-0.5,2.1-0.5
				c1.1,0,2,0.2,2.7,0.7c0.7,0.5,1.3,1.1,1.6,1.8l-1.1,0.8c-0.3-0.7-0.8-1.2-1.4-1.5s-1.2-0.5-1.9-0.5c-0.6,0-1.1,0.1-1.6,0.4
				c-0.5,0.2-0.9,0.6-1.2,1c-0.3,0.4-0.6,0.9-0.8,1.4c-0.2,0.5-0.3,1.1-0.3,1.7c0,0.6,0.1,1.2,0.3,1.7c0.2,0.5,0.5,1,0.8,1.4
				c0.4,0.4,0.8,0.7,1.3,1c0.5,0.2,1,0.4,1.6,0.4c0.7,0,1.3-0.2,1.9-0.5c0.6-0.3,1.1-0.8,1.7-1.5v1.5
				C98.5,233.5,97.3,234.1,95.9,234.1z M99.3,229.4h-2.4v-1.1h3.7v5.7h-1.2V229.4z"/>
			<path class="st4" d="M102.4,230.7v-5h1.4v4.7c0,0.8,0.1,1.5,0.4,1.9c0.3,0.4,0.7,0.6,1.3,0.6c0.4,0,0.8-0.1,1.1-0.2
				s0.7-0.4,1-0.7c0.3-0.3,0.5-0.7,0.7-1.1v-5.2h1.4v6.7c0,0.2,0,0.3,0.1,0.4c0.1,0.1,0.2,0.1,0.3,0.1v1.1c-0.2,0-0.3,0-0.4,0
				c-0.1,0-0.2,0-0.3,0c-0.3,0-0.5-0.1-0.7-0.2c-0.2-0.2-0.3-0.4-0.3-0.6l0-1c-0.4,0.6-0.9,1.1-1.5,1.4c-0.6,0.3-1.3,0.5-2,0.5
				c-0.9,0-1.5-0.3-2-0.9C102.6,232.7,102.4,231.8,102.4,230.7z"/>
			<path class="st4" d="M111.5,231.6c0-0.5,0.2-1,0.5-1.4s0.7-0.7,1.3-0.9s1.2-0.3,1.9-0.3c0.4,0,0.8,0,1.2,0.1s0.8,0.1,1.1,0.3
				v-0.6c0-0.6-0.2-1.1-0.6-1.5c-0.4-0.4-0.9-0.5-1.6-0.5c-0.5,0-0.9,0.1-1.3,0.2c-0.4,0.2-0.9,0.4-1.3,0.7l-0.5-1
				c0.5-0.4,1.1-0.7,1.6-0.8c0.5-0.2,1.1-0.3,1.7-0.3c1.1,0,1.9,0.3,2.5,0.9s0.9,1.4,0.9,2.5v3.5c0,0.2,0,0.3,0.1,0.4
				c0.1,0.1,0.2,0.1,0.3,0.1v1.1c-0.1,0-0.3,0-0.4,0c-0.1,0-0.2,0-0.2,0c-0.3,0-0.6-0.1-0.7-0.3s-0.3-0.4-0.3-0.6l0-0.5
				c-0.4,0.5-0.8,0.8-1.4,1.1c-0.6,0.3-1.2,0.4-1.7,0.4c-0.6,0-1.1-0.1-1.5-0.3c-0.4-0.2-0.8-0.5-1-0.9
				C111.6,232.5,111.5,232.1,111.5,231.6z M116.9,232.2c0.1-0.1,0.2-0.3,0.3-0.5c0.1-0.2,0.1-0.3,0.1-0.4v-1c-0.3-0.1-0.7-0.2-1-0.3
				c-0.4-0.1-0.7-0.1-1.1-0.1c-0.7,0-1.3,0.1-1.7,0.4c-0.4,0.3-0.7,0.7-0.7,1.1c0,0.3,0.1,0.5,0.2,0.8s0.4,0.5,0.6,0.6
				c0.3,0.2,0.6,0.2,1,0.2c0.4,0,0.9-0.1,1.2-0.3C116.3,232.7,116.7,232.4,116.9,232.2z"/>
			<path class="st4" d="M125.4,226.9c-0.7,0-1.3,0.2-1.9,0.5s-0.9,0.8-1.1,1.4v5.2H121v-8.3h1.3v1.9c0.3-0.6,0.7-1,1.1-1.4
				c0.5-0.4,1-0.6,1.5-0.6c0.1,0,0.2,0,0.3,0s0.1,0,0.2,0V226.9z"/>
			<path class="st4" d="M126.1,231.6c0-0.5,0.2-1,0.5-1.4c0.3-0.4,0.7-0.7,1.3-0.9s1.2-0.3,1.9-0.3c0.4,0,0.8,0,1.2,0.1
				s0.8,0.1,1.1,0.3v-0.6c0-0.6-0.2-1.1-0.6-1.5c-0.4-0.4-0.9-0.5-1.6-0.5c-0.5,0-0.9,0.1-1.3,0.2c-0.4,0.2-0.9,0.4-1.3,0.7l-0.5-1
				c0.5-0.4,1.1-0.7,1.6-0.8c0.5-0.2,1.1-0.3,1.7-0.3c1.1,0,1.9,0.3,2.5,0.9c0.6,0.6,0.9,1.4,0.9,2.5v3.5c0,0.2,0,0.3,0.1,0.4
				c0.1,0.1,0.2,0.1,0.3,0.1v1.1c-0.1,0-0.3,0-0.4,0s-0.2,0-0.2,0c-0.3,0-0.6-0.1-0.7-0.3c-0.2-0.2-0.3-0.4-0.3-0.6l0-0.5
				c-0.4,0.5-0.8,0.8-1.4,1.1c-0.6,0.3-1.2,0.4-1.7,0.4c-0.6,0-1.1-0.1-1.5-0.3c-0.4-0.2-0.8-0.5-1-0.9
				C126.2,232.5,126.1,232.1,126.1,231.6z M131.6,232.2c0.1-0.1,0.2-0.3,0.3-0.5c0.1-0.2,0.1-0.3,0.1-0.4v-1c-0.3-0.1-0.7-0.2-1-0.3
				c-0.4-0.1-0.7-0.1-1.1-0.1c-0.7,0-1.3,0.1-1.7,0.4s-0.7,0.7-0.7,1.1c0,0.3,0.1,0.5,0.2,0.8c0.1,0.2,0.4,0.5,0.6,0.6
				c0.3,0.2,0.6,0.2,1,0.2c0.4,0,0.9-0.1,1.2-0.3C131,232.7,131.3,232.4,131.6,232.2z"/>
			<path class="st4" d="M142.9,234h-1.4v-4.6c0-0.9-0.1-1.5-0.4-1.9c-0.3-0.4-0.7-0.6-1.2-0.6c-0.4,0-0.8,0.1-1.1,0.3
				c-0.4,0.2-0.7,0.4-1,0.8c-0.3,0.3-0.5,0.7-0.6,1.1v5h-1.4v-8.3h1.3v1.8c0.2-0.4,0.5-0.7,0.9-1c0.4-0.3,0.8-0.5,1.2-0.7
				c0.4-0.2,0.9-0.2,1.4-0.2c0.5,0,0.9,0.1,1.2,0.3s0.6,0.4,0.8,0.7s0.3,0.7,0.4,1.1c0.1,0.4,0.1,0.9,0.1,1.4V234z"/>
			<path class="st4" d="M149.3,233.6c-0.1,0.1-0.3,0.1-0.5,0.2c-0.2,0.1-0.4,0.2-0.7,0.2c-0.3,0.1-0.5,0.1-0.8,0.1
				c-0.3,0-0.7-0.1-0.9-0.2c-0.3-0.1-0.5-0.3-0.7-0.6c-0.2-0.3-0.3-0.6-0.3-1v-5.6h-1.1v-1.1h1.1v-2.8h1.4v2.8h1.9v1.1h-1.9v5.2
				c0,0.3,0.1,0.5,0.3,0.7c0.2,0.1,0.4,0.2,0.6,0.2c0.3,0,0.5,0,0.8-0.1c0.2-0.1,0.4-0.2,0.5-0.2L149.3,233.6z"/>
			<path class="st4" d="M154.2,234.2c-0.6,0-1.2-0.1-1.7-0.3c-0.5-0.2-1-0.5-1.3-0.9c-0.4-0.4-0.7-0.9-0.9-1.4s-0.3-1.1-0.3-1.7
				c0-0.8,0.2-1.5,0.5-2.1c0.4-0.6,0.9-1.2,1.5-1.6c0.6-0.4,1.4-0.6,2.2-0.6c0.8,0,1.6,0.2,2.2,0.6s1.1,0.9,1.5,1.6
				c0.3,0.6,0.5,1.3,0.5,2.1c0,0.1,0,0.2,0,0.3c0,0.1,0,0.2,0,0.2h-6.9c0,0.5,0.2,1,0.5,1.4c0.3,0.4,0.6,0.7,1,1s0.9,0.4,1.3,0.4
				c0.5,0,1-0.1,1.4-0.4c0.5-0.3,0.8-0.6,0.9-1l1.2,0.3c-0.2,0.4-0.5,0.8-0.8,1.1c-0.4,0.3-0.8,0.6-1.3,0.8
				C155.3,234.1,154.8,234.2,154.2,234.2z M151.4,229.4h5.7c0-0.5-0.2-1-0.5-1.4s-0.6-0.7-1-1c-0.4-0.2-0.9-0.3-1.4-0.3
				c-0.5,0-0.9,0.1-1.4,0.3c-0.4,0.2-0.8,0.6-1,1S151.4,228.8,151.4,229.4z"/>
			<path class="st4" d="M163.7,234.2c-0.6,0-1.2-0.1-1.7-0.3c-0.5-0.2-1-0.5-1.3-0.9c-0.4-0.4-0.7-0.9-0.9-1.4s-0.3-1.1-0.3-1.7
				c0-0.8,0.2-1.5,0.5-2.1c0.4-0.6,0.9-1.2,1.5-1.6c0.6-0.4,1.4-0.6,2.2-0.6c0.8,0,1.6,0.2,2.2,0.6s1.1,0.9,1.5,1.6
				c0.3,0.6,0.5,1.3,0.5,2.1c0,0.1,0,0.2,0,0.3c0,0.1,0,0.2,0,0.2h-6.9c0,0.5,0.2,1,0.5,1.4c0.3,0.4,0.6,0.7,1,1s0.9,0.4,1.3,0.4
				c0.5,0,1-0.1,1.4-0.4c0.5-0.3,0.8-0.6,0.9-1l1.2,0.3c-0.2,0.4-0.5,0.8-0.8,1.1c-0.4,0.3-0.8,0.6-1.3,0.8
				C164.8,234.1,164.2,234.2,163.7,234.2z M160.9,229.4h5.7c0-0.5-0.2-1-0.5-1.4s-0.6-0.7-1-1c-0.4-0.2-0.9-0.3-1.4-0.3
				c-0.5,0-0.9,0.1-1.4,0.3c-0.4,0.2-0.8,0.6-1,1S160.9,228.8,160.9,229.4z"/>
			<path class="st4" d="M168.9,229.9c0-0.8,0.2-1.5,0.5-2.2c0.3-0.7,0.8-1.2,1.3-1.6c0.6-0.4,1.2-0.6,2-0.6c0.7,0,1.3,0.2,1.8,0.5
				c0.5,0.4,0.9,0.8,1.2,1.3v-5.1h1.4v10.1c0,0.2,0,0.3,0.1,0.4c0.1,0.1,0.2,0.1,0.3,0.1v1.1c-0.3,0-0.5,0.1-0.6,0.1
				c-0.3,0-0.5-0.1-0.7-0.3c-0.2-0.2-0.3-0.4-0.3-0.6v-0.7c-0.3,0.5-0.8,1-1.3,1.3c-0.6,0.3-1.1,0.5-1.7,0.5c-0.6,0-1.1-0.1-1.6-0.3
				s-0.9-0.5-1.3-0.9c-0.4-0.4-0.6-0.9-0.8-1.4S168.9,230.4,168.9,229.9z M175.7,231.1v-2.4c-0.1-0.4-0.3-0.7-0.6-1s-0.6-0.5-1-0.7
				c-0.4-0.2-0.7-0.3-1.1-0.3c-0.4,0-0.8,0.1-1.1,0.3c-0.3,0.2-0.6,0.4-0.9,0.7s-0.4,0.6-0.6,1c-0.1,0.4-0.2,0.8-0.2,1.2
				c0,0.4,0.1,0.8,0.2,1.2c0.1,0.4,0.3,0.7,0.6,1c0.3,0.3,0.6,0.5,0.9,0.7c0.3,0.2,0.7,0.2,1.1,0.2c0.3,0,0.5,0,0.8-0.1
				c0.3-0.1,0.5-0.2,0.8-0.4c0.2-0.2,0.5-0.4,0.6-0.6C175.6,231.6,175.7,231.3,175.7,231.1z"/>
			<path class="st4" d="M187.2,234.2c-0.6,0-1.2-0.1-1.7-0.3c-0.5-0.2-1-0.5-1.3-0.9c-0.4-0.4-0.7-0.9-0.9-1.4s-0.3-1.1-0.3-1.7
				c0-0.8,0.2-1.5,0.5-2.1c0.4-0.6,0.8-1.2,1.5-1.5c0.6-0.4,1.4-0.6,2.2-0.6c0.8,0,1.5,0.2,2.2,0.6s1.1,0.9,1.4,1.5l-1.4,0.4
				c-0.2-0.4-0.5-0.7-0.9-0.9c-0.4-0.2-0.8-0.3-1.3-0.3c-0.5,0-1,0.1-1.4,0.4c-0.4,0.3-0.8,0.6-1,1.1s-0.4,1-0.4,1.6
				c0,0.6,0.1,1.1,0.4,1.6s0.6,0.8,1,1.1c0.4,0.3,0.9,0.4,1.4,0.4c0.3,0,0.6-0.1,1-0.2c0.3-0.1,0.6-0.3,0.8-0.5s0.4-0.4,0.5-0.6
				l1.4,0.4c-0.2,0.4-0.4,0.8-0.8,1.1c-0.3,0.3-0.8,0.6-1.2,0.7C188.3,234.1,187.8,234.2,187.2,234.2z"/>
			<path class="st4" d="M196,234.2c-0.6,0-1.2-0.1-1.7-0.3c-0.5-0.2-1-0.5-1.3-0.9c-0.4-0.4-0.7-0.9-0.9-1.4
				c-0.2-0.5-0.3-1.1-0.3-1.6c0-0.6,0.1-1.1,0.3-1.7c0.2-0.5,0.5-1,0.9-1.4c0.4-0.4,0.8-0.7,1.3-0.9c0.5-0.2,1.1-0.3,1.7-0.3
				c0.6,0,1.2,0.1,1.7,0.3c0.5,0.2,1,0.5,1.3,0.9c0.4,0.4,0.7,0.9,0.9,1.4c0.2,0.5,0.3,1.1,0.3,1.7c0,0.6-0.1,1.1-0.3,1.6
				c-0.2,0.5-0.5,1-0.9,1.4c-0.4,0.4-0.8,0.7-1.3,0.9S196.6,234.2,196,234.2z M193.2,229.9c0,0.6,0.1,1.1,0.4,1.6
				c0.3,0.5,0.6,0.8,1,1.1c0.4,0.3,0.9,0.4,1.4,0.4c0.5,0,1-0.1,1.4-0.4c0.4-0.3,0.8-0.6,1-1.1c0.3-0.5,0.4-1,0.4-1.6
				c0-0.6-0.1-1.1-0.4-1.6c-0.2-0.5-0.6-0.8-1-1.1c-0.4-0.3-0.9-0.4-1.4-0.4c-0.5,0-1,0.1-1.4,0.4c-0.4,0.3-0.7,0.7-1,1.1
				C193.3,228.8,193.2,229.3,193.2,229.9z"/>
			<path class="st4" d="M201.8,230.7v-5h1.4v4.7c0,0.8,0.1,1.5,0.4,1.9c0.3,0.4,0.7,0.6,1.3,0.6c0.4,0,0.8-0.1,1.1-0.2
				s0.7-0.4,1-0.7c0.3-0.3,0.5-0.7,0.7-1.1v-5.2h1.4v6.7c0,0.2,0,0.3,0.1,0.4c0.1,0.1,0.2,0.1,0.3,0.1v1.1c-0.2,0-0.3,0-0.4,0
				c-0.1,0-0.2,0-0.3,0c-0.3,0-0.5-0.1-0.7-0.2c-0.2-0.2-0.3-0.4-0.3-0.6l0-1c-0.4,0.6-0.9,1.1-1.5,1.4c-0.6,0.3-1.3,0.5-2,0.5
				c-0.9,0-1.5-0.3-2-0.9S201.8,231.8,201.8,230.7z"/>
			<path class="st4" d="M216,226.9c-0.7,0-1.3,0.2-1.9,0.5c-0.5,0.3-0.9,0.8-1.1,1.4v5.2h-1.4v-8.3h1.3v1.9c0.3-0.6,0.7-1,1.1-1.4
				c0.5-0.4,1-0.6,1.5-0.6c0.1,0,0.2,0,0.3,0c0.1,0,0.1,0,0.2,0V226.9z"/>
			<path class="st4" d="M220.2,234.2c-0.7,0-1.3-0.1-2-0.3c-0.6-0.2-1.1-0.6-1.6-1l0.5-1c0.5,0.4,1,0.8,1.4,1c0.5,0.2,1,0.3,1.5,0.3
				c0.6,0,1-0.1,1.4-0.3s0.5-0.5,0.5-1c0-0.3-0.1-0.5-0.3-0.7s-0.5-0.3-0.8-0.4c-0.3-0.1-0.7-0.2-1.2-0.3c-0.6-0.2-1.1-0.3-1.5-0.5
				s-0.7-0.4-0.9-0.7c-0.2-0.3-0.3-0.6-0.3-1.1c0-0.5,0.1-1,0.4-1.3c0.3-0.4,0.7-0.6,1.1-0.8c0.5-0.2,1-0.3,1.7-0.3
				c0.6,0,1.2,0.1,1.7,0.3c0.5,0.2,0.9,0.5,1.3,0.8l-0.6,1c-0.3-0.3-0.7-0.6-1.1-0.8c-0.4-0.2-0.8-0.2-1.3-0.2c-0.3,0-0.6,0-0.8,0.1
				c-0.3,0.1-0.5,0.2-0.7,0.4c-0.2,0.2-0.3,0.4-0.3,0.7c0,0.3,0.1,0.5,0.2,0.6c0.1,0.2,0.4,0.3,0.6,0.4c0.3,0.1,0.6,0.2,1,0.3
				c0.6,0.2,1.2,0.4,1.6,0.5s0.8,0.4,1.1,0.7s0.4,0.7,0.4,1.2c0,0.8-0.3,1.4-0.9,1.8C222,233.9,221.2,234.2,220.2,234.2z"/>
			<path class="st4" d="M228.8,234.2c-0.6,0-1.2-0.1-1.7-0.3c-0.5-0.2-1-0.5-1.3-0.9c-0.4-0.4-0.7-0.9-0.9-1.4s-0.3-1.1-0.3-1.7
				c0-0.8,0.2-1.5,0.5-2.1c0.4-0.6,0.9-1.2,1.5-1.6c0.6-0.4,1.4-0.6,2.2-0.6c0.8,0,1.6,0.2,2.2,0.6s1.1,0.9,1.5,1.6
				c0.3,0.6,0.5,1.3,0.5,2.1c0,0.1,0,0.2,0,0.3c0,0.1,0,0.2,0,0.2h-6.9c0,0.5,0.2,1,0.5,1.4c0.3,0.4,0.6,0.7,1,1s0.9,0.4,1.3,0.4
				c0.5,0,1-0.1,1.4-0.4c0.5-0.3,0.8-0.6,0.9-1l1.2,0.3c-0.2,0.4-0.5,0.8-0.8,1.1c-0.4,0.3-0.8,0.6-1.3,0.8
				C229.9,234.1,229.4,234.2,228.8,234.2z M226,229.4h5.7c0-0.5-0.2-1-0.5-1.4s-0.6-0.7-1-1c-0.4-0.2-0.9-0.3-1.4-0.3
				c-0.5,0-0.9,0.1-1.4,0.3c-0.4,0.2-0.8,0.6-1,1S226.1,228.8,226,229.4z"/>
		</g>
	</g>
</g>
</svg>
