<?xml version="1.0" encoding="utf-8"?>
<!-- Generator: Adobe Illustrator 26.0.1, SVG Export Plug-In . SVG Version: 6.00 Build 0)  -->
<svg version="1.1" id="Layer_1" xmlns="http://www.w3.org/2000/svg" xmlns:xlink="http://www.w3.org/1999/xlink" x="0px" y="0px"
	 viewBox="0 0 250 250" style="enable-background:new 0 0 250 250;" xml:space="preserve">
<style type="text/css">
	.st0{clip-path:url(#SVGID_00000118380153303925275900000002095924412020582569_);}
	.st1{fill:#FFFFFF;}
	.st2{fill:#035397;}
	.st3{enable-background:new    ;}
	.st4{fill:#F1F1F1;}
</style>
<g>
	<defs>
		<rect id="SVGID_1_" y="0" width="250" height="250"/>
	</defs>
	<clipPath id="SVGID_00000061451138414621871550000004285988944829560228_">
		<use xlink:href="#SVGID_1_"  style="overflow:visible;"/>
	</clipPath>
	
		<g id="Diploma-in-Automotive-Embedded-System-Design" style="clip-path:url(#SVGID_00000061451138414621871550000004285988944829560228_);">
		<rect y="0" class="st1" width="250" height="250"/>
		<g id="Group_287">
			<path id="Rectangle_1" class="st2" d="M7,0h236c3.9,0,7,3.1,7,7v236c0,3.9-3.1,7-7,7H7c-3.9,0-7-3.1-7-7V7C0,3.1,3.1,0,7,0z"/>
			<g class="st3">
				<path class="st4" d="M74.1,31V16.8H79c1.5,0,2.8,0.3,3.8,1c1,0.6,1.8,1.5,2.3,2.6c0.5,1.1,0.8,2.3,0.8,3.6
					c0,1.4-0.3,2.7-0.8,3.8c-0.6,1.1-1.4,1.9-2.4,2.5S80.4,31,79,31H74.1z M84.1,23.9c0-1.1-0.2-2-0.6-2.8c-0.4-0.8-1-1.5-1.7-1.9
					c-0.7-0.5-1.7-0.7-2.7-0.7h-3.1v11H79c1.1,0,2-0.2,2.8-0.7c0.7-0.5,1.3-1.1,1.7-2C83.9,25.9,84.1,24.9,84.1,23.9z"/>
				<path class="st4" d="M88.2,18.6v-2.2h1.8v2.2H88.2z M88.2,31V20.6h1.8V31H88.2z"/>
				<path class="st4" d="M98.4,31.2c-0.9,0-1.6-0.2-2.3-0.6c-0.7-0.4-1.2-1-1.6-1.6v6.3h-1.8V20.6h1.6v2c0.4-0.6,1-1.1,1.6-1.5
					c0.7-0.4,1.4-0.6,2.2-0.6c0.7,0,1.4,0.1,2,0.4c0.6,0.3,1.1,0.7,1.6,1.2s0.8,1.1,1,1.7c0.2,0.6,0.4,1.3,0.4,2
					c0,1-0.2,1.9-0.6,2.7c-0.4,0.8-0.9,1.5-1.6,2C100.1,31,99.3,31.2,98.4,31.2z M97.8,29.7c0.5,0,1-0.1,1.4-0.3s0.8-0.5,1.1-0.9
					c0.3-0.4,0.5-0.8,0.7-1.2c0.2-0.5,0.2-0.9,0.2-1.4c0-0.5-0.1-1-0.3-1.5c-0.2-0.5-0.4-0.9-0.8-1.2c-0.3-0.4-0.7-0.6-1.1-0.8
					c-0.4-0.2-0.9-0.3-1.4-0.3c-0.3,0-0.6,0.1-1,0.2c-0.3,0.1-0.7,0.3-1,0.5c-0.3,0.2-0.6,0.5-0.8,0.7c-0.2,0.3-0.4,0.6-0.4,0.9v3
					c0.2,0.4,0.5,0.9,0.8,1.2c0.3,0.4,0.7,0.7,1.2,0.9C96.9,29.6,97.4,29.7,97.8,29.7z"/>
				<path class="st4" d="M105.3,16.4h1.8v12c0,0.6,0.1,0.9,0.2,1.1s0.4,0.2,0.6,0.2c0.3,0,0.5,0,0.8-0.1c0.3-0.1,0.5-0.1,0.6-0.2
					l0.3,1.4c-0.3,0.1-0.6,0.2-1,0.3c-0.4,0.1-0.8,0.1-1.1,0.1c-0.7,0-1.2-0.2-1.6-0.6c-0.4-0.4-0.6-0.9-0.6-1.6V16.4z"/>
				<path class="st4" d="M115.5,31.2c-0.8,0-1.5-0.1-2.1-0.4c-0.6-0.3-1.2-0.7-1.7-1.2c-0.5-0.5-0.8-1.1-1.1-1.7
					c-0.3-0.6-0.4-1.3-0.4-2c0-0.7,0.1-1.4,0.4-2.1c0.3-0.6,0.6-1.2,1.1-1.7c0.5-0.5,1-0.9,1.7-1.2c0.6-0.3,1.4-0.4,2.1-0.4
					c0.8,0,1.5,0.1,2.1,0.4c0.6,0.3,1.2,0.7,1.7,1.2c0.5,0.5,0.8,1.1,1.1,1.7s0.4,1.3,0.4,2.1c0,0.7-0.1,1.4-0.4,2s-0.6,1.2-1.1,1.7
					s-1,0.9-1.7,1.2C117,31.1,116.3,31.2,115.5,31.2z M112,25.9c0,0.7,0.2,1.4,0.5,1.9c0.3,0.6,0.7,1,1.2,1.4
					c0.5,0.3,1.1,0.5,1.7,0.5s1.2-0.2,1.8-0.5c0.5-0.3,0.9-0.8,1.3-1.4c0.3-0.6,0.5-1.2,0.5-1.9s-0.2-1.4-0.5-1.9
					c-0.3-0.6-0.7-1-1.3-1.4c-0.5-0.3-1.1-0.5-1.8-0.5s-1.2,0.2-1.7,0.5c-0.5,0.3-0.9,0.8-1.2,1.4C112.2,24.5,112,25.1,112,25.9z"/>
				<path class="st4" d="M138.7,31h-1.8v-5.8c0-1.1-0.2-1.9-0.5-2.4s-0.9-0.8-1.6-0.8c-0.7,0-1.3,0.3-1.9,0.8s-1,1.2-1.2,2V31h-1.8
					v-5.8c0-1.1-0.2-1.9-0.5-2.4s-0.9-0.8-1.6-0.8s-1.3,0.2-1.9,0.7s-1,1.1-1.2,2V31h-1.8V20.6h1.6v2.2c0.4-0.8,1-1.4,1.7-1.8
					c0.7-0.4,1.4-0.6,2.3-0.6c0.9,0,1.6,0.2,2.1,0.7c0.5,0.5,0.8,1.1,1,1.8c0.5-0.8,1-1.4,1.7-1.9c0.7-0.4,1.4-0.6,2.3-0.6
					c0.6,0,1.1,0.1,1.5,0.3c0.4,0.2,0.7,0.5,1,0.9c0.2,0.4,0.4,0.9,0.5,1.4s0.2,1.1,0.2,1.7V31z"/>
				<path class="st4" d="M140.6,28c0-0.7,0.2-1.2,0.6-1.7c0.4-0.5,0.9-0.9,1.6-1.1c0.7-0.3,1.4-0.4,2.3-0.4c0.5,0,1,0,1.5,0.1
					c0.5,0.1,1,0.2,1.4,0.3v-0.8c0-0.8-0.2-1.4-0.7-1.9c-0.5-0.5-1.2-0.7-2-0.7c-0.6,0-1.1,0.1-1.7,0.3c-0.5,0.2-1.1,0.5-1.7,0.9
					l-0.6-1.2c0.7-0.5,1.4-0.8,2-1.1c0.7-0.2,1.4-0.3,2.1-0.3c1.3,0,2.4,0.4,3.2,1.1s1.2,1.8,1.2,3.1V29c0,0.2,0,0.4,0.1,0.5
					s0.2,0.2,0.4,0.2V31c-0.2,0-0.3,0-0.5,0.1c-0.1,0-0.2,0-0.3,0c-0.4,0-0.7-0.1-0.9-0.3c-0.2-0.2-0.3-0.5-0.3-0.7l0-0.7
					c-0.5,0.6-1,1-1.8,1.4c-0.7,0.3-1.5,0.5-2.2,0.5c-0.7,0-1.3-0.1-1.9-0.4c-0.5-0.3-1-0.7-1.3-1.2S140.6,28.6,140.6,28z
					 M147.4,28.7c0.2-0.2,0.3-0.4,0.4-0.6c0.1-0.2,0.1-0.4,0.1-0.5v-1.3c-0.4-0.2-0.8-0.3-1.3-0.4c-0.5-0.1-0.9-0.1-1.3-0.1
					c-0.9,0-1.6,0.2-2.2,0.5c-0.6,0.3-0.8,0.8-0.8,1.4c0,0.3,0.1,0.7,0.3,1c0.2,0.3,0.4,0.6,0.8,0.8s0.8,0.3,1.3,0.3
					c0.5,0,1.1-0.1,1.6-0.3S147.1,29.1,147.4,28.7z"/>
				<path class="st4" d="M157.5,18.6v-2.2h1.8v2.2H157.5z M157.5,31V20.6h1.8V31H157.5z"/>
				<path class="st4" d="M171.2,31h-1.8v-5.8c0-1.1-0.2-1.9-0.5-2.4s-0.9-0.8-1.5-0.8c-0.5,0-1,0.1-1.4,0.4c-0.5,0.2-0.9,0.6-1.3,1
					c-0.4,0.4-0.6,0.9-0.8,1.4V31h-1.8V20.6h1.6v2.2c0.3-0.5,0.6-0.9,1.1-1.3c0.4-0.4,0.9-0.6,1.5-0.8c0.6-0.2,1.1-0.3,1.8-0.3
					c0.6,0,1.1,0.1,1.5,0.3c0.4,0.2,0.7,0.5,1,0.9c0.2,0.4,0.4,0.9,0.5,1.4c0.1,0.5,0.2,1.1,0.2,1.7V31z"/>
			</g>
			<g class="st3">
				<path class="st4" d="M19.6,40.8h1.5L26.9,55H25l-1.6-4.2h-6.1L15.7,55h-1.9L19.6,40.8z M22.9,49.4l-2.5-6.6l-2.5,6.6H22.9z"/>
				<path class="st4" d="M28.2,50.8v-6.2H30v5.9c0,1.1,0.2,1.9,0.6,2.4c0.4,0.5,0.9,0.8,1.7,0.8c0.5,0,0.9-0.1,1.4-0.3
					s0.9-0.5,1.2-0.9c0.4-0.4,0.6-0.8,0.8-1.4v-6.5h1.8V53c0,0.2,0,0.4,0.1,0.5c0.1,0.1,0.2,0.2,0.4,0.2V55c-0.2,0-0.4,0-0.5,0
					s-0.2,0-0.3,0c-0.3,0-0.6-0.1-0.9-0.3c-0.2-0.2-0.4-0.5-0.4-0.8l0-1.2c-0.5,0.8-1.1,1.4-1.8,1.8c-0.8,0.4-1.6,0.6-2.5,0.6
					c-1.1,0-1.9-0.4-2.5-1.1C28.5,53.4,28.2,52.3,28.2,50.8z"/>
				<path class="st4" d="M45.7,54.5c-0.1,0.1-0.3,0.2-0.6,0.3c-0.3,0.1-0.5,0.2-0.9,0.3s-0.7,0.1-1.1,0.1c-0.4,0-0.8-0.1-1.2-0.2
					s-0.6-0.4-0.9-0.7c-0.2-0.3-0.3-0.7-0.3-1.2v-7h-1.4v-1.4h1.4v-3.5h1.8v3.5h2.3V46h-2.3v6.5c0,0.4,0.2,0.6,0.4,0.8
					c0.2,0.2,0.5,0.3,0.8,0.3c0.3,0,0.7-0.1,1-0.2c0.3-0.1,0.5-0.2,0.6-0.3L45.7,54.5z"/>
				<path class="st4" d="M51.8,55.2c-0.8,0-1.5-0.1-2.1-0.4c-0.6-0.3-1.2-0.7-1.7-1.2c-0.5-0.5-0.8-1.1-1.1-1.7
					c-0.3-0.6-0.4-1.3-0.4-2c0-0.7,0.1-1.4,0.4-2.1c0.3-0.6,0.6-1.2,1.1-1.7c0.5-0.5,1-0.9,1.7-1.2c0.6-0.3,1.4-0.4,2.1-0.4
					c0.8,0,1.5,0.1,2.1,0.4c0.6,0.3,1.2,0.7,1.7,1.2c0.5,0.5,0.8,1.1,1.1,1.7s0.4,1.3,0.4,2.1c0,0.7-0.1,1.4-0.4,2s-0.6,1.2-1.1,1.7
					s-1,0.9-1.7,1.2C53.3,55.1,52.6,55.2,51.8,55.2z M48.3,49.9c0,0.7,0.2,1.4,0.5,1.9c0.3,0.6,0.7,1,1.2,1.4
					c0.5,0.3,1.1,0.5,1.7,0.5s1.2-0.2,1.8-0.5c0.5-0.3,0.9-0.8,1.3-1.4c0.3-0.6,0.5-1.2,0.5-1.9s-0.2-1.4-0.5-1.9
					c-0.3-0.6-0.7-1-1.3-1.4C53,46.2,52.4,46,51.8,46s-1.2,0.2-1.7,0.5c-0.5,0.3-0.9,0.8-1.2,1.4C48.5,48.5,48.3,49.1,48.3,49.9z"/>
				<path class="st4" d="M75,55h-1.8v-5.8c0-1.1-0.2-1.9-0.5-2.4c-0.4-0.5-0.9-0.8-1.6-0.8c-0.7,0-1.3,0.3-1.9,0.8s-1,1.2-1.2,2V55
					h-1.8v-5.8c0-1.1-0.2-1.9-0.5-2.4S64.8,46,64.1,46s-1.3,0.2-1.9,0.7s-1,1.1-1.2,2V55h-1.8V44.6h1.6v2.2c0.4-0.8,1-1.4,1.7-1.8
					c0.7-0.4,1.4-0.6,2.3-0.6c0.9,0,1.6,0.2,2.1,0.7s0.8,1.1,1,1.8c0.5-0.8,1-1.4,1.7-1.9c0.7-0.4,1.4-0.6,2.3-0.6
					c0.6,0,1.1,0.1,1.5,0.3c0.4,0.2,0.7,0.5,1,0.9c0.2,0.4,0.4,0.9,0.5,1.4c0.1,0.5,0.2,1.1,0.2,1.7V55z"/>
				<path class="st4" d="M82.3,55.2c-0.8,0-1.5-0.1-2.1-0.4c-0.6-0.3-1.2-0.7-1.7-1.2c-0.5-0.5-0.8-1.1-1.1-1.7
					c-0.3-0.6-0.4-1.3-0.4-2c0-0.7,0.1-1.4,0.4-2.1c0.3-0.6,0.6-1.2,1.1-1.7c0.5-0.5,1-0.9,1.7-1.2c0.6-0.3,1.4-0.4,2.1-0.4
					c0.8,0,1.5,0.1,2.1,0.4c0.6,0.3,1.2,0.7,1.7,1.2c0.5,0.5,0.8,1.1,1.1,1.7s0.4,1.3,0.4,2.1c0,0.7-0.1,1.4-0.4,2s-0.6,1.2-1.1,1.7
					s-1,0.9-1.7,1.2C83.8,55.1,83,55.2,82.3,55.2z M78.8,49.9c0,0.7,0.2,1.4,0.5,1.9c0.3,0.6,0.7,1,1.2,1.4c0.5,0.3,1.1,0.5,1.7,0.5
					s1.2-0.2,1.8-0.5c0.5-0.3,0.9-0.8,1.3-1.4c0.3-0.6,0.5-1.2,0.5-1.9s-0.2-1.4-0.5-1.9c-0.3-0.6-0.7-1-1.3-1.4
					c-0.5-0.3-1.1-0.5-1.8-0.5s-1.2,0.2-1.7,0.5c-0.5,0.3-0.9,0.8-1.2,1.4C79,48.5,78.8,49.1,78.8,49.9z"/>
				<path class="st4" d="M94.9,54.5c-0.1,0.1-0.3,0.2-0.6,0.3c-0.3,0.1-0.5,0.2-0.9,0.3s-0.7,0.1-1.1,0.1c-0.4,0-0.8-0.1-1.2-0.2
					s-0.6-0.4-0.9-0.7C90.1,53.9,90,53.5,90,53v-7h-1.4v-1.4H90v-3.5h1.8v3.5h2.3V46h-2.3v6.5c0,0.4,0.2,0.6,0.4,0.8
					c0.2,0.2,0.5,0.3,0.8,0.3c0.3,0,0.7-0.1,1-0.2c0.3-0.1,0.5-0.2,0.6-0.3L94.9,54.5z"/>
				<path class="st4" d="M96.6,42.6v-2.2h1.8v2.2H96.6z M96.6,55V44.6h1.8V55H96.6z"/>
				<path class="st4" d="M104.2,55l-4.1-10.4h1.8l3.3,8.7l3.3-8.7h1.7L106.1,55H104.2z"/>
				<path class="st4" d="M116.2,55.2c-0.8,0-1.5-0.1-2.1-0.4c-0.6-0.3-1.2-0.7-1.7-1.2c-0.5-0.5-0.8-1.1-1.1-1.7
					c-0.3-0.6-0.4-1.3-0.4-2.1c0-1,0.2-1.9,0.7-2.7c0.5-0.8,1.1-1.5,1.9-1.9c0.8-0.5,1.7-0.7,2.8-0.7c1.1,0,2,0.2,2.8,0.7
					c0.8,0.5,1.4,1.1,1.8,1.9c0.4,0.8,0.6,1.7,0.6,2.6c0,0.1,0,0.3,0,0.4c0,0.1,0,0.2,0,0.3h-8.7c0.1,0.7,0.2,1.3,0.6,1.8
					c0.3,0.5,0.8,0.9,1.3,1.2c0.5,0.3,1.1,0.4,1.7,0.4c0.6,0,1.2-0.2,1.8-0.5c0.6-0.3,1-0.7,1.2-1.3l1.5,0.4c-0.2,0.5-0.6,1-1,1.4
					s-1,0.7-1.6,0.9C117.6,55.1,116.9,55.2,116.2,55.2z M112.7,49.2h7.1c-0.1-0.7-0.2-1.3-0.6-1.8c-0.3-0.5-0.8-0.9-1.3-1.2
					s-1.1-0.4-1.7-0.4c-0.6,0-1.2,0.1-1.7,0.4s-0.9,0.7-1.3,1.2S112.7,48.5,112.7,49.2z"/>
				<path class="st4" d="M138.4,53.4V55h-9.6V40.8h9.5v1.6h-7.7V47h6.7v1.5h-6.7v4.9H138.4z"/>
				<path class="st4" d="M156.2,55h-1.8v-5.8c0-1.1-0.2-1.9-0.5-2.4S153,46,152.3,46c-0.7,0-1.3,0.3-1.9,0.8s-1,1.2-1.2,2V55h-1.8
					v-5.8c0-1.1-0.2-1.9-0.5-2.4s-0.9-0.8-1.6-0.8s-1.3,0.2-1.9,0.7s-1,1.1-1.2,2V55h-1.8V44.6h1.6v2.2c0.4-0.8,1-1.4,1.7-1.8
					c0.7-0.4,1.4-0.6,2.3-0.6c0.9,0,1.6,0.2,2.1,0.7c0.5,0.5,0.8,1.1,1,1.8c0.5-0.8,1-1.4,1.7-1.9c0.7-0.4,1.4-0.6,2.3-0.6
					c0.6,0,1.1,0.1,1.5,0.3c0.4,0.2,0.7,0.5,1,0.9c0.2,0.4,0.4,0.9,0.5,1.4s0.2,1.1,0.2,1.7V55z"/>
				<path class="st4" d="M164.3,55.2c-0.8,0-1.6-0.2-2.2-0.6c-0.7-0.4-1.2-0.9-1.6-1.6v2h-1.6V40.4h1.8v6.3c0.4-0.7,1-1.2,1.6-1.6
					s1.4-0.6,2.2-0.6c0.7,0,1.4,0.1,1.9,0.4s1.1,0.7,1.5,1.2c0.4,0.5,0.7,1.1,0.9,1.7s0.3,1.3,0.3,2c0,0.7-0.1,1.4-0.4,2.1
					c-0.2,0.6-0.6,1.2-1,1.7s-1,0.9-1.6,1.2C165.7,55.1,165,55.2,164.3,55.2z M163.9,53.7c0.5,0,1-0.1,1.4-0.3
					c0.4-0.2,0.8-0.5,1.1-0.9c0.3-0.4,0.6-0.8,0.7-1.2c0.2-0.5,0.3-0.9,0.3-1.4c0-0.7-0.1-1.3-0.4-1.9c-0.3-0.6-0.7-1.1-1.2-1.4
					c-0.5-0.4-1.1-0.5-1.8-0.5c-0.5,0-1,0.1-1.4,0.3c-0.4,0.2-0.8,0.5-1.1,0.9c-0.3,0.4-0.6,0.8-0.8,1.2v3c0.1,0.3,0.2,0.6,0.4,0.9
					c0.2,0.3,0.5,0.5,0.8,0.7c0.3,0.2,0.6,0.4,1,0.5S163.5,53.7,163.9,53.7z"/>
				<path class="st4" d="M176,55.2c-0.8,0-1.5-0.1-2.1-0.4c-0.6-0.3-1.2-0.7-1.7-1.2s-0.8-1.1-1.1-1.7s-0.4-1.3-0.4-2.1
					c0-1,0.2-1.9,0.7-2.7c0.5-0.8,1.1-1.5,1.9-1.9c0.8-0.5,1.7-0.7,2.8-0.7c1.1,0,2,0.2,2.8,0.7c0.8,0.5,1.4,1.1,1.8,1.9
					c0.4,0.8,0.7,1.7,0.7,2.6c0,0.1,0,0.3,0,0.4c0,0.1,0,0.2,0,0.3h-8.7c0.1,0.7,0.2,1.3,0.6,1.8c0.3,0.5,0.8,0.9,1.3,1.2
					c0.5,0.3,1.1,0.4,1.7,0.4c0.6,0,1.2-0.2,1.8-0.5c0.6-0.3,1-0.7,1.2-1.3l1.5,0.4c-0.2,0.5-0.6,1-1,1.4c-0.4,0.4-1,0.7-1.6,0.9
					C177.4,55.1,176.7,55.2,176,55.2z M172.5,49.2h7.1c-0.1-0.7-0.2-1.3-0.6-1.8c-0.3-0.5-0.8-0.9-1.3-1.2c-0.5-0.3-1.1-0.4-1.7-0.4
					c-0.6,0-1.2,0.1-1.7,0.4c-0.5,0.3-0.9,0.7-1.3,1.2C172.7,47.9,172.6,48.5,172.5,49.2z"/>
				<path class="st4" d="M182.5,49.8c0-1,0.2-1.9,0.6-2.7c0.4-0.8,1-1.5,1.7-2c0.7-0.5,1.5-0.7,2.5-0.7c0.8,0,1.6,0.2,2.3,0.7
					c0.7,0.4,1.2,1,1.6,1.6v-6.3h1.8V53c0,0.2,0,0.4,0.1,0.5c0.1,0.1,0.2,0.2,0.4,0.2V55c-0.3,0.1-0.6,0.1-0.8,0.1
					c-0.3,0-0.7-0.1-0.9-0.4c-0.3-0.2-0.4-0.5-0.4-0.8V53c-0.4,0.7-1,1.2-1.7,1.6s-1.4,0.6-2.2,0.6c-0.7,0-1.4-0.1-2-0.4
					c-0.6-0.3-1.1-0.7-1.6-1.2c-0.4-0.5-0.8-1.1-1-1.7C182.7,51.2,182.5,50.6,182.5,49.8z M191.1,51.4v-3c-0.2-0.4-0.4-0.9-0.8-1.2
					c-0.4-0.4-0.8-0.7-1.2-0.9s-0.9-0.3-1.3-0.3c-0.5,0-1,0.1-1.4,0.3c-0.4,0.2-0.8,0.5-1.1,0.9c-0.3,0.4-0.5,0.8-0.7,1.2
					s-0.2,0.9-0.2,1.4c0,0.5,0.1,1,0.3,1.5c0.2,0.5,0.4,0.9,0.8,1.2c0.3,0.4,0.7,0.6,1.1,0.8c0.4,0.2,0.9,0.3,1.4,0.3
					c0.3,0,0.7-0.1,1-0.2s0.7-0.3,1-0.5c0.3-0.2,0.6-0.5,0.8-0.7C190.9,52,191,51.7,191.1,51.4z"/>
				<path class="st4" d="M195.1,49.8c0-1,0.2-1.9,0.6-2.7c0.4-0.8,1-1.5,1.7-2c0.7-0.5,1.5-0.7,2.5-0.7c0.8,0,1.6,0.2,2.3,0.7
					c0.7,0.4,1.2,1,1.6,1.6v-6.3h1.8V53c0,0.2,0,0.4,0.1,0.5c0.1,0.1,0.2,0.2,0.4,0.2V55c-0.3,0.1-0.6,0.1-0.8,0.1
					c-0.3,0-0.7-0.1-0.9-0.4c-0.3-0.2-0.4-0.5-0.4-0.8V53c-0.4,0.7-1,1.2-1.7,1.6s-1.4,0.6-2.2,0.6c-0.7,0-1.4-0.1-2-0.4
					c-0.6-0.3-1.1-0.7-1.6-1.2c-0.4-0.5-0.8-1.1-1-1.7C195.2,51.2,195.1,50.6,195.1,49.8z M203.7,51.4v-3c-0.2-0.4-0.4-0.9-0.8-1.2
					c-0.4-0.4-0.8-0.7-1.2-0.9s-0.9-0.3-1.3-0.3c-0.5,0-1,0.1-1.4,0.3c-0.4,0.2-0.8,0.5-1.1,0.9c-0.3,0.4-0.5,0.8-0.7,1.2
					s-0.2,0.9-0.2,1.4c0,0.5,0.1,1,0.3,1.5c0.2,0.5,0.4,0.9,0.8,1.2c0.3,0.4,0.7,0.6,1.1,0.8c0.4,0.2,0.9,0.3,1.4,0.3
					c0.3,0,0.7-0.1,1-0.2s0.7-0.3,1-0.5c0.3-0.2,0.6-0.5,0.8-0.7C203.5,52,203.6,51.7,203.7,51.4z"/>
				<path class="st4" d="M213,55.2c-0.8,0-1.5-0.1-2.1-0.4c-0.6-0.3-1.2-0.7-1.7-1.2s-0.8-1.1-1.1-1.7s-0.4-1.3-0.4-2.1
					c0-1,0.2-1.9,0.7-2.7c0.5-0.8,1.1-1.5,1.9-1.9c0.8-0.5,1.7-0.7,2.8-0.7c1.1,0,2,0.2,2.8,0.7c0.8,0.5,1.4,1.1,1.8,1.9
					c0.4,0.8,0.7,1.7,0.7,2.6c0,0.1,0,0.3,0,0.4c0,0.1,0,0.2,0,0.3h-8.7c0.1,0.7,0.2,1.3,0.6,1.8c0.3,0.5,0.8,0.9,1.3,1.2
					c0.5,0.3,1.1,0.4,1.7,0.4c0.6,0,1.2-0.2,1.8-0.5c0.6-0.3,1-0.7,1.2-1.3l1.5,0.4c-0.2,0.5-0.6,1-1,1.4c-0.4,0.4-1,0.7-1.6,0.9
					C214.4,55.1,213.7,55.2,213,55.2z M209.5,49.2h7.1c-0.1-0.7-0.2-1.3-0.6-1.8c-0.3-0.5-0.8-0.9-1.3-1.2c-0.5-0.3-1.1-0.4-1.7-0.4
					c-0.6,0-1.2,0.1-1.7,0.4c-0.5,0.3-0.9,0.7-1.3,1.2C209.7,47.9,209.5,48.5,209.5,49.2z"/>
				<path class="st4" d="M219.5,49.8c0-1,0.2-1.9,0.6-2.7c0.4-0.8,1-1.5,1.7-2c0.7-0.5,1.5-0.7,2.5-0.7c0.8,0,1.6,0.2,2.3,0.7
					c0.7,0.4,1.2,1,1.6,1.6v-6.3h1.8V53c0,0.2,0,0.4,0.1,0.5c0.1,0.1,0.2,0.2,0.4,0.2V55c-0.3,0.1-0.6,0.1-0.8,0.1
					c-0.3,0-0.7-0.1-0.9-0.4c-0.3-0.2-0.4-0.5-0.4-0.8V53c-0.4,0.7-1,1.2-1.7,1.6s-1.4,0.6-2.2,0.6c-0.7,0-1.4-0.1-2-0.4
					c-0.6-0.3-1.1-0.7-1.6-1.2c-0.4-0.5-0.8-1.1-1-1.7C219.6,51.2,219.5,50.6,219.5,49.8z M228.1,51.4v-3c-0.2-0.4-0.4-0.9-0.8-1.2
					c-0.4-0.4-0.8-0.7-1.2-0.9s-0.9-0.3-1.3-0.3c-0.5,0-1,0.1-1.4,0.3c-0.4,0.2-0.8,0.5-1.1,0.9c-0.3,0.4-0.5,0.8-0.7,1.2
					s-0.2,0.9-0.2,1.4c0,0.5,0.1,1,0.3,1.5c0.2,0.5,0.4,0.9,0.8,1.2c0.3,0.4,0.7,0.6,1.1,0.8c0.4,0.2,0.9,0.3,1.4,0.3
					c0.3,0,0.7-0.1,1-0.2s0.7-0.3,1-0.5c0.3-0.2,0.6-0.5,0.8-0.7C227.9,52,228,51.7,228.1,51.4z"/>
			</g>
			<g class="st3">
				<path class="st4" d="M65.4,67.8c-0.2-0.2-0.4-0.4-0.6-0.5c-0.3-0.2-0.6-0.3-0.9-0.5c-0.3-0.1-0.7-0.3-1.1-0.3
					c-0.4-0.1-0.8-0.1-1.2-0.1c-1.1,0-1.9,0.2-2.4,0.6c-0.5,0.4-0.8,1-0.8,1.7c0,0.5,0.1,0.9,0.4,1.2c0.3,0.3,0.7,0.5,1.2,0.7
					c0.6,0.2,1.3,0.4,2.1,0.6c1,0.2,1.8,0.5,2.6,0.8c0.7,0.3,1.3,0.7,1.7,1.2c0.4,0.5,0.6,1.2,0.6,2c0,0.7-0.1,1.3-0.4,1.8
					c-0.3,0.5-0.6,0.9-1.1,1.2c-0.5,0.3-1,0.6-1.6,0.7c-0.6,0.2-1.3,0.2-2,0.2c-0.7,0-1.4-0.1-2.1-0.2c-0.7-0.2-1.3-0.4-2-0.7
					s-1.2-0.7-1.7-1.1l0.9-1.5c0.2,0.2,0.5,0.5,0.8,0.7s0.7,0.4,1.2,0.6c0.4,0.2,0.9,0.3,1.4,0.4c0.5,0.1,1,0.2,1.6,0.2
					c1,0,1.8-0.2,2.4-0.5c0.6-0.4,0.8-0.9,0.8-1.6c0-0.5-0.2-1-0.5-1.3c-0.3-0.3-0.8-0.6-1.4-0.8c-0.6-0.2-1.4-0.4-2.2-0.6
					c-1-0.2-1.8-0.5-2.4-0.8c-0.7-0.3-1.1-0.7-1.5-1.1c-0.3-0.5-0.5-1.1-0.5-1.8c0-0.9,0.2-1.7,0.7-2.3c0.4-0.6,1-1.1,1.8-1.4
					c0.8-0.3,1.6-0.5,2.6-0.5c0.6,0,1.2,0.1,1.8,0.2c0.6,0.1,1.1,0.3,1.6,0.6s0.9,0.5,1.3,0.9L65.4,67.8z"/>
				<path class="st4" d="M69.1,81.8c0.2,0,0.3,0,0.5,0c0.2,0,0.3,0,0.4,0c0.2,0,0.4-0.1,0.6-0.2c0.2-0.1,0.3-0.4,0.5-0.8
					c0.2-0.4,0.4-1,0.8-1.8l-4.4-10.4h1.9l3.5,8.6l3.2-8.6h1.7l-5.1,13.1c-0.1,0.3-0.3,0.6-0.5,0.9c-0.2,0.3-0.5,0.5-0.9,0.6
					s-0.8,0.2-1.3,0.2c-0.1,0-0.2,0-0.4,0c-0.1,0-0.3,0-0.5-0.1V81.8z"/>
				<path class="st4" d="M82.8,79.2c-0.9,0-1.7-0.1-2.4-0.4c-0.8-0.3-1.4-0.7-2-1.3l0.7-1.2c0.6,0.6,1.2,1,1.8,1.2
					c0.6,0.2,1.2,0.4,1.8,0.4c0.7,0,1.3-0.1,1.8-0.4c0.5-0.3,0.7-0.7,0.7-1.2c0-0.4-0.1-0.7-0.4-0.9s-0.6-0.3-1-0.5
					c-0.4-0.1-0.9-0.3-1.5-0.4c-0.7-0.2-1.3-0.4-1.8-0.7c-0.5-0.2-0.9-0.5-1.1-0.9c-0.3-0.4-0.4-0.8-0.4-1.3c0-0.7,0.2-1.2,0.5-1.7
					c0.3-0.5,0.8-0.8,1.4-1c0.6-0.2,1.3-0.4,2.1-0.4c0.8,0,1.5,0.1,2.1,0.4c0.6,0.2,1.2,0.6,1.6,1.1L86,71.1
					c-0.4-0.4-0.9-0.7-1.4-0.9c-0.5-0.2-1-0.3-1.7-0.3c-0.4,0-0.7,0-1.1,0.1s-0.6,0.2-0.9,0.5c-0.2,0.2-0.3,0.5-0.3,0.9
					c0,0.3,0.1,0.6,0.3,0.8c0.2,0.2,0.4,0.4,0.8,0.5c0.4,0.1,0.8,0.3,1.3,0.4c0.8,0.2,1.5,0.4,2,0.7s1,0.5,1.4,0.9
					c0.3,0.4,0.5,0.9,0.5,1.5c0,1-0.4,1.7-1.1,2.3C85,78.9,84.1,79.2,82.8,79.2z"/>
				<path class="st4" d="M94.4,78.5c-0.1,0.1-0.3,0.2-0.6,0.3c-0.3,0.1-0.5,0.2-0.9,0.3s-0.7,0.1-1.1,0.1c-0.4,0-0.8-0.1-1.2-0.2
					s-0.6-0.4-0.9-0.7c-0.2-0.3-0.3-0.7-0.3-1.2v-7h-1.4v-1.4h1.4v-3.5h1.8v3.5h2.3V70h-2.3v6.5c0,0.4,0.2,0.6,0.4,0.8
					c0.2,0.2,0.5,0.3,0.8,0.3c0.3,0,0.7-0.1,1-0.2c0.3-0.1,0.5-0.2,0.6-0.3L94.4,78.5z"/>
				<path class="st4" d="M100.5,79.2c-0.8,0-1.5-0.1-2.1-0.4c-0.6-0.3-1.2-0.7-1.7-1.2c-0.5-0.5-0.8-1.1-1.1-1.7
					c-0.3-0.6-0.4-1.3-0.4-2.1c0-1,0.2-1.9,0.7-2.7c0.5-0.8,1.1-1.5,1.9-1.9c0.8-0.5,1.7-0.7,2.8-0.7c1.1,0,2,0.2,2.8,0.7
					c0.8,0.5,1.4,1.1,1.8,1.9c0.4,0.8,0.6,1.7,0.6,2.6c0,0.1,0,0.3,0,0.4c0,0.1,0,0.2,0,0.3h-8.7c0.1,0.7,0.2,1.3,0.6,1.8
					c0.3,0.5,0.8,0.9,1.3,1.2c0.5,0.3,1.1,0.4,1.7,0.4c0.6,0,1.2-0.2,1.8-0.5c0.6-0.3,1-0.7,1.2-1.3l1.5,0.4c-0.2,0.5-0.6,1-1,1.4
					s-1,0.7-1.6,0.9C101.9,79.1,101.2,79.2,100.5,79.2z M97,73.2h7.1c-0.1-0.7-0.2-1.3-0.6-1.8c-0.3-0.5-0.8-0.9-1.3-1.2
					s-1.1-0.4-1.7-0.4c-0.6,0-1.2,0.1-1.7,0.4s-0.9,0.7-1.3,1.2S97.1,72.5,97,73.2z"/>
				<path class="st4" d="M123.5,79h-1.8v-5.8c0-1.1-0.2-1.9-0.5-2.4c-0.4-0.5-0.9-0.8-1.6-0.8c-0.7,0-1.3,0.3-1.9,0.8s-1,1.2-1.2,2
					V79h-1.8v-5.8c0-1.1-0.2-1.9-0.5-2.4s-0.9-0.8-1.6-0.8s-1.3,0.2-1.9,0.7s-1,1.1-1.2,2V79h-1.8V68.6h1.6v2.2
					c0.4-0.8,1-1.4,1.7-1.8c0.7-0.4,1.4-0.6,2.3-0.6c0.9,0,1.6,0.2,2.1,0.7s0.8,1.1,1,1.8c0.5-0.8,1-1.4,1.7-1.9
					c0.7-0.4,1.4-0.6,2.3-0.6c0.6,0,1.1,0.1,1.5,0.3c0.4,0.2,0.7,0.5,1,0.9c0.2,0.4,0.4,0.9,0.5,1.4c0.1,0.5,0.2,1.1,0.2,1.7V79z"/>
				<path class="st4" d="M131.5,79V64.8h4.9c1.5,0,2.8,0.3,3.8,1c1,0.6,1.8,1.5,2.3,2.6c0.5,1.1,0.8,2.3,0.8,3.6
					c0,1.4-0.3,2.7-0.8,3.8c-0.6,1.1-1.4,1.9-2.4,2.5c-1,0.6-2.2,0.9-3.6,0.9H131.5z M141.5,71.9c0-1.1-0.2-2-0.6-2.8
					c-0.4-0.8-1-1.5-1.7-1.9c-0.7-0.5-1.7-0.7-2.7-0.7h-3.1v11h3.1c1.1,0,2-0.2,2.8-0.7c0.7-0.5,1.3-1.1,1.7-2
					C141.3,73.9,141.5,72.9,141.5,71.9z"/>
				<path class="st4" d="M150.2,79.2c-0.8,0-1.5-0.1-2.1-0.4c-0.6-0.3-1.2-0.7-1.7-1.2s-0.8-1.1-1.1-1.7s-0.4-1.3-0.4-2.1
					c0-1,0.2-1.9,0.7-2.7c0.5-0.8,1.1-1.5,1.9-1.9c0.8-0.5,1.7-0.7,2.8-0.7c1.1,0,2,0.2,2.8,0.7c0.8,0.5,1.4,1.1,1.8,1.9
					c0.4,0.8,0.7,1.7,0.7,2.6c0,0.1,0,0.3,0,0.4c0,0.1,0,0.2,0,0.3h-8.7c0.1,0.7,0.2,1.3,0.6,1.8c0.3,0.5,0.8,0.9,1.3,1.2
					c0.5,0.3,1.1,0.4,1.7,0.4c0.6,0,1.2-0.2,1.8-0.5c0.6-0.3,1-0.7,1.2-1.3l1.5,0.4c-0.2,0.5-0.6,1-1,1.4c-0.4,0.4-1,0.7-1.6,0.9
					C151.6,79.1,150.9,79.2,150.2,79.2z M146.7,73.2h7.1c-0.1-0.7-0.2-1.3-0.6-1.8c-0.3-0.5-0.8-0.9-1.3-1.2
					c-0.5-0.3-1.1-0.4-1.7-0.4c-0.6,0-1.2,0.1-1.7,0.4c-0.5,0.3-0.9,0.7-1.3,1.2C146.9,71.9,146.7,72.5,146.7,73.2z"/>
				<path class="st4" d="M161,79.2c-0.9,0-1.7-0.1-2.4-0.4c-0.8-0.3-1.4-0.7-2-1.3l0.7-1.2c0.6,0.6,1.2,1,1.8,1.2
					c0.6,0.2,1.2,0.4,1.8,0.4c0.7,0,1.3-0.1,1.8-0.4s0.7-0.7,0.7-1.2c0-0.4-0.1-0.7-0.3-0.9s-0.6-0.3-1-0.5
					c-0.4-0.1-0.9-0.3-1.5-0.4c-0.7-0.2-1.3-0.4-1.8-0.7c-0.5-0.2-0.9-0.5-1.1-0.9c-0.3-0.4-0.4-0.8-0.4-1.3c0-0.7,0.2-1.2,0.5-1.7
					c0.3-0.5,0.8-0.8,1.4-1c0.6-0.2,1.3-0.4,2.1-0.4c0.8,0,1.5,0.1,2.1,0.4c0.6,0.2,1.2,0.6,1.6,1.1l-0.8,1.2
					c-0.4-0.4-0.9-0.7-1.4-0.9c-0.5-0.2-1-0.3-1.7-0.3c-0.4,0-0.7,0-1.1,0.1s-0.6,0.2-0.9,0.5c-0.2,0.2-0.3,0.5-0.3,0.9
					c0,0.3,0.1,0.6,0.3,0.8c0.2,0.2,0.4,0.4,0.8,0.5c0.4,0.1,0.8,0.3,1.3,0.4c0.8,0.2,1.5,0.4,2,0.7s1,0.5,1.3,0.9
					c0.3,0.4,0.5,0.9,0.5,1.5c0,1-0.4,1.7-1.1,2.3C163.2,78.9,162.2,79.2,161,79.2z"/>
				<path class="st4" d="M167.2,66.6v-2.2h1.8v2.2H167.2z M167.2,79V68.6h1.8V79H167.2z"/>
				<path class="st4" d="M175.9,79.2c-0.7,0-1.4-0.1-2-0.4c-0.6-0.3-1.1-0.7-1.5-1.2s-0.8-1.1-1-1.7s-0.3-1.3-0.3-2
					c0-0.7,0.1-1.4,0.3-2.1s0.6-1.2,1-1.7c0.4-0.5,0.9-0.9,1.5-1.2c0.6-0.3,1.2-0.4,2-0.4c0.9,0,1.6,0.2,2.3,0.6
					c0.6,0.4,1.2,1,1.6,1.6v-2.1h1.6v10.3c0,1-0.2,1.8-0.7,2.5c-0.5,0.7-1.1,1.2-1.9,1.5c-0.8,0.4-1.7,0.5-2.7,0.5
					c-1.2,0-2.1-0.2-2.9-0.6c-0.7-0.4-1.4-1-1.9-1.7l1-0.9c0.4,0.6,1,1.1,1.6,1.4s1.4,0.5,2.1,0.5c0.6,0,1.2-0.1,1.8-0.3
					c0.5-0.2,1-0.6,1.3-1s0.5-1.1,0.5-1.8v-1.8c-0.4,0.6-0.9,1.1-1.6,1.5C177.4,79,176.7,79.2,175.9,79.2z M176.5,77.8
					c0.4,0,0.7-0.1,1.1-0.2c0.3-0.1,0.7-0.3,1-0.5c0.3-0.2,0.5-0.5,0.7-0.8c0.2-0.3,0.3-0.6,0.4-0.9v-3c-0.2-0.5-0.5-0.9-0.8-1.3
					c-0.3-0.4-0.7-0.7-1.2-0.9c-0.4-0.2-0.9-0.3-1.4-0.3c-0.5,0-1,0.1-1.4,0.3c-0.4,0.2-0.8,0.5-1.1,0.9c-0.3,0.4-0.5,0.8-0.7,1.3
					c-0.2,0.5-0.2,0.9-0.2,1.4c0,0.5,0.1,1,0.3,1.5s0.4,0.9,0.8,1.2c0.3,0.4,0.7,0.6,1.1,0.8S176,77.8,176.5,77.8z"/>
				<path class="st4" d="M193.3,79h-1.8v-5.8c0-1.1-0.2-1.9-0.5-2.4s-0.9-0.8-1.5-0.8c-0.5,0-1,0.1-1.4,0.4c-0.5,0.2-0.9,0.6-1.3,1
					c-0.4,0.4-0.6,0.9-0.8,1.4V79h-1.8V68.6h1.6v2.2c0.3-0.5,0.6-0.9,1.1-1.3c0.4-0.4,0.9-0.6,1.5-0.8c0.6-0.2,1.1-0.3,1.8-0.3
					c0.6,0,1.1,0.1,1.5,0.3c0.4,0.2,0.7,0.5,1,0.9c0.2,0.4,0.4,0.9,0.5,1.4c0.1,0.5,0.2,1.1,0.2,1.7V79z"/>
			</g>
		</g>
		<g id="Group_285" transform="translate(10.602 50.921)">
			<path id="Path_430" class="st4" d="M164.9,91.5c1,1.9,3.3,2.6,5.2,1.6c1.9-1,2.6-3.3,1.6-5.2s-3.3-2.6-5.2-1.6
				c-0.7,0.3-1.2,0.9-1.6,1.5h-14.2v-8h8v-9.2h6.2c1,1.9,3.3,2.6,5.2,1.7c1.9-1,2.6-3.3,1.7-5.2c-1-1.9-3.3-2.6-5.2-1.7
				c-0.7,0.3-1.2,0.9-1.6,1.5h-9.9v9.2h-4.4v0c0-6.1-4.9-11-11-11h-0.2v-4.3h9.2v-9.8c1.9-1,2.7-3.3,1.7-5.2c-1-1.9-3.3-2.7-5.2-1.7
				c-1.9,1-2.7,3.3-1.7,5.2c0.3,0.7,0.9,1.2,1.5,1.6v6.2h-9.2v8h-8.3V51c1.9-1,2.6-3.3,1.6-5.2c-1-1.9-3.3-2.6-5.2-1.6
				c-1.9,1-2.6,3.3-1.6,5.2c0.3,0.7,0.9,1.2,1.5,1.6v14.2h-8V51c1.9-1,2.6-3.3,1.6-5.2s-3.3-2.6-5.2-1.6s-2.6,3.3-1.6,5.2
				c0.3,0.7,0.9,1.2,1.5,1.6v14.2h-8V51c1.9-1,2.6-3.3,1.6-5.2c-1-1.9-3.3-2.6-5.2-1.6c-1.9,1-2.6,3.3-1.6,5.2
				c0.3,0.7,0.9,1.2,1.5,1.6v14.2h-8v-8h-9.2v-6.1c1.9-1,2.6-3.3,1.7-5.2c-1-1.9-3.3-2.6-5.2-1.7c-1.9,1-2.6,3.3-1.7,5.2
				c0.3,0.7,0.9,1.2,1.5,1.6v9.9h9.2v4.3h-0.4c-6.1,0-11,4.9-11,11v0h-3.9V67h-9.9c-1-1.8-3.4-2.5-5.2-1.5s-2.5,3.4-1.5,5.2
				c1,1.8,3.4,2.5,5.2,1.5c0.7-0.4,1.2-0.9,1.5-1.6H70v9.2h7.6v8H63.8c-1-1.9-3.4-2.5-5.2-1.5c-1.9,1-2.5,3.4-1.5,5.2
				s3.4,2.5,5.2,1.5c0.7-0.4,1.2-0.9,1.5-1.6h13.8v8H63.8c-1-1.9-3.4-2.5-5.2-1.5s-2.5,3.4-1.5,5.2c1,1.9,3.4,2.5,5.2,1.5
				c0.7-0.4,1.2-0.9,1.5-1.6h13.8v8H63.8c-1-1.9-3.4-2.5-5.2-1.5c-1.9,1-2.5,3.4-1.5,5.2s3.4,2.5,5.2,1.5c0.7-0.4,1.2-0.9,1.5-1.6
				h13.8v8.3H70v9.2h-6.2c-1.1-1.8-3.4-2.5-5.3-1.4c-1.8,1.1-2.5,3.4-1.4,5.3c1.1,1.8,3.4,2.5,5.3,1.4c0.6-0.4,1.2-0.9,1.5-1.6h9.8
				v-9.2h3.9v0.3c0,6.1,4.9,11,11,11h0.4v4.3h-9.2v9.9c-1.8,1-2.5,3.4-1.5,5.2c1,1.8,3.4,2.5,5.2,1.5c1.8-1,2.5-3.4,1.5-5.2
				c-0.4-0.7-0.9-1.2-1.6-1.5V146h9.2V138h8v14.1c-1.9,1-2.5,3.4-1.5,5.2s3.4,2.5,5.2,1.5c1.9-1,2.5-3.4,1.5-5.2
				c-0.4-0.7-0.9-1.2-1.6-1.5V138h8v14.1c-1.9,1-2.5,3.4-1.5,5.2c1,1.9,3.4,2.5,5.2,1.5c1.9-1,2.5-3.4,1.5-5.2
				c-0.4-0.7-0.9-1.2-1.6-1.5V138h8v14.1c-1.9,1-2.5,3.4-1.5,5.2s3.4,2.5,5.2,1.5c1.9-1,2.5-3.4,1.5-5.2c-0.4-0.7-0.9-1.2-1.6-1.5
				V138h8.3v7.9h9.2v6.2c-1.8,1.1-2.5,3.4-1.4,5.3s3.4,2.5,5.3,1.4s2.5-3.4,1.4-5.3c-0.4-0.6-0.9-1.2-1.6-1.5v-9.8h-9.2v-4.3h0.2
				c6.1,0,11-4.9,11-11v0v-0.3h4.4v9.2h9.8c1,1.9,3.3,2.7,5.2,1.7c1.9-1,2.7-3.3,1.7-5.2c-1-1.9-3.3-2.7-5.2-1.7
				c-0.7,0.3-1.2,0.9-1.6,1.5h-6.2v-9.2h-8v-8.3h14.2c1,1.9,3.3,2.6,5.2,1.6c1.9-1,2.6-3.3,1.6-5.2s-3.3-2.6-5.2-1.6
				c-0.7,0.3-1.2,0.9-1.6,1.5h-14.2v-8h14.2c1,1.9,3.3,2.6,5.2,1.6s2.6-3.3,1.6-5.2s-3.3-2.6-5.2-1.6c-0.7,0.3-1.2,0.9-1.6,1.5
				h-14.2v-8H164.9z M143.3,121.5c0,5.7-4.6,10.3-10.3,10.3H95.4c-5.7,0-10.3-4.6-10.3-10.3V82.3c0-5.7,4.6-10.3,10.3-10.3H133
				c5.7,0,10.3,4.6,10.3,10.3L143.3,121.5z"/>
			<path id="Path_431" class="st4" d="M133,76.4H95.4c-3.3,0-5.9,2.7-5.9,5.9v39.2c0,3.3,2.7,5.9,5.9,5.9H133c3.3,0,5.9-2.7,5.9-5.9
				V82.3C139,79,136.3,76.4,133,76.4z M106.5,90.8c-0.6,0-1.1,0.2-1.6,0.6c-0.4,0.5-0.6,1.1-0.5,1.7v4.8c0,1-0.3,1.9-1,2.7
				c-0.7,0.7-1.7,1.1-2.7,1.2c1,0,2,0.5,2.7,1.2c0.7,0.7,1.1,1.7,1,2.7v4.8c-0.1,0.6,0.1,1.2,0.5,1.6c0.4,0.4,1,0.6,1.6,0.6v3.4
				c-1.8,0.1-3.6-0.4-5.2-1.4c-1.3-0.9-2-2.4-1.9-4v-4.9c0-0.6-0.2-1.2-0.6-1.7c-0.5-0.4-1.2-0.6-1.9-0.6v-3.5
				c0.7,0,1.3-0.2,1.9-0.6c0.4-0.5,0.6-1.1,0.6-1.7v-4.9c-0.1-1.6,0.6-3.1,1.9-4c1.6-1,3.4-1.4,5.2-1.4L106.5,90.8z M131.6,103.4
				c-0.7-0.1-1.3,0.1-1.9,0.6c-0.4,0.5-0.6,1.1-0.6,1.7v4.9c0.1,1.6-0.6,3.1-1.9,4c-1.6,1-3.4,1.4-5.2,1.4v-3.4
				c0.6,0,1.1-0.2,1.6-0.6c0.4-0.5,0.6-1,0.5-1.6v-4.8c0-1,0.3-1.9,1-2.7c0.7-0.7,1.7-1.1,2.7-1.2c-1,0-2-0.5-2.7-1.2
				c-0.7-0.7-1.1-1.7-1-2.7V93c0.1-0.6-0.1-1.2-0.5-1.7c-0.4-0.4-1-0.6-1.6-0.6v-3.4c1.8-0.1,3.6,0.4,5.2,1.4c1.3,0.9,2,2.4,1.9,4
				v4.9c0,0.6,0.2,1.2,0.6,1.7c0.5,0.4,1.2,0.6,1.9,0.6V103.4z"/>
		</g>
		<g class="st3">
			<path class="st4" d="M23.3,232.7v1.3h-5.7v-1.3h2.3v-6.2c-0.1,0.1-0.2,0.3-0.4,0.4c-0.2,0.1-0.4,0.3-0.7,0.4s-0.5,0.2-0.8,0.3
				s-0.5,0.1-0.7,0.1v-1.3c0.2,0,0.5-0.1,0.8-0.2c0.3-0.1,0.6-0.3,0.8-0.5s0.5-0.4,0.7-0.5c0.2-0.2,0.3-0.3,0.3-0.3h1.4v7.9H23.3z"
				/>
			<path class="st4" d="M32.7,229.4c0,0.9-0.2,1.7-0.5,2.5s-0.8,1.3-1.4,1.7c-0.6,0.4-1.3,0.6-2.1,0.6c-0.8,0-1.5-0.2-2.1-0.6
				c-0.6-0.4-1.1-1-1.4-1.7s-0.5-1.5-0.5-2.5s0.2-1.7,0.5-2.5s0.8-1.3,1.4-1.7s1.3-0.6,2.1-0.6c0.8,0,1.5,0.2,2.1,0.6
				c0.6,0.4,1.1,1,1.4,1.7S32.7,228.5,32.7,229.4z M31.3,229.4c0-0.7-0.1-1.3-0.3-1.8c-0.2-0.5-0.5-0.9-0.9-1.2
				c-0.4-0.3-0.8-0.4-1.4-0.4c-0.5,0-1,0.1-1.4,0.4c-0.4,0.3-0.7,0.7-0.9,1.2s-0.3,1.1-0.3,1.8c0,0.7,0.1,1.3,0.3,1.8
				c0.2,0.5,0.5,0.9,0.9,1.2c0.4,0.3,0.9,0.4,1.4,0.4c0.5,0,1-0.1,1.4-0.4c0.4-0.3,0.7-0.7,0.9-1.2
				C31.2,230.7,31.3,230.1,31.3,229.4z"/>
			<path class="st4" d="M42.5,229.4c0,0.9-0.2,1.7-0.5,2.5s-0.8,1.3-1.4,1.7c-0.6,0.4-1.3,0.6-2.1,0.6c-0.8,0-1.5-0.2-2.1-0.6
				c-0.6-0.4-1.1-1-1.4-1.7s-0.5-1.5-0.5-2.5s0.2-1.7,0.5-2.5s0.8-1.3,1.4-1.7s1.3-0.6,2.1-0.6c0.8,0,1.5,0.2,2.1,0.6
				c0.6,0.4,1.1,1,1.4,1.7S42.5,228.5,42.5,229.4z M41.1,229.4c0-0.7-0.1-1.3-0.3-1.8c-0.2-0.5-0.5-0.9-0.9-1.2
				c-0.4-0.3-0.8-0.4-1.4-0.4c-0.5,0-1,0.1-1.4,0.4c-0.4,0.3-0.7,0.7-0.9,1.2s-0.3,1.1-0.3,1.8c0,0.7,0.1,1.3,0.3,1.8
				c0.2,0.5,0.5,0.9,0.9,1.2c0.4,0.3,0.9,0.4,1.4,0.4c0.5,0,1-0.1,1.4-0.4c0.4-0.3,0.7-0.7,0.9-1.2C41,230.7,41.1,230.1,41.1,229.4z
				"/>
			<path class="st4" d="M46.4,227.2c-0.4,0-0.9-0.1-1.2-0.3c-0.4-0.2-0.7-0.5-0.9-0.8c-0.2-0.4-0.3-0.8-0.3-1.2
				c0-0.4,0.1-0.8,0.3-1.2c0.2-0.4,0.5-0.6,0.9-0.8c0.4-0.2,0.8-0.3,1.2-0.3c0.5,0,0.9,0.1,1.2,0.3c0.4,0.2,0.7,0.5,0.9,0.8
				c0.2,0.4,0.3,0.7,0.3,1.2c0,0.4-0.1,0.8-0.3,1.2s-0.5,0.6-0.9,0.8C47.3,227.1,46.9,227.2,46.4,227.2z M44.5,233.4l4.5-5.3
				l4.3-5.4l0.7,0.6l-4.4,5.3l-4.4,5.5L44.5,233.4z M46.4,226.5c0.3,0,0.5-0.1,0.7-0.2c0.2-0.1,0.4-0.3,0.5-0.6
				c0.1-0.2,0.2-0.5,0.2-0.8c0-0.3-0.1-0.6-0.2-0.8c-0.1-0.2-0.3-0.4-0.5-0.6c-0.2-0.1-0.5-0.2-0.7-0.2c-0.3,0-0.5,0.1-0.7,0.2
				c-0.2,0.1-0.4,0.3-0.5,0.6s-0.2,0.5-0.2,0.8c0,0.3,0.1,0.5,0.2,0.8c0.1,0.2,0.3,0.4,0.5,0.6C45.9,226.4,46.2,226.5,46.4,226.5z
				 M52,234.1c-0.5,0-0.9-0.1-1.2-0.3c-0.4-0.2-0.7-0.5-0.9-0.8s-0.3-0.7-0.3-1.2c0-0.4,0.1-0.8,0.3-1.2c0.2-0.4,0.5-0.6,0.9-0.8
				c0.4-0.2,0.8-0.3,1.2-0.3s0.9,0.1,1.2,0.3s0.7,0.5,0.9,0.8c0.2,0.4,0.3,0.7,0.3,1.2c0,0.4-0.1,0.8-0.3,1.2
				c-0.2,0.4-0.5,0.6-0.9,0.8S52.5,234.1,52,234.1z M52,233.3c0.3,0,0.5-0.1,0.7-0.2c0.2-0.1,0.4-0.3,0.5-0.6
				c0.1-0.2,0.2-0.5,0.2-0.8c0-0.3-0.1-0.6-0.2-0.8c-0.1-0.2-0.3-0.4-0.5-0.6s-0.5-0.2-0.7-0.2c-0.3,0-0.5,0.1-0.7,0.2
				c-0.2,0.1-0.4,0.3-0.5,0.6s-0.2,0.5-0.2,0.8c0,0.3,0.1,0.5,0.2,0.8c0.1,0.2,0.3,0.4,0.5,0.6C51.6,233.2,51.8,233.3,52,233.3z"/>
			<path class="st4" d="M59.3,232.2c0.2,0.1,0.5,0.3,0.8,0.4c0.4,0.1,0.8,0.2,1.3,0.2c0.5,0,0.9-0.1,1.2-0.2
				c0.3-0.2,0.6-0.4,0.7-0.7c0.2-0.3,0.3-0.8,0.4-1.3s0.1-1.1,0.1-1.8v-6h1.4v5.7c0,0.8,0,1.6-0.1,2.3s-0.3,1.3-0.5,1.8
				c-0.3,0.5-0.6,0.9-1.1,1.2c-0.5,0.3-1.2,0.4-2,0.4c-0.5,0-1-0.1-1.4-0.2s-0.8-0.3-1.1-0.5L59.3,232.2z"/>
			<path class="st4" d="M71.1,234.2c-0.6,0-1.2-0.1-1.7-0.3c-0.5-0.2-1-0.5-1.3-0.9c-0.4-0.4-0.7-0.9-0.9-1.4s-0.3-1.1-0.3-1.6
				c0-0.6,0.1-1.1,0.3-1.7c0.2-0.5,0.5-1,0.9-1.4c0.4-0.4,0.8-0.7,1.3-0.9c0.5-0.2,1.1-0.3,1.7-0.3c0.6,0,1.2,0.1,1.7,0.3
				c0.5,0.2,1,0.5,1.3,0.9c0.4,0.4,0.7,0.9,0.9,1.4c0.2,0.5,0.3,1.1,0.3,1.7c0,0.6-0.1,1.1-0.3,1.6s-0.5,1-0.9,1.4
				c-0.4,0.4-0.8,0.7-1.3,0.9S71.7,234.2,71.1,234.2z M68.4,229.9c0,0.6,0.1,1.1,0.4,1.6c0.3,0.5,0.6,0.8,1,1.1
				c0.4,0.3,0.9,0.4,1.4,0.4c0.5,0,1-0.1,1.4-0.4s0.8-0.6,1-1.1s0.4-1,0.4-1.6c0-0.6-0.1-1.1-0.4-1.6c-0.3-0.5-0.6-0.8-1-1.1
				c-0.4-0.3-0.9-0.4-1.4-0.4c-0.5,0-1,0.1-1.4,0.4c-0.4,0.3-0.7,0.7-1,1.1C68.5,228.8,68.4,229.3,68.4,229.9z"/>
			<path class="st4" d="M81.3,234.2c-0.7,0-1.2-0.2-1.8-0.5c-0.5-0.3-1-0.7-1.3-1.2v1.6h-1.2v-11.7h1.4v5.1c0.4-0.5,0.8-1,1.3-1.3
				c0.5-0.3,1.1-0.5,1.8-0.5c0.6,0,1.1,0.1,1.6,0.4c0.5,0.2,0.9,0.6,1.2,1c0.3,0.4,0.6,0.9,0.8,1.4c0.2,0.5,0.3,1.1,0.3,1.6
				c0,0.6-0.1,1.1-0.3,1.6c-0.2,0.5-0.5,1-0.8,1.4c-0.4,0.4-0.8,0.7-1.3,0.9C82.4,234,81.9,234.2,81.3,234.2z M81,232.9
				c0.4,0,0.8-0.1,1.2-0.3s0.7-0.4,0.9-0.7c0.3-0.3,0.5-0.6,0.6-1c0.1-0.4,0.2-0.8,0.2-1.1c0-0.5-0.1-1-0.3-1.5
				c-0.2-0.5-0.5-0.9-1-1.1s-0.9-0.4-1.4-0.4c-0.4,0-0.8,0.1-1.1,0.3c-0.3,0.2-0.6,0.4-0.9,0.7s-0.5,0.6-0.6,1v2.4
				c0.1,0.3,0.2,0.5,0.3,0.7s0.4,0.4,0.6,0.6c0.2,0.2,0.5,0.3,0.8,0.4C80.5,232.9,80.7,232.9,81,232.9z"/>
			<path class="st4" d="M95.9,234.1c-0.7,0-1.4-0.2-2.1-0.5c-0.6-0.3-1.2-0.8-1.7-1.3c-0.5-0.5-0.9-1.2-1.1-1.9
				c-0.3-0.7-0.4-1.4-0.4-2.1c0-0.8,0.1-1.5,0.4-2.2c0.3-0.7,0.6-1.3,1.1-1.8c0.5-0.5,1-1,1.7-1.3c0.6-0.3,1.3-0.5,2.1-0.5
				c1.1,0,2,0.2,2.7,0.7c0.7,0.5,1.3,1.1,1.6,1.8l-1.1,0.8c-0.3-0.7-0.8-1.2-1.4-1.5s-1.2-0.5-1.9-0.5c-0.6,0-1.1,0.1-1.6,0.4
				c-0.5,0.2-0.9,0.6-1.2,1c-0.3,0.4-0.6,0.9-0.8,1.4c-0.2,0.5-0.3,1.1-0.3,1.7c0,0.6,0.1,1.2,0.3,1.7c0.2,0.5,0.5,1,0.8,1.4
				c0.4,0.4,0.8,0.7,1.3,1c0.5,0.2,1,0.4,1.6,0.4c0.7,0,1.3-0.2,1.9-0.5c0.6-0.3,1.1-0.8,1.7-1.5v1.5
				C98.5,233.5,97.3,234.1,95.9,234.1z M99.3,229.4h-2.4v-1.1h3.7v5.7h-1.2V229.4z"/>
			<path class="st4" d="M102.4,230.7v-5h1.4v4.7c0,0.8,0.1,1.5,0.4,1.9c0.3,0.4,0.7,0.6,1.3,0.6c0.4,0,0.8-0.1,1.1-0.2
				s0.7-0.4,1-0.7c0.3-0.3,0.5-0.7,0.7-1.1v-5.2h1.4v6.7c0,0.2,0,0.3,0.1,0.4c0.1,0.1,0.2,0.1,0.3,0.1v1.1c-0.2,0-0.3,0-0.4,0
				c-0.1,0-0.2,0-0.3,0c-0.3,0-0.5-0.1-0.7-0.2c-0.2-0.2-0.3-0.4-0.3-0.6l0-1c-0.4,0.6-0.9,1.1-1.5,1.4c-0.6,0.3-1.3,0.5-2,0.5
				c-0.9,0-1.5-0.3-2-0.9C102.6,232.7,102.4,231.8,102.4,230.7z"/>
			<path class="st4" d="M111.5,231.6c0-0.5,0.2-1,0.5-1.4s0.7-0.7,1.3-0.9s1.2-0.3,1.9-0.3c0.4,0,0.8,0,1.2,0.1s0.8,0.1,1.1,0.3
				v-0.6c0-0.6-0.2-1.1-0.6-1.5c-0.4-0.4-0.9-0.5-1.6-0.5c-0.5,0-0.9,0.1-1.3,0.2c-0.4,0.2-0.9,0.4-1.3,0.7l-0.5-1
				c0.5-0.4,1.1-0.7,1.6-0.8c0.5-0.2,1.1-0.3,1.7-0.3c1.1,0,1.9,0.3,2.5,0.9s0.9,1.4,0.9,2.5v3.5c0,0.2,0,0.3,0.1,0.4
				c0.1,0.1,0.2,0.1,0.3,0.1v1.1c-0.1,0-0.3,0-0.4,0c-0.1,0-0.2,0-0.2,0c-0.3,0-0.6-0.1-0.7-0.3s-0.3-0.4-0.3-0.6l0-0.5
				c-0.4,0.5-0.8,0.8-1.4,1.1c-0.6,0.3-1.2,0.4-1.7,0.4c-0.6,0-1.1-0.1-1.5-0.3c-0.4-0.2-0.8-0.5-1-0.9
				C111.6,232.5,111.5,232.1,111.5,231.6z M116.9,232.2c0.1-0.1,0.2-0.3,0.3-0.5c0.1-0.2,0.1-0.3,0.1-0.4v-1c-0.3-0.1-0.7-0.2-1-0.3
				c-0.4-0.1-0.7-0.1-1.1-0.1c-0.7,0-1.3,0.1-1.7,0.4c-0.4,0.3-0.7,0.7-0.7,1.1c0,0.3,0.1,0.5,0.2,0.8s0.4,0.5,0.6,0.6
				c0.3,0.2,0.6,0.2,1,0.2c0.4,0,0.9-0.1,1.2-0.3C116.3,232.7,116.7,232.4,116.9,232.2z"/>
			<path class="st4" d="M125.4,226.9c-0.7,0-1.3,0.2-1.9,0.5s-0.9,0.8-1.1,1.4v5.2H121v-8.3h1.3v1.9c0.3-0.6,0.7-1,1.1-1.4
				c0.5-0.4,1-0.6,1.5-0.6c0.1,0,0.2,0,0.3,0s0.1,0,0.2,0V226.9z"/>
			<path class="st4" d="M126.1,231.6c0-0.5,0.2-1,0.5-1.4c0.3-0.4,0.7-0.7,1.3-0.9s1.2-0.3,1.9-0.3c0.4,0,0.8,0,1.2,0.1
				s0.8,0.1,1.1,0.3v-0.6c0-0.6-0.2-1.1-0.6-1.5c-0.4-0.4-0.9-0.5-1.6-0.5c-0.5,0-0.9,0.1-1.3,0.2c-0.4,0.2-0.9,0.4-1.3,0.7l-0.5-1
				c0.5-0.4,1.1-0.7,1.6-0.8c0.5-0.2,1.1-0.3,1.7-0.3c1.1,0,1.9,0.3,2.5,0.9c0.6,0.6,0.9,1.4,0.9,2.5v3.5c0,0.2,0,0.3,0.1,0.4
				c0.1,0.1,0.2,0.1,0.3,0.1v1.1c-0.1,0-0.3,0-0.4,0s-0.2,0-0.2,0c-0.3,0-0.6-0.1-0.7-0.3c-0.2-0.2-0.3-0.4-0.3-0.6l0-0.5
				c-0.4,0.5-0.8,0.8-1.4,1.1c-0.6,0.3-1.2,0.4-1.7,0.4c-0.6,0-1.1-0.1-1.5-0.3c-0.4-0.2-0.8-0.5-1-0.9
				C126.2,232.5,126.1,232.1,126.1,231.6z M131.6,232.2c0.1-0.1,0.2-0.3,0.3-0.5c0.1-0.2,0.1-0.3,0.1-0.4v-1c-0.3-0.1-0.7-0.2-1-0.3
				c-0.4-0.1-0.7-0.1-1.1-0.1c-0.7,0-1.3,0.1-1.7,0.4s-0.7,0.7-0.7,1.1c0,0.3,0.1,0.5,0.2,0.8c0.1,0.2,0.4,0.5,0.6,0.6
				c0.3,0.2,0.6,0.2,1,0.2c0.4,0,0.9-0.1,1.2-0.3C131,232.7,131.3,232.4,131.6,232.2z"/>
			<path class="st4" d="M142.9,234h-1.4v-4.6c0-0.9-0.1-1.5-0.4-1.9c-0.3-0.4-0.7-0.6-1.2-0.6c-0.4,0-0.8,0.1-1.1,0.3
				c-0.4,0.2-0.7,0.4-1,0.8c-0.3,0.3-0.5,0.7-0.6,1.1v5h-1.4v-8.3h1.3v1.8c0.2-0.4,0.5-0.7,0.9-1c0.4-0.3,0.8-0.5,1.2-0.7
				c0.4-0.2,0.9-0.2,1.4-0.2c0.5,0,0.9,0.1,1.2,0.3s0.6,0.4,0.8,0.7s0.3,0.7,0.4,1.1c0.1,0.4,0.1,0.9,0.1,1.4V234z"/>
			<path class="st4" d="M149.3,233.6c-0.1,0.1-0.3,0.1-0.5,0.2c-0.2,0.1-0.4,0.2-0.7,0.2c-0.3,0.1-0.5,0.1-0.8,0.1
				c-0.3,0-0.7-0.1-0.9-0.2c-0.3-0.1-0.5-0.3-0.7-0.6c-0.2-0.3-0.3-0.6-0.3-1v-5.6h-1.1v-1.1h1.1v-2.8h1.4v2.8h1.9v1.1h-1.9v5.2
				c0,0.3,0.1,0.5,0.3,0.7c0.2,0.1,0.4,0.2,0.6,0.2c0.3,0,0.5,0,0.8-0.1c0.2-0.1,0.4-0.2,0.5-0.2L149.3,233.6z"/>
			<path class="st4" d="M154.2,234.2c-0.6,0-1.2-0.1-1.7-0.3c-0.5-0.2-1-0.5-1.3-0.9c-0.4-0.4-0.7-0.9-0.9-1.4s-0.3-1.1-0.3-1.7
				c0-0.8,0.2-1.5,0.5-2.1c0.4-0.6,0.9-1.2,1.5-1.6c0.6-0.4,1.4-0.6,2.2-0.6c0.8,0,1.6,0.2,2.2,0.6s1.1,0.9,1.5,1.6
				c0.3,0.6,0.5,1.3,0.5,2.1c0,0.1,0,0.2,0,0.3c0,0.1,0,0.2,0,0.2h-6.9c0,0.5,0.2,1,0.5,1.4c0.3,0.4,0.6,0.7,1,1s0.9,0.4,1.3,0.4
				c0.5,0,1-0.1,1.4-0.4c0.5-0.3,0.8-0.6,0.9-1l1.2,0.3c-0.2,0.4-0.5,0.8-0.8,1.1c-0.4,0.3-0.8,0.6-1.3,0.8
				C155.3,234.1,154.8,234.2,154.2,234.2z M151.4,229.4h5.7c0-0.5-0.2-1-0.5-1.4s-0.6-0.7-1-1c-0.4-0.2-0.9-0.3-1.4-0.3
				c-0.5,0-0.9,0.1-1.4,0.3c-0.4,0.2-0.8,0.6-1,1S151.4,228.8,151.4,229.4z"/>
			<path class="st4" d="M163.7,234.2c-0.6,0-1.2-0.1-1.7-0.3c-0.5-0.2-1-0.5-1.3-0.9c-0.4-0.4-0.7-0.9-0.9-1.4s-0.3-1.1-0.3-1.7
				c0-0.8,0.2-1.5,0.5-2.1c0.4-0.6,0.9-1.2,1.5-1.6c0.6-0.4,1.4-0.6,2.2-0.6c0.8,0,1.6,0.2,2.2,0.6s1.1,0.9,1.5,1.6
				c0.3,0.6,0.5,1.3,0.5,2.1c0,0.1,0,0.2,0,0.3c0,0.1,0,0.2,0,0.2h-6.9c0,0.5,0.2,1,0.5,1.4c0.3,0.4,0.6,0.7,1,1s0.9,0.4,1.3,0.4
				c0.5,0,1-0.1,1.4-0.4c0.5-0.3,0.8-0.6,0.9-1l1.2,0.3c-0.2,0.4-0.5,0.8-0.8,1.1c-0.4,0.3-0.8,0.6-1.3,0.8
				C164.8,234.1,164.2,234.2,163.7,234.2z M160.9,229.4h5.7c0-0.5-0.2-1-0.5-1.4s-0.6-0.7-1-1c-0.4-0.2-0.9-0.3-1.4-0.3
				c-0.5,0-0.9,0.1-1.4,0.3c-0.4,0.2-0.8,0.6-1,1S160.9,228.8,160.9,229.4z"/>
			<path class="st4" d="M168.9,229.9c0-0.8,0.2-1.5,0.5-2.2c0.3-0.7,0.8-1.2,1.3-1.6c0.6-0.4,1.2-0.6,2-0.6c0.7,0,1.3,0.2,1.8,0.5
				c0.5,0.4,0.9,0.8,1.2,1.3v-5.1h1.4v10.1c0,0.2,0,0.3,0.1,0.4c0.1,0.1,0.2,0.1,0.3,0.1v1.1c-0.3,0-0.5,0.1-0.6,0.1
				c-0.3,0-0.5-0.1-0.7-0.3c-0.2-0.2-0.3-0.4-0.3-0.6v-0.7c-0.3,0.5-0.8,1-1.3,1.3c-0.6,0.3-1.1,0.5-1.7,0.5c-0.6,0-1.1-0.1-1.6-0.3
				s-0.9-0.5-1.3-0.9c-0.4-0.4-0.6-0.9-0.8-1.4S168.9,230.4,168.9,229.9z M175.7,231.1v-2.4c-0.1-0.4-0.3-0.7-0.6-1s-0.6-0.5-1-0.7
				c-0.4-0.2-0.7-0.3-1.1-0.3c-0.4,0-0.8,0.1-1.1,0.3c-0.3,0.2-0.6,0.4-0.9,0.7s-0.4,0.6-0.6,1c-0.1,0.4-0.2,0.8-0.2,1.2
				c0,0.4,0.1,0.8,0.2,1.2c0.1,0.4,0.3,0.7,0.6,1c0.3,0.3,0.6,0.5,0.9,0.7c0.3,0.2,0.7,0.2,1.1,0.2c0.3,0,0.5,0,0.8-0.1
				c0.3-0.1,0.5-0.2,0.8-0.4c0.2-0.2,0.5-0.4,0.6-0.6C175.6,231.6,175.7,231.3,175.7,231.1z"/>
			<path class="st4" d="M187.2,234.2c-0.6,0-1.2-0.1-1.7-0.3c-0.5-0.2-1-0.5-1.3-0.9c-0.4-0.4-0.7-0.9-0.9-1.4s-0.3-1.1-0.3-1.7
				c0-0.8,0.2-1.5,0.5-2.1c0.4-0.6,0.8-1.2,1.5-1.5c0.6-0.4,1.4-0.6,2.2-0.6c0.8,0,1.5,0.2,2.2,0.6s1.1,0.9,1.4,1.5l-1.4,0.4
				c-0.2-0.4-0.5-0.7-0.9-0.9c-0.4-0.2-0.8-0.3-1.3-0.3c-0.5,0-1,0.1-1.4,0.4c-0.4,0.3-0.8,0.6-1,1.1s-0.4,1-0.4,1.6
				c0,0.6,0.1,1.1,0.4,1.6s0.6,0.8,1,1.1c0.4,0.3,0.9,0.4,1.4,0.4c0.3,0,0.6-0.1,1-0.2c0.3-0.1,0.6-0.3,0.8-0.5s0.4-0.4,0.5-0.6
				l1.4,0.4c-0.2,0.4-0.4,0.8-0.8,1.1c-0.3,0.3-0.8,0.6-1.2,0.7C188.3,234.1,187.8,234.2,187.2,234.2z"/>
			<path class="st4" d="M196,234.2c-0.6,0-1.2-0.1-1.7-0.3c-0.5-0.2-1-0.5-1.3-0.9c-0.4-0.4-0.7-0.9-0.9-1.4
				c-0.2-0.5-0.3-1.1-0.3-1.6c0-0.6,0.1-1.1,0.3-1.7c0.2-0.5,0.5-1,0.9-1.4c0.4-0.4,0.8-0.7,1.3-0.9c0.5-0.2,1.1-0.3,1.7-0.3
				c0.6,0,1.2,0.1,1.7,0.3c0.5,0.2,1,0.5,1.3,0.9c0.4,0.4,0.7,0.9,0.9,1.4c0.2,0.5,0.3,1.1,0.3,1.7c0,0.6-0.1,1.1-0.3,1.6
				c-0.2,0.5-0.5,1-0.9,1.4c-0.4,0.4-0.8,0.7-1.3,0.9S196.6,234.2,196,234.2z M193.2,229.9c0,0.6,0.1,1.1,0.4,1.6
				c0.3,0.5,0.6,0.8,1,1.1c0.4,0.3,0.9,0.4,1.4,0.4c0.5,0,1-0.1,1.4-0.4c0.4-0.3,0.8-0.6,1-1.1c0.3-0.5,0.4-1,0.4-1.6
				c0-0.6-0.1-1.1-0.4-1.6c-0.2-0.5-0.6-0.8-1-1.1c-0.4-0.3-0.9-0.4-1.4-0.4c-0.5,0-1,0.1-1.4,0.4c-0.4,0.3-0.7,0.7-1,1.1
				C193.3,228.8,193.2,229.3,193.2,229.9z"/>
			<path class="st4" d="M201.8,230.7v-5h1.4v4.7c0,0.8,0.1,1.5,0.4,1.9c0.3,0.4,0.7,0.6,1.3,0.6c0.4,0,0.8-0.1,1.1-0.2
				s0.7-0.4,1-0.7c0.3-0.3,0.5-0.7,0.7-1.1v-5.2h1.4v6.7c0,0.2,0,0.3,0.1,0.4c0.1,0.1,0.2,0.1,0.3,0.1v1.1c-0.2,0-0.3,0-0.4,0
				c-0.1,0-0.2,0-0.3,0c-0.3,0-0.5-0.1-0.7-0.2c-0.2-0.2-0.3-0.4-0.3-0.6l0-1c-0.4,0.6-0.9,1.1-1.5,1.4c-0.6,0.3-1.3,0.5-2,0.5
				c-0.9,0-1.5-0.3-2-0.9S201.8,231.8,201.8,230.7z"/>
			<path class="st4" d="M216,226.9c-0.7,0-1.3,0.2-1.9,0.5c-0.5,0.3-0.9,0.8-1.1,1.4v5.2h-1.4v-8.3h1.3v1.9c0.3-0.6,0.7-1,1.1-1.4
				c0.5-0.4,1-0.6,1.5-0.6c0.1,0,0.2,0,0.3,0c0.1,0,0.1,0,0.2,0V226.9z"/>
			<path class="st4" d="M220.2,234.2c-0.7,0-1.3-0.1-2-0.3c-0.6-0.2-1.1-0.6-1.6-1l0.5-1c0.5,0.4,1,0.8,1.4,1c0.5,0.2,1,0.3,1.5,0.3
				c0.6,0,1-0.1,1.4-0.3s0.5-0.5,0.5-1c0-0.3-0.1-0.5-0.3-0.7s-0.5-0.3-0.8-0.4c-0.3-0.1-0.7-0.2-1.2-0.3c-0.6-0.2-1.1-0.3-1.5-0.5
				s-0.7-0.4-0.9-0.7c-0.2-0.3-0.3-0.6-0.3-1.1c0-0.5,0.1-1,0.4-1.3c0.3-0.4,0.7-0.6,1.1-0.8c0.5-0.2,1-0.3,1.7-0.3
				c0.6,0,1.2,0.1,1.7,0.3c0.5,0.2,0.9,0.5,1.3,0.8l-0.6,1c-0.3-0.3-0.7-0.6-1.1-0.8c-0.4-0.2-0.8-0.2-1.3-0.2c-0.3,0-0.6,0-0.8,0.1
				c-0.3,0.1-0.5,0.2-0.7,0.4c-0.2,0.2-0.3,0.4-0.3,0.7c0,0.3,0.1,0.5,0.2,0.6c0.1,0.2,0.4,0.3,0.6,0.4c0.3,0.1,0.6,0.2,1,0.3
				c0.6,0.2,1.2,0.4,1.6,0.5s0.8,0.4,1.1,0.7s0.4,0.7,0.4,1.2c0,0.8-0.3,1.4-0.9,1.8C222,233.9,221.2,234.2,220.2,234.2z"/>
			<path class="st4" d="M228.8,234.2c-0.6,0-1.2-0.1-1.7-0.3c-0.5-0.2-1-0.5-1.3-0.9c-0.4-0.4-0.7-0.9-0.9-1.4s-0.3-1.1-0.3-1.7
				c0-0.8,0.2-1.5,0.5-2.1c0.4-0.6,0.9-1.2,1.5-1.6c0.6-0.4,1.4-0.6,2.2-0.6c0.8,0,1.6,0.2,2.2,0.6s1.1,0.9,1.5,1.6
				c0.3,0.6,0.5,1.3,0.5,2.1c0,0.1,0,0.2,0,0.3c0,0.1,0,0.2,0,0.2h-6.9c0,0.5,0.2,1,0.5,1.4c0.3,0.4,0.6,0.7,1,1s0.9,0.4,1.3,0.4
				c0.5,0,1-0.1,1.4-0.4c0.5-0.3,0.8-0.6,0.9-1l1.2,0.3c-0.2,0.4-0.5,0.8-0.8,1.1c-0.4,0.3-0.8,0.6-1.3,0.8
				C229.9,234.1,229.4,234.2,228.8,234.2z M226,229.4h5.7c0-0.5-0.2-1-0.5-1.4s-0.6-0.7-1-1c-0.4-0.2-0.9-0.3-1.4-0.3
				c-0.5,0-0.9,0.1-1.4,0.3c-0.4,0.2-0.8,0.6-1,1S226.1,228.8,226,229.4z"/>
		</g>
	</g>
</g>
</svg>
