<?xml version="1.0" encoding="utf-8"?>
<!-- Generator: Adobe Illustrator 26.0.1, SVG Export Plug-In . SVG Version: 6.00 Build 0)  -->
<svg version="1.1" id="Layer_1" xmlns="http://www.w3.org/2000/svg" xmlns:xlink="http://www.w3.org/1999/xlink" x="0px" y="0px"
	 viewBox="0 0 250 250" style="enable-background:new 0 0 250 250;" xml:space="preserve">
<style type="text/css">
	.st0{clip-path:url(#SVGID_00000094581562283414788630000003805306011126703234_);}
	.st1{fill:#FFFFFF;}
	.st2{fill:#035397;}
	.st3{enable-background:new    ;}
	.st4{fill:#F1F1F1;}
	.st5{fill:#F1F1F1;stroke:#000000;stroke-width:0.343;stroke-miterlimit:10;}
	.st6{fill:#F1F1F1;stroke:#000000;stroke-width:1.371;stroke-linecap:round;stroke-miterlimit:10;}
	.st7{fill:none;stroke:#F1F1F1;}
</style>
<g>
	<defs>
		<rect id="SVGID_1_" y="0" width="250" height="250"/>
	</defs>
	<clipPath id="SVGID_00000026868901834131303410000011352867490624485299_">
		<use xlink:href="#SVGID_1_"  style="overflow:visible;"/>
	</clipPath>
	
		<g id="dot-Net-Full-Stack-Web-Apps-Development" style="clip-path:url(#SVGID_00000026868901834131303410000011352867490624485299_);">
		<rect y="0" class="st1" width="250" height="250"/>
		<g id="Group_280">
			<path id="Rectangle_1" class="st2" d="M7,0h236c3.9,0,7,3.1,7,7v236c0,3.9-3.1,7-7,7H7c-3.9,0-7-3.1-7-7V7C0,3.1,3.1,0,7,0z"/>
			<g class="st3">
				<path class="st4" d="M56.8,31v-2.2h1.5V31H56.8z"/>
				<path class="st4" d="M63,20.1V31h-1.8V16.8h1.5l8.7,11.1V16.8h1.8V31h-1.6L63,20.1z"/>
				<path class="st4" d="M80.8,31.2c-0.8,0-1.5-0.1-2.1-0.4c-0.6-0.3-1.2-0.7-1.7-1.2c-0.5-0.5-0.8-1.1-1.1-1.7
					c-0.3-0.6-0.4-1.3-0.4-2.1c0-1,0.2-1.9,0.7-2.7c0.5-0.8,1.1-1.5,1.9-1.9c0.8-0.5,1.7-0.7,2.8-0.7c1.1,0,2,0.2,2.8,0.7
					c0.8,0.5,1.4,1.1,1.8,1.9c0.4,0.8,0.6,1.7,0.6,2.6c0,0.1,0,0.3,0,0.4c0,0.1,0,0.2,0,0.3h-8.7c0.1,0.7,0.2,1.3,0.6,1.8
					c0.3,0.5,0.8,0.9,1.3,1.2c0.5,0.3,1.1,0.4,1.7,0.4c0.6,0,1.2-0.2,1.8-0.5c0.6-0.3,1-0.7,1.2-1.3l1.5,0.4c-0.2,0.5-0.6,1-1,1.4
					s-1,0.7-1.6,0.9C82.1,31.1,81.5,31.2,80.8,31.2z M77.3,25.2h7.1c-0.1-0.7-0.2-1.3-0.6-1.8c-0.3-0.5-0.8-0.9-1.3-1.2
					s-1.1-0.4-1.7-0.4c-0.6,0-1.2,0.1-1.7,0.4s-0.9,0.7-1.3,1.2S77.3,24.5,77.3,25.2z"/>
				<path class="st4" d="M93.3,30.5c-0.1,0.1-0.3,0.2-0.6,0.3c-0.3,0.1-0.5,0.2-0.9,0.3s-0.7,0.1-1.1,0.1c-0.4,0-0.8-0.1-1.2-0.2
					s-0.6-0.4-0.9-0.7c-0.2-0.3-0.3-0.7-0.3-1.2v-7H87v-1.4h1.4v-3.5h1.8v3.5h2.3V22h-2.3v6.5c0,0.4,0.2,0.6,0.4,0.8
					c0.2,0.2,0.5,0.3,0.8,0.3c0.3,0,0.7-0.1,1-0.2c0.3-0.1,0.5-0.2,0.6-0.3L93.3,30.5z"/>
				<path class="st4" d="M100.3,31V16.8h9.4v1.6h-7.6v4.7h6.4v1.5h-6.4V31H100.3z"/>
				<path class="st4" d="M110.9,26.8v-6.2h1.8v5.9c0,1.1,0.2,1.9,0.6,2.4c0.4,0.5,0.9,0.8,1.7,0.8c0.5,0,0.9-0.1,1.4-0.3
					s0.9-0.5,1.2-0.9c0.4-0.4,0.6-0.8,0.8-1.4v-6.5h1.8V29c0,0.2,0,0.4,0.1,0.5c0.1,0.1,0.2,0.2,0.4,0.2V31c-0.2,0-0.4,0-0.5,0
					s-0.2,0-0.3,0c-0.3,0-0.6-0.1-0.9-0.3c-0.2-0.2-0.4-0.5-0.4-0.8l0-1.2c-0.5,0.8-1.1,1.4-1.8,1.8c-0.8,0.4-1.6,0.6-2.5,0.6
					c-1.1,0-1.9-0.4-2.5-1.1C111.2,29.4,110.9,28.3,110.9,26.8z"/>
				<path class="st4" d="M123.1,16.4h1.8v12c0,0.6,0.1,0.9,0.2,1.1s0.4,0.2,0.6,0.2c0.3,0,0.5,0,0.8-0.1c0.3-0.1,0.5-0.1,0.6-0.2
					l0.3,1.4c-0.3,0.1-0.6,0.2-1,0.3s-0.8,0.1-1.1,0.1c-0.7,0-1.2-0.2-1.6-0.6c-0.4-0.4-0.6-0.9-0.6-1.6V16.4z"/>
				<path class="st4" d="M128.8,16.4h1.8v12c0,0.6,0.1,0.9,0.2,1.1s0.4,0.2,0.6,0.2c0.3,0,0.5,0,0.8-0.1c0.3-0.1,0.5-0.1,0.6-0.2
					l0.3,1.4c-0.3,0.1-0.6,0.2-1,0.3c-0.4,0.1-0.8,0.1-1.1,0.1c-0.7,0-1.2-0.2-1.6-0.6c-0.4-0.4-0.6-0.9-0.6-1.6V16.4z"/>
				<path class="st4" d="M147.5,19.8c-0.2-0.2-0.4-0.4-0.6-0.5c-0.3-0.2-0.6-0.3-0.9-0.5c-0.3-0.1-0.7-0.3-1.1-0.3
					c-0.4-0.1-0.8-0.1-1.2-0.1c-1.1,0-1.9,0.2-2.4,0.6c-0.5,0.4-0.8,1-0.8,1.7c0,0.5,0.1,0.9,0.4,1.2c0.3,0.3,0.7,0.5,1.2,0.7
					c0.6,0.2,1.3,0.4,2.1,0.6c1,0.2,1.8,0.5,2.6,0.8s1.3,0.7,1.7,1.2c0.4,0.5,0.6,1.2,0.6,2c0,0.7-0.1,1.3-0.4,1.8
					c-0.3,0.5-0.6,0.9-1.1,1.2c-0.5,0.3-1,0.6-1.6,0.7c-0.6,0.2-1.3,0.2-2,0.2c-0.7,0-1.4-0.1-2.1-0.2s-1.3-0.4-2-0.7
					s-1.2-0.7-1.7-1.1l0.9-1.5c0.2,0.2,0.5,0.5,0.8,0.7s0.7,0.4,1.2,0.6c0.4,0.2,0.9,0.3,1.4,0.4c0.5,0.1,1,0.2,1.6,0.2
					c1,0,1.8-0.2,2.4-0.5c0.6-0.4,0.8-0.9,0.8-1.6c0-0.5-0.2-1-0.5-1.3c-0.3-0.3-0.8-0.6-1.4-0.8s-1.4-0.4-2.2-0.6
					c-1-0.2-1.8-0.5-2.4-0.8c-0.7-0.3-1.1-0.7-1.5-1.1c-0.3-0.5-0.5-1.1-0.5-1.8c0-0.9,0.2-1.7,0.7-2.3s1-1.1,1.8-1.4
					c0.8-0.3,1.6-0.5,2.6-0.5c0.6,0,1.2,0.1,1.8,0.2c0.6,0.1,1.1,0.3,1.6,0.6c0.5,0.2,0.9,0.5,1.3,0.9L147.5,19.8z"/>
				<path class="st4" d="M156.3,30.5c-0.1,0.1-0.3,0.2-0.6,0.3c-0.3,0.1-0.5,0.2-0.9,0.3c-0.3,0.1-0.7,0.1-1.1,0.1
					c-0.4,0-0.8-0.1-1.2-0.2c-0.4-0.2-0.6-0.4-0.9-0.7c-0.2-0.3-0.3-0.7-0.3-1.2v-7H150v-1.4h1.4v-3.5h1.8v3.5h2.3V22h-2.3v6.5
					c0,0.4,0.2,0.6,0.4,0.8c0.2,0.2,0.5,0.3,0.8,0.3c0.3,0,0.7-0.1,1-0.2c0.3-0.1,0.5-0.2,0.6-0.3L156.3,30.5z"/>
				<path class="st4" d="M157.1,28c0-0.7,0.2-1.2,0.6-1.7c0.4-0.5,0.9-0.9,1.6-1.1c0.7-0.3,1.4-0.4,2.3-0.4c0.5,0,1,0,1.5,0.1
					c0.5,0.1,1,0.2,1.4,0.3v-0.8c0-0.8-0.2-1.4-0.7-1.9c-0.5-0.5-1.2-0.7-2-0.7c-0.6,0-1.1,0.1-1.7,0.3c-0.5,0.2-1.1,0.5-1.7,0.9
					l-0.6-1.2c0.7-0.5,1.4-0.8,2-1.1c0.7-0.2,1.4-0.3,2.1-0.3c1.3,0,2.4,0.4,3.2,1.1s1.2,1.8,1.2,3.1V29c0,0.2,0,0.4,0.1,0.5
					s0.2,0.2,0.4,0.2V31c-0.2,0-0.3,0-0.5,0.1c-0.1,0-0.2,0-0.3,0c-0.4,0-0.7-0.1-0.9-0.3c-0.2-0.2-0.3-0.5-0.3-0.7l0-0.7
					c-0.5,0.6-1,1-1.8,1.4c-0.7,0.3-1.5,0.5-2.2,0.5c-0.7,0-1.3-0.1-1.9-0.4c-0.5-0.3-1-0.7-1.3-1.2S157.1,28.6,157.1,28z
					 M163.9,28.7c0.2-0.2,0.3-0.4,0.4-0.6c0.1-0.2,0.1-0.4,0.1-0.5v-1.3c-0.4-0.2-0.8-0.3-1.3-0.4c-0.5-0.1-0.9-0.1-1.3-0.1
					c-0.9,0-1.6,0.2-2.2,0.5c-0.6,0.3-0.8,0.8-0.8,1.4c0,0.3,0.1,0.7,0.3,1c0.2,0.3,0.4,0.6,0.8,0.8s0.8,0.3,1.3,0.3
					c0.5,0,1.1-0.1,1.6-0.3S163.6,29.1,163.9,28.7z"/>
				<path class="st4" d="M173.6,31.2c-0.8,0-1.5-0.1-2.1-0.4c-0.6-0.3-1.2-0.7-1.7-1.2s-0.8-1.1-1.1-1.7s-0.4-1.3-0.4-2.1
					c0-1,0.2-1.9,0.7-2.7c0.4-0.8,1.1-1.5,1.9-1.9s1.7-0.7,2.8-0.7c1,0,1.9,0.2,2.7,0.7s1.3,1.1,1.7,1.8l-1.7,0.5
					c-0.3-0.5-0.6-0.9-1.1-1.2c-0.5-0.3-1-0.4-1.6-0.4c-0.6,0-1.2,0.2-1.8,0.5c-0.5,0.3-0.9,0.8-1.2,1.4s-0.5,1.2-0.5,2
					c0,0.7,0.2,1.4,0.5,2c0.3,0.6,0.7,1.1,1.3,1.4c0.5,0.3,1.1,0.5,1.8,0.5c0.4,0,0.8-0.1,1.2-0.2s0.7-0.3,1-0.6
					c0.3-0.2,0.5-0.5,0.6-0.8l1.7,0.5c-0.2,0.5-0.5,1-1,1.3c-0.4,0.4-0.9,0.7-1.5,0.9C175,31.1,174.3,31.2,173.6,31.2z"/>
				<path class="st4" d="M187.5,31l-3.6-5.1l-2,1.9V31h-1.8V16.4h1.8V26l5.4-5.3h1.9l-4.2,4.3l4.4,6.1H187.5z"/>
			</g>
			<g class="st3">
				<path class="st4" d="M17.4,40.9h1.7l1.9,4.9l1.9-4.9h1.7l-2.5,6.2l2.4,5.9l4.8-12.1h2L25.4,55h-1.6L21,48.3L18.2,55h-1.6
					l-5.9-14.2h1.9l4.8,12.1l2.4-5.9L17.4,40.9z"/>
				<path class="st4" d="M36.2,55.2c-0.8,0-1.5-0.1-2.1-0.4c-0.6-0.3-1.2-0.7-1.7-1.2c-0.5-0.5-0.8-1.1-1.1-1.7
					c-0.3-0.6-0.4-1.3-0.4-2.1c0-1,0.2-1.9,0.7-2.7c0.5-0.8,1.1-1.5,1.9-1.9c0.8-0.5,1.7-0.7,2.8-0.7c1.1,0,2,0.2,2.8,0.7
					c0.8,0.5,1.4,1.1,1.8,1.9c0.4,0.8,0.6,1.7,0.6,2.6c0,0.1,0,0.3,0,0.4c0,0.1,0,0.2,0,0.3h-8.7c0.1,0.7,0.2,1.3,0.6,1.8
					c0.3,0.5,0.8,0.9,1.3,1.2c0.5,0.3,1.1,0.4,1.7,0.4c0.6,0,1.2-0.2,1.8-0.5c0.6-0.3,1-0.7,1.2-1.3l1.5,0.4c-0.2,0.5-0.6,1-1,1.4
					s-1,0.7-1.6,0.9C37.6,55.1,36.9,55.2,36.2,55.2z M32.7,49.2h7.1c-0.1-0.7-0.2-1.3-0.6-1.8c-0.3-0.5-0.8-0.9-1.3-1.2
					s-1.1-0.4-1.7-0.4c-0.6,0-1.2,0.1-1.7,0.4s-0.9,0.7-1.3,1.2S32.7,48.5,32.7,49.2z"/>
				<path class="st4" d="M48.8,55.2c-0.8,0-1.6-0.2-2.2-0.6c-0.7-0.4-1.2-0.9-1.6-1.6v2h-1.6V40.4h1.8v6.3c0.4-0.7,1-1.2,1.6-1.6
					c0.6-0.4,1.4-0.6,2.2-0.6c0.7,0,1.4,0.1,1.9,0.4s1.1,0.7,1.5,1.2c0.4,0.5,0.7,1.1,0.9,1.7c0.2,0.6,0.3,1.3,0.3,2
					c0,0.7-0.1,1.4-0.4,2.1c-0.2,0.6-0.6,1.2-1.1,1.7s-1,0.9-1.6,1.2C50.1,55.1,49.5,55.2,48.8,55.2z M48.3,53.7
					c0.5,0,1-0.1,1.4-0.3c0.4-0.2,0.8-0.5,1.1-0.9c0.3-0.4,0.6-0.8,0.7-1.2c0.2-0.5,0.3-0.9,0.3-1.4c0-0.7-0.1-1.3-0.4-1.9
					c-0.3-0.6-0.7-1.1-1.2-1.4c-0.5-0.4-1.1-0.5-1.8-0.5c-0.5,0-1,0.1-1.4,0.3c-0.4,0.2-0.8,0.5-1.1,0.9c-0.3,0.4-0.6,0.8-0.8,1.2v3
					c0.1,0.3,0.2,0.6,0.4,0.9c0.2,0.3,0.5,0.5,0.8,0.7c0.3,0.2,0.6,0.4,1,0.5C47.7,53.6,48,53.7,48.3,53.7z"/>
				<path class="st4" d="M64.9,40.8h1.5L72.2,55h-1.9l-1.6-4.2h-6.1L61,55h-1.9L64.9,40.8z M68.2,49.4l-2.5-6.6l-2.5,6.6H68.2z"/>
				<path class="st4" d="M79.5,55.2c-0.9,0-1.6-0.2-2.3-0.6c-0.7-0.4-1.2-1-1.6-1.6v6.3h-1.8V44.6h1.6v2c0.4-0.6,1-1.1,1.6-1.5
					c0.7-0.4,1.4-0.6,2.2-0.6c0.7,0,1.4,0.1,2,0.4c0.6,0.3,1.1,0.7,1.6,1.2s0.8,1.1,1,1.7c0.2,0.6,0.4,1.3,0.4,2
					c0,1-0.2,1.9-0.6,2.7c-0.4,0.8-0.9,1.5-1.6,2C81.2,55,80.4,55.2,79.5,55.2z M78.9,53.7c0.5,0,1-0.1,1.4-0.3s0.8-0.5,1.1-0.9
					c0.3-0.4,0.5-0.8,0.7-1.2c0.2-0.5,0.2-0.9,0.2-1.4c0-0.5-0.1-1-0.3-1.5c-0.2-0.5-0.4-0.9-0.8-1.2c-0.3-0.4-0.7-0.6-1.1-0.8
					c-0.4-0.2-0.9-0.3-1.4-0.3c-0.3,0-0.6,0.1-1,0.2c-0.3,0.1-0.7,0.3-1,0.5c-0.3,0.2-0.6,0.5-0.8,0.7c-0.2,0.3-0.4,0.6-0.4,0.9v3
					c0.2,0.4,0.5,0.9,0.8,1.2c0.3,0.4,0.7,0.7,1.2,0.9C78,53.6,78.5,53.7,78.9,53.7z"/>
				<path class="st4" d="M91.9,55.2c-0.9,0-1.6-0.2-2.3-0.6c-0.7-0.4-1.2-1-1.6-1.6v6.3h-1.8V44.6h1.6v2c0.4-0.6,1-1.1,1.6-1.5
					c0.7-0.4,1.4-0.6,2.2-0.6c0.7,0,1.4,0.1,2,0.4c0.6,0.3,1.1,0.7,1.6,1.2s0.8,1.1,1,1.7c0.2,0.6,0.4,1.3,0.4,2
					c0,1-0.2,1.9-0.6,2.7c-0.4,0.8-0.9,1.5-1.6,2C93.7,55,92.8,55.2,91.9,55.2z M91.4,53.7c0.5,0,1-0.1,1.4-0.3s0.8-0.5,1.1-0.9
					c0.3-0.4,0.5-0.8,0.7-1.2c0.2-0.5,0.2-0.9,0.2-1.4c0-0.5-0.1-1-0.3-1.5c-0.2-0.5-0.4-0.9-0.8-1.2c-0.3-0.4-0.7-0.6-1.1-0.8
					c-0.4-0.2-0.9-0.3-1.4-0.3c-0.3,0-0.6,0.1-1,0.2c-0.3,0.1-0.7,0.3-1,0.5c-0.3,0.2-0.6,0.5-0.8,0.7c-0.2,0.3-0.4,0.6-0.4,0.9v3
					c0.2,0.4,0.5,0.9,0.8,1.2c0.3,0.4,0.7,0.7,1.2,0.9C90.5,53.6,90.9,53.7,91.4,53.7z"/>
				<path class="st4" d="M102.3,55.2c-0.9,0-1.7-0.1-2.4-0.4c-0.8-0.3-1.4-0.7-2-1.3l0.7-1.2c0.6,0.6,1.2,1,1.8,1.2
					c0.6,0.2,1.2,0.4,1.8,0.4c0.7,0,1.3-0.1,1.8-0.4c0.5-0.3,0.7-0.7,0.7-1.2c0-0.4-0.1-0.7-0.4-0.9s-0.6-0.3-1-0.5
					c-0.4-0.1-0.9-0.3-1.5-0.4c-0.7-0.2-1.3-0.4-1.8-0.7c-0.5-0.2-0.9-0.5-1.1-0.9c-0.3-0.4-0.4-0.8-0.4-1.3c0-0.7,0.2-1.2,0.5-1.7
					c0.3-0.5,0.8-0.8,1.4-1c0.6-0.2,1.3-0.4,2.1-0.4c0.8,0,1.5,0.1,2.1,0.4c0.6,0.2,1.2,0.6,1.6,1.1l-0.8,1.2
					c-0.4-0.4-0.9-0.7-1.4-0.9c-0.5-0.2-1-0.3-1.7-0.3c-0.4,0-0.7,0-1.1,0.1s-0.6,0.2-0.9,0.5c-0.2,0.2-0.3,0.5-0.3,0.9
					c0,0.3,0.1,0.6,0.3,0.8c0.2,0.2,0.4,0.4,0.8,0.5c0.4,0.1,0.8,0.3,1.3,0.4c0.8,0.2,1.5,0.4,2,0.7s1,0.5,1.4,0.9
					c0.3,0.4,0.5,0.9,0.5,1.5c0,1-0.4,1.7-1.1,2.3C104.6,54.9,103.6,55.2,102.3,55.2z"/>
				<path class="st4" d="M113.9,55V40.8h4.9c1.5,0,2.8,0.3,3.8,1c1,0.6,1.8,1.5,2.3,2.6c0.5,1.1,0.8,2.3,0.8,3.6
					c0,1.4-0.3,2.7-0.8,3.8c-0.6,1.1-1.4,1.9-2.4,2.5s-2.2,0.9-3.6,0.9H113.9z M123.8,47.9c0-1.1-0.2-2-0.6-2.8
					c-0.4-0.8-1-1.5-1.7-1.9c-0.7-0.5-1.7-0.7-2.7-0.7h-3.1v11h3.1c1.1,0,2-0.2,2.8-0.7c0.7-0.5,1.3-1.1,1.7-2
					C123.6,49.9,123.8,48.9,123.8,47.9z"/>
				<path class="st4" d="M132.5,55.2c-0.8,0-1.5-0.1-2.1-0.4c-0.6-0.3-1.2-0.7-1.7-1.2s-0.8-1.1-1.1-1.7s-0.4-1.3-0.4-2.1
					c0-1,0.2-1.9,0.7-2.7c0.5-0.8,1.1-1.5,1.9-1.9c0.8-0.5,1.7-0.7,2.8-0.7c1.1,0,2,0.2,2.8,0.7c0.8,0.5,1.4,1.1,1.8,1.9
					c0.4,0.8,0.7,1.7,0.7,2.6c0,0.1,0,0.3,0,0.4c0,0.1,0,0.2,0,0.3h-8.7c0.1,0.7,0.2,1.3,0.6,1.8c0.3,0.5,0.8,0.9,1.3,1.2
					c0.5,0.3,1.1,0.4,1.7,0.4c0.6,0,1.2-0.2,1.8-0.5c0.6-0.3,1-0.7,1.2-1.3l1.5,0.4c-0.2,0.5-0.6,1-1,1.4c-0.4,0.4-1,0.7-1.6,0.9
					C133.9,55.1,133.2,55.2,132.5,55.2z M129,49.2h7.1c-0.1-0.7-0.2-1.3-0.6-1.8c-0.3-0.5-0.8-0.9-1.3-1.2c-0.5-0.3-1.1-0.4-1.7-0.4
					c-0.6,0-1.2,0.1-1.7,0.4c-0.5,0.3-0.9,0.7-1.3,1.2C129.2,47.9,129.1,48.5,129,49.2z"/>
				<path class="st4" d="M142.4,55l-4.1-10.4h1.8l3.3,8.7l3.3-8.7h1.7L144.4,55H142.4z"/>
				<path class="st4" d="M154.5,55.2c-0.8,0-1.5-0.1-2.1-0.4c-0.6-0.3-1.2-0.7-1.7-1.2s-0.8-1.1-1.1-1.7s-0.4-1.3-0.4-2.1
					c0-1,0.2-1.9,0.7-2.7c0.5-0.8,1.1-1.5,1.9-1.9c0.8-0.5,1.7-0.7,2.8-0.7c1.1,0,2,0.2,2.8,0.7c0.8,0.5,1.4,1.1,1.8,1.9
					c0.4,0.8,0.7,1.7,0.7,2.6c0,0.1,0,0.3,0,0.4c0,0.1,0,0.2,0,0.3H151c0.1,0.7,0.2,1.3,0.6,1.8c0.3,0.5,0.8,0.9,1.3,1.2
					c0.5,0.3,1.1,0.4,1.7,0.4c0.6,0,1.2-0.2,1.8-0.5c0.6-0.3,1-0.7,1.2-1.3l1.5,0.4c-0.2,0.5-0.6,1-1,1.4c-0.4,0.4-1,0.7-1.6,0.9
					C155.8,55.1,155.2,55.2,154.5,55.2z M151,49.2h7.1c-0.1-0.7-0.2-1.3-0.6-1.8c-0.3-0.5-0.8-0.9-1.3-1.2c-0.5-0.3-1.1-0.4-1.7-0.4
					c-0.6,0-1.2,0.1-1.7,0.4c-0.5,0.3-0.9,0.7-1.3,1.2C151.2,47.9,151,48.5,151,49.2z"/>
				<path class="st4" d="M161.7,40.4h1.8v12c0,0.6,0.1,0.9,0.2,1.1s0.4,0.2,0.6,0.2c0.3,0,0.5,0,0.8-0.1c0.3-0.1,0.5-0.1,0.6-0.2
					l0.3,1.4c-0.3,0.1-0.6,0.2-1,0.3s-0.8,0.1-1.1,0.1c-0.7,0-1.2-0.2-1.6-0.6c-0.4-0.4-0.6-0.9-0.6-1.6V40.4z"/>
				<path class="st4" d="M172,55.2c-0.8,0-1.5-0.1-2.1-0.4c-0.6-0.3-1.2-0.7-1.7-1.2s-0.8-1.1-1.1-1.7s-0.4-1.3-0.4-2
					c0-0.7,0.1-1.4,0.4-2.1s0.6-1.2,1.1-1.7c0.5-0.5,1-0.9,1.7-1.2c0.6-0.3,1.4-0.4,2.2-0.4c0.8,0,1.5,0.1,2.1,0.4
					c0.6,0.3,1.2,0.7,1.7,1.2c0.5,0.5,0.8,1.1,1.1,1.7c0.3,0.6,0.4,1.3,0.4,2.1c0,0.7-0.1,1.4-0.4,2c-0.3,0.6-0.6,1.2-1.1,1.7
					s-1,0.9-1.7,1.2C173.5,55.1,172.7,55.2,172,55.2z M168.5,49.9c0,0.7,0.2,1.4,0.5,1.9c0.3,0.6,0.7,1,1.2,1.4
					c0.5,0.3,1.1,0.5,1.7,0.5c0.6,0,1.2-0.2,1.8-0.5c0.5-0.3,0.9-0.8,1.3-1.4c0.3-0.6,0.5-1.2,0.5-1.9s-0.2-1.4-0.5-1.9
					c-0.3-0.6-0.7-1-1.3-1.4c-0.5-0.3-1.1-0.5-1.8-0.5c-0.6,0-1.2,0.2-1.7,0.5c-0.5,0.3-0.9,0.8-1.2,1.4
					C168.7,48.5,168.5,49.1,168.5,49.9z"/>
				<path class="st4" d="M185,55.2c-0.9,0-1.6-0.2-2.3-0.6c-0.7-0.4-1.2-1-1.6-1.6v6.3h-1.8V44.6h1.6v2c0.4-0.6,1-1.1,1.6-1.5
					c0.7-0.4,1.4-0.6,2.2-0.6c0.7,0,1.4,0.1,2,0.4c0.6,0.3,1.1,0.7,1.6,1.2c0.4,0.5,0.8,1.1,1,1.7c0.2,0.6,0.4,1.3,0.4,2
					c0,1-0.2,1.9-0.6,2.7c-0.4,0.8-0.9,1.5-1.6,2C186.7,55,185.9,55.2,185,55.2z M184.5,53.7c0.5,0,1-0.1,1.4-0.3s0.8-0.5,1.1-0.9
					c0.3-0.4,0.5-0.8,0.7-1.2c0.2-0.5,0.2-0.9,0.2-1.4c0-0.5-0.1-1-0.3-1.5s-0.4-0.9-0.8-1.2c-0.3-0.4-0.7-0.6-1.1-0.8
					c-0.4-0.2-0.9-0.3-1.4-0.3c-0.3,0-0.6,0.1-1,0.2c-0.3,0.1-0.7,0.3-1,0.5c-0.3,0.2-0.6,0.5-0.8,0.7c-0.2,0.3-0.4,0.6-0.4,0.9v3
					c0.2,0.4,0.5,0.9,0.8,1.2c0.3,0.4,0.7,0.7,1.2,0.9C183.5,53.6,184,53.7,184.5,53.7z"/>
				<path class="st4" d="M207.6,55h-1.8v-5.8c0-1.1-0.2-1.9-0.5-2.4s-0.9-0.8-1.6-0.8c-0.7,0-1.3,0.3-1.9,0.8s-1,1.2-1.2,2V55h-1.8
					v-5.8c0-1.1-0.2-1.9-0.5-2.4s-0.9-0.8-1.6-0.8s-1.3,0.2-1.9,0.7s-1,1.1-1.2,2V55h-1.8V44.6h1.6v2.2c0.4-0.8,1-1.4,1.7-1.8
					c0.7-0.4,1.4-0.6,2.3-0.6c0.9,0,1.6,0.2,2.1,0.7c0.5,0.5,0.8,1.1,1,1.8c0.5-0.8,1-1.4,1.7-1.9c0.7-0.4,1.4-0.6,2.3-0.6
					c0.6,0,1.1,0.1,1.5,0.3c0.4,0.2,0.7,0.5,1,0.9c0.2,0.4,0.4,0.9,0.5,1.4s0.2,1.1,0.2,1.7V55z"/>
				<path class="st4" d="M214.9,55.2c-0.8,0-1.5-0.1-2.2-0.4c-0.6-0.3-1.2-0.7-1.7-1.2c-0.5-0.5-0.8-1.1-1.1-1.7
					c-0.3-0.6-0.4-1.3-0.4-2.1c0-1,0.2-1.9,0.7-2.7c0.5-0.8,1.1-1.5,1.9-1.9c0.8-0.5,1.7-0.7,2.8-0.7c1.1,0,2,0.2,2.8,0.7
					s1.4,1.1,1.8,1.9c0.4,0.8,0.6,1.7,0.6,2.6c0,0.1,0,0.3,0,0.4s0,0.2,0,0.3h-8.7c0.1,0.7,0.2,1.3,0.6,1.8c0.3,0.5,0.8,0.9,1.3,1.2
					c0.5,0.3,1.1,0.4,1.7,0.4c0.6,0,1.2-0.2,1.8-0.5c0.6-0.3,1-0.7,1.2-1.3l1.5,0.4c-0.2,0.5-0.6,1-1,1.4c-0.4,0.4-1,0.7-1.6,0.9
					S215.6,55.2,214.9,55.2z M211.4,49.2h7.1c-0.1-0.7-0.2-1.3-0.6-1.8s-0.8-0.9-1.3-1.2c-0.5-0.3-1.1-0.4-1.7-0.4
					c-0.6,0-1.2,0.1-1.7,0.4c-0.5,0.3-0.9,0.7-1.3,1.2C211.7,47.9,211.5,48.5,211.4,49.2z"/>
				<path class="st4" d="M231.2,55h-1.8v-5.8c0-1.1-0.2-1.9-0.5-2.4s-0.9-0.8-1.5-0.8c-0.5,0-1,0.1-1.4,0.4c-0.5,0.2-0.9,0.6-1.3,1
					c-0.4,0.4-0.6,0.9-0.8,1.4V55h-1.8V44.6h1.6v2.2c0.3-0.5,0.6-0.9,1.1-1.3c0.4-0.4,0.9-0.6,1.5-0.8c0.6-0.2,1.1-0.3,1.8-0.3
					c0.6,0,1.1,0.1,1.5,0.3c0.4,0.2,0.7,0.5,1,0.9c0.2,0.4,0.4,0.9,0.5,1.4c0.1,0.5,0.1,1.1,0.1,1.7V55z"/>
				<path class="st4" d="M239.2,54.5c-0.1,0.1-0.3,0.2-0.6,0.3c-0.3,0.1-0.5,0.2-0.9,0.3c-0.3,0.1-0.7,0.1-1.1,0.1
					c-0.4,0-0.8-0.1-1.2-0.2c-0.4-0.2-0.6-0.4-0.9-0.7c-0.2-0.3-0.3-0.7-0.3-1.2v-7h-1.4v-1.4h1.4v-3.5h1.8v3.5h2.3V46h-2.3v6.5
					c0,0.4,0.2,0.6,0.4,0.8c0.2,0.2,0.5,0.3,0.8,0.3c0.3,0,0.7-0.1,1-0.2c0.3-0.1,0.5-0.2,0.6-0.3L239.2,54.5z"/>
			</g>
			<g class="st3">
				<path class="st4" d="M23.3,232.7v1.3h-5.7v-1.3h2.3v-6.2c-0.1,0.1-0.2,0.3-0.4,0.4c-0.2,0.1-0.4,0.3-0.7,0.4s-0.5,0.2-0.8,0.3
					s-0.5,0.1-0.7,0.1v-1.3c0.2,0,0.5-0.1,0.8-0.2c0.3-0.1,0.6-0.3,0.8-0.5s0.5-0.4,0.7-0.5c0.2-0.2,0.3-0.3,0.3-0.3h1.4v7.9H23.3z"
					/>
				<path class="st4" d="M32.7,229.4c0,0.9-0.2,1.7-0.5,2.5s-0.8,1.3-1.4,1.7c-0.6,0.4-1.3,0.6-2.1,0.6c-0.8,0-1.5-0.2-2.1-0.6
					c-0.6-0.4-1.1-1-1.4-1.7s-0.5-1.5-0.5-2.5s0.2-1.7,0.5-2.5s0.8-1.3,1.4-1.7s1.3-0.6,2.1-0.6c0.8,0,1.5,0.2,2.1,0.6
					c0.6,0.4,1.1,1,1.4,1.7S32.7,228.5,32.7,229.4z M31.3,229.4c0-0.7-0.1-1.3-0.3-1.8c-0.2-0.5-0.5-0.9-0.9-1.2
					c-0.4-0.3-0.8-0.4-1.4-0.4c-0.5,0-1,0.1-1.4,0.4c-0.4,0.3-0.7,0.7-0.9,1.2s-0.3,1.1-0.3,1.8c0,0.7,0.1,1.3,0.3,1.8
					c0.2,0.5,0.5,0.9,0.9,1.2c0.4,0.3,0.9,0.4,1.4,0.4c0.5,0,1-0.1,1.4-0.4c0.4-0.3,0.7-0.7,0.9-1.2
					C31.2,230.7,31.3,230.1,31.3,229.4z"/>
				<path class="st4" d="M42.5,229.4c0,0.9-0.2,1.7-0.5,2.5s-0.8,1.3-1.4,1.7c-0.6,0.4-1.3,0.6-2.1,0.6c-0.8,0-1.5-0.2-2.1-0.6
					c-0.6-0.4-1.1-1-1.4-1.7s-0.5-1.5-0.5-2.5s0.2-1.7,0.5-2.5s0.8-1.3,1.4-1.7s1.3-0.6,2.1-0.6c0.8,0,1.5,0.2,2.1,0.6
					c0.6,0.4,1.1,1,1.4,1.7S42.5,228.5,42.5,229.4z M41.1,229.4c0-0.7-0.1-1.3-0.3-1.8c-0.2-0.5-0.5-0.9-0.9-1.2
					c-0.4-0.3-0.8-0.4-1.4-0.4c-0.5,0-1,0.1-1.4,0.4c-0.4,0.3-0.7,0.7-0.9,1.2s-0.3,1.1-0.3,1.8c0,0.7,0.1,1.3,0.3,1.8
					c0.2,0.5,0.5,0.9,0.9,1.2c0.4,0.3,0.9,0.4,1.4,0.4c0.5,0,1-0.1,1.4-0.4c0.4-0.3,0.7-0.7,0.9-1.2C41,230.7,41.1,230.1,41.1,229.4
					z"/>
				<path class="st4" d="M46.4,227.2c-0.4,0-0.9-0.1-1.2-0.3c-0.4-0.2-0.7-0.5-0.9-0.8c-0.2-0.4-0.3-0.8-0.3-1.2
					c0-0.4,0.1-0.8,0.3-1.2c0.2-0.4,0.5-0.6,0.9-0.8c0.4-0.2,0.8-0.3,1.2-0.3c0.5,0,0.9,0.1,1.2,0.3c0.4,0.2,0.7,0.5,0.9,0.8
					c0.2,0.4,0.3,0.7,0.3,1.2c0,0.4-0.1,0.8-0.3,1.2s-0.5,0.6-0.9,0.8C47.3,227.1,46.9,227.2,46.4,227.2z M44.5,233.4l4.5-5.3
					l4.3-5.4l0.7,0.6l-4.4,5.3l-4.4,5.5L44.5,233.4z M46.4,226.5c0.3,0,0.5-0.1,0.7-0.2c0.2-0.1,0.4-0.3,0.5-0.6
					c0.1-0.2,0.2-0.5,0.2-0.8c0-0.3-0.1-0.6-0.2-0.8c-0.1-0.2-0.3-0.4-0.5-0.6c-0.2-0.1-0.5-0.2-0.7-0.2c-0.3,0-0.5,0.1-0.7,0.2
					c-0.2,0.1-0.4,0.3-0.5,0.6s-0.2,0.5-0.2,0.8c0,0.3,0.1,0.5,0.2,0.8c0.1,0.2,0.3,0.4,0.5,0.6C45.9,226.4,46.2,226.5,46.4,226.5z
					 M52,234.1c-0.5,0-0.9-0.1-1.2-0.3c-0.4-0.2-0.7-0.5-0.9-0.8s-0.3-0.7-0.3-1.2c0-0.4,0.1-0.8,0.3-1.2c0.2-0.4,0.5-0.6,0.9-0.8
					c0.4-0.2,0.8-0.3,1.2-0.3s0.9,0.1,1.2,0.3s0.7,0.5,0.9,0.8c0.2,0.4,0.3,0.7,0.3,1.2c0,0.4-0.1,0.8-0.3,1.2
					c-0.2,0.4-0.5,0.6-0.9,0.8S52.5,234.1,52,234.1z M52,233.3c0.3,0,0.5-0.1,0.7-0.2c0.2-0.1,0.4-0.3,0.5-0.6
					c0.1-0.2,0.2-0.5,0.2-0.8c0-0.3-0.1-0.6-0.2-0.8c-0.1-0.2-0.3-0.4-0.5-0.6s-0.5-0.2-0.7-0.2c-0.3,0-0.5,0.1-0.7,0.2
					c-0.2,0.1-0.4,0.3-0.5,0.6s-0.2,0.5-0.2,0.8c0,0.3,0.1,0.5,0.2,0.8c0.1,0.2,0.3,0.4,0.5,0.6C51.6,233.2,51.8,233.3,52,233.3z"/>
				<path class="st4" d="M59.3,232.2c0.2,0.1,0.5,0.3,0.8,0.4c0.4,0.1,0.8,0.2,1.3,0.2c0.5,0,0.9-0.1,1.2-0.2
					c0.3-0.2,0.6-0.4,0.7-0.7c0.2-0.3,0.3-0.8,0.4-1.3s0.1-1.1,0.1-1.8v-6h1.4v5.7c0,0.8,0,1.6-0.1,2.3s-0.3,1.3-0.5,1.8
					c-0.3,0.5-0.6,0.9-1.1,1.2c-0.5,0.3-1.2,0.4-2,0.4c-0.5,0-1-0.1-1.4-0.2s-0.8-0.3-1.1-0.5L59.3,232.2z"/>
				<path class="st4" d="M71.1,234.2c-0.6,0-1.2-0.1-1.7-0.3c-0.5-0.2-1-0.5-1.3-0.9c-0.4-0.4-0.7-0.9-0.9-1.4s-0.3-1.1-0.3-1.6
					c0-0.6,0.1-1.1,0.3-1.7c0.2-0.5,0.5-1,0.9-1.4c0.4-0.4,0.8-0.7,1.3-0.9c0.5-0.2,1.1-0.3,1.7-0.3c0.6,0,1.2,0.1,1.7,0.3
					c0.5,0.2,1,0.5,1.3,0.9c0.4,0.4,0.7,0.9,0.9,1.4c0.2,0.5,0.3,1.1,0.3,1.7c0,0.6-0.1,1.1-0.3,1.6s-0.5,1-0.9,1.4
					c-0.4,0.4-0.8,0.7-1.3,0.9S71.7,234.2,71.1,234.2z M68.4,229.9c0,0.6,0.1,1.1,0.4,1.6c0.3,0.5,0.6,0.8,1,1.1
					c0.4,0.3,0.9,0.4,1.4,0.4c0.5,0,1-0.1,1.4-0.4s0.8-0.6,1-1.1s0.4-1,0.4-1.6c0-0.6-0.1-1.1-0.4-1.6c-0.3-0.5-0.6-0.8-1-1.1
					c-0.4-0.3-0.9-0.4-1.4-0.4c-0.5,0-1,0.1-1.4,0.4c-0.4,0.3-0.7,0.7-1,1.1C68.5,228.8,68.4,229.3,68.4,229.9z"/>
				<path class="st4" d="M81.3,234.2c-0.7,0-1.2-0.2-1.8-0.5c-0.5-0.3-1-0.7-1.3-1.2v1.6h-1.2v-11.7h1.4v5.1c0.4-0.5,0.8-1,1.3-1.3
					c0.5-0.3,1.1-0.5,1.8-0.5c0.6,0,1.1,0.1,1.6,0.4c0.5,0.2,0.9,0.6,1.2,1c0.3,0.4,0.6,0.9,0.8,1.4c0.2,0.5,0.3,1.1,0.3,1.6
					c0,0.6-0.1,1.1-0.3,1.6c-0.2,0.5-0.5,1-0.8,1.4c-0.4,0.4-0.8,0.7-1.3,0.9C82.4,234,81.9,234.2,81.3,234.2z M81,232.9
					c0.4,0,0.8-0.1,1.2-0.3s0.7-0.4,0.9-0.7c0.3-0.3,0.5-0.6,0.6-1c0.1-0.4,0.2-0.8,0.2-1.1c0-0.5-0.1-1-0.3-1.5
					c-0.2-0.5-0.5-0.9-1-1.1s-0.9-0.4-1.4-0.4c-0.4,0-0.8,0.1-1.1,0.3c-0.3,0.2-0.6,0.4-0.9,0.7s-0.5,0.6-0.6,1v2.4
					c0.1,0.3,0.2,0.5,0.3,0.7s0.4,0.4,0.6,0.6c0.2,0.2,0.5,0.3,0.8,0.4C80.5,232.9,80.7,232.9,81,232.9z"/>
				<path class="st4" d="M95.9,234.1c-0.7,0-1.4-0.2-2.1-0.5c-0.6-0.3-1.2-0.8-1.7-1.3c-0.5-0.5-0.9-1.2-1.1-1.9
					c-0.3-0.7-0.4-1.4-0.4-2.1c0-0.8,0.1-1.5,0.4-2.2c0.3-0.7,0.6-1.3,1.1-1.8c0.5-0.5,1-1,1.7-1.3c0.6-0.3,1.3-0.5,2.1-0.5
					c1.1,0,2,0.2,2.7,0.7c0.7,0.5,1.3,1.1,1.6,1.8l-1.1,0.8c-0.3-0.7-0.8-1.2-1.4-1.5s-1.2-0.5-1.9-0.5c-0.6,0-1.1,0.1-1.6,0.4
					c-0.5,0.2-0.9,0.6-1.2,1c-0.3,0.4-0.6,0.9-0.8,1.4c-0.2,0.5-0.3,1.1-0.3,1.7c0,0.6,0.1,1.2,0.3,1.7c0.2,0.5,0.5,1,0.8,1.4
					c0.4,0.4,0.8,0.7,1.3,1c0.5,0.2,1,0.4,1.6,0.4c0.7,0,1.3-0.2,1.9-0.5c0.6-0.3,1.1-0.8,1.7-1.5v1.5
					C98.5,233.5,97.3,234.1,95.9,234.1z M99.3,229.4h-2.4v-1.1h3.7v5.7h-1.2V229.4z"/>
				<path class="st4" d="M102.4,230.7v-5h1.4v4.7c0,0.8,0.1,1.5,0.4,1.9c0.3,0.4,0.7,0.6,1.3,0.6c0.4,0,0.8-0.1,1.1-0.2
					s0.7-0.4,1-0.7c0.3-0.3,0.5-0.7,0.7-1.1v-5.2h1.4v6.7c0,0.2,0,0.3,0.1,0.4c0.1,0.1,0.2,0.1,0.3,0.1v1.1c-0.2,0-0.3,0-0.4,0
					c-0.1,0-0.2,0-0.3,0c-0.3,0-0.5-0.1-0.7-0.2c-0.2-0.2-0.3-0.4-0.3-0.6l0-1c-0.4,0.6-0.9,1.1-1.5,1.4c-0.6,0.3-1.3,0.5-2,0.5
					c-0.9,0-1.5-0.3-2-0.9C102.6,232.7,102.4,231.8,102.4,230.7z"/>
				<path class="st4" d="M111.5,231.6c0-0.5,0.2-1,0.5-1.4s0.7-0.7,1.3-0.9s1.2-0.3,1.9-0.3c0.4,0,0.8,0,1.2,0.1s0.8,0.1,1.1,0.3
					v-0.6c0-0.6-0.2-1.1-0.6-1.5c-0.4-0.4-0.9-0.5-1.6-0.5c-0.5,0-0.9,0.1-1.3,0.2c-0.4,0.2-0.9,0.4-1.3,0.7l-0.5-1
					c0.5-0.4,1.1-0.7,1.6-0.8c0.5-0.2,1.1-0.3,1.7-0.3c1.1,0,1.9,0.3,2.5,0.9s0.9,1.4,0.9,2.5v3.5c0,0.2,0,0.3,0.1,0.4
					c0.1,0.1,0.2,0.1,0.3,0.1v1.1c-0.1,0-0.3,0-0.4,0c-0.1,0-0.2,0-0.2,0c-0.3,0-0.6-0.1-0.7-0.3s-0.3-0.4-0.3-0.6l0-0.5
					c-0.4,0.5-0.8,0.8-1.4,1.1c-0.6,0.3-1.2,0.4-1.7,0.4c-0.6,0-1.1-0.1-1.5-0.3c-0.4-0.2-0.8-0.5-1-0.9
					C111.6,232.5,111.5,232.1,111.5,231.6z M116.9,232.2c0.1-0.1,0.2-0.3,0.3-0.5c0.1-0.2,0.1-0.3,0.1-0.4v-1
					c-0.3-0.1-0.7-0.2-1-0.3c-0.4-0.1-0.7-0.1-1.1-0.1c-0.7,0-1.3,0.1-1.7,0.4c-0.4,0.3-0.7,0.7-0.7,1.1c0,0.3,0.1,0.5,0.2,0.8
					s0.4,0.5,0.6,0.6c0.3,0.2,0.6,0.2,1,0.2c0.4,0,0.9-0.1,1.2-0.3C116.3,232.7,116.7,232.4,116.9,232.2z"/>
				<path class="st4" d="M125.4,226.9c-0.7,0-1.3,0.2-1.9,0.5s-0.9,0.8-1.1,1.4v5.2H121v-8.3h1.3v1.9c0.3-0.6,0.7-1,1.1-1.4
					c0.5-0.4,1-0.6,1.5-0.6c0.1,0,0.2,0,0.3,0s0.1,0,0.2,0V226.9z"/>
				<path class="st4" d="M126.1,231.6c0-0.5,0.2-1,0.5-1.4c0.3-0.4,0.7-0.7,1.3-0.9s1.2-0.3,1.9-0.3c0.4,0,0.8,0,1.2,0.1
					s0.8,0.1,1.1,0.3v-0.6c0-0.6-0.2-1.1-0.6-1.5c-0.4-0.4-0.9-0.5-1.6-0.5c-0.5,0-0.9,0.1-1.3,0.2c-0.4,0.2-0.9,0.4-1.3,0.7l-0.5-1
					c0.5-0.4,1.1-0.7,1.6-0.8c0.5-0.2,1.1-0.3,1.7-0.3c1.1,0,1.9,0.3,2.5,0.9c0.6,0.6,0.9,1.4,0.9,2.5v3.5c0,0.2,0,0.3,0.1,0.4
					c0.1,0.1,0.2,0.1,0.3,0.1v1.1c-0.1,0-0.3,0-0.4,0s-0.2,0-0.2,0c-0.3,0-0.6-0.1-0.7-0.3c-0.2-0.2-0.3-0.4-0.3-0.6l0-0.5
					c-0.4,0.5-0.8,0.8-1.4,1.1c-0.6,0.3-1.2,0.4-1.7,0.4c-0.6,0-1.1-0.1-1.5-0.3c-0.4-0.2-0.8-0.5-1-0.9
					C126.2,232.5,126.1,232.1,126.1,231.6z M131.6,232.2c0.1-0.1,0.2-0.3,0.3-0.5c0.1-0.2,0.1-0.3,0.1-0.4v-1
					c-0.3-0.1-0.7-0.2-1-0.3c-0.4-0.1-0.7-0.1-1.1-0.1c-0.7,0-1.3,0.1-1.7,0.4s-0.7,0.7-0.7,1.1c0,0.3,0.1,0.5,0.2,0.8
					c0.1,0.2,0.4,0.5,0.6,0.6c0.3,0.2,0.6,0.2,1,0.2c0.4,0,0.9-0.1,1.2-0.3C131,232.7,131.3,232.4,131.6,232.2z"/>
				<path class="st4" d="M142.9,234h-1.4v-4.6c0-0.9-0.1-1.5-0.4-1.9c-0.3-0.4-0.7-0.6-1.2-0.6c-0.4,0-0.8,0.1-1.1,0.3
					c-0.4,0.2-0.7,0.4-1,0.8c-0.3,0.3-0.5,0.7-0.6,1.1v5h-1.4v-8.3h1.3v1.8c0.2-0.4,0.5-0.7,0.9-1c0.4-0.3,0.8-0.5,1.2-0.7
					c0.4-0.2,0.9-0.2,1.4-0.2c0.5,0,0.9,0.1,1.2,0.3s0.6,0.4,0.8,0.7s0.3,0.7,0.4,1.1c0.1,0.4,0.1,0.9,0.1,1.4V234z"/>
				<path class="st4" d="M149.3,233.6c-0.1,0.1-0.3,0.1-0.5,0.2c-0.2,0.1-0.4,0.2-0.7,0.2c-0.3,0.1-0.5,0.1-0.8,0.1
					c-0.3,0-0.7-0.1-0.9-0.2c-0.3-0.1-0.5-0.3-0.7-0.6c-0.2-0.3-0.3-0.6-0.3-1v-5.6h-1.1v-1.1h1.1v-2.8h1.4v2.8h1.9v1.1h-1.9v5.2
					c0,0.3,0.1,0.5,0.3,0.7c0.2,0.1,0.4,0.2,0.6,0.2c0.3,0,0.5,0,0.8-0.1c0.2-0.1,0.4-0.2,0.5-0.2L149.3,233.6z"/>
				<path class="st4" d="M154.2,234.2c-0.6,0-1.2-0.1-1.7-0.3c-0.5-0.2-1-0.5-1.3-0.9c-0.4-0.4-0.7-0.9-0.9-1.4s-0.3-1.1-0.3-1.7
					c0-0.8,0.2-1.5,0.5-2.1c0.4-0.6,0.9-1.2,1.5-1.6c0.6-0.4,1.4-0.6,2.2-0.6c0.8,0,1.6,0.2,2.2,0.6s1.1,0.9,1.5,1.6
					c0.3,0.6,0.5,1.3,0.5,2.1c0,0.1,0,0.2,0,0.3c0,0.1,0,0.2,0,0.2h-6.9c0,0.5,0.2,1,0.5,1.4c0.3,0.4,0.6,0.7,1,1s0.9,0.4,1.3,0.4
					c0.5,0,1-0.1,1.4-0.4c0.5-0.3,0.8-0.6,0.9-1l1.2,0.3c-0.2,0.4-0.5,0.8-0.8,1.1c-0.4,0.3-0.8,0.6-1.3,0.8
					C155.3,234.1,154.8,234.2,154.2,234.2z M151.4,229.4h5.7c0-0.5-0.2-1-0.5-1.4s-0.6-0.7-1-1c-0.4-0.2-0.9-0.3-1.4-0.3
					c-0.5,0-0.9,0.1-1.4,0.3c-0.4,0.2-0.8,0.6-1,1S151.4,228.8,151.4,229.4z"/>
				<path class="st4" d="M163.7,234.2c-0.6,0-1.2-0.1-1.7-0.3c-0.5-0.2-1-0.5-1.3-0.9c-0.4-0.4-0.7-0.9-0.9-1.4s-0.3-1.1-0.3-1.7
					c0-0.8,0.2-1.5,0.5-2.1c0.4-0.6,0.9-1.2,1.5-1.6c0.6-0.4,1.4-0.6,2.2-0.6c0.8,0,1.6,0.2,2.2,0.6s1.1,0.9,1.5,1.6
					c0.3,0.6,0.5,1.3,0.5,2.1c0,0.1,0,0.2,0,0.3c0,0.1,0,0.2,0,0.2h-6.9c0,0.5,0.2,1,0.5,1.4c0.3,0.4,0.6,0.7,1,1s0.9,0.4,1.3,0.4
					c0.5,0,1-0.1,1.4-0.4c0.5-0.3,0.8-0.6,0.9-1l1.2,0.3c-0.2,0.4-0.5,0.8-0.8,1.1c-0.4,0.3-0.8,0.6-1.3,0.8
					C164.8,234.1,164.2,234.2,163.7,234.2z M160.9,229.4h5.7c0-0.5-0.2-1-0.5-1.4s-0.6-0.7-1-1c-0.4-0.2-0.9-0.3-1.4-0.3
					c-0.5,0-0.9,0.1-1.4,0.3c-0.4,0.2-0.8,0.6-1,1S160.9,228.8,160.9,229.4z"/>
				<path class="st4" d="M168.9,229.9c0-0.8,0.2-1.5,0.5-2.2c0.3-0.7,0.8-1.2,1.3-1.6c0.6-0.4,1.2-0.6,2-0.6c0.7,0,1.3,0.2,1.8,0.5
					c0.5,0.4,0.9,0.8,1.2,1.3v-5.1h1.4v10.1c0,0.2,0,0.3,0.1,0.4c0.1,0.1,0.2,0.1,0.3,0.1v1.1c-0.3,0-0.5,0.1-0.6,0.1
					c-0.3,0-0.5-0.1-0.7-0.3c-0.2-0.2-0.3-0.4-0.3-0.6v-0.7c-0.3,0.5-0.8,1-1.3,1.3c-0.6,0.3-1.1,0.5-1.7,0.5
					c-0.6,0-1.1-0.1-1.6-0.3s-0.9-0.5-1.3-0.9c-0.4-0.4-0.6-0.9-0.8-1.4S168.9,230.4,168.9,229.9z M175.7,231.1v-2.4
					c-0.1-0.4-0.3-0.7-0.6-1s-0.6-0.5-1-0.7c-0.4-0.2-0.7-0.3-1.1-0.3c-0.4,0-0.8,0.1-1.1,0.3c-0.3,0.2-0.6,0.4-0.9,0.7
					s-0.4,0.6-0.6,1c-0.1,0.4-0.2,0.8-0.2,1.2c0,0.4,0.1,0.8,0.2,1.2c0.1,0.4,0.3,0.7,0.6,1c0.3,0.3,0.6,0.5,0.9,0.7
					c0.3,0.2,0.7,0.2,1.1,0.2c0.3,0,0.5,0,0.8-0.1c0.3-0.1,0.5-0.2,0.8-0.4c0.2-0.2,0.5-0.4,0.6-0.6
					C175.6,231.6,175.7,231.3,175.7,231.1z"/>
				<path class="st4" d="M187.2,234.2c-0.6,0-1.2-0.1-1.7-0.3c-0.5-0.2-1-0.5-1.3-0.9c-0.4-0.4-0.7-0.9-0.9-1.4s-0.3-1.1-0.3-1.7
					c0-0.8,0.2-1.5,0.5-2.1c0.4-0.6,0.8-1.2,1.5-1.5c0.6-0.4,1.4-0.6,2.2-0.6c0.8,0,1.5,0.2,2.2,0.6s1.1,0.9,1.4,1.5l-1.4,0.4
					c-0.2-0.4-0.5-0.7-0.9-0.9c-0.4-0.2-0.8-0.3-1.3-0.3c-0.5,0-1,0.1-1.4,0.4c-0.4,0.3-0.8,0.6-1,1.1s-0.4,1-0.4,1.6
					c0,0.6,0.1,1.1,0.4,1.6s0.6,0.8,1,1.1c0.4,0.3,0.9,0.4,1.4,0.4c0.3,0,0.6-0.1,1-0.2c0.3-0.1,0.6-0.3,0.8-0.5s0.4-0.4,0.5-0.6
					l1.4,0.4c-0.2,0.4-0.4,0.8-0.8,1.1c-0.3,0.3-0.8,0.6-1.2,0.7C188.3,234.1,187.8,234.2,187.2,234.2z"/>
				<path class="st4" d="M196,234.2c-0.6,0-1.2-0.1-1.7-0.3c-0.5-0.2-1-0.5-1.3-0.9c-0.4-0.4-0.7-0.9-0.9-1.4
					c-0.2-0.5-0.3-1.1-0.3-1.6c0-0.6,0.1-1.1,0.3-1.7c0.2-0.5,0.5-1,0.9-1.4c0.4-0.4,0.8-0.7,1.3-0.9c0.5-0.2,1.1-0.3,1.7-0.3
					c0.6,0,1.2,0.1,1.7,0.3c0.5,0.2,1,0.5,1.3,0.9c0.4,0.4,0.7,0.9,0.9,1.4c0.2,0.5,0.3,1.1,0.3,1.7c0,0.6-0.1,1.1-0.3,1.6
					c-0.2,0.5-0.5,1-0.9,1.4c-0.4,0.4-0.8,0.7-1.3,0.9S196.6,234.2,196,234.2z M193.2,229.9c0,0.6,0.1,1.1,0.4,1.6
					c0.3,0.5,0.6,0.8,1,1.1c0.4,0.3,0.9,0.4,1.4,0.4c0.5,0,1-0.1,1.4-0.4c0.4-0.3,0.8-0.6,1-1.1c0.3-0.5,0.4-1,0.4-1.6
					c0-0.6-0.1-1.1-0.4-1.6c-0.2-0.5-0.6-0.8-1-1.1c-0.4-0.3-0.9-0.4-1.4-0.4c-0.5,0-1,0.1-1.4,0.4c-0.4,0.3-0.7,0.7-1,1.1
					C193.3,228.8,193.2,229.3,193.2,229.9z"/>
				<path class="st4" d="M201.8,230.7v-5h1.4v4.7c0,0.8,0.1,1.5,0.4,1.9c0.3,0.4,0.7,0.6,1.3,0.6c0.4,0,0.8-0.1,1.1-0.2
					s0.7-0.4,1-0.7c0.3-0.3,0.5-0.7,0.7-1.1v-5.2h1.4v6.7c0,0.2,0,0.3,0.1,0.4c0.1,0.1,0.2,0.1,0.3,0.1v1.1c-0.2,0-0.3,0-0.4,0
					c-0.1,0-0.2,0-0.3,0c-0.3,0-0.5-0.1-0.7-0.2c-0.2-0.2-0.3-0.4-0.3-0.6l0-1c-0.4,0.6-0.9,1.1-1.5,1.4c-0.6,0.3-1.3,0.5-2,0.5
					c-0.9,0-1.5-0.3-2-0.9S201.8,231.8,201.8,230.7z"/>
				<path class="st4" d="M216,226.9c-0.7,0-1.3,0.2-1.9,0.5c-0.5,0.3-0.9,0.8-1.1,1.4v5.2h-1.4v-8.3h1.3v1.9c0.3-0.6,0.7-1,1.1-1.4
					c0.5-0.4,1-0.6,1.5-0.6c0.1,0,0.2,0,0.3,0c0.1,0,0.1,0,0.2,0V226.9z"/>
				<path class="st4" d="M220.2,234.2c-0.7,0-1.3-0.1-2-0.3c-0.6-0.2-1.1-0.6-1.6-1l0.5-1c0.5,0.4,1,0.8,1.4,1
					c0.5,0.2,1,0.3,1.5,0.3c0.6,0,1-0.1,1.4-0.3s0.5-0.5,0.5-1c0-0.3-0.1-0.5-0.3-0.7s-0.5-0.3-0.8-0.4c-0.3-0.1-0.7-0.2-1.2-0.3
					c-0.6-0.2-1.1-0.3-1.5-0.5s-0.7-0.4-0.9-0.7c-0.2-0.3-0.3-0.6-0.3-1.1c0-0.5,0.1-1,0.4-1.3c0.3-0.4,0.7-0.6,1.1-0.8
					c0.5-0.2,1-0.3,1.7-0.3c0.6,0,1.2,0.1,1.7,0.3c0.5,0.2,0.9,0.5,1.3,0.8l-0.6,1c-0.3-0.3-0.7-0.6-1.1-0.8
					c-0.4-0.2-0.8-0.2-1.3-0.2c-0.3,0-0.6,0-0.8,0.1c-0.3,0.1-0.5,0.2-0.7,0.4c-0.2,0.2-0.3,0.4-0.3,0.7c0,0.3,0.1,0.5,0.2,0.6
					c0.1,0.2,0.4,0.3,0.6,0.4c0.3,0.1,0.6,0.2,1,0.3c0.6,0.2,1.2,0.4,1.6,0.5s0.8,0.4,1.1,0.7s0.4,0.7,0.4,1.2
					c0,0.8-0.3,1.4-0.9,1.8C222,233.9,221.2,234.2,220.2,234.2z"/>
				<path class="st4" d="M228.8,234.2c-0.6,0-1.2-0.1-1.7-0.3c-0.5-0.2-1-0.5-1.3-0.9c-0.4-0.4-0.7-0.9-0.9-1.4s-0.3-1.1-0.3-1.7
					c0-0.8,0.2-1.5,0.5-2.1c0.4-0.6,0.9-1.2,1.5-1.6c0.6-0.4,1.4-0.6,2.2-0.6c0.8,0,1.6,0.2,2.2,0.6s1.1,0.9,1.5,1.6
					c0.3,0.6,0.5,1.3,0.5,2.1c0,0.1,0,0.2,0,0.3c0,0.1,0,0.2,0,0.2h-6.9c0,0.5,0.2,1,0.5,1.4c0.3,0.4,0.6,0.7,1,1s0.9,0.4,1.3,0.4
					c0.5,0,1-0.1,1.4-0.4c0.5-0.3,0.8-0.6,0.9-1l1.2,0.3c-0.2,0.4-0.5,0.8-0.8,1.1c-0.4,0.3-0.8,0.6-1.3,0.8
					C229.9,234.1,229.4,234.2,228.8,234.2z M226,229.4h5.7c0-0.5-0.2-1-0.5-1.4s-0.6-0.7-1-1c-0.4-0.2-0.9-0.3-1.4-0.3
					c-0.5,0-0.9,0.1-1.4,0.3c-0.4,0.2-0.8,0.6-1,1S226.1,228.8,226,229.4z"/>
			</g>
			<g id="Group_279">
				<g id="Group_6" transform="translate(-158 -101)">
					<g id="Group_5" transform="translate(201.335 213.414)">
						<g id="Group_4">
							<path id="Path_8" class="st4" d="M28.2,11.8l-2.6-0.3c-0.3-1-0.6-1.9-1.1-2.8l1.6-2c0.2-0.3,0.2-0.8-0.1-1.1l-2.7-2.7
								c-0.3-0.3-0.8-0.3-1.1-0.1l-2,1.6c-0.9-0.5-1.8-0.9-2.8-1.1l-0.3-2.6C17.1,0.3,16.7,0,16.3,0h-3.8c-0.4,0-0.8,0.3-0.8,0.7
								l-0.3,2.6c-1,0.3-1.9,0.6-2.8,1.1l-2-1.6C6.3,2.6,5.9,2.6,5.6,2.9L2.9,5.6C2.6,5.9,2.6,6.3,2.8,6.7l1.6,2
								c-0.5,0.9-0.9,1.8-1.1,2.8l-2.6,0.3C0.3,11.8,0,12.2,0,12.6v3.8c0,0.4,0.3,0.8,0.7,0.8l2.6,0.3c0.3,1,0.6,1.9,1.1,2.8l-1.6,2
								c-0.2,0.3-0.2,0.8,0.1,1.1L5.6,26c0.3,0.3,0.8,0.3,1.1,0.1l2-1.6c0.9,0.5,1.8,0.9,2.8,1.1l0.3,2.6c0.1,0.4,0.4,0.7,0.8,0.7
								h3.8c0.4,0,0.8-0.3,0.8-0.7l0.3-2.6c1-0.3,1.9-0.6,2.8-1.1l2,1.6c0.3,0.2,0.8,0.2,1.1-0.1l2.7-2.7c0.3-0.3,0.3-0.8,0.1-1.1
								l-1.6-2c0.5-0.9,0.9-1.8,1.1-2.8l2.6-0.3c0.4-0.1,0.7-0.4,0.7-0.8v-3.8C28.9,12.2,28.6,11.8,28.2,11.8z M14.5,21.7
								c-4,0-7.2-3.2-7.2-7.2s3.2-7.2,7.2-7.2c4,0,7.2,3.2,7.2,7.2S18.5,21.7,14.5,21.7L14.5,21.7z"/>
						</g>
						<circle id="Ellipse_1" class="st4" cx="14.5" cy="14.5" r="4.4"/>
					</g>
					<path id="Path_9" class="st5" d="M212.1,244.6"/>
					<path id="Path_10" class="st5" d="M230.3,218.5"/>
					<path id="Path_11" class="st4" d="M269.7,226.1c-0.3,0-0.5-0.2-0.5-0.5c0,0,0,0,0,0v-3.9c0-1.4-1.1-2.6-2.6-2.6h-36.4
						c-0.3,0-0.5-0.2-0.5-0.5c0-0.3,0.2-0.5,0.5-0.5h36.4c2,0,3.6,1.6,3.6,3.6v3.9C270.2,225.8,270,226.1,269.7,226.1
						C269.7,226.1,269.7,226.1,269.7,226.1z"/>
					<path id="Path_12" class="st5" d="M269.7,225.5"/>
					<path id="Path_13" class="st6" d="M251.3,256.7"/>
					<path id="Path_14" class="st4" d="M269,227.4h-12.8c-2,0-3.6,1.6-3.6,3.6v23.8c0,2,1.6,3.6,3.6,3.6H269c2,0,3.6-1.6,3.6-3.6
						v-23.8C272.6,229,271,227.4,269,227.4z M271.6,254.8c0,1.4-1.1,2.6-2.6,2.6h-12.8c-1.4,0-2.6-1.1-2.6-2.6v-23.8
						c0-1.4,1.1-2.5,2.5-2.5c0,0,0,0.1,0,0.1v1.5c0,0.4,0.3,0.8,0.8,0.8h10.8c0.4,0,0.8-0.3,0.8-0.8v-1.5c0,0,0-0.1,0-0.1h0.7
						c1.4,0,2.6,1.1,2.6,2.6L271.6,254.8z"/>
					<path id="Path_15" class="st4" d="M268.4,251.8c-0.3,0-0.5-0.2-0.5-0.5c0,0,0,0,0,0v-18.2c0-0.3,0.2-0.5,0.5-0.5
						c0.3,0,0.5,0.2,0.5,0.5v18.2C268.9,251.6,268.7,251.8,268.4,251.8z"/>
					<path id="Path_16" class="st4" d="M262.3,256.7c-1,0-1.8-0.8-1.8-1.8c0-1,0.8-1.8,1.8-1.8c1,0,1.8,0.8,1.8,1.8
						C264.1,255.9,263.2,256.7,262.3,256.7z M262.3,253.6c-0.7,0-1.3,0.6-1.3,1.3c0,0.7,0.6,1.3,1.3,1.3c0.7,0,1.3-0.6,1.3-1.3
						C263.5,254.2,263,253.6,262.3,253.6z"/>
					<path id="Path_17" class="st4" d="M251.3,256.2h-36.1c-1.4,0-2.6-1.1-2.6-2.6v-9c0-0.3-0.2-0.5-0.5-0.5c-0.3,0-0.5,0.2-0.5,0.5
						v9c0,2,1.6,3.6,3.6,3.6h17.4v2.8h-1.3c-1,0-1.8,0.8-1.8,1.8v1c0,1,0.8,1.8,1.8,1.8h18.2c1,0,1.8-0.8,1.8-1.8v-1
						c0-1-0.8-1.8-1.8-1.8h-0.5v-2.8h2.3c0.3,0,0.5-0.2,0.5-0.5C251.8,256.4,251.6,256.2,251.3,256.2L251.3,256.2z"/>
					<path id="Path_18" class="st4" d="M240.8,289.7c-28.1,0-50.9-22.8-50.9-50.9s22.8-50.9,50.9-50.9c28.1,0,50.9,22.8,50.9,50.9
						C291.7,266.9,268.9,289.7,240.8,289.7z M240.8,188.8c-27.6,0-49.9,22.3-49.9,49.9s22.3,49.9,49.9,49.9
						c27.6,0,49.9-22.3,49.9-49.9c0,0,0,0,0,0C290.6,211.2,268.3,188.9,240.8,188.8L240.8,188.8z"/>
				</g>
				<path id="Path_117" class="st4" d="M200.6,142.1L200.6,142.1c0.1,0,0.3-0.1,0.4-0.2c0.1-0.1,0.1-0.2,0.1-0.4
					c0-0.1-0.1-0.3-0.2-0.4c-0.2-0.1-0.4-0.2-0.6-0.2h-0.6v2.1h0.3v-0.9h0.2c0.1,0,0.3,0.1,0.4,0.4l0.2,0.5h0.4l-0.3-0.6
					C200.8,142.3,200.7,142.1,200.6,142.1z M200.4,141.9h-0.3v-0.7h0.3c0.1,0,0.3,0,0.4,0.1c0.1,0.1,0.1,0.2,0.1,0.3
					C200.8,141.8,200.7,141.9,200.4,141.9L200.4,141.9z M200.4,140.4c-0.4,0-0.9,0.2-1.2,0.5c-0.3,0.3-0.5,0.7-0.5,1.1
					c0,0.4,0.2,0.8,0.5,1.2c0.7,0.6,1.7,0.6,2.3,0c0.6-0.6,0.6-1.7,0-2.3C201.3,140.6,200.9,140.4,200.4,140.4L200.4,140.4z
					 M201.4,143c-0.6,0.6-1.5,0.6-2.1,0s-0.6-1.5,0-2.1s1.5-0.6,2.1,0c0.3,0.3,0.4,0.7,0.4,1.1C201.9,142.4,201.7,142.8,201.4,143
					L201.4,143z M150,142c0-0.8,0-1.3,0-1.7h0c0.1,0.3,0.1,0.6,0.3,0.9l2.9,6.5h0.5l2.9-6.6c0.1-0.3,0.2-0.5,0.3-0.8h0
					c-0.1,0.7-0.1,1.2-0.1,1.7v5.7h1v-8.6h-1.3l-2.7,5.9c-0.1,0.2-0.2,0.6-0.4,1h0c-0.1-0.4-0.2-0.7-0.4-1l-2.6-6H149v8.6h1L150,142
					z M160.4,140.1c0.2,0,0.3-0.1,0.5-0.2c0.2-0.2,0.2-0.7,0-0.9c0,0,0,0,0,0c-0.3-0.2-0.7-0.2-0.9,0c-0.2,0.3-0.2,0.7,0,0.9
					C160.1,140.1,160.2,140.1,160.4,140.1z M159.9,147.8h1v-6.1h-1V147.8z M165.3,147.9c0.6,0,1.2-0.1,1.7-0.4v-0.9
					c-0.4,0.3-1,0.5-1.5,0.5c-0.6,0-1.1-0.2-1.5-0.6c-0.4-0.5-0.6-1.1-0.6-1.7c0-0.6,0.2-1.3,0.6-1.8c0.4-0.4,0.9-0.7,1.5-0.7
					c0.5,0,1,0.2,1.5,0.5v-1c-0.4-0.2-0.9-0.3-1.4-0.3c-0.9,0-1.7,0.3-2.3,0.9c-0.6,0.7-0.9,1.5-0.9,2.4c0,0.8,0.2,1.6,0.8,2.2
					C163.7,147.6,164.5,148,165.3,147.9z M170.1,141.9c-0.3,0.3-0.5,0.6-0.7,1h0v-1.3h-1v6.1h1v-3.1c0-0.6,0.1-1.2,0.5-1.7
					c0.4-0.6,1.2-0.7,1.7-0.3v-1c-0.2-0.1-0.4-0.1-0.6-0.1C170.7,141.6,170.4,141.7,170.1,141.9L170.1,141.9z M175,147.9
					c0.8,0,1.6-0.3,2.2-0.9c0.6-0.6,0.9-1.5,0.8-2.3c0-0.8-0.2-1.7-0.8-2.3c-0.6-0.6-1.3-0.9-2.1-0.8c-0.8,0-1.6,0.3-2.2,0.8
					c-0.6,0.7-1,1.6-0.9,2.5c0,0.8,0.2,1.6,0.8,2.2C173.4,147.7,174.2,148,175,147.9L175,147.9z M173.7,143c0.4-0.4,0.9-0.6,1.5-0.6
					c0.5,0,1.1,0.2,1.4,0.6c0.7,1.1,0.7,2.4,0,3.5c-0.4,0.4-0.9,0.7-1.5,0.6c-0.6,0-1.1-0.2-1.5-0.6c-0.4-0.5-0.6-1.1-0.6-1.7
					C173,144.1,173.2,143.5,173.7,143L173.7,143z M182.4,147.4c0.4-0.3,0.6-0.8,0.6-1.2c0-0.4-0.1-0.8-0.4-1.1
					c-0.3-0.3-0.7-0.5-1.1-0.7c-0.3-0.1-0.6-0.3-0.9-0.5c-0.2-0.2-0.3-0.4-0.2-0.6c0-0.2,0.1-0.5,0.3-0.6c0.2-0.2,0.5-0.3,0.8-0.2
					c0.5,0,1,0.1,1.4,0.4v-1c-0.4-0.2-0.9-0.3-1.3-0.3c-0.6,0-1.1,0.2-1.6,0.5c-0.7,0.6-0.8,1.7-0.2,2.4c0.3,0.3,0.7,0.5,1.1,0.7
					c0.4,0.1,0.7,0.3,1,0.6c0.2,0.1,0.3,0.4,0.3,0.6c0,0.6-0.4,0.9-1.2,0.9c-0.6,0-1.1-0.2-1.6-0.6v1.1c0.5,0.3,1,0.4,1.5,0.4
					C181.3,148,181.9,147.8,182.4,147.4L182.4,147.4z M189.1,147.1c0.6-0.6,0.9-1.5,0.8-2.3c0-0.8-0.2-1.7-0.8-2.3
					c-0.6-0.6-1.3-0.9-2.1-0.8c-0.8,0-1.6,0.3-2.2,0.8c-0.6,0.7-1,1.6-0.9,2.5c0,0.8,0.2,1.6,0.8,2.2c0.6,0.6,1.4,0.9,2.2,0.9
					C187.7,148,188.5,147.7,189.1,147.1L189.1,147.1z M184.9,144.8c0-0.7,0.2-1.3,0.6-1.8c0.4-0.4,0.9-0.6,1.5-0.6
					c0.5,0,1.1,0.2,1.4,0.6c0.7,1.1,0.7,2.4,0,3.5c-0.4,0.4-0.9,0.7-1.5,0.6c-0.6,0-1.1-0.2-1.5-0.6
					C185.1,146,184.9,145.4,184.9,144.8L184.9,144.8z M191.6,147.8h1v-5.3h1.4v-0.8h-1.4v-0.9c0-0.9,0.3-1.3,1-1.3
					c0.2,0,0.5,0.1,0.7,0.2v-0.9c-0.2-0.1-0.5-0.1-0.7-0.1c-0.5,0-1,0.2-1.3,0.5c-0.4,0.4-0.7,1-0.6,1.6v1h-1v0.8h1L191.6,147.8z
					 M195.6,146.1c0,1.2,0.5,1.8,1.6,1.8c0.3,0,0.6-0.1,0.9-0.2v-0.8c-0.2,0.1-0.4,0.2-0.6,0.2c-0.3,0-0.5-0.1-0.7-0.3
					c-0.2-0.3-0.2-0.6-0.2-0.9v-3.4h1.5v-0.8h-1.5v-1.8c-0.3,0.1-0.7,0.2-1,0.3v1.5h-1v0.8h1L195.6,146.1z M143.4,169.9
					c-0.5,0-0.9,0.2-1.2,0.5c-0.7,0.7-0.7,1.8,0,2.5c0.3,0.3,0.8,0.5,1.2,0.5c1,0,1.8-0.8,1.8-1.8c0-0.5-0.2-0.9-0.5-1.2
					C144.4,170.1,143.9,169.9,143.4,169.9z M164.5,166.4c0,1.1,0,2.2,0.2,3.3h-0.1c-0.2-0.3-0.5-0.8-0.9-1.5l-11.2-17.6H149v22.4
					h2.6v-16.2c0-1,0-2.1-0.1-3.1h0.1c0.2,0.5,0.4,1,0.7,1.4l11.6,17.9h3.2v-22.4h-2.6L164.5,166.4z M174.7,162.8h8.1v-2.4h-8.1V153
					h8.7v-2.4h-11.4V173H184v-2.4h-9.3V162.8z M186.4,153h6.5V173h2.6V153h6.5v-2.4h-15.6V153z"/>
				<g id="Group_278">
					<path id="Path_383" class="st7" d="M168.5,116.6c1.9,5.8,2.6,16.2,8.2,16.2l0,0c0.4,0,0.9,0,1.3-0.1l0,0
						c-5.1-1.2-5.7-11.4-8.7-16.8l0,0C169,116.1,168.8,116.3,168.5,116.6"/>
					<path id="Path_384" class="st7" d="M169.2,115.9c3.1,5.3,3.7,15.6,8.7,16.8l0,0c0.4-0.1,0.8-0.2,1.2-0.3l0,0
						c-4.5-2.2-5.8-12.2-9.3-17l0,0C169.7,115.5,169.4,115.7,169.2,115.9"/>
					<path id="Path_385" class="st7" d="M173.7,112.7c-0.4,0-0.9,0-1.3,0.1c-1.2,0.3-2.4,0.7-3.4,1.4c0.3,0.3,0.6,0.7,0.9,1.1
						c1-0.9,2.2-1.6,3.5-2.1c0.4-0.2,0.9-0.3,1.3-0.4C174.4,112.8,174,112.7,173.7,112.7"/>
					<path id="Path_386" class="st7" d="M182.7,130.3c0.5-0.4,0.9-0.8,1.4-1.2c-1.9-5.8-2.6-16.3-8.2-16.3c-0.4,0-0.8,0-1.2,0.1
						C179.8,114.1,180.4,125.2,182.7,130.3"/>
					<path id="Path_387" class="st7" d="M174.7,112.8c-0.3-0.1-0.7-0.1-1-0.1l2.2,0C175.5,112.7,175.1,112.8,174.7,112.8"/>
					<path id="Path_388" class="st7" d="M182.6,131.5c-0.2-0.2-0.4-0.4-0.6-0.7c-0.9,0.6-1.8,1.1-2.8,1.5c0.3,0.2,0.7,0.3,1,0.4
						c0.3,0.1,0.6,0.1,0.9,0.1c0.9,0,1.8-0.1,2.6-0.5C183.3,132.1,182.9,131.8,182.6,131.5"/>
					<path id="Path_389" class="st7" d="M173.4,113.2c4.6,2.4,5,13.2,8.6,17.6l0,0c0.2-0.2,0.5-0.4,0.7-0.5l0,0
						c-2.3-5.1-2.9-16.2-8-17.4l0,0C174.2,112.9,173.8,113,173.4,113.2"/>
					<path id="Path_390" class="st7" d="M169.9,115.3c3.5,4.8,4.8,14.8,9.3,17l0,0c1-0.4,1.9-0.9,2.8-1.5l0,0
						c-3.6-4.4-4-15.2-8.6-17.6l0,0C172.1,113.7,170.9,114.4,169.9,115.3"/>
					<path id="Path_391" class="st7" d="M166.3,116.4c-0.7,1.6-1.3,3.3-1.8,5c1.2-1.7,2.6-3.4,4-4.9c-0.2-0.5-0.4-1-0.6-1.6
						C167.3,115.5,166.8,115.9,166.3,116.4"/>
					<path id="Path_392" class="st7" d="M168.4,114.7c-0.2,0.1-0.3,0.2-0.5,0.4c0.2,0.5,0.4,1,0.6,1.6c0.2-0.2,0.5-0.5,0.7-0.7
						C169,115.5,168.7,115,168.4,114.7"/>
					<path id="Path_393" class="st7" d="M169,114.3c-0.2,0.1-0.4,0.2-0.6,0.4c0.3,0.4,0.6,0.8,0.8,1.2c0.2-0.2,0.4-0.4,0.6-0.6
						C169.6,115,169.3,114.6,169,114.3"/>
					<path id="Path_394" class="st7" d="M200.2,112.3c-2.6,10-8,18-12.5,20h0c-0.1,0-0.2,0.1-0.2,0.1c0,0,0,0,0,0l-0.1,0
						c0,0,0,0,0,0c0,0-0.1,0-0.1,0c0,0,0,0,0,0c0,0,0,0-0.1,0l-0.1,0c0,0,0,0,0,0c0,0-0.1,0-0.1,0c0,0,0,0,0,0c0,0,0,0-0.1,0
						c0,0,0,0,0,0l-0.1,0l-0.1,0c0.2,0.1,0.4,0.1,0.6,0.1c4.3,0,8.6-7.7,15.8-20.5L200.2,112.3L200.2,112.3z"/>
					<path id="Path_395" class="st7" d="M163.5,113.1C163.5,113.1,163.6,113.1,163.5,113.1C163.6,113.1,163.6,113.1,163.5,113.1
						L163.5,113.1L163.5,113.1c0.1,0,0.1,0,0.1,0c0,0,0,0,0,0l0.1,0l0,0c0.1,0,0.1,0,0.2-0.1c0,0,0,0,0,0s0,0,0.1,0c0,0,0,0,0,0
						c0,0,0,0,0.1,0c0,0,0,0,0,0c0.1,0,0.2,0,0.2-0.1c0,0,0,0,0,0c0,0,0,0,0.1,0c0,0,0,0,0,0c0,0,0,0,0.1,0h0l0.1,0h0c0,0,0,0,0.1,0
						c0,0,0,0,0,0c0,0,0,0,0.1,0c0,0,0,0,0,0c0.1,0,0.1,0,0.2,0c-0.1,0-0.3,0-0.5,0c-4.8,0-11.5,9-14.5,20.6h0.6
						c1-1.7,1.8-3.3,2.6-4.9C155.5,120.2,159.7,114.6,163.5,113.1"/>
					<path id="Path_396" class="st7" d="M166.3,116.4c0.5-0.5,1.1-1,1.6-1.4c-0.1-0.3-0.2-0.5-0.4-0.8
						C167,114.9,166.6,115.7,166.3,116.4"/>
					<path id="Path_397" class="st7" d="M166.7,113.2c0.3,0.3,0.6,0.7,0.9,1.1c0.1-0.1,0.2-0.2,0.2-0.3
						C167.4,113.7,167,113.4,166.7,113.2C166.6,113.2,166.6,113.2,166.7,113.2C166.7,113.2,166.7,113.2,166.7,113.2"/>
					<path id="Path_398" class="st7" d="M153.4,128.5c4.4-8.5,6.5-13.9,10.2-15.3l0,0C159.7,114.6,155.5,120.2,153.4,128.5"/>
					<path id="Path_399" class="st7" d="M167.8,114c-0.1,0.1-0.2,0.2-0.2,0.3c0.1,0.2,0.3,0.5,0.4,0.8c0.2-0.1,0.3-0.2,0.5-0.4
						C168.2,114.4,168,114.2,167.8,114"/>
					<path id="Path_400" class="st7" d="M155.4,133.3L155.4,133.3C155.3,133.3,155.3,133.3,155.4,133.3L155.4,133.3
						c-0.1,0-0.1,0-0.2,0h0c-0.1,0-0.1,0-0.2,0h0c4.5-0.1,6.5-2.4,7.5-5.6c0.8-2.5,1.4-4.5,2-6.3c-2.1,3-3.9,6.1-5.6,9.3
						C158.2,132.1,156.9,133,155.4,133.3"/>
					<path id="Path_401" class="st7" d="M155.4,133.3L155.4,133.3c1.5-0.2,2.8-1.2,3.5-2.6l0,0c1.7-3.2,3.6-6.3,5.6-9.3l0,0
						c0.5-1.7,1.1-3.4,1.8-5l0,0C162.5,120,158.8,125.9,155.4,133.3"/>
					<path id="Path_402" class="st7" d="M153.4,128.5c-0.8,1.5-1.7,3.1-2.6,4.9h1.7C152.6,131.7,153,130,153.4,128.5"/>
					<path id="Path_403" class="st7" d="M165,112.8C165,112.8,164.9,112.8,165,112.8L165,112.8C164.9,112.8,164.9,112.8,165,112.8
						L165,112.8c-0.1,0-0.1,0-0.1,0l0,0c0,0,0,0-0.1,0l0,0c0,0,0,0,0,0l0,0l-0.1,0h0c0,0,0,0-0.1,0l0,0c0,0,0,0,0,0l0,0
						c0,0,0,0-0.1,0l0,0c0,0,0,0,0,0l0,0c-0.1,0-0.2,0-0.2,0.1l0,0c0,0,0,0,0,0l0,0l-0.1,0l0,0c0,0,0,0,0,0l0,0l-0.1,0l0,0
						c0,0,0,0,0,0l0,0c-0.1,0-0.1,0-0.2,0.1l0,0l-0.1,0l0,0c0,0,0,0,0,0l0,0c0,0,0,0-0.1,0l0,0c0,0,0,0,0,0l0,0
						c-3.7,1.5-5.8,6.8-10.2,15.3l0,0c-0.4,1.6-0.7,3.2-0.9,4.9h0.2c0.7,0,0.9,0,1.6,0h0.7c0.1,0,0.1,0,0.2,0h0c0,0,0,0,0.1,0h0
						c0,0,0.1,0,0.1,0l0,0c3.4-7.4,7.2-13.3,10.9-16.8l0,0c0.3-0.8,0.7-1.5,1.3-2.2l0,0c-0.2-0.4-0.5-0.8-0.9-1.1l0,0c0,0,0,0,0,0
						l0,0c0,0,0,0-0.1,0l0,0l0,0l0,0c0,0,0,0-0.1,0l0,0c0,0,0,0-0.1,0l0,0l0,0l0,0c0,0-0.1,0-0.1,0l0,0c0,0,0,0,0,0l0,0l-0.1,0l0,0
						c0,0,0,0,0,0l0,0l-0.1,0h0c0,0-0.1,0-0.1,0l0,0c0,0,0,0,0,0l0,0l-0.1,0l0,0c0,0,0,0,0,0l0,0c-0.1,0-0.2,0-0.2-0.1l0,0
						c0,0,0,0,0,0l0,0c0,0-0.1,0-0.1,0l0,0c0,0,0,0,0,0l0,0c0,0-0.1,0-0.1,0h0c0,0-0.1,0-0.1,0l0,0C165.1,112.8,165,112.8,165,112.8
						"/>
					<path id="Path_404" class="st7" d="M190.1,117.8c-0.8,2.7-1.5,5-2.1,6.8l0,0c2.6-3.7,4.9-7.7,6.8-11.9l0,0
						C192.4,113.5,190.6,115.4,190.1,117.8"/>
					<path id="Path_405" class="st7" d="M188,132.1c-0.1,0.1-0.2,0.1-0.4,0.2c4.5-2,9.9-10,12.5-20h-0.5
						C193.7,122.9,191.8,130,188,132.1"/>
					<path id="Path_406" class="st7" d="M185,131.2c1-1.2,1.8-3.2,2.9-6.6c-1.1,1.6-2.4,3.1-3.8,4.4c0,0,0,0,0,0
						C184.3,129.8,184.7,130.5,185,131.2"/>
					<path id="Path_407" class="st7" d="M185,131.2c-0.3,0.4-0.7,0.7-1.1,1c-0.1,0.1-0.2,0.1-0.3,0.1c0.4,0.2,0.9,0.4,1.4,0.4l0,0
						c0.1,0,0.1,0,0.2,0h0c0,0,0.1,0,0.1,0h0.4c0,0,0,0,0,0c0,0,0.1,0,0.1,0h0c0,0,0.1,0,0.1,0h0c0,0,0,0,0,0c0,0,0.1,0,0.1,0h0
						l0.1,0h0c0.1,0,0.1,0,0.2,0C185.9,132.4,185.4,131.9,185,131.2"/>
					<path id="Path_408" class="st7" d="M176.7,132.8c0.4,0,0.9,0,1.3-0.1c0.4-0.1,0.8-0.2,1.2-0.3c0.3,0.2,0.7,0.3,1,0.4
						c0.3,0.1,0.6,0.1,0.9,0.1L176.7,132.8z"/>
					<path id="Path_409" class="st7" d="M181.1,132.8c0.9,0,1.8-0.1,2.6-0.5c0.4,0.2,0.9,0.4,1.4,0.4l0,0c0.1,0,0.1,0,0.2,0h0
						c0,0,0.1,0,0.1,0H181.1L181.1,132.8z"/>
					<path id="Path_410" class="st7" d="M185.6,132.8h0.2c0,0,0,0,0,0c0,0,0.1,0,0.1,0h0c0,0,0.1,0,0.1,0h0c0,0,0,0,0,0
						c0,0,0.1,0,0.1,0c0,0,0,0,0,0c0,0,0.1,0,0.1,0h0c0.1,0,0.1,0,0.2,0l0,0c0.2,0.1,0.4,0.1,0.6,0.1L185.6,132.8L185.6,132.8z"/>
					<path id="Path_411" class="st7" d="M184.1,129.1L184.1,129.1c-0.5,0.4-0.9,0.8-1.4,1.2c-0.2,0.2-0.5,0.4-0.7,0.5
						c0.2,0.2,0.4,0.5,0.6,0.7c0.3,0.3,0.7,0.6,1.1,0.8c0.1,0,0.2-0.1,0.3-0.1c0.4-0.2,0.8-0.6,1.1-1
						C184.7,130.5,184.3,129.8,184.1,129.1"/>
					<path id="Path_412" class="st7" d="M198,112.3h-2.6c-0.1,0-0.3,0-0.4,0l0,0c-0.1,0.1-0.1,0.3-0.2,0.4l0,0
						c-1.9,4.2-4.2,8.1-6.8,11.9l0,0c-1.1,3.4-1.9,5.4-2.9,6.6l0,0c0.3,0.6,0.8,1.1,1.5,1.4l0,0c0,0,0,0,0,0h0c0,0,0,0,0,0l0,0
						c0,0,0,0,0.1,0l0,0c0,0,0,0,0,0l0,0l0.1,0l0,0c0,0,0,0,0,0l0,0l0.1,0l0,0c0,0,0,0,0,0l0,0c0,0,0,0,0.1,0l0,0c0,0,0,0,0.1,0l0,0
						c0,0,0,0,0,0l0,0c0,0,0.1,0,0.1,0l0,0c0,0,0,0,0,0l0,0c0,0,0,0,0.1,0l0,0c0,0,0,0,0,0l0,0c0.1,0,0.2-0.1,0.2-0.1h0
						c0.1-0.1,0.2-0.1,0.4-0.2l0,0c3.8-2.1,5.7-9.2,11.6-19.8L198,112.3L198,112.3z"/>
					<path id="Path_413" class="st7" d="M165.1,112.7C165.1,112.7,165.1,112.7,165.1,112.7C165.2,112.8,165.2,112.8,165.1,112.7
						l0.1,0c0,0,0.1,0,0.1,0c0,0,0,0,0,0l0.1,0c0,0,0,0,0,0c0.1,0,0.2,0,0.2,0.1c0,0,0,0,0,0c0,0,0.1,0,0.1,0c0,0,0,0,0,0
						c0,0,0.1,0,0.1,0c0,0,0,0,0,0c0,0,0.1,0,0.1,0c0,0,0,0,0,0l0.1,0c0,0,0,0,0,0c0,0,0.1,0,0.1,0l0,0c0,0,0,0,0.1,0l0.1,0l0.1,0
						c0.4,0.2,0.8,0.5,1.2,0.8c0.1-0.1,0.3-0.3,0.4-0.4c-0.8-0.6-1.7-0.9-2.7-0.9C165.4,112.7,165.3,112.7,165.1,112.7"/>
					<path id="Path_414" class="st7" d="M167.8,114c0.2,0.2,0.4,0.4,0.6,0.7c0.2-0.1,0.4-0.3,0.6-0.4c-0.2-0.2-0.5-0.5-0.8-0.7
						C168,113.7,167.9,113.8,167.8,114"/>
					<path id="Path_415" class="st7" d="M165.1,112.7c0.1,0,0.2,0,0.4,0c1,0,1.9,0.3,2.7,0.9c0.9-0.7,2.1-1,3.2-0.9h-6.7
						C164.8,112.7,165,112.7,165.1,112.7"/>
					<path id="Path_416" class="st7" d="M171.4,112.7c-1.1-0.1-2.3,0.2-3.2,0.9c0.3,0.2,0.5,0.4,0.8,0.7c1-0.7,2.2-1.2,3.4-1.4
						c0.4-0.1,0.9-0.1,1.3-0.1H171.4z"/>
					<path id="Path_417" class="st7" d="M187.9,124.6c0.6-1.8,1.3-4.1,2.1-6.8c0.6-2.4,2.3-4.3,4.7-5.1c0.1-0.1,0.1-0.3,0.2-0.4
						c-4.1,0.2-6.1,2.4-7.1,5.5c-1.7,5.5-2.7,9-3.7,11.3C185.5,127.7,186.8,126.2,187.9,124.6"/>
					<path id="Path_418" class="st4" d="M194,131.3h-0.5v1.5h-0.2v-1.5h-0.5v-0.2h1.1V131.3z"/>
					<path id="Path_419" class="st4" d="M195.9,132.8h-0.2v-1.1c0-0.1,0-0.2,0-0.3l0,0c0,0.1,0,0.1-0.1,0.2l-0.6,1.3h-0.1l-0.6-1.2
						c0-0.1,0-0.1-0.1-0.2h0c0,0.1,0,0.2,0,0.3v1.1h-0.2v-1.6h0.3l0.5,1.1c0,0.1,0.1,0.1,0.1,0.2h0c0-0.1,0.1-0.2,0.1-0.2l0.5-1.1
						h0.2L195.9,132.8L195.9,132.8z"/>
				</g>
			</g>
		</g>
	</g>
</g>
</svg>
