<?xml version="1.0" encoding="utf-8"?>
<!-- Generator: Adobe Illustrator 26.0.1, SVG Export Plug-In . SVG Version: 6.00 Build 0)  -->
<svg version="1.1" id="Layer_1" xmlns="http://www.w3.org/2000/svg" xmlns:xlink="http://www.w3.org/1999/xlink" x="0px" y="0px"
	 viewBox="0 0 178 74" style="enable-background:new 0 0 178 74;" xml:space="preserve">
<style type="text/css">
	.st0{fill-rule:evenodd;clip-rule:evenodd;fill:#FFFFFF;}
	.st1{fill:#008CCF;}
	.st2{fill:none;}
</style>
<g>
	<g>
		<g>
			<path d="M126,13.9c-1.8,0-3.3,0.7-4.5,2c-1.3,1.3-1.9,2.9-1.9,4.7c0,1.8,0.6,3.4,1.9,4.7c1.3,1.3,2.8,2,4.5,2
				c1.8,0,3.3-0.6,4.5-1.9c1.2-1.3,1.9-2.9,1.9-4.7c0-1.9-0.6-3.4-1.9-4.7C129.3,14.6,127.8,13.9,126,13.9 M126.3,5.4
				c4.1,0,7.7,1.5,10.6,4.5c2.9,3,4.4,6.6,4.4,10.7c0,4.2-1.5,7.8-4.5,10.8c-3,3-6.6,4.4-10.8,4.4c-4.2,0-7.8-1.5-10.8-4.5
				c-3-3-4.5-6.6-4.5-10.8c0-4.2,1.5-7.8,4.5-10.8C118.3,6.9,121.9,5.4,126.3,5.4z"/>
			<path class="st0" d="M126.6,9.9c0.2-0.2,0.7-0.2,0.9-0.2c2-0.1,4,0.7,5.7,1.8c1.5,1.1,2.7,2.6,3.3,4.4c0.2,0.8,0.4,1.6,0.3,2.5
				c0,0.2-0.1,0.3-0.1,0.4c-0.4,0.7-0.9-0.3-1.1-0.6c-0.1-0.2-0.2-0.4-0.4-0.7c-0.5-1-1.1-1.9-1.8-2.8c-0.3-0.3-0.6-0.7-0.9-1
				c-0.3-0.3-0.7-0.6-1-0.9c-1-0.7-2-1.3-3.1-1.8c-0.3-0.1-0.6-0.2-0.8-0.3C127.4,10.5,126.4,10.1,126.6,9.9"/>
			<path class="st1" d="M142.5,35.1V16.3c0-3.3,1-5.9,3-7.9c2-2,4.6-3,7.9-3c3.3,0,5.8,1,7.5,2.9c1.7,1.9,2.6,4.7,2.6,8.3v18.5h-8.6
				V16.6c0-1.8-0.6-2.6-1.9-2.6c-1.2,0-1.8,0.9-1.8,2.6v18.5H142.5z M108.9,35.1h-8.6V6.1h8.6V35.1z M98.2,6v8.2
				c-0.6-0.2-1.1-0.3-1.4-0.3c-0.7,0-1.2,0.2-1.7,0.7c-0.5,0.5-0.7,1.1-0.7,1.7c0,0.6,0.3,1.3,0.8,2.2l0.7,1.1
				c1.2,2.1,1.8,4.1,1.8,6c0,2.8-1,5.2-3,7.1c-2,1.9-4.5,2.9-7.4,2.9c-1.4,0-2.8-0.3-4.1-1v-8.4c0.8,0.5,1.6,0.8,2.2,0.8
				c0.8,0,1.4-0.2,1.9-0.6c0.5-0.4,0.8-1,0.8-1.6c0-0.4-0.4-1.3-1.2-2.8c-1.3-2.3-1.9-4.5-1.9-6.8c0-2.7,1-5.1,2.9-7c2-2,4.3-3,7-3
				C95.9,5.4,97,5.6,98.2,6z M81,35.1h-8.6V6.1H81V35.1z M72.7,6.1L60,36.7L47.4,6.1h10l2.7,9l2.9-9H72.7z M27.8,35.1V16.3
				c0-3.3,1-5.9,3-7.9c2-2,4.6-3,7.9-3c3.3,0,5.8,1,7.5,2.9c1.7,1.9,2.6,4.7,2.6,8.3v18.5h-8.7V16.6c0-1.8-0.6-2.6-1.9-2.6
				c-1.2,0-1.8,0.9-1.8,2.6v18.5H27.8z M25.1,17.4v6.4h-5.7c-0.8,0-1.3,0.1-1.6,0.3c-0.3,0.2-0.5,0.6-0.5,1.1c0,0.6,0.2,1,0.5,1.2
				c0.3,0.2,1,0.3,2,0.3h5.8v8.3h-6.8c-3.2,0-5.6-0.8-7.3-2.3C9.8,31.3,9,29.1,9,26.2V14.9c0-2.8,0.8-4.9,2.4-6.4
				c1.6-1.5,3.8-2.3,6.7-2.3h7.5v8.3h-5.5c-1.5,0-2.2,0.5-2.2,1.4c0,0.6,0.2,1,0.5,1.2c0.4,0.2,1,0.3,1.9,0.3H25.1z"/>
			<g>
				<path d="M166.1,3c0.5,0,1,0.1,1.4,0.4c0.5,0.2,0.8,0.6,1.1,1.1s0.4,0.9,0.4,1.4c0,0.5-0.1,1-0.4,1.4s-0.6,0.8-1.1,1.1
					c-0.5,0.3-0.9,0.4-1.4,0.4c-0.5,0-1-0.1-1.4-0.4c-0.5-0.3-0.8-0.6-1.1-1.1c-0.3-0.5-0.4-0.9-0.4-1.4c0-0.5,0.1-1,0.4-1.4
					s0.6-0.8,1.1-1.1S165.6,3,166.1,3z M166.1,3.5c-0.4,0-0.8,0.1-1.2,0.3c-0.4,0.2-0.7,0.5-0.9,0.9c-0.2,0.4-0.3,0.8-0.3,1.2
					c0,0.4,0.1,0.8,0.3,1.2c0.2,0.4,0.5,0.7,0.9,0.9s0.8,0.3,1.2,0.3c0.4,0,0.8-0.1,1.2-0.3s0.7-0.5,0.9-0.9
					c0.2-0.4,0.3-0.8,0.3-1.2c0-0.4-0.1-0.8-0.3-1.2c-0.2-0.4-0.5-0.7-0.9-0.9C166.9,3.6,166.5,3.5,166.1,3.5z M164.9,7.5V4.4h1.1
					c0.4,0,0.6,0,0.8,0.1c0.2,0.1,0.3,0.2,0.4,0.3c0.1,0.1,0.1,0.3,0.1,0.5c0,0.2-0.1,0.4-0.2,0.6c-0.2,0.2-0.4,0.3-0.6,0.3
					c0.1,0,0.2,0.1,0.3,0.2c0.1,0.1,0.3,0.3,0.5,0.6l0.4,0.6h-0.6L166.6,7c-0.2-0.4-0.4-0.6-0.5-0.7c-0.1-0.1-0.2-0.1-0.4-0.1h-0.3
					v1.3H164.9z M165.4,5.8h0.6c0.3,0,0.5,0,0.6-0.1s0.2-0.2,0.2-0.3c0-0.1,0-0.2-0.1-0.2c-0.1-0.1-0.1-0.1-0.2-0.2
					c-0.1,0-0.3-0.1-0.5-0.1h-0.6V5.8z"/>
			</g>
		</g>
		<g>
			<path d="M14,51.7c0,0.2-0.1,0.4-0.2,0.5c-0.1,0.1-0.3,0.2-0.5,0.2h-2.7c-0.2,0-0.4-0.1-0.5-0.2c-0.1-0.1-0.2-0.3-0.2-0.5v-8.9
				c0-0.2,0.1-0.4,0.2-0.5c0.1-0.1,0.3-0.2,0.5-0.2h2.7c0.2,0,0.4,0.1,0.5,0.2c0.1,0.1,0.2,0.3,0.2,0.5v2.4h-0.9v-2.3h-2.3v8.7h2.3
				v-2.5H14V51.7z"/>
			<path d="M19.3,51.7c0,0.5-0.3,0.7-0.8,0.7h-2.2c-0.5,0-0.7-0.2-0.7-0.7v-4.9c0-0.5,0.2-0.7,0.7-0.7h2.2c0.5,0,0.8,0.2,0.8,0.7
				V51.7z M18.4,51.7v-4.9h-2v4.9H18.4z"/>
			<path d="M27.2,52.5h-0.9v-5.6l-1.9,0.1v5.6h-0.9v-5.6l-1.9,0.1v5.6h-0.9V46h0.9v0.2c0.3,0,0.7-0.1,1-0.1c0.4-0.1,0.8-0.1,1-0.1
				c0.3,0,0.5,0.1,0.6,0.2c0.4,0,0.7-0.1,1.1-0.2c0.5-0.1,0.9-0.1,1.1-0.1c0.5,0,0.7,0.2,0.7,0.7V52.5z"/>
			<path d="M32.4,51.1c0,0.4-0.1,0.7-0.4,1c-0.3,0.3-0.6,0.4-1,0.4h-1.5v2.4h-0.9V46h0.9v0.2c0.4,0,0.7-0.1,1.1-0.1
				c0.4-0.1,0.8-0.1,1-0.1c0.5,0,0.7,0.2,0.7,0.7V51.1z M31.5,50.9v-4.1l-2,0.1v4.8h1.2C31.3,51.7,31.5,51.4,31.5,50.9z"/>
			<path d="M37.5,52.5h-0.9v-0.2c-0.4,0-0.7,0.1-1.1,0.1c-0.4,0.1-0.8,0.1-1.1,0.1c-0.5,0-0.7-0.2-0.7-0.7V46h0.9v5.6l2-0.1V46h0.9
				V52.5z"/>
			<path d="M41.3,52.5h-1.3c-0.5,0-0.7-0.2-0.7-0.7v-4.9h-0.8V46h0.8v-2h0.9v2h1.1v0.8h-1.1v4.9h1.1V52.5z"/>
			<path d="M46.1,51.7c0,0.5-0.2,0.7-0.7,0.7h-2.1c-0.5,0-0.7-0.2-0.7-0.7v-4.9c0-0.5,0.2-0.7,0.7-0.7h2.1c0.5,0,0.7,0.2,0.7,0.7
				v2.3l-0.3,0.3h-2.5v2.3h1.9v-1.2h0.9V51.7z M45.2,48.7v-1.9h-1.9v1.9H45.2z"/>
			<path d="M51,48.1h-0.9v-1.3l-1.6,0.1v5.6h-0.9V46h0.9v0.2c0.3,0,0.6-0.1,0.9-0.1C49.7,46,50,46,50.2,46c0.5,0,0.7,0.2,0.7,0.7
				V48.1z"/>
			<path d="M58.5,42.9h-1.6v9.5h-0.9v-9.5h-1.6v-0.8h4.2V42.9z"/>
			<path d="M62.8,48.1H62v-1.3l-1.6,0.1v5.6h-0.9V46h0.9v0.2c0.3,0,0.6-0.1,0.9-0.1c0.4-0.1,0.7-0.1,0.9-0.1c0.5,0,0.7,0.2,0.7,0.7
				V48.1z"/>
			<path d="M67.6,52.5h-0.9v-0.2c-0.4,0-0.7,0.1-1.1,0.1c-0.4,0.1-0.8,0.1-1,0.1c-0.5,0-0.7-0.2-0.7-0.7v-2.3c0-0.5,0.3-0.7,0.8-0.7
				h2.1v-1.9h-1.9v1.1H64v-1.1c0-0.5,0.2-0.7,0.7-0.7h2.1c0.5,0,0.7,0.2,0.7,0.7V52.5z M66.8,51.7v-2.3h-2v2.3L66.8,51.7z"/>
			<path d="M70,44.6h-0.9v-1.1H70V44.6z M70,52.5h-0.9V46H70V52.5z"/>
			<path d="M75.3,52.5h-0.9v-5.6l-2,0.1v5.6h-0.9V46h0.9v0.2c0.3,0,0.7-0.1,1-0.1c0.4-0.1,0.8-0.1,1.1-0.1c0.5,0,0.7,0.2,0.7,0.7
				V52.5z"/>
			<path d="M77.6,44.6h-0.9v-1.1h0.9V44.6z M77.6,52.5h-0.9V46h0.9V52.5z"/>
			<path d="M82.9,52.5H82v-5.6l-2,0.1v5.6h-0.9V46H80v0.2c0.3,0,0.7-0.1,1-0.1c0.4-0.1,0.8-0.1,1.1-0.1c0.5,0,0.7,0.2,0.7,0.7V52.5z
				"/>
			<path d="M88,54.2c0,0.5-0.3,0.7-0.8,0.7h-2.1c-0.5,0-0.8-0.3-0.8-0.9c0-0.1,0-0.2,0-0.3c0-0.1,0-0.3,0-0.3h0.9v0.9h1.9v-1.7h-1.5
				c-0.4,0-0.7-0.1-1-0.4c-0.3-0.3-0.4-0.6-0.4-1v-3.8c0-0.4,0.1-0.7,0.3-0.9c0.2-0.3,0.5-0.4,0.9-0.4c0.1,0,0.6,0.1,1.6,0.2V46H88
				V54.2z M87.1,51.7v-4.9c-0.7,0-1.1-0.1-1.2-0.1c-0.5,0-0.7,0.2-0.7,0.7v3.4c0,0.5,0.2,0.7,0.7,0.7H87.1z"/>
			<path d="M93.2,52.5h-0.9V42.1h0.9V52.5z"/>
			<path d="M98.6,52.5h-0.9v-5.6l-2,0.1v5.6h-0.9V46h0.9v0.2c0.3,0,0.7-0.1,1-0.1c0.4-0.1,0.8-0.1,1.1-0.1c0.5,0,0.7,0.2,0.7,0.7
				V52.5z"/>
			<path d="M103.5,51.7c0,0.5-0.3,0.7-0.8,0.7h-2c-0.5,0-0.8-0.2-0.8-0.7v-1.5h0.9v1.4h1.8v-1.3l-2.3-1.9c-0.2-0.2-0.3-0.4-0.3-0.7
				v-1.1c0-0.5,0.3-0.7,0.8-0.7h2c0.5,0,0.8,0.2,0.8,0.7v1.3h-0.9v-1.3h-1.8v1.1l2.3,1.9c0.2,0.2,0.3,0.4,0.3,0.7V51.7z"/>
			<path d="M107.2,52.5H106c-0.5,0-0.7-0.2-0.7-0.7v-4.9h-0.8V46h0.8v-2h0.9v2h1.1v0.8h-1.1v4.9h1.1V52.5z"/>
			<path d="M109.3,44.6h-0.9v-1.1h0.9V44.6z M109.3,52.5h-0.9V46h0.9V52.5z"/>
			<path d="M113.1,52.5h-1.3c-0.5,0-0.7-0.2-0.7-0.7v-4.9h-0.8V46h0.8v-2h0.9v2h1.1v0.8H112v4.9h1.1V52.5z"/>
			<path d="M118,52.5h-0.9v-0.2c-0.4,0-0.7,0.1-1.1,0.1c-0.4,0.1-0.8,0.1-1.1,0.1c-0.5,0-0.7-0.2-0.7-0.7V46h0.9v5.6l2-0.1V46h0.9
				V52.5z"/>
			<path d="M121.8,52.5h-1.3c-0.5,0-0.7-0.2-0.7-0.7v-4.9H119V46h0.8v-2h0.9v2h1.1v0.8h-1.1v4.9h1.1V52.5z"/>
			<path d="M126.5,51.7c0,0.5-0.2,0.7-0.7,0.7h-2.1c-0.5,0-0.7-0.2-0.7-0.7v-4.9c0-0.5,0.2-0.7,0.7-0.7h2.1c0.5,0,0.7,0.2,0.7,0.7
				v2.3l-0.3,0.3h-2.5v2.3h1.9v-1.2h0.9V51.7z M125.7,48.7v-1.9h-1.9v1.9H125.7z"/>
			<path d="M134.9,47.6c0,0.2-0.1,0.4-0.2,0.5c-0.1,0.1-0.3,0.2-0.5,0.2h-2.5v4.1h-0.9V42.1h3.4c0.2,0,0.4,0.1,0.5,0.2
				c0.1,0.1,0.2,0.3,0.2,0.5V47.6z M134,47.5v-4.6h-2.3v4.6H134z"/>
			<path d="M139.9,46l-1.6,6.4h-0.8l-1.6-6.4h0.9l1.1,5.1l1.1-5.1H139.9z"/>
			<path d="M143.4,52.5h-1.3c-0.5,0-0.7-0.2-0.7-0.7v-4.9h-0.8V46h0.8v-2h0.9v2h1.1v0.8h-1.1v4.9h1.1V52.5z"/>
			<path d="M145.4,52.5h-1v-1.2h1V52.5z"/>
			<path d="M152.9,52.5h-3.3V42.1h0.9v9.5h2.4V52.5z"/>
			<path d="M156.4,52.5h-1.3c-0.5,0-0.7-0.2-0.7-0.7v-4.9h-0.8V46h0.8v-2h0.9v2h1.1v0.8h-1.1v4.9h1.1V52.5z"/>
			<path d="M161.2,52.5h-0.9v-0.2c-1,0.1-1.5,0.2-1.6,0.2c-0.4,0-0.7-0.1-0.9-0.4c-0.2-0.3-0.3-0.6-0.3-0.9v-3.8
				c0-0.4,0.1-0.7,0.4-1c0.3-0.3,0.6-0.4,1-0.4h1.5v-3.9h0.9V52.5z M160.3,51.7v-4.9h-1.2c-0.5,0-0.7,0.2-0.7,0.7V51
				c0,0.5,0.2,0.7,0.7,0.7C159.2,51.7,159.6,51.7,160.3,51.7z"/>
			<path d="M163.6,52.5h-1v-1.2h1V52.5z"/>
		</g>
		<g>
			<path d="M23.7,69.1v-6.7H25v6.7H23.7z"/>
			<path d="M32.3,65.8c0-0.7,0.1-1.3,0.3-1.7c0.2-0.3,0.4-0.7,0.6-0.9c0.3-0.3,0.6-0.5,0.9-0.6c0.4-0.2,0.9-0.3,1.5-0.3
				c1,0,1.8,0.3,2.4,0.9c0.6,0.6,0.9,1.5,0.9,2.6c0,1.1-0.3,1.9-0.9,2.6c-0.6,0.6-1.4,0.9-2.4,0.9c-1,0-1.8-0.3-2.4-0.9
				C32.6,67.7,32.3,66.8,32.3,65.8z M33.7,65.7c0,0.8,0.2,1.3,0.5,1.7c0.4,0.4,0.8,0.6,1.3,0.6s1-0.2,1.3-0.6c0.3-0.4,0.5-1,0.5-1.8
				c0-0.8-0.2-1.3-0.5-1.7c-0.3-0.4-0.8-0.6-1.3-0.6c-0.6,0-1,0.2-1.4,0.6C33.9,64.4,33.7,64.9,33.7,65.7z"/>
			<path d="M49.6,62.3c0.7,0,1.2,0.2,1.5,0.7c0.4,0.6,0.7,1.5,0.7,2.7c0,1.3-0.2,2.2-0.7,2.7c-0.4,0.5-0.9,0.7-1.5,0.7
				c-0.7,0-1.2-0.3-1.6-0.8c-0.4-0.5-0.6-1.4-0.6-2.7c0-1.3,0.2-2.2,0.7-2.7C48.5,62.6,49,62.3,49.6,62.3z M49.6,63.4
				c-0.2,0-0.3,0-0.4,0.1c-0.1,0.1-0.2,0.3-0.3,0.5c-0.1,0.3-0.1,0.9-0.1,1.7s0,1.3,0.1,1.6c0.1,0.3,0.2,0.5,0.3,0.6
				c0.1,0.1,0.3,0.1,0.4,0.1c0.2,0,0.3,0,0.4-0.1c0.1-0.1,0.2-0.3,0.3-0.5c0.1-0.3,0.1-0.9,0.1-1.7s0-1.3-0.1-1.6
				c-0.1-0.3-0.2-0.5-0.3-0.6C49.9,63.4,49.8,63.4,49.6,63.4z"/>
			<path d="M54.9,62.3c0.7,0,1.2,0.2,1.5,0.7c0.4,0.6,0.7,1.5,0.7,2.7c0,1.3-0.2,2.2-0.7,2.7c-0.4,0.5-0.9,0.7-1.5,0.7
				c-0.7,0-1.2-0.3-1.6-0.8c-0.4-0.5-0.6-1.4-0.6-2.7c0-1.3,0.2-2.2,0.7-2.7C53.7,62.6,54.2,62.3,54.9,62.3z M54.9,63.4
				c-0.2,0-0.3,0-0.4,0.1c-0.1,0.1-0.2,0.3-0.3,0.5C54.1,64.4,54,65,54,65.8s0,1.3,0.1,1.6c0.1,0.3,0.2,0.5,0.3,0.6
				c0.1,0.1,0.3,0.1,0.4,0.1c0.2,0,0.3,0,0.4-0.1c0.1-0.1,0.2-0.3,0.3-0.5c0.1-0.3,0.1-0.9,0.1-1.7s0-1.3-0.1-1.6
				c-0.1-0.3-0.2-0.5-0.3-0.6C55.2,63.4,55,63.4,54.9,63.4z"/>
			<path d="M61.2,69.1h-1.3v-4.9c-0.5,0.4-1,0.8-1.7,1V64c0.3-0.1,0.7-0.3,1.1-0.6s0.7-0.7,0.8-1.1h1V69.1z"/>
			<path d="M63.7,65.5v-1.3H65v1.3H63.7z M63.7,69.1v-1.3H65v1.3H63.7z"/>
			<g>
				<g>
					<path d="M9,69l2.5-6.6h0.9l2.7,6.6h-1l-0.8-2h-2.7l-0.7,2H9z M10.9,66.3h2.2l-0.7-1.8c-0.2-0.6-0.4-1-0.5-1.4
						c-0.1,0.4-0.2,0.8-0.4,1.3L10.9,66.3z"/>
					<path d="M15.7,69v-4.8h0.7v0.7c0.3-0.5,0.9-0.8,1.5-0.8c0.3,0,0.6,0.1,0.8,0.2c0.2,0.1,0.4,0.2,0.5,0.4
						c0.1,0.2,0.2,0.4,0.3,0.6c0,0.1,0,0.4,0,0.8V69h-0.8v-2.9c0-0.3,0-0.6-0.1-0.7c-0.1-0.2-0.2-0.3-0.3-0.4
						c-0.2-0.1-0.3-0.1-0.6-0.1c-0.3,0-0.6,0.1-0.9,0.3c-0.2,0.2-0.4,0.6-0.4,1.2V69H15.7z"/>
				</g>
				<path d="M25.7,66.9l1.3-0.1c0.1,0.4,0.2,0.8,0.5,1c0.2,0.2,0.6,0.3,1,0.3c0.4,0,0.7-0.1,1-0.3c0.2-0.2,0.3-0.4,0.3-0.6
					c0-0.2,0-0.3-0.1-0.4c-0.1-0.1-0.3-0.2-0.5-0.3c-0.2-0.1-0.5-0.1-1.1-0.3c-0.7-0.2-1.2-0.4-1.5-0.6c-0.4-0.4-0.6-0.8-0.6-1.3
					c0-0.3,0.1-0.6,0.3-0.9c0.2-0.3,0.5-0.5,0.8-0.7c0.4-0.2,0.8-0.2,1.3-0.2c0.8,0,1.4,0.2,1.9,0.5c0.4,0.4,0.6,0.8,0.7,1.4
					l-1.3,0.1c-0.1-0.3-0.2-0.6-0.4-0.7c-0.2-0.1-0.5-0.2-0.8-0.2c-0.4,0-0.7,0.1-0.9,0.2c-0.1,0.1-0.2,0.2-0.2,0.4
					c0,0.2,0.1,0.3,0.2,0.4c0.2,0.1,0.6,0.3,1.2,0.4c0.6,0.2,1.1,0.3,1.4,0.5c0.3,0.2,0.6,0.4,0.7,0.7c0.2,0.3,0.3,0.6,0.3,1
					c0,0.4-0.1,0.7-0.3,1.1c-0.2,0.3-0.5,0.6-0.9,0.7c-0.4,0.2-0.9,0.2-1.4,0.2c-0.8,0-1.5-0.2-1.9-0.6C26,68.2,25.8,67.6,25.7,66.9
					z"/>
				<path d="M41.6,67.5l1.2-0.1c0,0.2,0.1,0.4,0.2,0.6c0.1,0.1,0.3,0.2,0.5,0.2c0.3,0,0.5-0.1,0.7-0.4c0.2-0.2,0.3-0.7,0.3-1.5
					c-0.3,0.4-0.7,0.6-1.2,0.6c-0.5,0-1-0.2-1.3-0.6c-0.4-0.4-0.6-0.9-0.6-1.6c0-0.7,0.2-1.2,0.6-1.6c0.4-0.4,0.9-0.6,1.5-0.6
					c0.7,0,1.2,0.3,1.6,0.8c0.4,0.5,0.6,1.4,0.6,2.5c0,1.2-0.2,2.1-0.7,2.6c-0.4,0.5-1,0.8-1.7,0.8c-0.5,0-0.9-0.1-1.2-0.4
					C41.9,68.5,41.6,68.1,41.6,67.5z M44.4,64.8c0-0.4-0.1-0.7-0.3-0.9c-0.2-0.2-0.4-0.3-0.6-0.3c-0.2,0-0.4,0.1-0.6,0.3
					c-0.2,0.2-0.2,0.5-0.2,0.9c0,0.4,0.1,0.7,0.3,0.9c0.2,0.2,0.4,0.3,0.6,0.3c0.2,0,0.4-0.1,0.6-0.3C44.3,65.4,44.4,65.1,44.4,64.8
					z"/>
				<g>
					<path d="M93,66.7l0.9,0.2c-0.2,0.7-0.5,1.3-1,1.6c-0.5,0.4-1.1,0.6-1.7,0.6c-0.7,0-1.3-0.1-1.7-0.4c-0.4-0.3-0.8-0.7-1-1.3
						c-0.2-0.5-0.3-1.1-0.3-1.8c0-0.7,0.1-1.3,0.4-1.8c0.3-0.5,0.6-0.9,1.1-1.2c0.5-0.3,1-0.4,1.6-0.4c0.7,0,1.2,0.2,1.7,0.5
						c0.4,0.3,0.8,0.8,0.9,1.4l-0.9,0.2c-0.2-0.5-0.4-0.8-0.7-1c-0.3-0.2-0.7-0.3-1.1-0.3c-0.5,0-0.9,0.1-1.3,0.4
						c-0.3,0.2-0.6,0.6-0.7,1c-0.1,0.4-0.2,0.8-0.2,1.3c0,0.6,0.1,1,0.2,1.5c0.2,0.4,0.4,0.7,0.8,0.9c0.3,0.2,0.7,0.3,1.1,0.3
						c0.5,0,0.9-0.1,1.2-0.4C92.6,67.7,92.8,67.3,93,66.7z"/>
					<path d="M98.1,67.5l0.8,0.1c-0.1,0.5-0.4,0.9-0.7,1.1c-0.4,0.3-0.8,0.4-1.4,0.4c-0.7,0-1.2-0.2-1.7-0.6c-0.4-0.4-0.6-1-0.6-1.8
						c0-0.8,0.2-1.4,0.6-1.9c0.4-0.4,0.9-0.7,1.6-0.7c0.6,0,1.2,0.2,1.6,0.6c0.4,0.4,0.6,1,0.6,1.8c0,0,0,0.1,0,0.2h-3.5
						c0,0.5,0.2,0.9,0.4,1.2c0.3,0.3,0.6,0.4,1,0.4c0.3,0,0.5-0.1,0.8-0.2C97.8,68.1,97.9,67.8,98.1,67.5z M95.4,66.2h2.7
						c0-0.4-0.1-0.7-0.3-0.9c-0.3-0.3-0.6-0.5-1-0.5c-0.4,0-0.7,0.1-0.9,0.4C95.6,65.4,95.4,65.8,95.4,66.2z"/>
					<path d="M99.9,69v-4.8h0.7V65c0.2-0.3,0.4-0.6,0.5-0.7c0.2-0.1,0.3-0.2,0.5-0.2c0.3,0,0.5,0.1,0.8,0.3l-0.3,0.7
						c-0.2-0.1-0.4-0.2-0.6-0.2c-0.2,0-0.3,0.1-0.5,0.2c-0.1,0.1-0.2,0.3-0.3,0.4c-0.1,0.3-0.1,0.6-0.1,0.9V69H99.9z"/>
					<path d="M104.7,68.3l0.1,0.7c-0.2,0-0.4,0.1-0.6,0.1c-0.3,0-0.5,0-0.7-0.1c-0.2-0.1-0.3-0.2-0.3-0.4c-0.1-0.2-0.1-0.5-0.1-1
						v-2.7h-0.6v-0.6h0.6v-1.2l0.8-0.5v1.7h0.8v0.6h-0.8v2.8c0,0.2,0,0.4,0,0.4c0,0.1,0.1,0.1,0.1,0.2c0.1,0,0.2,0.1,0.3,0.1
						C104.5,68.3,104.6,68.3,104.7,68.3z"/>
					<path d="M105.5,63.4v-0.9h0.8v0.9H105.5z M105.5,69v-4.8h0.8V69H105.5z"/>
					<path d="M107.7,69v-4.1H107v-0.6h0.7v-0.5c0-0.3,0-0.6,0.1-0.7c0.1-0.2,0.2-0.4,0.4-0.5c0.2-0.1,0.5-0.2,0.8-0.2
						c0.2,0,0.5,0,0.8,0.1l-0.1,0.7c-0.2,0-0.3,0-0.5,0c-0.2,0-0.4,0.1-0.5,0.2c-0.1,0.1-0.2,0.3-0.2,0.6v0.4h0.9v0.6h-0.9V69H107.7
						z"/>
					<path d="M110.1,63.4v-0.9h0.8v0.9H110.1z M110.1,69v-4.8h0.8V69H110.1z"/>
					<path d="M115.4,67.5l0.8,0.1c-0.1,0.5-0.4,0.9-0.7,1.1c-0.4,0.3-0.8,0.4-1.4,0.4c-0.7,0-1.2-0.2-1.7-0.6
						c-0.4-0.4-0.6-1-0.6-1.8c0-0.8,0.2-1.4,0.6-1.9c0.4-0.4,0.9-0.7,1.6-0.7c0.6,0,1.2,0.2,1.6,0.6c0.4,0.4,0.6,1,0.6,1.8
						c0,0,0,0.1,0,0.2h-3.5c0,0.5,0.2,0.9,0.4,1.2c0.3,0.3,0.6,0.4,1,0.4c0.3,0,0.5-0.1,0.8-0.2C115.1,68.1,115.3,67.8,115.4,67.5z
						 M112.7,66.2h2.7c0-0.4-0.1-0.7-0.3-0.9c-0.3-0.3-0.6-0.5-1-0.5c-0.4,0-0.7,0.1-0.9,0.4C112.9,65.4,112.8,65.8,112.7,66.2z"/>
					<path d="M120.3,69v-0.6c-0.3,0.5-0.7,0.7-1.3,0.7c-0.4,0-0.7-0.1-1-0.3c-0.3-0.2-0.6-0.5-0.7-0.9c-0.2-0.4-0.3-0.8-0.3-1.3
						c0-0.5,0.1-0.9,0.2-1.3c0.2-0.4,0.4-0.7,0.7-0.9c0.3-0.2,0.7-0.3,1.1-0.3c0.3,0,0.5,0.1,0.8,0.2c0.2,0.1,0.4,0.3,0.5,0.5v-2.4
						h0.8V69H120.3z M117.8,66.7c0,0.6,0.1,1.1,0.4,1.4c0.3,0.3,0.6,0.5,0.9,0.5c0.4,0,0.7-0.1,0.9-0.4c0.2-0.3,0.4-0.7,0.4-1.3
						c0-0.7-0.1-1.1-0.4-1.4c-0.3-0.3-0.6-0.5-0.9-0.5c-0.4,0-0.7,0.1-0.9,0.4C117.9,65.6,117.8,66,117.8,66.7z"/>
					<path d="M129.7,66.7l0.9,0.2c-0.2,0.7-0.5,1.3-1,1.6c-0.5,0.4-1.1,0.6-1.7,0.6c-0.7,0-1.3-0.1-1.7-0.4c-0.4-0.3-0.8-0.7-1-1.3
						c-0.2-0.5-0.3-1.1-0.3-1.8c0-0.7,0.1-1.3,0.4-1.8c0.3-0.5,0.6-0.9,1.1-1.2c0.5-0.3,1-0.4,1.6-0.4c0.7,0,1.2,0.2,1.7,0.5
						c0.4,0.3,0.8,0.8,0.9,1.4l-0.9,0.2c-0.2-0.5-0.4-0.8-0.7-1c-0.3-0.2-0.7-0.3-1.1-0.3c-0.5,0-0.9,0.1-1.3,0.4
						c-0.3,0.2-0.6,0.6-0.7,1c-0.1,0.4-0.2,0.8-0.2,1.3c0,0.6,0.1,1,0.2,1.5c0.2,0.4,0.4,0.7,0.8,0.9c0.3,0.2,0.7,0.3,1.1,0.3
						c0.5,0,0.9-0.1,1.2-0.4C129.3,67.7,129.6,67.3,129.7,66.7z"/>
					<path d="M131.2,66.7c0-0.9,0.2-1.5,0.7-2c0.4-0.4,0.9-0.5,1.5-0.5c0.7,0,1.2,0.2,1.6,0.6c0.4,0.4,0.6,1,0.6,1.8
						c0,0.6-0.1,1.1-0.3,1.4c-0.2,0.4-0.5,0.6-0.8,0.8c-0.4,0.2-0.7,0.3-1.1,0.3c-0.7,0-1.2-0.2-1.6-0.6
						C131.4,68.1,131.2,67.5,131.2,66.7z M132,66.7c0,0.6,0.1,1.1,0.4,1.4c0.3,0.3,0.6,0.5,1,0.5c0.4,0,0.7-0.2,1-0.5
						c0.3-0.3,0.4-0.8,0.4-1.4c0-0.6-0.1-1-0.4-1.3c-0.3-0.3-0.6-0.5-1-0.5c-0.4,0-0.7,0.2-1,0.5C132.2,65.6,132,66,132,66.7z"/>
					<path d="M136.6,69v-4.8h0.7v0.7c0.1-0.2,0.3-0.4,0.6-0.6c0.2-0.1,0.5-0.2,0.8-0.2c0.4,0,0.6,0.1,0.9,0.2
						c0.2,0.1,0.4,0.4,0.5,0.6c0.4-0.6,0.9-0.8,1.5-0.8c0.5,0,0.8,0.1,1.1,0.4c0.3,0.3,0.4,0.7,0.4,1.2V69h-0.8v-3
						c0-0.3,0-0.6-0.1-0.7c-0.1-0.1-0.1-0.3-0.3-0.3c-0.1-0.1-0.3-0.1-0.5-0.1c-0.3,0-0.6,0.1-0.8,0.3c-0.2,0.2-0.3,0.6-0.3,1.1V69
						h-0.8v-3.1c0-0.4-0.1-0.6-0.2-0.8c-0.1-0.2-0.3-0.3-0.6-0.3c-0.2,0-0.4,0.1-0.6,0.2c-0.2,0.1-0.3,0.3-0.4,0.5
						c-0.1,0.2-0.1,0.6-0.1,1V69H136.6z"/>
					<path d="M144.3,70.9v-6.6h0.7v0.6c0.2-0.2,0.4-0.4,0.6-0.5c0.2-0.1,0.5-0.2,0.8-0.2c0.4,0,0.8,0.1,1.1,0.3
						c0.3,0.2,0.5,0.5,0.7,0.9c0.2,0.4,0.2,0.8,0.2,1.3c0,0.5-0.1,0.9-0.3,1.3c-0.2,0.4-0.4,0.7-0.8,0.9c-0.3,0.2-0.7,0.3-1.1,0.3
						c-0.3,0-0.5-0.1-0.7-0.2c-0.2-0.1-0.4-0.3-0.5-0.4v2.3H144.3z M145,66.7c0,0.6,0.1,1.1,0.4,1.4c0.2,0.3,0.5,0.4,0.9,0.4
						c0.4,0,0.7-0.2,0.9-0.5c0.3-0.3,0.4-0.8,0.4-1.4c0-0.6-0.1-1.1-0.4-1.4c-0.2-0.3-0.5-0.5-0.9-0.5c-0.3,0-0.6,0.2-0.9,0.5
						C145.1,65.6,145,66.1,145,66.7z"/>
					<path d="M152.5,68.4c-0.3,0.3-0.6,0.4-0.9,0.5c-0.3,0.1-0.6,0.2-0.9,0.2c-0.5,0-0.9-0.1-1.2-0.4c-0.3-0.3-0.4-0.6-0.4-1
						c0-0.2,0.1-0.4,0.2-0.6c0.1-0.2,0.2-0.3,0.4-0.5c0.2-0.1,0.4-0.2,0.6-0.3c0.2,0,0.4-0.1,0.7-0.1c0.7-0.1,1.1-0.2,1.4-0.3
						c0-0.1,0-0.2,0-0.2c0-0.3-0.1-0.6-0.2-0.7c-0.2-0.2-0.5-0.3-0.9-0.3c-0.4,0-0.7,0.1-0.8,0.2c-0.2,0.1-0.3,0.4-0.4,0.7l-0.8-0.1
						c0.1-0.3,0.2-0.6,0.4-0.8c0.2-0.2,0.4-0.4,0.7-0.5c0.3-0.1,0.7-0.2,1.1-0.2c0.4,0,0.7,0,1,0.1c0.3,0.1,0.4,0.2,0.6,0.4
						c0.1,0.1,0.2,0.3,0.3,0.5c0,0.1,0,0.4,0,0.7V67c0,0.8,0,1.2,0.1,1.4c0,0.2,0.1,0.4,0.2,0.6h-0.8
						C152.5,68.9,152.5,68.7,152.5,68.4z M152.4,66.6c-0.3,0.1-0.7,0.2-1.3,0.3c-0.3,0-0.6,0.1-0.7,0.2c-0.1,0.1-0.2,0.1-0.3,0.3
						c-0.1,0.1-0.1,0.2-0.1,0.4c0,0.2,0.1,0.4,0.2,0.5c0.2,0.1,0.4,0.2,0.7,0.2c0.3,0,0.6-0.1,0.8-0.2c0.2-0.1,0.4-0.3,0.5-0.6
						c0.1-0.2,0.1-0.5,0.1-0.8V66.6z"/>
					<path d="M154.5,69v-4.8h0.7v0.7c0.4-0.5,0.9-0.8,1.5-0.8c0.3,0,0.6,0.1,0.8,0.2c0.2,0.1,0.4,0.2,0.5,0.4
						c0.1,0.2,0.2,0.4,0.3,0.6c0,0.1,0,0.4,0,0.8V69h-0.8v-2.9c0-0.3,0-0.6-0.1-0.7c-0.1-0.2-0.2-0.3-0.3-0.4
						c-0.2-0.1-0.3-0.1-0.6-0.1c-0.3,0-0.6,0.1-0.9,0.3c-0.2,0.2-0.4,0.6-0.4,1.2V69H154.5z"/>
					<path d="M159.5,70.9l-0.1-0.8c0.2,0,0.3,0.1,0.5,0.1c0.2,0,0.3,0,0.4-0.1c0.1-0.1,0.2-0.1,0.3-0.3c0.1-0.1,0.1-0.3,0.2-0.6
						c0,0,0-0.1,0.1-0.2l-1.8-4.8h0.9l1,2.8c0.1,0.3,0.2,0.7,0.3,1.1c0.1-0.4,0.2-0.7,0.3-1.1l1-2.8h0.8l-1.8,4.8
						c-0.2,0.5-0.3,0.9-0.5,1.1c-0.1,0.3-0.3,0.5-0.5,0.6c-0.2,0.1-0.4,0.2-0.7,0.2C159.9,71,159.7,70.9,159.5,70.9z"/>
				</g>
			</g>
			<g>
				<path d="M70.5,67.9v1.2h-4.6c0-0.5,0.2-0.9,0.4-1.3c0.2-0.4,0.7-1,1.5-1.6c0.6-0.5,1-0.9,1.1-1.1c0.2-0.3,0.3-0.5,0.3-0.8
					c0-0.3-0.1-0.5-0.2-0.7c-0.2-0.2-0.4-0.2-0.6-0.2c-0.3,0-0.5,0.1-0.7,0.2c-0.2,0.2-0.3,0.4-0.3,0.8l-1.3-0.1
					c0.1-0.7,0.3-1.2,0.7-1.6c0.4-0.3,0.9-0.5,1.5-0.5c0.7,0,1.2,0.2,1.6,0.5c0.4,0.4,0.6,0.8,0.6,1.4c0,0.3-0.1,0.6-0.2,0.9
					c-0.1,0.3-0.3,0.6-0.5,0.9c-0.2,0.2-0.4,0.5-0.9,0.9c-0.4,0.4-0.7,0.6-0.8,0.8c-0.1,0.1-0.2,0.2-0.3,0.4H70.5z"/>
				<path d="M73.6,62.2c0.7,0,1.2,0.2,1.6,0.7c0.4,0.6,0.7,1.5,0.7,2.8c0,1.3-0.2,2.2-0.7,2.8c-0.4,0.5-0.9,0.7-1.5,0.7
					c-0.7,0-1.2-0.3-1.6-0.8c-0.4-0.5-0.6-1.4-0.6-2.7c0-1.3,0.2-2.2,0.7-2.8C72.4,62.5,72.9,62.2,73.6,62.2z M73.6,63.3
					c-0.2,0-0.3,0.1-0.4,0.2c-0.1,0.1-0.2,0.3-0.3,0.5c-0.1,0.3-0.1,0.9-0.1,1.7c0,0.8,0,1.4,0.1,1.7c0.1,0.3,0.2,0.5,0.3,0.6
					c0.1,0.1,0.3,0.1,0.4,0.1c0.2,0,0.3-0.1,0.4-0.2c0.1-0.1,0.2-0.3,0.3-0.5c0.1-0.3,0.1-0.9,0.1-1.7c0-0.8,0-1.4-0.1-1.7
					c-0.1-0.3-0.2-0.5-0.3-0.6C73.9,63.4,73.7,63.3,73.6,63.3z"/>
				<path d="M80,69.1h-1.3v-4.9c-0.5,0.4-1,0.8-1.7,1V64c0.3-0.1,0.7-0.3,1.1-0.6c0.4-0.3,0.7-0.7,0.8-1.1H80V69.1z"/>
				<path d="M82,67.3l1.3-0.1c0,0.3,0.1,0.5,0.3,0.7c0.2,0.2,0.4,0.3,0.6,0.3c0.3,0,0.5-0.1,0.7-0.3c0.2-0.2,0.3-0.6,0.3-1
					c0-0.4-0.1-0.7-0.3-0.9c-0.2-0.2-0.4-0.3-0.7-0.3c-0.4,0-0.7,0.2-1,0.5l-1.1-0.2l0.7-3.6h3.5v1.2h-2.5l-0.2,1.2
					c0.3-0.1,0.6-0.2,0.9-0.2c0.6,0,1.1,0.2,1.5,0.6c0.4,0.4,0.6,1,0.6,1.6c0,0.6-0.2,1.1-0.5,1.5c-0.4,0.6-1.1,0.9-1.8,0.9
					c-0.6,0-1.1-0.2-1.5-0.5C82.3,68.4,82.1,67.9,82,67.3z"/>
			</g>
		</g>
	</g>
	<rect y="0" class="st2" width="178" height="74"/>
</g>
</svg>
