<?xml version="1.0" encoding="utf-8"?>
<!-- Generator: Adobe Illustrator 26.0.1, SVG Export Plug-In . SVG Version: 6.00 Build 0)  -->
<svg version="1.1" id="Layer_1" xmlns="http://www.w3.org/2000/svg" xmlns:xlink="http://www.w3.org/1999/xlink" x="0px" y="0px"
	 viewBox="0 0 250 250" style="enable-background:new 0 0 250 250;" xml:space="preserve">
<style type="text/css">
	.st0{clip-path:url(#SVGID_00000012466992515587494920000016870267074485238420_);}
	.st1{fill:#FFFFFF;}
	.st2{fill:#035397;}
	.st3{enable-background:new    ;}
	.st4{fill:#F1F1F1;}
</style>
<g>
	<defs>
		<rect id="SVGID_1_" y="0" width="250" height="250"/>
	</defs>
	<clipPath id="SVGID_00000018928014950480689650000004387964585821011878_">
		<use xlink:href="#SVGID_1_"  style="overflow:visible;"/>
	</clipPath>
	<g id="Google-Sketchup" style="clip-path:url(#SVGID_00000018928014950480689650000004387964585821011878_);">
		<rect y="0" class="st1" width="250" height="250"/>
		<path id="Rectangle_1" class="st2" d="M7,0h236c3.9,0,7,3.1,7,7v236c0,3.9-3.1,7-7,7H7c-3.9,0-7-3.1-7-7V7C0,3.1,3.1,0,7,0z"/>
		<g class="st3">
			<path class="st4" d="M51.5,31.1c-0.9,0-1.8-0.2-2.6-0.6c-0.8-0.4-1.5-1-2.1-1.6c-0.6-0.7-1.1-1.5-1.4-2.3
				c-0.3-0.9-0.5-1.8-0.5-2.7c0-1,0.2-1.9,0.5-2.7c0.3-0.9,0.8-1.6,1.4-2.3c0.6-0.7,1.3-1.2,2.1-1.6c0.8-0.4,1.7-0.6,2.6-0.6
				c1.4,0,2.5,0.3,3.4,0.9c0.9,0.6,1.6,1.3,2,2.2l-1.4,1c-0.4-0.8-1-1.4-1.7-1.8c-0.7-0.4-1.5-0.6-2.4-0.6c-0.7,0-1.4,0.2-2,0.5
				C49,19.1,48.5,19.5,48,20s-0.7,1.1-1,1.8c-0.2,0.7-0.3,1.4-0.3,2.1c0,0.8,0.1,1.5,0.4,2.1c0.2,0.7,0.6,1.3,1,1.8
				c0.5,0.5,1,0.9,1.6,1.2s1.2,0.4,1.9,0.4c0.8,0,1.6-0.2,2.3-0.6s1.4-1,2.1-1.9v1.9C54.8,30.3,53.3,31.1,51.5,31.1z M55.9,25.3
				h-3.1v-1.4h4.6V31h-1.5V25.3z"/>
			<path class="st4" d="M64.4,31.2c-0.8,0-1.5-0.1-2.1-0.4c-0.6-0.3-1.2-0.7-1.7-1.2c-0.5-0.5-0.8-1.1-1.1-1.7
				c-0.3-0.6-0.4-1.3-0.4-2c0-0.7,0.1-1.4,0.4-2.1c0.3-0.6,0.6-1.2,1.1-1.7c0.5-0.5,1-0.9,1.7-1.2c0.6-0.3,1.4-0.4,2.1-0.4
				c0.8,0,1.5,0.1,2.1,0.4c0.6,0.3,1.2,0.7,1.7,1.2c0.5,0.5,0.8,1.1,1.1,1.7s0.4,1.3,0.4,2.1c0,0.7-0.1,1.4-0.4,2s-0.6,1.2-1.1,1.7
				s-1,0.9-1.7,1.2C65.9,31.1,65.2,31.2,64.4,31.2z M60.9,25.9c0,0.7,0.2,1.4,0.5,1.9c0.3,0.6,0.7,1,1.2,1.4
				c0.5,0.3,1.1,0.5,1.7,0.5s1.2-0.2,1.8-0.5c0.5-0.3,0.9-0.8,1.3-1.4c0.3-0.6,0.5-1.2,0.5-1.9s-0.2-1.4-0.5-1.9
				c-0.3-0.6-0.7-1-1.3-1.4C65.6,22.2,65,22,64.4,22s-1.2,0.2-1.7,0.5c-0.5,0.3-0.9,0.8-1.2,1.4C61.1,24.5,60.9,25.1,60.9,25.9z"/>
			<path class="st4" d="M76.4,31.2c-0.8,0-1.5-0.1-2.1-0.4c-0.6-0.3-1.2-0.7-1.7-1.2c-0.5-0.5-0.8-1.1-1.1-1.7
				c-0.3-0.6-0.4-1.3-0.4-2c0-0.7,0.1-1.4,0.4-2.1c0.3-0.6,0.6-1.2,1.1-1.7c0.5-0.5,1-0.9,1.7-1.2c0.6-0.3,1.4-0.4,2.1-0.4
				c0.8,0,1.5,0.1,2.1,0.4c0.6,0.3,1.2,0.7,1.7,1.2c0.5,0.5,0.8,1.1,1.1,1.7s0.4,1.3,0.4,2.1c0,0.7-0.1,1.4-0.4,2s-0.6,1.2-1.1,1.7
				s-1,0.9-1.7,1.2C77.9,31.1,77.2,31.2,76.4,31.2z M72.9,25.9c0,0.7,0.2,1.4,0.5,1.9c0.3,0.6,0.7,1,1.2,1.4
				c0.5,0.3,1.1,0.5,1.7,0.5s1.2-0.2,1.8-0.5c0.5-0.3,0.9-0.8,1.3-1.4c0.3-0.6,0.5-1.2,0.5-1.9s-0.2-1.4-0.5-1.9
				c-0.3-0.6-0.7-1-1.3-1.4C77.6,22.2,77,22,76.4,22s-1.2,0.2-1.7,0.5c-0.5,0.3-0.9,0.8-1.2,1.4C73.1,24.5,72.9,25.1,72.9,25.9z"/>
			<path class="st4" d="M88,31.2c-0.7,0-1.4-0.1-2-0.4c-0.6-0.3-1.1-0.7-1.5-1.2c-0.4-0.5-0.8-1.1-1-1.7s-0.4-1.3-0.4-2
				c0-0.7,0.1-1.4,0.4-2.1s0.6-1.2,1-1.7s0.9-0.9,1.5-1.2c0.6-0.3,1.2-0.4,2-0.4c0.9,0,1.6,0.2,2.3,0.6c0.6,0.4,1.2,1,1.6,1.6v-2.1
				h1.6v10.3c0,1-0.2,1.8-0.7,2.5c-0.5,0.7-1.1,1.2-1.9,1.5c-0.8,0.4-1.7,0.5-2.7,0.5c-1.2,0-2.1-0.2-2.9-0.6s-1.4-1-1.9-1.7l1-0.9
				c0.4,0.6,1,1.1,1.6,1.4c0.7,0.3,1.4,0.5,2.1,0.5c0.6,0,1.2-0.1,1.8-0.3c0.5-0.2,1-0.6,1.3-1c0.3-0.5,0.5-1.1,0.5-1.8v-1.8
				c-0.4,0.6-0.9,1.1-1.6,1.5S88.7,31.2,88,31.2z M88.5,29.8c0.4,0,0.7-0.1,1.1-0.2c0.3-0.1,0.7-0.3,1-0.5c0.3-0.2,0.5-0.5,0.7-0.8
				c0.2-0.3,0.3-0.6,0.4-0.9v-3c-0.2-0.5-0.5-0.9-0.8-1.3c-0.3-0.4-0.7-0.7-1.2-0.9S88.8,22,88.3,22c-0.5,0-1,0.1-1.4,0.3
				c-0.4,0.2-0.8,0.5-1.1,0.9c-0.3,0.4-0.5,0.8-0.7,1.3c-0.2,0.5-0.2,0.9-0.2,1.4c0,0.5,0.1,1,0.3,1.5s0.4,0.9,0.8,1.2
				c0.3,0.4,0.7,0.6,1.1,0.8C87.5,29.7,88,29.8,88.5,29.8z"/>
			<path class="st4" d="M96.3,16.4h1.8v12c0,0.6,0.1,0.9,0.2,1.1s0.4,0.2,0.6,0.2c0.3,0,0.5,0,0.8-0.1c0.3-0.1,0.5-0.1,0.6-0.2
				l0.3,1.4c-0.3,0.1-0.6,0.2-1,0.3c-0.4,0.1-0.8,0.1-1.1,0.1c-0.7,0-1.2-0.2-1.6-0.6c-0.4-0.4-0.6-0.9-0.6-1.6V16.4z"/>
			<path class="st4" d="M106.6,31.2c-0.8,0-1.5-0.1-2.1-0.4c-0.6-0.3-1.2-0.7-1.7-1.2c-0.5-0.5-0.8-1.1-1.1-1.7
				c-0.3-0.6-0.4-1.3-0.4-2.1c0-1,0.2-1.9,0.7-2.7c0.5-0.8,1.1-1.5,1.9-1.9c0.8-0.5,1.7-0.7,2.8-0.7c1.1,0,2,0.2,2.8,0.7
				c0.8,0.5,1.4,1.1,1.8,1.9c0.4,0.8,0.6,1.7,0.6,2.6c0,0.1,0,0.3,0,0.4c0,0.1,0,0.2,0,0.3h-8.7c0.1,0.7,0.2,1.3,0.6,1.8
				c0.3,0.5,0.8,0.9,1.3,1.2c0.5,0.3,1.1,0.4,1.7,0.4c0.6,0,1.2-0.2,1.8-0.5c0.6-0.3,1-0.7,1.2-1.3l1.5,0.4c-0.2,0.5-0.6,1-1,1.4
				s-1,0.7-1.6,0.9C108,31.1,107.3,31.2,106.6,31.2z M103.1,25.2h7.1c-0.1-0.7-0.2-1.3-0.6-1.8c-0.3-0.5-0.8-0.9-1.3-1.2
				s-1.1-0.4-1.7-0.4c-0.6,0-1.2,0.1-1.7,0.4s-0.9,0.7-1.3,1.2S103.2,24.5,103.1,25.2z"/>
			<path class="st4" d="M127.5,19.8c-0.2-0.2-0.4-0.4-0.6-0.5c-0.3-0.2-0.6-0.3-0.9-0.5c-0.3-0.1-0.7-0.3-1.1-0.3
				c-0.4-0.1-0.8-0.1-1.2-0.1c-1.1,0-1.9,0.2-2.4,0.6c-0.5,0.4-0.8,1-0.8,1.7c0,0.5,0.1,0.9,0.4,1.2c0.3,0.3,0.7,0.5,1.2,0.7
				c0.6,0.2,1.3,0.4,2.1,0.6c1,0.2,1.8,0.5,2.6,0.8s1.3,0.7,1.7,1.2c0.4,0.5,0.6,1.2,0.6,2c0,0.7-0.1,1.3-0.4,1.8
				c-0.3,0.5-0.6,0.9-1.1,1.2c-0.5,0.3-1,0.6-1.6,0.7c-0.6,0.2-1.3,0.2-2,0.2c-0.7,0-1.4-0.1-2.1-0.2c-0.7-0.2-1.3-0.4-2-0.7
				s-1.2-0.7-1.7-1.1l0.9-1.5c0.2,0.2,0.5,0.5,0.8,0.7s0.7,0.4,1.2,0.6c0.4,0.2,0.9,0.3,1.4,0.4c0.5,0.1,1,0.2,1.6,0.2
				c1,0,1.8-0.2,2.4-0.5c0.6-0.4,0.8-0.9,0.8-1.6c0-0.5-0.2-1-0.5-1.3c-0.3-0.3-0.8-0.6-1.4-0.8c-0.6-0.2-1.4-0.4-2.2-0.6
				c-1-0.2-1.8-0.5-2.4-0.8c-0.7-0.3-1.1-0.7-1.5-1.1c-0.3-0.5-0.5-1.1-0.5-1.8c0-0.9,0.2-1.7,0.7-2.3c0.4-0.6,1-1.1,1.8-1.4
				c0.8-0.3,1.6-0.5,2.6-0.5c0.6,0,1.2,0.1,1.8,0.2c0.6,0.1,1.1,0.3,1.6,0.6c0.5,0.2,0.9,0.5,1.3,0.9L127.5,19.8z"/>
			<path class="st4" d="M138.4,31l-3.6-5.1l-2,1.9V31h-1.8V16.4h1.8V26l5.4-5.3h1.9l-4.2,4.3l4.4,6.1H138.4z"/>
			<path class="st4" d="M145.9,31.2c-0.8,0-1.5-0.1-2.2-0.4c-0.6-0.3-1.2-0.7-1.7-1.2c-0.5-0.5-0.8-1.1-1.1-1.7
				c-0.3-0.6-0.4-1.3-0.4-2.1c0-1,0.2-1.9,0.7-2.7c0.5-0.8,1.1-1.5,1.9-1.9c0.8-0.5,1.7-0.7,2.8-0.7c1.1,0,2,0.2,2.8,0.7
				s1.4,1.1,1.8,1.9c0.4,0.8,0.6,1.7,0.6,2.6c0,0.1,0,0.3,0,0.4s0,0.2,0,0.3h-8.7c0.1,0.7,0.2,1.3,0.6,1.8c0.3,0.5,0.8,0.9,1.3,1.2
				c0.5,0.3,1.1,0.4,1.7,0.4c0.6,0,1.2-0.2,1.8-0.5c0.6-0.3,1-0.7,1.2-1.3l1.5,0.4c-0.2,0.5-0.6,1-1,1.4c-0.4,0.4-1,0.7-1.6,0.9
				S146.6,31.2,145.9,31.2z M142.4,25.2h7.1c-0.1-0.7-0.2-1.3-0.6-1.8s-0.8-0.9-1.3-1.2c-0.5-0.3-1.1-0.4-1.7-0.4
				c-0.6,0-1.2,0.1-1.7,0.4c-0.5,0.3-0.9,0.7-1.3,1.2C142.6,23.9,142.5,24.5,142.4,25.2z"/>
			<path class="st4" d="M158.4,30.5c-0.1,0.1-0.3,0.2-0.6,0.3c-0.3,0.1-0.5,0.2-0.9,0.3c-0.3,0.1-0.7,0.1-1.1,0.1
				c-0.4,0-0.8-0.1-1.2-0.2c-0.4-0.2-0.6-0.4-0.9-0.7c-0.2-0.3-0.3-0.7-0.3-1.2v-7h-1.4v-1.4h1.4v-3.5h1.8v3.5h2.3V22h-2.3v6.5
				c0,0.4,0.2,0.6,0.4,0.8c0.2,0.2,0.5,0.3,0.8,0.3c0.3,0,0.7-0.1,1-0.2c0.3-0.1,0.5-0.2,0.6-0.3L158.4,30.5z"/>
			<path class="st4" d="M164.5,31.2c-0.8,0-1.5-0.1-2.2-0.4c-0.6-0.3-1.2-0.7-1.7-1.2c-0.5-0.5-0.8-1.1-1.1-1.7
				c-0.3-0.6-0.4-1.3-0.4-2.1c0-1,0.2-1.9,0.7-2.7c0.4-0.8,1.1-1.5,1.9-1.9c0.8-0.5,1.7-0.7,2.8-0.7c1,0,1.9,0.2,2.7,0.7
				s1.3,1.1,1.7,1.8l-1.7,0.5c-0.3-0.5-0.6-0.9-1.1-1.2c-0.5-0.3-1-0.4-1.6-0.4c-0.6,0-1.2,0.2-1.8,0.5s-0.9,0.8-1.2,1.4
				s-0.5,1.2-0.5,2c0,0.7,0.2,1.4,0.5,2c0.3,0.6,0.7,1.1,1.3,1.4c0.5,0.3,1.1,0.5,1.8,0.5c0.4,0,0.8-0.1,1.2-0.2s0.7-0.3,1-0.6
				c0.3-0.2,0.5-0.5,0.6-0.8l1.7,0.5c-0.2,0.5-0.5,1-1,1.3c-0.4,0.4-0.9,0.7-1.5,0.9C165.9,31.1,165.2,31.2,164.5,31.2z"/>
			<path class="st4" d="M180.1,31h-1.8v-5.8c0-1.1-0.2-1.8-0.6-2.4c-0.4-0.5-0.9-0.8-1.6-0.8c-0.5,0-0.9,0.1-1.4,0.4
				c-0.5,0.2-0.9,0.6-1.2,1c-0.3,0.4-0.6,0.9-0.8,1.4V31H171V16.4h1.8v6.5c0.4-0.7,1-1.3,1.7-1.8s1.5-0.6,2.3-0.6
				c0.6,0,1.1,0.1,1.6,0.3c0.4,0.2,0.8,0.5,1,0.9c0.3,0.4,0.4,0.9,0.6,1.4c0.1,0.5,0.2,1.1,0.2,1.7V31z"/>
			<path class="st4" d="M182.7,26.8v-6.2h1.8v5.9c0,1.1,0.2,1.9,0.6,2.4c0.4,0.5,0.9,0.8,1.7,0.8c0.5,0,0.9-0.1,1.4-0.3
				c0.4-0.2,0.8-0.5,1.2-0.9c0.4-0.4,0.6-0.8,0.8-1.4v-6.5h1.8V29c0,0.2,0,0.4,0.1,0.5c0.1,0.1,0.2,0.2,0.4,0.2V31
				c-0.2,0-0.4,0-0.5,0s-0.2,0-0.3,0c-0.3,0-0.6-0.1-0.9-0.3c-0.2-0.2-0.4-0.5-0.4-0.8l0-1.2c-0.5,0.8-1.1,1.4-1.8,1.8
				c-0.8,0.4-1.6,0.6-2.5,0.6c-1.1,0-1.9-0.4-2.5-1.1C183,29.4,182.7,28.3,182.7,26.8z"/>
			<path class="st4" d="M200.4,31.2c-0.9,0-1.6-0.2-2.3-0.6c-0.7-0.4-1.2-1-1.6-1.6v6.3h-1.8V20.6h1.6v2c0.4-0.6,1-1.1,1.6-1.5
				s1.4-0.6,2.2-0.6c0.7,0,1.4,0.1,2,0.4c0.6,0.3,1.1,0.7,1.6,1.2c0.4,0.5,0.8,1.1,1,1.7c0.2,0.6,0.4,1.3,0.4,2c0,1-0.2,1.9-0.6,2.7
				c-0.4,0.8-0.9,1.5-1.7,2S201.4,31.2,200.4,31.2z M199.9,29.7c0.5,0,1-0.1,1.4-0.3s0.8-0.5,1.1-0.9c0.3-0.4,0.5-0.8,0.7-1.2
				s0.2-0.9,0.2-1.4c0-0.5-0.1-1-0.3-1.5c-0.2-0.5-0.4-0.9-0.8-1.2s-0.7-0.6-1.1-0.8c-0.4-0.2-0.9-0.3-1.4-0.3c-0.3,0-0.7,0.1-1,0.2
				c-0.3,0.1-0.7,0.3-1,0.5c-0.3,0.2-0.6,0.5-0.8,0.7c-0.2,0.3-0.4,0.6-0.4,0.9v3c0.2,0.4,0.5,0.9,0.8,1.2s0.7,0.7,1.2,0.9
				C199,29.6,199.4,29.7,199.9,29.7z"/>
		</g>
		<g id="Group_282" transform="translate(55.657 67.726)">
			<path id="Path_428" class="st4" d="M138.6,33.1l-49-28.3c0,0-7.8-4.5-20.2-4.5C56.5,0.3,49,5,49,5L3.6,31l69.1,39.7V151l45.5-26
				c0,0,8.1-4.5,14.3-15.2c3.3-5.7,5.4-12,6.1-18.5L138.6,33.1L138.6,33.1z M64.6,46.2c0,0,10.1-1.9,18.7,3.1S97,57.1,97,57.1
				s0,6.9,0,17.2c0,8.2-7,16.8-7,16.8l0-30.2L64.6,46.2z M104.8,112.5L90,121v-8l11.5-6.6c7.7-5.5,12.4-14.2,12.8-23.6l0-35.8
				L82.9,28.9c0,0-4.8-3.1-13.4-3.1s-13.3,2.9-13.3,2.9l-11,6.3l-7-4l15.2-8.7c0,0,6-3.3,16-3.3c5.6,0,11.2,1.3,16.3,3.6l35.5,20.5
				l0,39.1C121.5,88.2,118.7,102.9,104.8,112.5z"/>
			<path id="Path_429" class="st4" d="M0.1,57l48.4,27.8l0,8.3L20.9,77.3L3.6,87.1L48.5,113l0,8L0.4,93.3c0.1,3.2,3.1,13.2,8.7,21
				c3.2,4.5,7.4,8.3,12.2,11.1L65.8,151V74.7L0.1,37L0.1,57z"/>
		</g>
	</g>
</g>
</svg>
