<?xml version="1.0" encoding="utf-8"?>
<!-- Generator: Adobe Illustrator 26.0.1, SVG Export Plug-In . SVG Version: 6.00 Build 0)  -->
<svg version="1.1" id="Layer_1" xmlns="http://www.w3.org/2000/svg" xmlns:xlink="http://www.w3.org/1999/xlink" x="0px" y="0px"
	 viewBox="0 0 250 250" style="enable-background:new 0 0 250 250;" xml:space="preserve">
<style type="text/css">
	.st0{clip-path:url(#SVGID_00000155119371623255555240000012181761967763803819_);}
	.st1{fill:#FFFFFF;}
	.st2{fill:#035397;}
	.st3{enable-background:new    ;}
	.st4{fill:#F1F1F1;}
	.st5{fill:#757575;}
	.st6{fill:#CACACA;}
	.st7{fill:#EAEAEA;}
	.st8{fill:#EEEEEE;}
	.st9{fill:#1A1818;}
</style>
<g>
	<defs>
		<rect id="SVGID_1_" y="0" width="250" height="250"/>
	</defs>
	<clipPath id="SVGID_00000067211729613755095000000008314850363418712246_">
		<use xlink:href="#SVGID_1_"  style="overflow:visible;"/>
	</clipPath>
	<g id="Revit-Architecture" style="clip-path:url(#SVGID_00000067211729613755095000000008314850363418712246_);">
		<rect y="0" class="st1" width="250" height="250"/>
		<path id="Rectangle_1" class="st2" d="M7,0h236c3.9,0,7,3.1,7,7v236c0,3.9-3.1,7-7,7H7c-3.9,0-7-3.1-7-7V7C0,3.1,3.1,0,7,0z"/>
		<g class="st3">
			<path class="st4" d="M43.2,31V16.8h6.1c0.6,0,1.2,0.1,1.7,0.4c0.5,0.3,1,0.6,1.4,1c0.4,0.4,0.7,0.9,0.9,1.5s0.3,1.1,0.3,1.6
				c0,0.7-0.1,1.3-0.4,1.9c-0.2,0.6-0.6,1.1-1,1.5s-1,0.7-1.6,0.9l3.4,5.4h-2l-3.2-5.1H45V31H43.2z M45,24.3h4.3
				c0.5,0,0.9-0.1,1.3-0.4c0.4-0.3,0.7-0.6,0.9-1.1c0.2-0.5,0.3-0.9,0.3-1.5c0-0.5-0.1-1-0.4-1.5c-0.2-0.4-0.6-0.8-0.9-1.1
				s-0.8-0.4-1.3-0.4H45V24.3z"/>
			<path class="st4" d="M60.4,31.2c-0.8,0-1.5-0.1-2.1-0.4c-0.6-0.3-1.2-0.7-1.7-1.2c-0.5-0.5-0.8-1.1-1.1-1.7
				c-0.3-0.6-0.4-1.3-0.4-2.1c0-1,0.2-1.9,0.7-2.7c0.5-0.8,1.1-1.5,1.9-1.9c0.8-0.5,1.7-0.7,2.8-0.7c1.1,0,2,0.2,2.8,0.7
				c0.8,0.5,1.4,1.1,1.8,1.9c0.4,0.8,0.6,1.7,0.6,2.6c0,0.1,0,0.3,0,0.4c0,0.1,0,0.2,0,0.3h-8.7c0.1,0.7,0.2,1.3,0.6,1.8
				c0.3,0.5,0.8,0.9,1.3,1.2c0.5,0.3,1.1,0.4,1.7,0.4c0.6,0,1.2-0.2,1.8-0.5c0.6-0.3,1-0.7,1.2-1.3l1.5,0.4c-0.2,0.5-0.6,1-1,1.4
				s-1,0.7-1.6,0.9C61.7,31.1,61.1,31.2,60.4,31.2z M56.8,25.2H64c-0.1-0.7-0.2-1.3-0.6-1.8c-0.3-0.5-0.8-0.9-1.3-1.2
				s-1.1-0.4-1.7-0.4c-0.6,0-1.2,0.1-1.7,0.4s-0.9,0.7-1.3,1.2S56.9,24.5,56.8,25.2z"/>
			<path class="st4" d="M70.3,31l-4.1-10.4H68l3.3,8.7l3.3-8.7h1.7L72.2,31H70.3z"/>
			<path class="st4" d="M78.1,18.6v-2.2h1.8v2.2H78.1z M78.1,31V20.6h1.8V31H78.1z"/>
			<path class="st4" d="M88.1,30.5c-0.1,0.1-0.3,0.2-0.6,0.3c-0.3,0.1-0.5,0.2-0.9,0.3s-0.7,0.1-1.1,0.1c-0.4,0-0.8-0.1-1.2-0.2
				s-0.6-0.4-0.9-0.7c-0.2-0.3-0.3-0.7-0.3-1.2v-7h-1.4v-1.4h1.4v-3.5h1.8v3.5h2.3V22h-2.3v6.5c0,0.4,0.2,0.6,0.4,0.8
				c0.2,0.2,0.5,0.3,0.8,0.3c0.3,0,0.7-0.1,1-0.2c0.3-0.1,0.5-0.2,0.6-0.3L88.1,30.5z"/>
			<path class="st4" d="M98.7,16.8h1.5l5.8,14.2h-1.9l-1.6-4.2h-6.1L94.8,31h-1.9L98.7,16.8z M102,25.4l-2.5-6.6L97,25.4H102z"/>
			<path class="st4" d="M113.2,22.1c-0.9,0-1.7,0.2-2.3,0.7c-0.7,0.4-1.1,1-1.4,1.8V31h-1.8V20.6h1.6V23c0.4-0.7,0.8-1.3,1.4-1.8
				c0.6-0.4,1.2-0.7,1.9-0.8c0.1,0,0.2,0,0.3,0c0.1,0,0.2,0,0.2,0V22.1z"/>
			<path class="st4" d="M119.3,31.2c-0.8,0-1.5-0.1-2.1-0.4c-0.6-0.3-1.2-0.7-1.7-1.2c-0.5-0.5-0.8-1.1-1.1-1.7
				c-0.3-0.6-0.4-1.3-0.4-2.1c0-1,0.2-1.9,0.7-2.7s1.1-1.5,1.9-1.9c0.8-0.5,1.7-0.7,2.8-0.7c1,0,1.9,0.2,2.7,0.7s1.3,1.1,1.7,1.8
				l-1.7,0.5c-0.3-0.5-0.6-0.9-1.1-1.2c-0.5-0.3-1-0.4-1.6-0.4c-0.6,0-1.2,0.2-1.8,0.5c-0.5,0.3-0.9,0.8-1.2,1.4s-0.5,1.2-0.5,2
				c0,0.7,0.2,1.4,0.5,2c0.3,0.6,0.7,1.1,1.3,1.4c0.5,0.3,1.1,0.5,1.8,0.5c0.4,0,0.8-0.1,1.2-0.2s0.7-0.3,1-0.6s0.5-0.5,0.6-0.8
				l1.7,0.5c-0.2,0.5-0.5,1-1,1.3c-0.4,0.4-0.9,0.7-1.5,0.9C120.7,31.1,120,31.2,119.3,31.2z"/>
			<path class="st4" d="M134.8,31h-1.8v-5.8c0-1.1-0.2-1.8-0.6-2.4c-0.4-0.5-0.9-0.8-1.6-0.8c-0.5,0-0.9,0.1-1.4,0.4
				c-0.5,0.2-0.9,0.6-1.2,1c-0.3,0.4-0.6,0.9-0.8,1.4V31h-1.8V16.4h1.8v6.5c0.4-0.7,1-1.3,1.7-1.8c0.7-0.4,1.5-0.6,2.3-0.6
				c0.6,0,1.2,0.1,1.6,0.3c0.4,0.2,0.8,0.5,1,0.9c0.3,0.4,0.4,0.9,0.5,1.4c0.1,0.5,0.2,1.1,0.2,1.7V31z"/>
			<path class="st4" d="M137.6,18.6v-2.2h1.8v2.2H137.6z M137.6,31V20.6h1.8V31H137.6z"/>
			<path class="st4" d="M147.6,30.5c-0.1,0.1-0.3,0.2-0.6,0.3c-0.3,0.1-0.5,0.2-0.9,0.3c-0.3,0.1-0.7,0.1-1.1,0.1
				c-0.4,0-0.8-0.1-1.2-0.2c-0.4-0.2-0.6-0.4-0.9-0.7c-0.2-0.3-0.3-0.7-0.3-1.2v-7h-1.4v-1.4h1.4v-3.5h1.8v3.5h2.3V22h-2.3v6.5
				c0,0.4,0.2,0.6,0.4,0.8c0.2,0.2,0.5,0.3,0.8,0.3c0.3,0,0.7-0.1,1-0.2c0.3-0.1,0.5-0.2,0.6-0.3L147.6,30.5z"/>
			<path class="st4" d="M153.7,31.2c-0.8,0-1.5-0.1-2.2-0.4c-0.6-0.3-1.2-0.7-1.7-1.2c-0.5-0.5-0.8-1.1-1.1-1.7
				c-0.3-0.6-0.4-1.3-0.4-2.1c0-1,0.2-1.9,0.7-2.7c0.5-0.8,1.1-1.5,1.9-1.9c0.8-0.5,1.7-0.7,2.8-0.7c1.1,0,2,0.2,2.8,0.7
				s1.4,1.1,1.8,1.9c0.4,0.8,0.6,1.7,0.6,2.6c0,0.1,0,0.3,0,0.4s0,0.2,0,0.3h-8.7c0.1,0.7,0.2,1.3,0.6,1.8c0.3,0.5,0.8,0.9,1.3,1.2
				c0.5,0.3,1.1,0.4,1.7,0.4c0.6,0,1.2-0.2,1.8-0.5c0.6-0.3,1-0.7,1.2-1.3l1.5,0.4c-0.2,0.5-0.6,1-1,1.4c-0.4,0.4-1,0.7-1.6,0.9
				S154.4,31.2,153.7,31.2z M150.2,25.2h7.1c-0.1-0.7-0.2-1.3-0.6-1.8s-0.8-0.9-1.3-1.2c-0.5-0.3-1.1-0.4-1.7-0.4
				c-0.6,0-1.2,0.1-1.7,0.4c-0.5,0.3-0.9,0.7-1.3,1.2C150.4,23.9,150.2,24.5,150.2,25.2z"/>
			<path class="st4" d="M165.5,31.2c-0.8,0-1.5-0.1-2.1-0.4c-0.6-0.3-1.2-0.7-1.7-1.2s-0.8-1.1-1.1-1.7s-0.4-1.3-0.4-2.1
				c0-1,0.2-1.9,0.7-2.7c0.4-0.8,1.1-1.5,1.9-1.9s1.7-0.7,2.8-0.7c1,0,1.9,0.2,2.7,0.7s1.3,1.1,1.7,1.8l-1.7,0.5
				c-0.3-0.5-0.6-0.9-1.1-1.2c-0.5-0.3-1-0.4-1.6-0.4c-0.6,0-1.2,0.2-1.8,0.5c-0.5,0.3-0.9,0.8-1.2,1.4s-0.5,1.2-0.5,2
				c0,0.7,0.2,1.4,0.5,2c0.3,0.6,0.7,1.1,1.3,1.4c0.5,0.3,1.1,0.5,1.8,0.5c0.4,0,0.8-0.1,1.2-0.2s0.7-0.3,1-0.6
				c0.3-0.2,0.5-0.5,0.6-0.8l1.7,0.5c-0.2,0.5-0.5,1-1,1.3c-0.4,0.4-0.9,0.7-1.5,0.9C166.9,31.1,166.2,31.2,165.5,31.2z"/>
			<path class="st4" d="M177.4,30.5c-0.1,0.1-0.3,0.2-0.6,0.3c-0.3,0.1-0.5,0.2-0.9,0.3c-0.3,0.1-0.7,0.1-1.1,0.1
				c-0.4,0-0.8-0.1-1.2-0.2c-0.4-0.2-0.6-0.4-0.9-0.7c-0.2-0.3-0.3-0.7-0.3-1.2v-7h-1.4v-1.4h1.4v-3.5h1.8v3.5h2.3V22h-2.3v6.5
				c0,0.4,0.2,0.6,0.4,0.8c0.2,0.2,0.5,0.3,0.8,0.3c0.3,0,0.7-0.1,1-0.2c0.3-0.1,0.5-0.2,0.6-0.3L177.4,30.5z"/>
			<path class="st4" d="M178.9,26.8v-6.2h1.8v5.9c0,1.1,0.2,1.9,0.6,2.4c0.4,0.5,0.9,0.8,1.7,0.8c0.5,0,0.9-0.1,1.4-0.3
				c0.4-0.2,0.9-0.5,1.2-0.9c0.4-0.4,0.6-0.8,0.8-1.4v-6.5h1.8V29c0,0.2,0,0.4,0.1,0.5c0.1,0.1,0.2,0.2,0.4,0.2V31
				c-0.2,0-0.4,0-0.5,0s-0.2,0-0.3,0c-0.3,0-0.6-0.1-0.9-0.3c-0.2-0.2-0.4-0.5-0.4-0.8l0-1.2c-0.5,0.8-1.1,1.4-1.8,1.8
				c-0.8,0.4-1.6,0.6-2.5,0.6c-1.1,0-1.9-0.4-2.5-1.1C179.2,29.4,178.9,28.3,178.9,26.8z"/>
			<path class="st4" d="M196.6,22.1c-0.9,0-1.7,0.2-2.3,0.7c-0.7,0.4-1.1,1-1.4,1.8V31H191V20.6h1.6V23c0.4-0.7,0.8-1.3,1.4-1.8
				c0.6-0.4,1.2-0.7,1.9-0.8c0.1,0,0.2,0,0.3,0c0.1,0,0.2,0,0.2,0V22.1z"/>
			<path class="st4" d="M202.7,31.2c-0.8,0-1.5-0.1-2.1-0.4c-0.6-0.3-1.2-0.7-1.7-1.2s-0.8-1.1-1.1-1.7s-0.4-1.3-0.4-2.1
				c0-1,0.2-1.9,0.7-2.7c0.5-0.8,1.1-1.5,1.9-1.9c0.8-0.5,1.7-0.7,2.8-0.7c1.1,0,2,0.2,2.8,0.7c0.8,0.5,1.4,1.1,1.8,1.9
				c0.4,0.8,0.7,1.7,0.7,2.6c0,0.1,0,0.3,0,0.4c0,0.1,0,0.2,0,0.3h-8.7c0.1,0.7,0.2,1.3,0.6,1.8c0.3,0.5,0.8,0.9,1.3,1.2
				c0.5,0.3,1.1,0.4,1.7,0.4c0.6,0,1.2-0.2,1.8-0.5c0.6-0.3,1-0.7,1.2-1.3l1.5,0.4c-0.2,0.5-0.6,1-1,1.4c-0.4,0.4-1,0.7-1.6,0.9
				C204.1,31.1,203.4,31.2,202.7,31.2z M199.2,25.2h7.1c-0.1-0.7-0.2-1.3-0.6-1.8c-0.3-0.5-0.8-0.9-1.3-1.2
				c-0.5-0.3-1.1-0.4-1.7-0.4c-0.6,0-1.2,0.1-1.7,0.4c-0.5,0.3-0.9,0.7-1.3,1.2C199.4,23.9,199.2,24.5,199.2,25.2z"/>
		</g>
		<g id="Group_276" transform="translate(-65.973 -166.206)">
			<g id="Group_275" transform="translate(115.973 235.205)">
				<path id="Rectangle_10" class="st5" d="M14,26.2h136l0,0v112l0,0H17.6c-1.9,0-3.5-1.6-3.5-3.5V26.2L14,26.2z"/>
				<path id="Rectangle_11" class="st6" d="M24.7,0h111.5c2.7,0,4.8,2.2,4.8,4.8l0,0v107.9l0,0H24.7l0,0V0L24.7,0z"/>
				<path id="Path_335" class="st7" d="M0,128.3l24.7-15.5V0L0,15.5V128.3z"/>
				<g id="Group_262" transform="translate(58.649 24.302)">
					<path id="Path_336" class="st8" d="M50,53.8v9.5c-2,1-4.1,1.4-6.3,1.4c-2.7,0.1-5.3-0.6-7.7-1.9c-2.1-1.2-4-3.5-5.6-6.9
						l-7.6-15.4h-7v22.8H0V0h24c4.1-0.1,8.2,0.6,12.1,2.1c3.2,1.2,6,3.3,8,6c1.9,2.7,2.9,5.9,2.8,9.1v5.7c0,3-0.9,5.9-2.7,8.2
						c-1.9,2.5-4.5,4.6-7.4,6L44,50.4c0.5,1.1,1.2,2,2.2,2.6c1,0.6,2.1,0.9,3.2,0.8L50,53.8z M15.8,30.1h6.9
						c2.2,0.1,4.4-0.6,6.1-1.9c1.6-1.4,2.4-3.5,2.3-5.6v-4.5c0.1-2.1-0.7-4.1-2.3-5.4c-1.8-1.3-3.9-2-6.1-1.9h-6.9L15.8,30.1z"/>
				</g>
				<g id="Group_267" transform="translate(57.229 115.34)">
					<path id="Path_353" class="st9" d="M5.9,12.3H3.2v7H0V1.6h6C7.5,1.5,9.1,2,10.4,2.9c1.1,0.8,1.7,2.1,1.7,3.4v1.3
						c0,0.9-0.3,1.8-0.8,2.5c-0.6,0.8-1.4,1.3-2.4,1.6l4.1,7.6H9.5L5.9,12.3z M3.2,10h2.7c0.8,0,1.6-0.2,2.3-0.6
						C8.7,8.9,9,8.2,8.9,7.5V6.5c0-0.7-0.3-1.4-0.8-1.8C7.4,4.2,6.6,4,5.8,4H3.2L3.2,10z"/>
					<path id="Path_354" class="st9" d="M26.4,13.6h-8.7c-0.1,1,0.3,2,0.9,2.8c0.7,0.6,1.7,1,2.7,0.9c0.6,0,1.2-0.1,1.8-0.3
						c0.6-0.2,1.2-0.5,1.8-0.8l1.1,1.9c-1.4,1-3.1,1.6-4.9,1.6c-1.2,0-2.4-0.3-3.4-0.8c-0.9-0.5-1.7-1.3-2.2-2.3
						c-0.5-1-0.8-2.1-0.8-3.3v-1.4c0-1.1,0.2-2.3,0.7-3.3c0.5-0.9,1.2-1.7,2.1-2.3c1-0.6,2.1-0.9,3.2-0.8C22.3,5.4,23.8,6,25,7.2
						c1.1,1.4,1.6,3.1,1.5,4.9C26.5,12.6,26.4,13.1,26.4,13.6z M23.7,11.4c0.1-1-0.2-1.9-0.8-2.7c-0.6-0.6-1.4-1-2.2-0.9
						c-0.8-0.1-1.6,0.3-2.2,0.9c-0.6,0.8-0.8,1.8-0.8,2.8h6V11.4z"/>
					<path id="Path_355" class="st9" d="M36.5,19.3h-3.9L28.2,5.9h3.3l3.1,11l3.1-11h3.1L36.5,19.3z"/>
					<path id="Path_356" class="st9" d="M47.3,19.3h-3.1V8.2h-2V5.9h5.1L47.3,19.3z M44.3,3.2c-0.4-0.3-0.6-0.8-0.6-1.3
						c0-1,0.8-1.9,1.8-1.9c1,0,1.9,0.8,1.9,1.8c0,0,0,0.1,0,0.1c0,0.5-0.2,1-0.6,1.3C46.2,4,45,4,44.3,3.2L44.3,3.2z"/>
					<path id="Path_357" class="st9" d="M58.7,19.3c-0.8,0.2-1.6,0.3-2.3,0.3c-1.1,0.1-2.2-0.2-3-0.9c-0.7-0.7-1.1-1.7-1-2.8V8.2h-2
						V5.9h2.1l0.3-3.3h2.8v3.3h2.9v2.3h-2.9v7.6c0,0.4,0.1,0.8,0.4,1.1c0.4,0.3,0.8,0.4,1.2,0.4c0.4,0,0.9,0,1.3-0.1L58.7,19.3z"/>
				</g>
			</g>
		</g>
	</g>
</g>
</svg>
